G04 #@! TF.GenerationSoftware,KiCad,Pcbnew,9.0.1*
G04 #@! TF.CreationDate,2025-04-25T12:08:24+05:30*
G04 #@! TF.ProjectId,esp32_quad_baro_bootser_nousb_BMP,65737033-325f-4717-9561-645f6261726f,rev?*
G04 #@! TF.SameCoordinates,Original*
G04 #@! TF.FileFunction,Legend,Top*
G04 #@! TF.FilePolarity,Positive*
%FSLAX46Y46*%
G04 Gerber Fmt 4.6, Leading zero omitted, Abs format (unit mm)*
G04 Created by KiCad (PCBNEW 9.0.1) date 2025-04-25 12:08:24*
%MOMM*%
%LPD*%
G01*
G04 APERTURE LIST*
%ADD10C,0.050000*%
%ADD11C,0.150000*%
%ADD12C,0.125000*%
%ADD13C,0.200000*%
%ADD14C,0.250000*%
%ADD15C,0.300000*%
%ADD16C,0.700000*%
%ADD17C,0.062500*%
%ADD18C,0.087500*%
%ADD19C,0.254000*%
%ADD20C,0.100000*%
%ADD21C,0.203200*%
%ADD22C,0.120000*%
%ADD23C,0.127000*%
G04 #@! TA.AperFunction,Profile*
%ADD24C,0.025400*%
G04 #@! TD*
G04 APERTURE END LIST*
D10*
X110066703Y-94088447D02*
X109933370Y-93897971D01*
X109838132Y-94088447D02*
X109838132Y-93688447D01*
X109838132Y-93688447D02*
X109990513Y-93688447D01*
X109990513Y-93688447D02*
X110028608Y-93707495D01*
X110028608Y-93707495D02*
X110047655Y-93726542D01*
X110047655Y-93726542D02*
X110066703Y-93764638D01*
X110066703Y-93764638D02*
X110066703Y-93821780D01*
X110066703Y-93821780D02*
X110047655Y-93859876D01*
X110047655Y-93859876D02*
X110028608Y-93878923D01*
X110028608Y-93878923D02*
X109990513Y-93897971D01*
X109990513Y-93897971D02*
X109838132Y-93897971D01*
X110447655Y-94088447D02*
X110219084Y-94088447D01*
X110333370Y-94088447D02*
X110333370Y-93688447D01*
X110333370Y-93688447D02*
X110295274Y-93745590D01*
X110295274Y-93745590D02*
X110257179Y-93783685D01*
X110257179Y-93783685D02*
X110219084Y-93802733D01*
X110676226Y-93859876D02*
X110638131Y-93840828D01*
X110638131Y-93840828D02*
X110619084Y-93821780D01*
X110619084Y-93821780D02*
X110600036Y-93783685D01*
X110600036Y-93783685D02*
X110600036Y-93764638D01*
X110600036Y-93764638D02*
X110619084Y-93726542D01*
X110619084Y-93726542D02*
X110638131Y-93707495D01*
X110638131Y-93707495D02*
X110676226Y-93688447D01*
X110676226Y-93688447D02*
X110752417Y-93688447D01*
X110752417Y-93688447D02*
X110790512Y-93707495D01*
X110790512Y-93707495D02*
X110809560Y-93726542D01*
X110809560Y-93726542D02*
X110828607Y-93764638D01*
X110828607Y-93764638D02*
X110828607Y-93783685D01*
X110828607Y-93783685D02*
X110809560Y-93821780D01*
X110809560Y-93821780D02*
X110790512Y-93840828D01*
X110790512Y-93840828D02*
X110752417Y-93859876D01*
X110752417Y-93859876D02*
X110676226Y-93859876D01*
X110676226Y-93859876D02*
X110638131Y-93878923D01*
X110638131Y-93878923D02*
X110619084Y-93897971D01*
X110619084Y-93897971D02*
X110600036Y-93936066D01*
X110600036Y-93936066D02*
X110600036Y-94012257D01*
X110600036Y-94012257D02*
X110619084Y-94050352D01*
X110619084Y-94050352D02*
X110638131Y-94069400D01*
X110638131Y-94069400D02*
X110676226Y-94088447D01*
X110676226Y-94088447D02*
X110752417Y-94088447D01*
X110752417Y-94088447D02*
X110790512Y-94069400D01*
X110790512Y-94069400D02*
X110809560Y-94050352D01*
X110809560Y-94050352D02*
X110828607Y-94012257D01*
X110828607Y-94012257D02*
X110828607Y-93936066D01*
X110828607Y-93936066D02*
X110809560Y-93897971D01*
X110809560Y-93897971D02*
X110790512Y-93878923D01*
X110790512Y-93878923D02*
X110752417Y-93859876D01*
D11*
X145716087Y-100349809D02*
X145008980Y-99642702D01*
X145008980Y-99642702D02*
X145177339Y-99474343D01*
X145177339Y-99474343D02*
X145312026Y-99407000D01*
X145312026Y-99407000D02*
X145446713Y-99407000D01*
X145446713Y-99407000D02*
X145547728Y-99440671D01*
X145547728Y-99440671D02*
X145716087Y-99541687D01*
X145716087Y-99541687D02*
X145817102Y-99642702D01*
X145817102Y-99642702D02*
X145918117Y-99811061D01*
X145918117Y-99811061D02*
X145951789Y-99912076D01*
X145951789Y-99912076D02*
X145951789Y-100046763D01*
X145951789Y-100046763D02*
X145884445Y-100181450D01*
X145884445Y-100181450D02*
X145716087Y-100349809D01*
X146052804Y-98598878D02*
X145716087Y-98935595D01*
X145716087Y-98935595D02*
X146019132Y-99305984D01*
X146019132Y-99305984D02*
X146019132Y-99238641D01*
X146019132Y-99238641D02*
X146052804Y-99137626D01*
X146052804Y-99137626D02*
X146221163Y-98969267D01*
X146221163Y-98969267D02*
X146322178Y-98935595D01*
X146322178Y-98935595D02*
X146389522Y-98935595D01*
X146389522Y-98935595D02*
X146490537Y-98969267D01*
X146490537Y-98969267D02*
X146658896Y-99137626D01*
X146658896Y-99137626D02*
X146692567Y-99238641D01*
X146692567Y-99238641D02*
X146692567Y-99305984D01*
X146692567Y-99305984D02*
X146658896Y-99407000D01*
X146658896Y-99407000D02*
X146490537Y-99575358D01*
X146490537Y-99575358D02*
X146389522Y-99609030D01*
X146389522Y-99609030D02*
X146322178Y-99609030D01*
D12*
X130870331Y-93331119D02*
X130870331Y-94140642D01*
X130870331Y-94140642D02*
X130917950Y-94235880D01*
X130917950Y-94235880D02*
X130965569Y-94283500D01*
X130965569Y-94283500D02*
X131060807Y-94331119D01*
X131060807Y-94331119D02*
X131251283Y-94331119D01*
X131251283Y-94331119D02*
X131346521Y-94283500D01*
X131346521Y-94283500D02*
X131394140Y-94235880D01*
X131394140Y-94235880D02*
X131441759Y-94140642D01*
X131441759Y-94140642D02*
X131441759Y-93331119D01*
X132060807Y-93759690D02*
X131965569Y-93712071D01*
X131965569Y-93712071D02*
X131917950Y-93664452D01*
X131917950Y-93664452D02*
X131870331Y-93569214D01*
X131870331Y-93569214D02*
X131870331Y-93521595D01*
X131870331Y-93521595D02*
X131917950Y-93426357D01*
X131917950Y-93426357D02*
X131965569Y-93378738D01*
X131965569Y-93378738D02*
X132060807Y-93331119D01*
X132060807Y-93331119D02*
X132251283Y-93331119D01*
X132251283Y-93331119D02*
X132346521Y-93378738D01*
X132346521Y-93378738D02*
X132394140Y-93426357D01*
X132394140Y-93426357D02*
X132441759Y-93521595D01*
X132441759Y-93521595D02*
X132441759Y-93569214D01*
X132441759Y-93569214D02*
X132394140Y-93664452D01*
X132394140Y-93664452D02*
X132346521Y-93712071D01*
X132346521Y-93712071D02*
X132251283Y-93759690D01*
X132251283Y-93759690D02*
X132060807Y-93759690D01*
X132060807Y-93759690D02*
X131965569Y-93807309D01*
X131965569Y-93807309D02*
X131917950Y-93854928D01*
X131917950Y-93854928D02*
X131870331Y-93950166D01*
X131870331Y-93950166D02*
X131870331Y-94140642D01*
X131870331Y-94140642D02*
X131917950Y-94235880D01*
X131917950Y-94235880D02*
X131965569Y-94283500D01*
X131965569Y-94283500D02*
X132060807Y-94331119D01*
X132060807Y-94331119D02*
X132251283Y-94331119D01*
X132251283Y-94331119D02*
X132346521Y-94283500D01*
X132346521Y-94283500D02*
X132394140Y-94235880D01*
X132394140Y-94235880D02*
X132441759Y-94140642D01*
X132441759Y-94140642D02*
X132441759Y-93950166D01*
X132441759Y-93950166D02*
X132394140Y-93854928D01*
X132394140Y-93854928D02*
X132346521Y-93807309D01*
X132346521Y-93807309D02*
X132251283Y-93759690D01*
D10*
X135666703Y-84318447D02*
X135533370Y-84127971D01*
X135438132Y-84318447D02*
X135438132Y-83918447D01*
X135438132Y-83918447D02*
X135590513Y-83918447D01*
X135590513Y-83918447D02*
X135628608Y-83937495D01*
X135628608Y-83937495D02*
X135647655Y-83956542D01*
X135647655Y-83956542D02*
X135666703Y-83994638D01*
X135666703Y-83994638D02*
X135666703Y-84051780D01*
X135666703Y-84051780D02*
X135647655Y-84089876D01*
X135647655Y-84089876D02*
X135628608Y-84108923D01*
X135628608Y-84108923D02*
X135590513Y-84127971D01*
X135590513Y-84127971D02*
X135438132Y-84127971D01*
X136047655Y-84318447D02*
X135819084Y-84318447D01*
X135933370Y-84318447D02*
X135933370Y-83918447D01*
X135933370Y-83918447D02*
X135895274Y-83975590D01*
X135895274Y-83975590D02*
X135857179Y-84013685D01*
X135857179Y-84013685D02*
X135819084Y-84032733D01*
X136200036Y-83956542D02*
X136219084Y-83937495D01*
X136219084Y-83937495D02*
X136257179Y-83918447D01*
X136257179Y-83918447D02*
X136352417Y-83918447D01*
X136352417Y-83918447D02*
X136390512Y-83937495D01*
X136390512Y-83937495D02*
X136409560Y-83956542D01*
X136409560Y-83956542D02*
X136428607Y-83994638D01*
X136428607Y-83994638D02*
X136428607Y-84032733D01*
X136428607Y-84032733D02*
X136409560Y-84089876D01*
X136409560Y-84089876D02*
X136180988Y-84318447D01*
X136180988Y-84318447D02*
X136428607Y-84318447D01*
X150836703Y-79258447D02*
X150703370Y-79067971D01*
X150608132Y-79258447D02*
X150608132Y-78858447D01*
X150608132Y-78858447D02*
X150760513Y-78858447D01*
X150760513Y-78858447D02*
X150798608Y-78877495D01*
X150798608Y-78877495D02*
X150817655Y-78896542D01*
X150817655Y-78896542D02*
X150836703Y-78934638D01*
X150836703Y-78934638D02*
X150836703Y-78991780D01*
X150836703Y-78991780D02*
X150817655Y-79029876D01*
X150817655Y-79029876D02*
X150798608Y-79048923D01*
X150798608Y-79048923D02*
X150760513Y-79067971D01*
X150760513Y-79067971D02*
X150608132Y-79067971D01*
X150989084Y-78896542D02*
X151008132Y-78877495D01*
X151008132Y-78877495D02*
X151046227Y-78858447D01*
X151046227Y-78858447D02*
X151141465Y-78858447D01*
X151141465Y-78858447D02*
X151179560Y-78877495D01*
X151179560Y-78877495D02*
X151198608Y-78896542D01*
X151198608Y-78896542D02*
X151217655Y-78934638D01*
X151217655Y-78934638D02*
X151217655Y-78972733D01*
X151217655Y-78972733D02*
X151198608Y-79029876D01*
X151198608Y-79029876D02*
X150970036Y-79258447D01*
X150970036Y-79258447D02*
X151217655Y-79258447D01*
X151465274Y-78858447D02*
X151503369Y-78858447D01*
X151503369Y-78858447D02*
X151541465Y-78877495D01*
X151541465Y-78877495D02*
X151560512Y-78896542D01*
X151560512Y-78896542D02*
X151579560Y-78934638D01*
X151579560Y-78934638D02*
X151598607Y-79010828D01*
X151598607Y-79010828D02*
X151598607Y-79106066D01*
X151598607Y-79106066D02*
X151579560Y-79182257D01*
X151579560Y-79182257D02*
X151560512Y-79220352D01*
X151560512Y-79220352D02*
X151541465Y-79239400D01*
X151541465Y-79239400D02*
X151503369Y-79258447D01*
X151503369Y-79258447D02*
X151465274Y-79258447D01*
X151465274Y-79258447D02*
X151427179Y-79239400D01*
X151427179Y-79239400D02*
X151408131Y-79220352D01*
X151408131Y-79220352D02*
X151389084Y-79182257D01*
X151389084Y-79182257D02*
X151370036Y-79106066D01*
X151370036Y-79106066D02*
X151370036Y-79010828D01*
X151370036Y-79010828D02*
X151389084Y-78934638D01*
X151389084Y-78934638D02*
X151408131Y-78896542D01*
X151408131Y-78896542D02*
X151427179Y-78877495D01*
X151427179Y-78877495D02*
X151465274Y-78858447D01*
D13*
X130402054Y-80561695D02*
X130402054Y-81209314D01*
X130402054Y-81209314D02*
X130440149Y-81285504D01*
X130440149Y-81285504D02*
X130478244Y-81323600D01*
X130478244Y-81323600D02*
X130554435Y-81361695D01*
X130554435Y-81361695D02*
X130706816Y-81361695D01*
X130706816Y-81361695D02*
X130783006Y-81323600D01*
X130783006Y-81323600D02*
X130821101Y-81285504D01*
X130821101Y-81285504D02*
X130859197Y-81209314D01*
X130859197Y-81209314D02*
X130859197Y-80561695D01*
X131278244Y-81361695D02*
X131430625Y-81361695D01*
X131430625Y-81361695D02*
X131506815Y-81323600D01*
X131506815Y-81323600D02*
X131544911Y-81285504D01*
X131544911Y-81285504D02*
X131621101Y-81171219D01*
X131621101Y-81171219D02*
X131659196Y-81018838D01*
X131659196Y-81018838D02*
X131659196Y-80714076D01*
X131659196Y-80714076D02*
X131621101Y-80637885D01*
X131621101Y-80637885D02*
X131583006Y-80599790D01*
X131583006Y-80599790D02*
X131506815Y-80561695D01*
X131506815Y-80561695D02*
X131354434Y-80561695D01*
X131354434Y-80561695D02*
X131278244Y-80599790D01*
X131278244Y-80599790D02*
X131240149Y-80637885D01*
X131240149Y-80637885D02*
X131202053Y-80714076D01*
X131202053Y-80714076D02*
X131202053Y-80904552D01*
X131202053Y-80904552D02*
X131240149Y-80980742D01*
X131240149Y-80980742D02*
X131278244Y-81018838D01*
X131278244Y-81018838D02*
X131354434Y-81056933D01*
X131354434Y-81056933D02*
X131506815Y-81056933D01*
X131506815Y-81056933D02*
X131583006Y-81018838D01*
X131583006Y-81018838D02*
X131621101Y-80980742D01*
X131621101Y-80980742D02*
X131659196Y-80904552D01*
D10*
X111253296Y-90791552D02*
X111386629Y-90982028D01*
X111481867Y-90791552D02*
X111481867Y-91191552D01*
X111481867Y-91191552D02*
X111329486Y-91191552D01*
X111329486Y-91191552D02*
X111291391Y-91172504D01*
X111291391Y-91172504D02*
X111272344Y-91153457D01*
X111272344Y-91153457D02*
X111253296Y-91115361D01*
X111253296Y-91115361D02*
X111253296Y-91058219D01*
X111253296Y-91058219D02*
X111272344Y-91020123D01*
X111272344Y-91020123D02*
X111291391Y-91001076D01*
X111291391Y-91001076D02*
X111329486Y-90982028D01*
X111329486Y-90982028D02*
X111481867Y-90982028D01*
X110872344Y-90791552D02*
X111100915Y-90791552D01*
X110986629Y-90791552D02*
X110986629Y-91191552D01*
X110986629Y-91191552D02*
X111024725Y-91134409D01*
X111024725Y-91134409D02*
X111062820Y-91096314D01*
X111062820Y-91096314D02*
X111100915Y-91077266D01*
X110510439Y-91191552D02*
X110700915Y-91191552D01*
X110700915Y-91191552D02*
X110719963Y-91001076D01*
X110719963Y-91001076D02*
X110700915Y-91020123D01*
X110700915Y-91020123D02*
X110662820Y-91039171D01*
X110662820Y-91039171D02*
X110567582Y-91039171D01*
X110567582Y-91039171D02*
X110529487Y-91020123D01*
X110529487Y-91020123D02*
X110510439Y-91001076D01*
X110510439Y-91001076D02*
X110491392Y-90962980D01*
X110491392Y-90962980D02*
X110491392Y-90867742D01*
X110491392Y-90867742D02*
X110510439Y-90829647D01*
X110510439Y-90829647D02*
X110529487Y-90810600D01*
X110529487Y-90810600D02*
X110567582Y-90791552D01*
X110567582Y-90791552D02*
X110662820Y-90791552D01*
X110662820Y-90791552D02*
X110700915Y-90810600D01*
X110700915Y-90810600D02*
X110719963Y-90829647D01*
D12*
X145021119Y-90153954D02*
X145735404Y-90153954D01*
X145735404Y-90153954D02*
X145878261Y-90201573D01*
X145878261Y-90201573D02*
X145973500Y-90296811D01*
X145973500Y-90296811D02*
X146021119Y-90439668D01*
X146021119Y-90439668D02*
X146021119Y-90534906D01*
X146021119Y-89630144D02*
X146021119Y-89439668D01*
X146021119Y-89439668D02*
X145973500Y-89344430D01*
X145973500Y-89344430D02*
X145925880Y-89296811D01*
X145925880Y-89296811D02*
X145783023Y-89201573D01*
X145783023Y-89201573D02*
X145592547Y-89153954D01*
X145592547Y-89153954D02*
X145211595Y-89153954D01*
X145211595Y-89153954D02*
X145116357Y-89201573D01*
X145116357Y-89201573D02*
X145068738Y-89249192D01*
X145068738Y-89249192D02*
X145021119Y-89344430D01*
X145021119Y-89344430D02*
X145021119Y-89534906D01*
X145021119Y-89534906D02*
X145068738Y-89630144D01*
X145068738Y-89630144D02*
X145116357Y-89677763D01*
X145116357Y-89677763D02*
X145211595Y-89725382D01*
X145211595Y-89725382D02*
X145449690Y-89725382D01*
X145449690Y-89725382D02*
X145544928Y-89677763D01*
X145544928Y-89677763D02*
X145592547Y-89630144D01*
X145592547Y-89630144D02*
X145640166Y-89534906D01*
X145640166Y-89534906D02*
X145640166Y-89344430D01*
X145640166Y-89344430D02*
X145592547Y-89249192D01*
X145592547Y-89249192D02*
X145544928Y-89201573D01*
X145544928Y-89201573D02*
X145449690Y-89153954D01*
D10*
X144696703Y-105700352D02*
X144677655Y-105719400D01*
X144677655Y-105719400D02*
X144620513Y-105738447D01*
X144620513Y-105738447D02*
X144582417Y-105738447D01*
X144582417Y-105738447D02*
X144525274Y-105719400D01*
X144525274Y-105719400D02*
X144487179Y-105681304D01*
X144487179Y-105681304D02*
X144468132Y-105643209D01*
X144468132Y-105643209D02*
X144449084Y-105567019D01*
X144449084Y-105567019D02*
X144449084Y-105509876D01*
X144449084Y-105509876D02*
X144468132Y-105433685D01*
X144468132Y-105433685D02*
X144487179Y-105395590D01*
X144487179Y-105395590D02*
X144525274Y-105357495D01*
X144525274Y-105357495D02*
X144582417Y-105338447D01*
X144582417Y-105338447D02*
X144620513Y-105338447D01*
X144620513Y-105338447D02*
X144677655Y-105357495D01*
X144677655Y-105357495D02*
X144696703Y-105376542D01*
X144887179Y-105738447D02*
X144963370Y-105738447D01*
X144963370Y-105738447D02*
X145001465Y-105719400D01*
X145001465Y-105719400D02*
X145020513Y-105700352D01*
X145020513Y-105700352D02*
X145058608Y-105643209D01*
X145058608Y-105643209D02*
X145077655Y-105567019D01*
X145077655Y-105567019D02*
X145077655Y-105414638D01*
X145077655Y-105414638D02*
X145058608Y-105376542D01*
X145058608Y-105376542D02*
X145039560Y-105357495D01*
X145039560Y-105357495D02*
X145001465Y-105338447D01*
X145001465Y-105338447D02*
X144925274Y-105338447D01*
X144925274Y-105338447D02*
X144887179Y-105357495D01*
X144887179Y-105357495D02*
X144868132Y-105376542D01*
X144868132Y-105376542D02*
X144849084Y-105414638D01*
X144849084Y-105414638D02*
X144849084Y-105509876D01*
X144849084Y-105509876D02*
X144868132Y-105547971D01*
X144868132Y-105547971D02*
X144887179Y-105567019D01*
X144887179Y-105567019D02*
X144925274Y-105586066D01*
X144925274Y-105586066D02*
X145001465Y-105586066D01*
X145001465Y-105586066D02*
X145039560Y-105567019D01*
X145039560Y-105567019D02*
X145058608Y-105547971D01*
X145058608Y-105547971D02*
X145077655Y-105509876D01*
X132106703Y-78868447D02*
X131973370Y-78677971D01*
X131878132Y-78868447D02*
X131878132Y-78468447D01*
X131878132Y-78468447D02*
X132030513Y-78468447D01*
X132030513Y-78468447D02*
X132068608Y-78487495D01*
X132068608Y-78487495D02*
X132087655Y-78506542D01*
X132087655Y-78506542D02*
X132106703Y-78544638D01*
X132106703Y-78544638D02*
X132106703Y-78601780D01*
X132106703Y-78601780D02*
X132087655Y-78639876D01*
X132087655Y-78639876D02*
X132068608Y-78658923D01*
X132068608Y-78658923D02*
X132030513Y-78677971D01*
X132030513Y-78677971D02*
X131878132Y-78677971D01*
X132487655Y-78868447D02*
X132259084Y-78868447D01*
X132373370Y-78868447D02*
X132373370Y-78468447D01*
X132373370Y-78468447D02*
X132335274Y-78525590D01*
X132335274Y-78525590D02*
X132297179Y-78563685D01*
X132297179Y-78563685D02*
X132259084Y-78582733D01*
X132620988Y-78468447D02*
X132868607Y-78468447D01*
X132868607Y-78468447D02*
X132735274Y-78620828D01*
X132735274Y-78620828D02*
X132792417Y-78620828D01*
X132792417Y-78620828D02*
X132830512Y-78639876D01*
X132830512Y-78639876D02*
X132849560Y-78658923D01*
X132849560Y-78658923D02*
X132868607Y-78697019D01*
X132868607Y-78697019D02*
X132868607Y-78792257D01*
X132868607Y-78792257D02*
X132849560Y-78830352D01*
X132849560Y-78830352D02*
X132830512Y-78849400D01*
X132830512Y-78849400D02*
X132792417Y-78868447D01*
X132792417Y-78868447D02*
X132678131Y-78868447D01*
X132678131Y-78868447D02*
X132640036Y-78849400D01*
X132640036Y-78849400D02*
X132620988Y-78830352D01*
X109871391Y-90821552D02*
X110061867Y-90821552D01*
X110061867Y-90821552D02*
X110061867Y-91221552D01*
X109738057Y-91031076D02*
X109604724Y-91031076D01*
X109547581Y-90821552D02*
X109738057Y-90821552D01*
X109738057Y-90821552D02*
X109738057Y-91221552D01*
X109738057Y-91221552D02*
X109547581Y-91221552D01*
X109376152Y-90821552D02*
X109376152Y-91221552D01*
X109376152Y-91221552D02*
X109280914Y-91221552D01*
X109280914Y-91221552D02*
X109223771Y-91202504D01*
X109223771Y-91202504D02*
X109185676Y-91164409D01*
X109185676Y-91164409D02*
X109166629Y-91126314D01*
X109166629Y-91126314D02*
X109147581Y-91050123D01*
X109147581Y-91050123D02*
X109147581Y-90992980D01*
X109147581Y-90992980D02*
X109166629Y-90916790D01*
X109166629Y-90916790D02*
X109185676Y-90878695D01*
X109185676Y-90878695D02*
X109223771Y-90840600D01*
X109223771Y-90840600D02*
X109280914Y-90821552D01*
X109280914Y-90821552D02*
X109376152Y-90821552D01*
X108804724Y-91088219D02*
X108804724Y-90821552D01*
X108899962Y-91240600D02*
X108995200Y-90954885D01*
X108995200Y-90954885D02*
X108747581Y-90954885D01*
X141160352Y-107933296D02*
X141179400Y-107952344D01*
X141179400Y-107952344D02*
X141198447Y-108009486D01*
X141198447Y-108009486D02*
X141198447Y-108047582D01*
X141198447Y-108047582D02*
X141179400Y-108104725D01*
X141179400Y-108104725D02*
X141141304Y-108142820D01*
X141141304Y-108142820D02*
X141103209Y-108161867D01*
X141103209Y-108161867D02*
X141027019Y-108180915D01*
X141027019Y-108180915D02*
X140969876Y-108180915D01*
X140969876Y-108180915D02*
X140893685Y-108161867D01*
X140893685Y-108161867D02*
X140855590Y-108142820D01*
X140855590Y-108142820D02*
X140817495Y-108104725D01*
X140817495Y-108104725D02*
X140798447Y-108047582D01*
X140798447Y-108047582D02*
X140798447Y-108009486D01*
X140798447Y-108009486D02*
X140817495Y-107952344D01*
X140817495Y-107952344D02*
X140836542Y-107933296D01*
X141198447Y-107552344D02*
X141198447Y-107780915D01*
X141198447Y-107666629D02*
X140798447Y-107666629D01*
X140798447Y-107666629D02*
X140855590Y-107704725D01*
X140855590Y-107704725D02*
X140893685Y-107742820D01*
X140893685Y-107742820D02*
X140912733Y-107780915D01*
X140798447Y-107304725D02*
X140798447Y-107266630D01*
X140798447Y-107266630D02*
X140817495Y-107228534D01*
X140817495Y-107228534D02*
X140836542Y-107209487D01*
X140836542Y-107209487D02*
X140874638Y-107190439D01*
X140874638Y-107190439D02*
X140950828Y-107171392D01*
X140950828Y-107171392D02*
X141046066Y-107171392D01*
X141046066Y-107171392D02*
X141122257Y-107190439D01*
X141122257Y-107190439D02*
X141160352Y-107209487D01*
X141160352Y-107209487D02*
X141179400Y-107228534D01*
X141179400Y-107228534D02*
X141198447Y-107266630D01*
X141198447Y-107266630D02*
X141198447Y-107304725D01*
X141198447Y-107304725D02*
X141179400Y-107342820D01*
X141179400Y-107342820D02*
X141160352Y-107361868D01*
X141160352Y-107361868D02*
X141122257Y-107380915D01*
X141122257Y-107380915D02*
X141046066Y-107399963D01*
X141046066Y-107399963D02*
X140950828Y-107399963D01*
X140950828Y-107399963D02*
X140874638Y-107380915D01*
X140874638Y-107380915D02*
X140836542Y-107361868D01*
X140836542Y-107361868D02*
X140817495Y-107342820D01*
X140817495Y-107342820D02*
X140798447Y-107304725D01*
X110926703Y-79488447D02*
X110793370Y-79297971D01*
X110698132Y-79488447D02*
X110698132Y-79088447D01*
X110698132Y-79088447D02*
X110850513Y-79088447D01*
X110850513Y-79088447D02*
X110888608Y-79107495D01*
X110888608Y-79107495D02*
X110907655Y-79126542D01*
X110907655Y-79126542D02*
X110926703Y-79164638D01*
X110926703Y-79164638D02*
X110926703Y-79221780D01*
X110926703Y-79221780D02*
X110907655Y-79259876D01*
X110907655Y-79259876D02*
X110888608Y-79278923D01*
X110888608Y-79278923D02*
X110850513Y-79297971D01*
X110850513Y-79297971D02*
X110698132Y-79297971D01*
X111307655Y-79488447D02*
X111079084Y-79488447D01*
X111193370Y-79488447D02*
X111193370Y-79088447D01*
X111193370Y-79088447D02*
X111155274Y-79145590D01*
X111155274Y-79145590D02*
X111117179Y-79183685D01*
X111117179Y-79183685D02*
X111079084Y-79202733D01*
X111498131Y-79488447D02*
X111574322Y-79488447D01*
X111574322Y-79488447D02*
X111612417Y-79469400D01*
X111612417Y-79469400D02*
X111631465Y-79450352D01*
X111631465Y-79450352D02*
X111669560Y-79393209D01*
X111669560Y-79393209D02*
X111688607Y-79317019D01*
X111688607Y-79317019D02*
X111688607Y-79164638D01*
X111688607Y-79164638D02*
X111669560Y-79126542D01*
X111669560Y-79126542D02*
X111650512Y-79107495D01*
X111650512Y-79107495D02*
X111612417Y-79088447D01*
X111612417Y-79088447D02*
X111536226Y-79088447D01*
X111536226Y-79088447D02*
X111498131Y-79107495D01*
X111498131Y-79107495D02*
X111479084Y-79126542D01*
X111479084Y-79126542D02*
X111460036Y-79164638D01*
X111460036Y-79164638D02*
X111460036Y-79259876D01*
X111460036Y-79259876D02*
X111479084Y-79297971D01*
X111479084Y-79297971D02*
X111498131Y-79317019D01*
X111498131Y-79317019D02*
X111536226Y-79336066D01*
X111536226Y-79336066D02*
X111612417Y-79336066D01*
X111612417Y-79336066D02*
X111650512Y-79317019D01*
X111650512Y-79317019D02*
X111669560Y-79297971D01*
X111669560Y-79297971D02*
X111688607Y-79259876D01*
D12*
X110942525Y-100868880D02*
X110371097Y-100868880D01*
X110656811Y-99868880D02*
X110656811Y-100868880D01*
X109513954Y-99868880D02*
X110085382Y-99868880D01*
X109799668Y-99868880D02*
X109799668Y-100868880D01*
X109799668Y-100868880D02*
X109894906Y-100726023D01*
X109894906Y-100726023D02*
X109990144Y-100630785D01*
X109990144Y-100630785D02*
X110085382Y-100583166D01*
D10*
X147596703Y-91018447D02*
X147463370Y-90827971D01*
X147368132Y-91018447D02*
X147368132Y-90618447D01*
X147368132Y-90618447D02*
X147520513Y-90618447D01*
X147520513Y-90618447D02*
X147558608Y-90637495D01*
X147558608Y-90637495D02*
X147577655Y-90656542D01*
X147577655Y-90656542D02*
X147596703Y-90694638D01*
X147596703Y-90694638D02*
X147596703Y-90751780D01*
X147596703Y-90751780D02*
X147577655Y-90789876D01*
X147577655Y-90789876D02*
X147558608Y-90808923D01*
X147558608Y-90808923D02*
X147520513Y-90827971D01*
X147520513Y-90827971D02*
X147368132Y-90827971D01*
X147749084Y-90656542D02*
X147768132Y-90637495D01*
X147768132Y-90637495D02*
X147806227Y-90618447D01*
X147806227Y-90618447D02*
X147901465Y-90618447D01*
X147901465Y-90618447D02*
X147939560Y-90637495D01*
X147939560Y-90637495D02*
X147958608Y-90656542D01*
X147958608Y-90656542D02*
X147977655Y-90694638D01*
X147977655Y-90694638D02*
X147977655Y-90732733D01*
X147977655Y-90732733D02*
X147958608Y-90789876D01*
X147958608Y-90789876D02*
X147730036Y-91018447D01*
X147730036Y-91018447D02*
X147977655Y-91018447D01*
X148358607Y-91018447D02*
X148130036Y-91018447D01*
X148244322Y-91018447D02*
X148244322Y-90618447D01*
X148244322Y-90618447D02*
X148206226Y-90675590D01*
X148206226Y-90675590D02*
X148168131Y-90713685D01*
X148168131Y-90713685D02*
X148130036Y-90732733D01*
D13*
X109468304Y-76157768D02*
X109468304Y-76614911D01*
X108668304Y-76386339D02*
X109468304Y-76386339D01*
X109392114Y-76843482D02*
X109430209Y-76881578D01*
X109430209Y-76881578D02*
X109468304Y-76957768D01*
X109468304Y-76957768D02*
X109468304Y-77148244D01*
X109468304Y-77148244D02*
X109430209Y-77224435D01*
X109430209Y-77224435D02*
X109392114Y-77262530D01*
X109392114Y-77262530D02*
X109315923Y-77300625D01*
X109315923Y-77300625D02*
X109239733Y-77300625D01*
X109239733Y-77300625D02*
X109125447Y-77262530D01*
X109125447Y-77262530D02*
X108668304Y-76805387D01*
X108668304Y-76805387D02*
X108668304Y-77300625D01*
D11*
X109111010Y-102190671D02*
X109616087Y-102695748D01*
X109616087Y-102695748D02*
X109683430Y-102830435D01*
X109683430Y-102830435D02*
X109683430Y-102965122D01*
X109683430Y-102965122D02*
X109616087Y-103099809D01*
X109616087Y-103099809D02*
X109548743Y-103167152D01*
X109481400Y-101954969D02*
X109481400Y-101887626D01*
X109481400Y-101887626D02*
X109515071Y-101786610D01*
X109515071Y-101786610D02*
X109683430Y-101618252D01*
X109683430Y-101618252D02*
X109784445Y-101584580D01*
X109784445Y-101584580D02*
X109851789Y-101584580D01*
X109851789Y-101584580D02*
X109952804Y-101618252D01*
X109952804Y-101618252D02*
X110020148Y-101685595D01*
X110020148Y-101685595D02*
X110087491Y-101820282D01*
X110087491Y-101820282D02*
X110087491Y-102628404D01*
X110087491Y-102628404D02*
X110525224Y-102190671D01*
X148903220Y-76260180D02*
X148903220Y-77260180D01*
X148903220Y-77260180D02*
X148665125Y-77260180D01*
X148665125Y-77260180D02*
X148522268Y-77212561D01*
X148522268Y-77212561D02*
X148427030Y-77117323D01*
X148427030Y-77117323D02*
X148379411Y-77022085D01*
X148379411Y-77022085D02*
X148331792Y-76831609D01*
X148331792Y-76831609D02*
X148331792Y-76688752D01*
X148331792Y-76688752D02*
X148379411Y-76498276D01*
X148379411Y-76498276D02*
X148427030Y-76403038D01*
X148427030Y-76403038D02*
X148522268Y-76307800D01*
X148522268Y-76307800D02*
X148665125Y-76260180D01*
X148665125Y-76260180D02*
X148903220Y-76260180D01*
X147474649Y-76926847D02*
X147474649Y-76260180D01*
X147712744Y-77307800D02*
X147950839Y-76593514D01*
X147950839Y-76593514D02*
X147331792Y-76593514D01*
D10*
X148950352Y-98113296D02*
X148969400Y-98132344D01*
X148969400Y-98132344D02*
X148988447Y-98189486D01*
X148988447Y-98189486D02*
X148988447Y-98227582D01*
X148988447Y-98227582D02*
X148969400Y-98284725D01*
X148969400Y-98284725D02*
X148931304Y-98322820D01*
X148931304Y-98322820D02*
X148893209Y-98341867D01*
X148893209Y-98341867D02*
X148817019Y-98360915D01*
X148817019Y-98360915D02*
X148759876Y-98360915D01*
X148759876Y-98360915D02*
X148683685Y-98341867D01*
X148683685Y-98341867D02*
X148645590Y-98322820D01*
X148645590Y-98322820D02*
X148607495Y-98284725D01*
X148607495Y-98284725D02*
X148588447Y-98227582D01*
X148588447Y-98227582D02*
X148588447Y-98189486D01*
X148588447Y-98189486D02*
X148607495Y-98132344D01*
X148607495Y-98132344D02*
X148626542Y-98113296D01*
X148988447Y-97732344D02*
X148988447Y-97960915D01*
X148988447Y-97846629D02*
X148588447Y-97846629D01*
X148588447Y-97846629D02*
X148645590Y-97884725D01*
X148645590Y-97884725D02*
X148683685Y-97922820D01*
X148683685Y-97922820D02*
X148702733Y-97960915D01*
X148759876Y-97503773D02*
X148740828Y-97541868D01*
X148740828Y-97541868D02*
X148721780Y-97560915D01*
X148721780Y-97560915D02*
X148683685Y-97579963D01*
X148683685Y-97579963D02*
X148664638Y-97579963D01*
X148664638Y-97579963D02*
X148626542Y-97560915D01*
X148626542Y-97560915D02*
X148607495Y-97541868D01*
X148607495Y-97541868D02*
X148588447Y-97503773D01*
X148588447Y-97503773D02*
X148588447Y-97427582D01*
X148588447Y-97427582D02*
X148607495Y-97389487D01*
X148607495Y-97389487D02*
X148626542Y-97370439D01*
X148626542Y-97370439D02*
X148664638Y-97351392D01*
X148664638Y-97351392D02*
X148683685Y-97351392D01*
X148683685Y-97351392D02*
X148721780Y-97370439D01*
X148721780Y-97370439D02*
X148740828Y-97389487D01*
X148740828Y-97389487D02*
X148759876Y-97427582D01*
X148759876Y-97427582D02*
X148759876Y-97503773D01*
X148759876Y-97503773D02*
X148778923Y-97541868D01*
X148778923Y-97541868D02*
X148797971Y-97560915D01*
X148797971Y-97560915D02*
X148836066Y-97579963D01*
X148836066Y-97579963D02*
X148912257Y-97579963D01*
X148912257Y-97579963D02*
X148950352Y-97560915D01*
X148950352Y-97560915D02*
X148969400Y-97541868D01*
X148969400Y-97541868D02*
X148988447Y-97503773D01*
X148988447Y-97503773D02*
X148988447Y-97427582D01*
X148988447Y-97427582D02*
X148969400Y-97389487D01*
X148969400Y-97389487D02*
X148950352Y-97370439D01*
X148950352Y-97370439D02*
X148912257Y-97351392D01*
X148912257Y-97351392D02*
X148836066Y-97351392D01*
X148836066Y-97351392D02*
X148797971Y-97370439D01*
X148797971Y-97370439D02*
X148778923Y-97389487D01*
X148778923Y-97389487D02*
X148759876Y-97427582D01*
D11*
X112986087Y-99569809D02*
X112278980Y-98862702D01*
X112278980Y-98862702D02*
X112447339Y-98694343D01*
X112447339Y-98694343D02*
X112582026Y-98627000D01*
X112582026Y-98627000D02*
X112716713Y-98627000D01*
X112716713Y-98627000D02*
X112817728Y-98660671D01*
X112817728Y-98660671D02*
X112986087Y-98761687D01*
X112986087Y-98761687D02*
X113087102Y-98862702D01*
X113087102Y-98862702D02*
X113188117Y-99031061D01*
X113188117Y-99031061D02*
X113221789Y-99132076D01*
X113221789Y-99132076D02*
X113221789Y-99266763D01*
X113221789Y-99266763D02*
X113154445Y-99401450D01*
X113154445Y-99401450D02*
X112986087Y-99569809D01*
X113019758Y-98256610D02*
X113019758Y-98189267D01*
X113019758Y-98189267D02*
X113053430Y-98088252D01*
X113053430Y-98088252D02*
X113221789Y-97919893D01*
X113221789Y-97919893D02*
X113322804Y-97886221D01*
X113322804Y-97886221D02*
X113390148Y-97886221D01*
X113390148Y-97886221D02*
X113491163Y-97919893D01*
X113491163Y-97919893D02*
X113558506Y-97987236D01*
X113558506Y-97987236D02*
X113625850Y-98121923D01*
X113625850Y-98121923D02*
X113625850Y-98930046D01*
X113625850Y-98930046D02*
X114063583Y-98492313D01*
X114639809Y-73663912D02*
X113932702Y-74371019D01*
X113932702Y-74371019D02*
X113764343Y-74202660D01*
X113764343Y-74202660D02*
X113697000Y-74067973D01*
X113697000Y-74067973D02*
X113697000Y-73933286D01*
X113697000Y-73933286D02*
X113730671Y-73832271D01*
X113730671Y-73832271D02*
X113831687Y-73663912D01*
X113831687Y-73663912D02*
X113932702Y-73562897D01*
X113932702Y-73562897D02*
X114101061Y-73461882D01*
X114101061Y-73461882D02*
X114202076Y-73428210D01*
X114202076Y-73428210D02*
X114336763Y-73428210D01*
X114336763Y-73428210D02*
X114471450Y-73495554D01*
X114471450Y-73495554D02*
X114639809Y-73663912D01*
X113292939Y-73731256D02*
X112855206Y-73293523D01*
X112855206Y-73293523D02*
X113360282Y-73259851D01*
X113360282Y-73259851D02*
X113259267Y-73158836D01*
X113259267Y-73158836D02*
X113225595Y-73057821D01*
X113225595Y-73057821D02*
X113225595Y-72990477D01*
X113225595Y-72990477D02*
X113259267Y-72889462D01*
X113259267Y-72889462D02*
X113427626Y-72721103D01*
X113427626Y-72721103D02*
X113528641Y-72687432D01*
X113528641Y-72687432D02*
X113595984Y-72687432D01*
X113595984Y-72687432D02*
X113697000Y-72721103D01*
X113697000Y-72721103D02*
X113899030Y-72923134D01*
X113899030Y-72923134D02*
X113932702Y-73024149D01*
X113932702Y-73024149D02*
X113932702Y-73091493D01*
D10*
X125920352Y-82153296D02*
X125939400Y-82172344D01*
X125939400Y-82172344D02*
X125958447Y-82229486D01*
X125958447Y-82229486D02*
X125958447Y-82267582D01*
X125958447Y-82267582D02*
X125939400Y-82324725D01*
X125939400Y-82324725D02*
X125901304Y-82362820D01*
X125901304Y-82362820D02*
X125863209Y-82381867D01*
X125863209Y-82381867D02*
X125787019Y-82400915D01*
X125787019Y-82400915D02*
X125729876Y-82400915D01*
X125729876Y-82400915D02*
X125653685Y-82381867D01*
X125653685Y-82381867D02*
X125615590Y-82362820D01*
X125615590Y-82362820D02*
X125577495Y-82324725D01*
X125577495Y-82324725D02*
X125558447Y-82267582D01*
X125558447Y-82267582D02*
X125558447Y-82229486D01*
X125558447Y-82229486D02*
X125577495Y-82172344D01*
X125577495Y-82172344D02*
X125596542Y-82153296D01*
X125958447Y-81772344D02*
X125958447Y-82000915D01*
X125958447Y-81886629D02*
X125558447Y-81886629D01*
X125558447Y-81886629D02*
X125615590Y-81924725D01*
X125615590Y-81924725D02*
X125653685Y-81962820D01*
X125653685Y-81962820D02*
X125672733Y-82000915D01*
X125691780Y-81429487D02*
X125958447Y-81429487D01*
X125539400Y-81524725D02*
X125825114Y-81619963D01*
X125825114Y-81619963D02*
X125825114Y-81372344D01*
D12*
X145191119Y-95332525D02*
X145191119Y-94761097D01*
X146191119Y-95046811D02*
X145191119Y-95046811D01*
X145524452Y-93999192D02*
X146191119Y-93999192D01*
X145143500Y-94237287D02*
X145857785Y-94475382D01*
X145857785Y-94475382D02*
X145857785Y-93856335D01*
D10*
X143278132Y-81778447D02*
X143278132Y-82102257D01*
X143278132Y-82102257D02*
X143297179Y-82140352D01*
X143297179Y-82140352D02*
X143316227Y-82159400D01*
X143316227Y-82159400D02*
X143354322Y-82178447D01*
X143354322Y-82178447D02*
X143430513Y-82178447D01*
X143430513Y-82178447D02*
X143468608Y-82159400D01*
X143468608Y-82159400D02*
X143487655Y-82140352D01*
X143487655Y-82140352D02*
X143506703Y-82102257D01*
X143506703Y-82102257D02*
X143506703Y-81778447D01*
X143868608Y-81911780D02*
X143868608Y-82178447D01*
X143773370Y-81759400D02*
X143678132Y-82045114D01*
X143678132Y-82045114D02*
X143925751Y-82045114D01*
D11*
X146921010Y-64910671D02*
X147426087Y-65415748D01*
X147426087Y-65415748D02*
X147493430Y-65550435D01*
X147493430Y-65550435D02*
X147493430Y-65685122D01*
X147493430Y-65685122D02*
X147426087Y-65819809D01*
X147426087Y-65819809D02*
X147358743Y-65887152D01*
X147560774Y-64270908D02*
X147426087Y-64405595D01*
X147426087Y-64405595D02*
X147392415Y-64506610D01*
X147392415Y-64506610D02*
X147392415Y-64573954D01*
X147392415Y-64573954D02*
X147426087Y-64742313D01*
X147426087Y-64742313D02*
X147527102Y-64910671D01*
X147527102Y-64910671D02*
X147796476Y-65180045D01*
X147796476Y-65180045D02*
X147897491Y-65213717D01*
X147897491Y-65213717D02*
X147964835Y-65213717D01*
X147964835Y-65213717D02*
X148065850Y-65180045D01*
X148065850Y-65180045D02*
X148200537Y-65045358D01*
X148200537Y-65045358D02*
X148234209Y-64944343D01*
X148234209Y-64944343D02*
X148234209Y-64877000D01*
X148234209Y-64877000D02*
X148200537Y-64775984D01*
X148200537Y-64775984D02*
X148032178Y-64607626D01*
X148032178Y-64607626D02*
X147931163Y-64573954D01*
X147931163Y-64573954D02*
X147863819Y-64573954D01*
X147863819Y-64573954D02*
X147762804Y-64607626D01*
X147762804Y-64607626D02*
X147628117Y-64742313D01*
X147628117Y-64742313D02*
X147594445Y-64843328D01*
X147594445Y-64843328D02*
X147594445Y-64910671D01*
X147594445Y-64910671D02*
X147628117Y-65011687D01*
D10*
X129126703Y-78830352D02*
X129107655Y-78849400D01*
X129107655Y-78849400D02*
X129050513Y-78868447D01*
X129050513Y-78868447D02*
X129012417Y-78868447D01*
X129012417Y-78868447D02*
X128955274Y-78849400D01*
X128955274Y-78849400D02*
X128917179Y-78811304D01*
X128917179Y-78811304D02*
X128898132Y-78773209D01*
X128898132Y-78773209D02*
X128879084Y-78697019D01*
X128879084Y-78697019D02*
X128879084Y-78639876D01*
X128879084Y-78639876D02*
X128898132Y-78563685D01*
X128898132Y-78563685D02*
X128917179Y-78525590D01*
X128917179Y-78525590D02*
X128955274Y-78487495D01*
X128955274Y-78487495D02*
X129012417Y-78468447D01*
X129012417Y-78468447D02*
X129050513Y-78468447D01*
X129050513Y-78468447D02*
X129107655Y-78487495D01*
X129107655Y-78487495D02*
X129126703Y-78506542D01*
X129507655Y-78868447D02*
X129279084Y-78868447D01*
X129393370Y-78868447D02*
X129393370Y-78468447D01*
X129393370Y-78468447D02*
X129355274Y-78525590D01*
X129355274Y-78525590D02*
X129317179Y-78563685D01*
X129317179Y-78563685D02*
X129279084Y-78582733D01*
X129660036Y-78506542D02*
X129679084Y-78487495D01*
X129679084Y-78487495D02*
X129717179Y-78468447D01*
X129717179Y-78468447D02*
X129812417Y-78468447D01*
X129812417Y-78468447D02*
X129850512Y-78487495D01*
X129850512Y-78487495D02*
X129869560Y-78506542D01*
X129869560Y-78506542D02*
X129888607Y-78544638D01*
X129888607Y-78544638D02*
X129888607Y-78582733D01*
X129888607Y-78582733D02*
X129869560Y-78639876D01*
X129869560Y-78639876D02*
X129640988Y-78868447D01*
X129640988Y-78868447D02*
X129888607Y-78868447D01*
X136650352Y-81543296D02*
X136669400Y-81562344D01*
X136669400Y-81562344D02*
X136688447Y-81619486D01*
X136688447Y-81619486D02*
X136688447Y-81657582D01*
X136688447Y-81657582D02*
X136669400Y-81714725D01*
X136669400Y-81714725D02*
X136631304Y-81752820D01*
X136631304Y-81752820D02*
X136593209Y-81771867D01*
X136593209Y-81771867D02*
X136517019Y-81790915D01*
X136517019Y-81790915D02*
X136459876Y-81790915D01*
X136459876Y-81790915D02*
X136383685Y-81771867D01*
X136383685Y-81771867D02*
X136345590Y-81752820D01*
X136345590Y-81752820D02*
X136307495Y-81714725D01*
X136307495Y-81714725D02*
X136288447Y-81657582D01*
X136288447Y-81657582D02*
X136288447Y-81619486D01*
X136288447Y-81619486D02*
X136307495Y-81562344D01*
X136307495Y-81562344D02*
X136326542Y-81543296D01*
X136326542Y-81390915D02*
X136307495Y-81371867D01*
X136307495Y-81371867D02*
X136288447Y-81333772D01*
X136288447Y-81333772D02*
X136288447Y-81238534D01*
X136288447Y-81238534D02*
X136307495Y-81200439D01*
X136307495Y-81200439D02*
X136326542Y-81181391D01*
X136326542Y-81181391D02*
X136364638Y-81162344D01*
X136364638Y-81162344D02*
X136402733Y-81162344D01*
X136402733Y-81162344D02*
X136459876Y-81181391D01*
X136459876Y-81181391D02*
X136688447Y-81409963D01*
X136688447Y-81409963D02*
X136688447Y-81162344D01*
D11*
X117060112Y-80176009D02*
X116726779Y-80176009D01*
X116726779Y-80699819D02*
X116726779Y-79699819D01*
X116726779Y-79699819D02*
X117202969Y-79699819D01*
X118155350Y-80699819D02*
X117822017Y-80223628D01*
X117583922Y-80699819D02*
X117583922Y-79699819D01*
X117583922Y-79699819D02*
X117964874Y-79699819D01*
X117964874Y-79699819D02*
X118060112Y-79747438D01*
X118060112Y-79747438D02*
X118107731Y-79795057D01*
X118107731Y-79795057D02*
X118155350Y-79890295D01*
X118155350Y-79890295D02*
X118155350Y-80033152D01*
X118155350Y-80033152D02*
X118107731Y-80128390D01*
X118107731Y-80128390D02*
X118060112Y-80176009D01*
X118060112Y-80176009D02*
X117964874Y-80223628D01*
X117964874Y-80223628D02*
X117583922Y-80223628D01*
X118774398Y-79699819D02*
X118964874Y-79699819D01*
X118964874Y-79699819D02*
X119060112Y-79747438D01*
X119060112Y-79747438D02*
X119155350Y-79842676D01*
X119155350Y-79842676D02*
X119202969Y-80033152D01*
X119202969Y-80033152D02*
X119202969Y-80366485D01*
X119202969Y-80366485D02*
X119155350Y-80556961D01*
X119155350Y-80556961D02*
X119060112Y-80652200D01*
X119060112Y-80652200D02*
X118964874Y-80699819D01*
X118964874Y-80699819D02*
X118774398Y-80699819D01*
X118774398Y-80699819D02*
X118679160Y-80652200D01*
X118679160Y-80652200D02*
X118583922Y-80556961D01*
X118583922Y-80556961D02*
X118536303Y-80366485D01*
X118536303Y-80366485D02*
X118536303Y-80033152D01*
X118536303Y-80033152D02*
X118583922Y-79842676D01*
X118583922Y-79842676D02*
X118679160Y-79747438D01*
X118679160Y-79747438D02*
X118774398Y-79699819D01*
X119631541Y-80699819D02*
X119631541Y-79699819D01*
X119631541Y-79699819D02*
X120202969Y-80699819D01*
X120202969Y-80699819D02*
X120202969Y-79699819D01*
X120536303Y-79699819D02*
X121107731Y-79699819D01*
X120822017Y-80699819D02*
X120822017Y-79699819D01*
D10*
X143890352Y-76473296D02*
X143909400Y-76492344D01*
X143909400Y-76492344D02*
X143928447Y-76549486D01*
X143928447Y-76549486D02*
X143928447Y-76587582D01*
X143928447Y-76587582D02*
X143909400Y-76644725D01*
X143909400Y-76644725D02*
X143871304Y-76682820D01*
X143871304Y-76682820D02*
X143833209Y-76701867D01*
X143833209Y-76701867D02*
X143757019Y-76720915D01*
X143757019Y-76720915D02*
X143699876Y-76720915D01*
X143699876Y-76720915D02*
X143623685Y-76701867D01*
X143623685Y-76701867D02*
X143585590Y-76682820D01*
X143585590Y-76682820D02*
X143547495Y-76644725D01*
X143547495Y-76644725D02*
X143528447Y-76587582D01*
X143528447Y-76587582D02*
X143528447Y-76549486D01*
X143528447Y-76549486D02*
X143547495Y-76492344D01*
X143547495Y-76492344D02*
X143566542Y-76473296D01*
X143528447Y-76111391D02*
X143528447Y-76301867D01*
X143528447Y-76301867D02*
X143718923Y-76320915D01*
X143718923Y-76320915D02*
X143699876Y-76301867D01*
X143699876Y-76301867D02*
X143680828Y-76263772D01*
X143680828Y-76263772D02*
X143680828Y-76168534D01*
X143680828Y-76168534D02*
X143699876Y-76130439D01*
X143699876Y-76130439D02*
X143718923Y-76111391D01*
X143718923Y-76111391D02*
X143757019Y-76092344D01*
X143757019Y-76092344D02*
X143852257Y-76092344D01*
X143852257Y-76092344D02*
X143890352Y-76111391D01*
X143890352Y-76111391D02*
X143909400Y-76130439D01*
X143909400Y-76130439D02*
X143928447Y-76168534D01*
X143928447Y-76168534D02*
X143928447Y-76263772D01*
X143928447Y-76263772D02*
X143909400Y-76301867D01*
X143909400Y-76301867D02*
X143890352Y-76320915D01*
X121938447Y-72203296D02*
X121747971Y-72336629D01*
X121938447Y-72431867D02*
X121538447Y-72431867D01*
X121538447Y-72431867D02*
X121538447Y-72279486D01*
X121538447Y-72279486D02*
X121557495Y-72241391D01*
X121557495Y-72241391D02*
X121576542Y-72222344D01*
X121576542Y-72222344D02*
X121614638Y-72203296D01*
X121614638Y-72203296D02*
X121671780Y-72203296D01*
X121671780Y-72203296D02*
X121709876Y-72222344D01*
X121709876Y-72222344D02*
X121728923Y-72241391D01*
X121728923Y-72241391D02*
X121747971Y-72279486D01*
X121747971Y-72279486D02*
X121747971Y-72431867D01*
X121576542Y-72050915D02*
X121557495Y-72031867D01*
X121557495Y-72031867D02*
X121538447Y-71993772D01*
X121538447Y-71993772D02*
X121538447Y-71898534D01*
X121538447Y-71898534D02*
X121557495Y-71860439D01*
X121557495Y-71860439D02*
X121576542Y-71841391D01*
X121576542Y-71841391D02*
X121614638Y-71822344D01*
X121614638Y-71822344D02*
X121652733Y-71822344D01*
X121652733Y-71822344D02*
X121709876Y-71841391D01*
X121709876Y-71841391D02*
X121938447Y-72069963D01*
X121938447Y-72069963D02*
X121938447Y-71822344D01*
D14*
X131298282Y-67614619D02*
X131298282Y-68328904D01*
X131298282Y-68328904D02*
X131250663Y-68471761D01*
X131250663Y-68471761D02*
X131155425Y-68567000D01*
X131155425Y-68567000D02*
X131012568Y-68614619D01*
X131012568Y-68614619D02*
X130917330Y-68614619D01*
X132298282Y-68614619D02*
X131726854Y-68614619D01*
X132012568Y-68614619D02*
X132012568Y-67614619D01*
X132012568Y-67614619D02*
X131917330Y-67757476D01*
X131917330Y-67757476D02*
X131822092Y-67852714D01*
X131822092Y-67852714D02*
X131726854Y-67900333D01*
D15*
X152446441Y-92477733D02*
X150922632Y-92477733D01*
X151684536Y-93239638D02*
X151684536Y-91715828D01*
D12*
X115781119Y-93853954D02*
X116495404Y-93853954D01*
X116495404Y-93853954D02*
X116638261Y-93901573D01*
X116638261Y-93901573D02*
X116733500Y-93996811D01*
X116733500Y-93996811D02*
X116781119Y-94139668D01*
X116781119Y-94139668D02*
X116781119Y-94234906D01*
X116209690Y-93234906D02*
X116162071Y-93330144D01*
X116162071Y-93330144D02*
X116114452Y-93377763D01*
X116114452Y-93377763D02*
X116019214Y-93425382D01*
X116019214Y-93425382D02*
X115971595Y-93425382D01*
X115971595Y-93425382D02*
X115876357Y-93377763D01*
X115876357Y-93377763D02*
X115828738Y-93330144D01*
X115828738Y-93330144D02*
X115781119Y-93234906D01*
X115781119Y-93234906D02*
X115781119Y-93044430D01*
X115781119Y-93044430D02*
X115828738Y-92949192D01*
X115828738Y-92949192D02*
X115876357Y-92901573D01*
X115876357Y-92901573D02*
X115971595Y-92853954D01*
X115971595Y-92853954D02*
X116019214Y-92853954D01*
X116019214Y-92853954D02*
X116114452Y-92901573D01*
X116114452Y-92901573D02*
X116162071Y-92949192D01*
X116162071Y-92949192D02*
X116209690Y-93044430D01*
X116209690Y-93044430D02*
X116209690Y-93234906D01*
X116209690Y-93234906D02*
X116257309Y-93330144D01*
X116257309Y-93330144D02*
X116304928Y-93377763D01*
X116304928Y-93377763D02*
X116400166Y-93425382D01*
X116400166Y-93425382D02*
X116590642Y-93425382D01*
X116590642Y-93425382D02*
X116685880Y-93377763D01*
X116685880Y-93377763D02*
X116733500Y-93330144D01*
X116733500Y-93330144D02*
X116781119Y-93234906D01*
X116781119Y-93234906D02*
X116781119Y-93044430D01*
X116781119Y-93044430D02*
X116733500Y-92949192D01*
X116733500Y-92949192D02*
X116685880Y-92901573D01*
X116685880Y-92901573D02*
X116590642Y-92853954D01*
X116590642Y-92853954D02*
X116400166Y-92853954D01*
X116400166Y-92853954D02*
X116304928Y-92901573D01*
X116304928Y-92901573D02*
X116257309Y-92949192D01*
X116257309Y-92949192D02*
X116209690Y-93044430D01*
D10*
X138538132Y-76628447D02*
X138538132Y-76952257D01*
X138538132Y-76952257D02*
X138557179Y-76990352D01*
X138557179Y-76990352D02*
X138576227Y-77009400D01*
X138576227Y-77009400D02*
X138614322Y-77028447D01*
X138614322Y-77028447D02*
X138690513Y-77028447D01*
X138690513Y-77028447D02*
X138728608Y-77009400D01*
X138728608Y-77009400D02*
X138747655Y-76990352D01*
X138747655Y-76990352D02*
X138766703Y-76952257D01*
X138766703Y-76952257D02*
X138766703Y-76628447D01*
X138919084Y-76628447D02*
X139166703Y-76628447D01*
X139166703Y-76628447D02*
X139033370Y-76780828D01*
X139033370Y-76780828D02*
X139090513Y-76780828D01*
X139090513Y-76780828D02*
X139128608Y-76799876D01*
X139128608Y-76799876D02*
X139147656Y-76818923D01*
X139147656Y-76818923D02*
X139166703Y-76857019D01*
X139166703Y-76857019D02*
X139166703Y-76952257D01*
X139166703Y-76952257D02*
X139147656Y-76990352D01*
X139147656Y-76990352D02*
X139128608Y-77009400D01*
X139128608Y-77009400D02*
X139090513Y-77028447D01*
X139090513Y-77028447D02*
X138976227Y-77028447D01*
X138976227Y-77028447D02*
X138938132Y-77009400D01*
X138938132Y-77009400D02*
X138919084Y-76990352D01*
X135140352Y-78653296D02*
X135159400Y-78672344D01*
X135159400Y-78672344D02*
X135178447Y-78729486D01*
X135178447Y-78729486D02*
X135178447Y-78767582D01*
X135178447Y-78767582D02*
X135159400Y-78824725D01*
X135159400Y-78824725D02*
X135121304Y-78862820D01*
X135121304Y-78862820D02*
X135083209Y-78881867D01*
X135083209Y-78881867D02*
X135007019Y-78900915D01*
X135007019Y-78900915D02*
X134949876Y-78900915D01*
X134949876Y-78900915D02*
X134873685Y-78881867D01*
X134873685Y-78881867D02*
X134835590Y-78862820D01*
X134835590Y-78862820D02*
X134797495Y-78824725D01*
X134797495Y-78824725D02*
X134778447Y-78767582D01*
X134778447Y-78767582D02*
X134778447Y-78729486D01*
X134778447Y-78729486D02*
X134797495Y-78672344D01*
X134797495Y-78672344D02*
X134816542Y-78653296D01*
X135178447Y-78272344D02*
X135178447Y-78500915D01*
X135178447Y-78386629D02*
X134778447Y-78386629D01*
X134778447Y-78386629D02*
X134835590Y-78424725D01*
X134835590Y-78424725D02*
X134873685Y-78462820D01*
X134873685Y-78462820D02*
X134892733Y-78500915D01*
D16*
X116153601Y-78650902D02*
X121486934Y-78650902D01*
X116486934Y-78412807D02*
X121153601Y-78412807D01*
X116486934Y-78174712D02*
X121153601Y-78174712D01*
X116820267Y-77936616D02*
X120820267Y-77936616D01*
X116820267Y-77698521D02*
X120820267Y-77698521D01*
X117153601Y-77460426D02*
X120486934Y-77460426D01*
X117153601Y-77222331D02*
X120486934Y-77222331D01*
X117486934Y-76984235D02*
X120153601Y-76984235D01*
X117820267Y-76746140D02*
X119820267Y-76746140D01*
X117820267Y-76508045D02*
X119820267Y-76508045D01*
X118153601Y-76269950D02*
X119486934Y-76269950D01*
X118153601Y-76031854D02*
X119486934Y-76031854D01*
X118820267Y-75793759D02*
X118820267Y-75555664D01*
X118486934Y-75793759D02*
X119153601Y-75793759D01*
X116153601Y-78888997D02*
X118820267Y-75317569D01*
X118820267Y-75317569D02*
X121486934Y-78888997D01*
X118820267Y-75079474D02*
X121820267Y-78888997D01*
X121820267Y-78888997D02*
X115820267Y-78888997D01*
X115820267Y-78888997D02*
X118820267Y-75079474D01*
D10*
X142366703Y-77010352D02*
X142347655Y-77029400D01*
X142347655Y-77029400D02*
X142290513Y-77048447D01*
X142290513Y-77048447D02*
X142252417Y-77048447D01*
X142252417Y-77048447D02*
X142195274Y-77029400D01*
X142195274Y-77029400D02*
X142157179Y-76991304D01*
X142157179Y-76991304D02*
X142138132Y-76953209D01*
X142138132Y-76953209D02*
X142119084Y-76877019D01*
X142119084Y-76877019D02*
X142119084Y-76819876D01*
X142119084Y-76819876D02*
X142138132Y-76743685D01*
X142138132Y-76743685D02*
X142157179Y-76705590D01*
X142157179Y-76705590D02*
X142195274Y-76667495D01*
X142195274Y-76667495D02*
X142252417Y-76648447D01*
X142252417Y-76648447D02*
X142290513Y-76648447D01*
X142290513Y-76648447D02*
X142347655Y-76667495D01*
X142347655Y-76667495D02*
X142366703Y-76686542D01*
X142709560Y-76781780D02*
X142709560Y-77048447D01*
X142614322Y-76629400D02*
X142519084Y-76915114D01*
X142519084Y-76915114D02*
X142766703Y-76915114D01*
D12*
X152052525Y-73018880D02*
X151481097Y-73018880D01*
X151766811Y-72018880D02*
X151766811Y-73018880D01*
X151243001Y-73018880D02*
X150623954Y-73018880D01*
X150623954Y-73018880D02*
X150957287Y-72637928D01*
X150957287Y-72637928D02*
X150814430Y-72637928D01*
X150814430Y-72637928D02*
X150719192Y-72590309D01*
X150719192Y-72590309D02*
X150671573Y-72542690D01*
X150671573Y-72542690D02*
X150623954Y-72447452D01*
X150623954Y-72447452D02*
X150623954Y-72209357D01*
X150623954Y-72209357D02*
X150671573Y-72114119D01*
X150671573Y-72114119D02*
X150719192Y-72066500D01*
X150719192Y-72066500D02*
X150814430Y-72018880D01*
X150814430Y-72018880D02*
X151100144Y-72018880D01*
X151100144Y-72018880D02*
X151195382Y-72066500D01*
X151195382Y-72066500D02*
X151243001Y-72114119D01*
D11*
X109660671Y-72088989D02*
X110165748Y-71583912D01*
X110165748Y-71583912D02*
X110300435Y-71516569D01*
X110300435Y-71516569D02*
X110435122Y-71516569D01*
X110435122Y-71516569D02*
X110569809Y-71583912D01*
X110569809Y-71583912D02*
X110637152Y-71651256D01*
X108987236Y-71415554D02*
X109323954Y-71752271D01*
X109323954Y-71752271D02*
X109694343Y-71449225D01*
X109694343Y-71449225D02*
X109627000Y-71449225D01*
X109627000Y-71449225D02*
X109525984Y-71415554D01*
X109525984Y-71415554D02*
X109357626Y-71247195D01*
X109357626Y-71247195D02*
X109323954Y-71146180D01*
X109323954Y-71146180D02*
X109323954Y-71078836D01*
X109323954Y-71078836D02*
X109357626Y-70977821D01*
X109357626Y-70977821D02*
X109525984Y-70809462D01*
X109525984Y-70809462D02*
X109627000Y-70775790D01*
X109627000Y-70775790D02*
X109694343Y-70775790D01*
X109694343Y-70775790D02*
X109795358Y-70809462D01*
X109795358Y-70809462D02*
X109963717Y-70977821D01*
X109963717Y-70977821D02*
X109997389Y-71078836D01*
X109997389Y-71078836D02*
X109997389Y-71146180D01*
D10*
X146816703Y-79300352D02*
X146797655Y-79319400D01*
X146797655Y-79319400D02*
X146740513Y-79338447D01*
X146740513Y-79338447D02*
X146702417Y-79338447D01*
X146702417Y-79338447D02*
X146645274Y-79319400D01*
X146645274Y-79319400D02*
X146607179Y-79281304D01*
X146607179Y-79281304D02*
X146588132Y-79243209D01*
X146588132Y-79243209D02*
X146569084Y-79167019D01*
X146569084Y-79167019D02*
X146569084Y-79109876D01*
X146569084Y-79109876D02*
X146588132Y-79033685D01*
X146588132Y-79033685D02*
X146607179Y-78995590D01*
X146607179Y-78995590D02*
X146645274Y-78957495D01*
X146645274Y-78957495D02*
X146702417Y-78938447D01*
X146702417Y-78938447D02*
X146740513Y-78938447D01*
X146740513Y-78938447D02*
X146797655Y-78957495D01*
X146797655Y-78957495D02*
X146816703Y-78976542D01*
X147197655Y-79338447D02*
X146969084Y-79338447D01*
X147083370Y-79338447D02*
X147083370Y-78938447D01*
X147083370Y-78938447D02*
X147045274Y-78995590D01*
X147045274Y-78995590D02*
X147007179Y-79033685D01*
X147007179Y-79033685D02*
X146969084Y-79052733D01*
X147330988Y-78938447D02*
X147597655Y-78938447D01*
X147597655Y-78938447D02*
X147426226Y-79338447D01*
D17*
X142495879Y-81127940D02*
X142472070Y-81151750D01*
X142472070Y-81151750D02*
X142400641Y-81175559D01*
X142400641Y-81175559D02*
X142353022Y-81175559D01*
X142353022Y-81175559D02*
X142281594Y-81151750D01*
X142281594Y-81151750D02*
X142233975Y-81104130D01*
X142233975Y-81104130D02*
X142210165Y-81056511D01*
X142210165Y-81056511D02*
X142186356Y-80961273D01*
X142186356Y-80961273D02*
X142186356Y-80889845D01*
X142186356Y-80889845D02*
X142210165Y-80794607D01*
X142210165Y-80794607D02*
X142233975Y-80746988D01*
X142233975Y-80746988D02*
X142281594Y-80699369D01*
X142281594Y-80699369D02*
X142353022Y-80675559D01*
X142353022Y-80675559D02*
X142400641Y-80675559D01*
X142400641Y-80675559D02*
X142472070Y-80699369D01*
X142472070Y-80699369D02*
X142495879Y-80723178D01*
X142662546Y-80675559D02*
X142972070Y-80675559D01*
X142972070Y-80675559D02*
X142805403Y-80866035D01*
X142805403Y-80866035D02*
X142876832Y-80866035D01*
X142876832Y-80866035D02*
X142924451Y-80889845D01*
X142924451Y-80889845D02*
X142948260Y-80913654D01*
X142948260Y-80913654D02*
X142972070Y-80961273D01*
X142972070Y-80961273D02*
X142972070Y-81080321D01*
X142972070Y-81080321D02*
X142948260Y-81127940D01*
X142948260Y-81127940D02*
X142924451Y-81151750D01*
X142924451Y-81151750D02*
X142876832Y-81175559D01*
X142876832Y-81175559D02*
X142733975Y-81175559D01*
X142733975Y-81175559D02*
X142686356Y-81151750D01*
X142686356Y-81151750D02*
X142662546Y-81127940D01*
D12*
X148871119Y-82273954D02*
X149585404Y-82273954D01*
X149585404Y-82273954D02*
X149728261Y-82321573D01*
X149728261Y-82321573D02*
X149823500Y-82416811D01*
X149823500Y-82416811D02*
X149871119Y-82559668D01*
X149871119Y-82559668D02*
X149871119Y-82654906D01*
X148871119Y-81893001D02*
X148871119Y-81273954D01*
X148871119Y-81273954D02*
X149252071Y-81607287D01*
X149252071Y-81607287D02*
X149252071Y-81464430D01*
X149252071Y-81464430D02*
X149299690Y-81369192D01*
X149299690Y-81369192D02*
X149347309Y-81321573D01*
X149347309Y-81321573D02*
X149442547Y-81273954D01*
X149442547Y-81273954D02*
X149680642Y-81273954D01*
X149680642Y-81273954D02*
X149775880Y-81321573D01*
X149775880Y-81321573D02*
X149823500Y-81369192D01*
X149823500Y-81369192D02*
X149871119Y-81464430D01*
X149871119Y-81464430D02*
X149871119Y-81750144D01*
X149871119Y-81750144D02*
X149823500Y-81845382D01*
X149823500Y-81845382D02*
X149775880Y-81893001D01*
D10*
X141198447Y-106333296D02*
X141007971Y-106466629D01*
X141198447Y-106561867D02*
X140798447Y-106561867D01*
X140798447Y-106561867D02*
X140798447Y-106409486D01*
X140798447Y-106409486D02*
X140817495Y-106371391D01*
X140817495Y-106371391D02*
X140836542Y-106352344D01*
X140836542Y-106352344D02*
X140874638Y-106333296D01*
X140874638Y-106333296D02*
X140931780Y-106333296D01*
X140931780Y-106333296D02*
X140969876Y-106352344D01*
X140969876Y-106352344D02*
X140988923Y-106371391D01*
X140988923Y-106371391D02*
X141007971Y-106409486D01*
X141007971Y-106409486D02*
X141007971Y-106561867D01*
X141198447Y-105952344D02*
X141198447Y-106180915D01*
X141198447Y-106066629D02*
X140798447Y-106066629D01*
X140798447Y-106066629D02*
X140855590Y-106104725D01*
X140855590Y-106104725D02*
X140893685Y-106142820D01*
X140893685Y-106142820D02*
X140912733Y-106180915D01*
X140798447Y-105704725D02*
X140798447Y-105666630D01*
X140798447Y-105666630D02*
X140817495Y-105628534D01*
X140817495Y-105628534D02*
X140836542Y-105609487D01*
X140836542Y-105609487D02*
X140874638Y-105590439D01*
X140874638Y-105590439D02*
X140950828Y-105571392D01*
X140950828Y-105571392D02*
X141046066Y-105571392D01*
X141046066Y-105571392D02*
X141122257Y-105590439D01*
X141122257Y-105590439D02*
X141160352Y-105609487D01*
X141160352Y-105609487D02*
X141179400Y-105628534D01*
X141179400Y-105628534D02*
X141198447Y-105666630D01*
X141198447Y-105666630D02*
X141198447Y-105704725D01*
X141198447Y-105704725D02*
X141179400Y-105742820D01*
X141179400Y-105742820D02*
X141160352Y-105761868D01*
X141160352Y-105761868D02*
X141122257Y-105780915D01*
X141122257Y-105780915D02*
X141046066Y-105799963D01*
X141046066Y-105799963D02*
X140950828Y-105799963D01*
X140950828Y-105799963D02*
X140874638Y-105780915D01*
X140874638Y-105780915D02*
X140836542Y-105761868D01*
X140836542Y-105761868D02*
X140817495Y-105742820D01*
X140817495Y-105742820D02*
X140798447Y-105704725D01*
X109931391Y-84131552D02*
X110121867Y-84131552D01*
X110121867Y-84131552D02*
X110121867Y-84531552D01*
X109798057Y-84341076D02*
X109664724Y-84341076D01*
X109607581Y-84131552D02*
X109798057Y-84131552D01*
X109798057Y-84131552D02*
X109798057Y-84531552D01*
X109798057Y-84531552D02*
X109607581Y-84531552D01*
X109436152Y-84131552D02*
X109436152Y-84531552D01*
X109436152Y-84531552D02*
X109340914Y-84531552D01*
X109340914Y-84531552D02*
X109283771Y-84512504D01*
X109283771Y-84512504D02*
X109245676Y-84474409D01*
X109245676Y-84474409D02*
X109226629Y-84436314D01*
X109226629Y-84436314D02*
X109207581Y-84360123D01*
X109207581Y-84360123D02*
X109207581Y-84302980D01*
X109207581Y-84302980D02*
X109226629Y-84226790D01*
X109226629Y-84226790D02*
X109245676Y-84188695D01*
X109245676Y-84188695D02*
X109283771Y-84150600D01*
X109283771Y-84150600D02*
X109340914Y-84131552D01*
X109340914Y-84131552D02*
X109436152Y-84131552D01*
X108845676Y-84531552D02*
X109036152Y-84531552D01*
X109036152Y-84531552D02*
X109055200Y-84341076D01*
X109055200Y-84341076D02*
X109036152Y-84360123D01*
X109036152Y-84360123D02*
X108998057Y-84379171D01*
X108998057Y-84379171D02*
X108902819Y-84379171D01*
X108902819Y-84379171D02*
X108864724Y-84360123D01*
X108864724Y-84360123D02*
X108845676Y-84341076D01*
X108845676Y-84341076D02*
X108826629Y-84302980D01*
X108826629Y-84302980D02*
X108826629Y-84207742D01*
X108826629Y-84207742D02*
X108845676Y-84169647D01*
X108845676Y-84169647D02*
X108864724Y-84150600D01*
X108864724Y-84150600D02*
X108902819Y-84131552D01*
X108902819Y-84131552D02*
X108998057Y-84131552D01*
X108998057Y-84131552D02*
X109036152Y-84150600D01*
X109036152Y-84150600D02*
X109055200Y-84169647D01*
D18*
X114934231Y-85359783D02*
X114934231Y-85926450D01*
X114934231Y-85926450D02*
X114967565Y-85993116D01*
X114967565Y-85993116D02*
X115000898Y-86026450D01*
X115000898Y-86026450D02*
X115067565Y-86059783D01*
X115067565Y-86059783D02*
X115200898Y-86059783D01*
X115200898Y-86059783D02*
X115267565Y-86026450D01*
X115267565Y-86026450D02*
X115300898Y-85993116D01*
X115300898Y-85993116D02*
X115334231Y-85926450D01*
X115334231Y-85926450D02*
X115334231Y-85359783D01*
X115600898Y-85359783D02*
X116067564Y-85359783D01*
X116067564Y-85359783D02*
X115767564Y-86059783D01*
D10*
X141898447Y-84681867D02*
X142222257Y-84681867D01*
X142222257Y-84681867D02*
X142260352Y-84662820D01*
X142260352Y-84662820D02*
X142279400Y-84643772D01*
X142279400Y-84643772D02*
X142298447Y-84605677D01*
X142298447Y-84605677D02*
X142298447Y-84529486D01*
X142298447Y-84529486D02*
X142279400Y-84491391D01*
X142279400Y-84491391D02*
X142260352Y-84472344D01*
X142260352Y-84472344D02*
X142222257Y-84453296D01*
X142222257Y-84453296D02*
X141898447Y-84453296D01*
X141898447Y-84072343D02*
X141898447Y-84262819D01*
X141898447Y-84262819D02*
X142088923Y-84281867D01*
X142088923Y-84281867D02*
X142069876Y-84262819D01*
X142069876Y-84262819D02*
X142050828Y-84224724D01*
X142050828Y-84224724D02*
X142050828Y-84129486D01*
X142050828Y-84129486D02*
X142069876Y-84091391D01*
X142069876Y-84091391D02*
X142088923Y-84072343D01*
X142088923Y-84072343D02*
X142127019Y-84053296D01*
X142127019Y-84053296D02*
X142222257Y-84053296D01*
X142222257Y-84053296D02*
X142260352Y-84072343D01*
X142260352Y-84072343D02*
X142279400Y-84091391D01*
X142279400Y-84091391D02*
X142298447Y-84129486D01*
X142298447Y-84129486D02*
X142298447Y-84224724D01*
X142298447Y-84224724D02*
X142279400Y-84262819D01*
X142279400Y-84262819D02*
X142260352Y-84281867D01*
X109931391Y-80401552D02*
X110121867Y-80401552D01*
X110121867Y-80401552D02*
X110121867Y-80801552D01*
X109798057Y-80611076D02*
X109664724Y-80611076D01*
X109607581Y-80401552D02*
X109798057Y-80401552D01*
X109798057Y-80401552D02*
X109798057Y-80801552D01*
X109798057Y-80801552D02*
X109607581Y-80801552D01*
X109436152Y-80401552D02*
X109436152Y-80801552D01*
X109436152Y-80801552D02*
X109340914Y-80801552D01*
X109340914Y-80801552D02*
X109283771Y-80782504D01*
X109283771Y-80782504D02*
X109245676Y-80744409D01*
X109245676Y-80744409D02*
X109226629Y-80706314D01*
X109226629Y-80706314D02*
X109207581Y-80630123D01*
X109207581Y-80630123D02*
X109207581Y-80572980D01*
X109207581Y-80572980D02*
X109226629Y-80496790D01*
X109226629Y-80496790D02*
X109245676Y-80458695D01*
X109245676Y-80458695D02*
X109283771Y-80420600D01*
X109283771Y-80420600D02*
X109340914Y-80401552D01*
X109340914Y-80401552D02*
X109436152Y-80401552D01*
X108864724Y-80801552D02*
X108940914Y-80801552D01*
X108940914Y-80801552D02*
X108979010Y-80782504D01*
X108979010Y-80782504D02*
X108998057Y-80763457D01*
X108998057Y-80763457D02*
X109036152Y-80706314D01*
X109036152Y-80706314D02*
X109055200Y-80630123D01*
X109055200Y-80630123D02*
X109055200Y-80477742D01*
X109055200Y-80477742D02*
X109036152Y-80439647D01*
X109036152Y-80439647D02*
X109017105Y-80420600D01*
X109017105Y-80420600D02*
X108979010Y-80401552D01*
X108979010Y-80401552D02*
X108902819Y-80401552D01*
X108902819Y-80401552D02*
X108864724Y-80420600D01*
X108864724Y-80420600D02*
X108845676Y-80439647D01*
X108845676Y-80439647D02*
X108826629Y-80477742D01*
X108826629Y-80477742D02*
X108826629Y-80572980D01*
X108826629Y-80572980D02*
X108845676Y-80611076D01*
X108845676Y-80611076D02*
X108864724Y-80630123D01*
X108864724Y-80630123D02*
X108902819Y-80649171D01*
X108902819Y-80649171D02*
X108979010Y-80649171D01*
X108979010Y-80649171D02*
X109017105Y-80630123D01*
X109017105Y-80630123D02*
X109036152Y-80611076D01*
X109036152Y-80611076D02*
X109055200Y-80572980D01*
X125960352Y-86103296D02*
X125979400Y-86122344D01*
X125979400Y-86122344D02*
X125998447Y-86179486D01*
X125998447Y-86179486D02*
X125998447Y-86217582D01*
X125998447Y-86217582D02*
X125979400Y-86274725D01*
X125979400Y-86274725D02*
X125941304Y-86312820D01*
X125941304Y-86312820D02*
X125903209Y-86331867D01*
X125903209Y-86331867D02*
X125827019Y-86350915D01*
X125827019Y-86350915D02*
X125769876Y-86350915D01*
X125769876Y-86350915D02*
X125693685Y-86331867D01*
X125693685Y-86331867D02*
X125655590Y-86312820D01*
X125655590Y-86312820D02*
X125617495Y-86274725D01*
X125617495Y-86274725D02*
X125598447Y-86217582D01*
X125598447Y-86217582D02*
X125598447Y-86179486D01*
X125598447Y-86179486D02*
X125617495Y-86122344D01*
X125617495Y-86122344D02*
X125636542Y-86103296D01*
X125998447Y-85722344D02*
X125998447Y-85950915D01*
X125998447Y-85836629D02*
X125598447Y-85836629D01*
X125598447Y-85836629D02*
X125655590Y-85874725D01*
X125655590Y-85874725D02*
X125693685Y-85912820D01*
X125693685Y-85912820D02*
X125712733Y-85950915D01*
X125598447Y-85589011D02*
X125598447Y-85341392D01*
X125598447Y-85341392D02*
X125750828Y-85474725D01*
X125750828Y-85474725D02*
X125750828Y-85417582D01*
X125750828Y-85417582D02*
X125769876Y-85379487D01*
X125769876Y-85379487D02*
X125788923Y-85360439D01*
X125788923Y-85360439D02*
X125827019Y-85341392D01*
X125827019Y-85341392D02*
X125922257Y-85341392D01*
X125922257Y-85341392D02*
X125960352Y-85360439D01*
X125960352Y-85360439D02*
X125979400Y-85379487D01*
X125979400Y-85379487D02*
X125998447Y-85417582D01*
X125998447Y-85417582D02*
X125998447Y-85531868D01*
X125998447Y-85531868D02*
X125979400Y-85569963D01*
X125979400Y-85569963D02*
X125960352Y-85589011D01*
X144218608Y-66208447D02*
X144028132Y-66208447D01*
X144028132Y-66208447D02*
X144028132Y-65808447D01*
X144351942Y-65998923D02*
X144485275Y-65998923D01*
X144542418Y-66208447D02*
X144351942Y-66208447D01*
X144351942Y-66208447D02*
X144351942Y-65808447D01*
X144351942Y-65808447D02*
X144542418Y-65808447D01*
X144713847Y-66208447D02*
X144713847Y-65808447D01*
X144713847Y-65808447D02*
X144809085Y-65808447D01*
X144809085Y-65808447D02*
X144866228Y-65827495D01*
X144866228Y-65827495D02*
X144904323Y-65865590D01*
X144904323Y-65865590D02*
X144923370Y-65903685D01*
X144923370Y-65903685D02*
X144942418Y-65979876D01*
X144942418Y-65979876D02*
X144942418Y-66037019D01*
X144942418Y-66037019D02*
X144923370Y-66113209D01*
X144923370Y-66113209D02*
X144904323Y-66151304D01*
X144904323Y-66151304D02*
X144866228Y-66189400D01*
X144866228Y-66189400D02*
X144809085Y-66208447D01*
X144809085Y-66208447D02*
X144713847Y-66208447D01*
X145323370Y-66208447D02*
X145094799Y-66208447D01*
X145209085Y-66208447D02*
X145209085Y-65808447D01*
X145209085Y-65808447D02*
X145170989Y-65865590D01*
X145170989Y-65865590D02*
X145132894Y-65903685D01*
X145132894Y-65903685D02*
X145094799Y-65922733D01*
X136678447Y-82923296D02*
X136487971Y-83056629D01*
X136678447Y-83151867D02*
X136278447Y-83151867D01*
X136278447Y-83151867D02*
X136278447Y-82999486D01*
X136278447Y-82999486D02*
X136297495Y-82961391D01*
X136297495Y-82961391D02*
X136316542Y-82942344D01*
X136316542Y-82942344D02*
X136354638Y-82923296D01*
X136354638Y-82923296D02*
X136411780Y-82923296D01*
X136411780Y-82923296D02*
X136449876Y-82942344D01*
X136449876Y-82942344D02*
X136468923Y-82961391D01*
X136468923Y-82961391D02*
X136487971Y-82999486D01*
X136487971Y-82999486D02*
X136487971Y-83151867D01*
X136678447Y-82542344D02*
X136678447Y-82770915D01*
X136678447Y-82656629D02*
X136278447Y-82656629D01*
X136278447Y-82656629D02*
X136335590Y-82694725D01*
X136335590Y-82694725D02*
X136373685Y-82732820D01*
X136373685Y-82732820D02*
X136392733Y-82770915D01*
D15*
X152426441Y-98057733D02*
X150902632Y-98057733D01*
D11*
X152409328Y-101001010D02*
X151904251Y-101506087D01*
X151904251Y-101506087D02*
X151769564Y-101573430D01*
X151769564Y-101573430D02*
X151634877Y-101573430D01*
X151634877Y-101573430D02*
X151500190Y-101506087D01*
X151500190Y-101506087D02*
X151432847Y-101438743D01*
X152813389Y-101876476D02*
X152341984Y-102347881D01*
X152914404Y-101438743D02*
X152240969Y-101775461D01*
X152240969Y-101775461D02*
X152678702Y-102213193D01*
D10*
X142256703Y-103660352D02*
X142237655Y-103679400D01*
X142237655Y-103679400D02*
X142180513Y-103698447D01*
X142180513Y-103698447D02*
X142142417Y-103698447D01*
X142142417Y-103698447D02*
X142085274Y-103679400D01*
X142085274Y-103679400D02*
X142047179Y-103641304D01*
X142047179Y-103641304D02*
X142028132Y-103603209D01*
X142028132Y-103603209D02*
X142009084Y-103527019D01*
X142009084Y-103527019D02*
X142009084Y-103469876D01*
X142009084Y-103469876D02*
X142028132Y-103393685D01*
X142028132Y-103393685D02*
X142047179Y-103355590D01*
X142047179Y-103355590D02*
X142085274Y-103317495D01*
X142085274Y-103317495D02*
X142142417Y-103298447D01*
X142142417Y-103298447D02*
X142180513Y-103298447D01*
X142180513Y-103298447D02*
X142237655Y-103317495D01*
X142237655Y-103317495D02*
X142256703Y-103336542D01*
X142637655Y-103698447D02*
X142409084Y-103698447D01*
X142523370Y-103698447D02*
X142523370Y-103298447D01*
X142523370Y-103298447D02*
X142485274Y-103355590D01*
X142485274Y-103355590D02*
X142447179Y-103393685D01*
X142447179Y-103393685D02*
X142409084Y-103412733D01*
X143018607Y-103698447D02*
X142790036Y-103698447D01*
X142904322Y-103698447D02*
X142904322Y-103298447D01*
X142904322Y-103298447D02*
X142866226Y-103355590D01*
X142866226Y-103355590D02*
X142828131Y-103393685D01*
X142828131Y-103393685D02*
X142790036Y-103412733D01*
X135676703Y-87848447D02*
X135543370Y-87657971D01*
X135448132Y-87848447D02*
X135448132Y-87448447D01*
X135448132Y-87448447D02*
X135600513Y-87448447D01*
X135600513Y-87448447D02*
X135638608Y-87467495D01*
X135638608Y-87467495D02*
X135657655Y-87486542D01*
X135657655Y-87486542D02*
X135676703Y-87524638D01*
X135676703Y-87524638D02*
X135676703Y-87581780D01*
X135676703Y-87581780D02*
X135657655Y-87619876D01*
X135657655Y-87619876D02*
X135638608Y-87638923D01*
X135638608Y-87638923D02*
X135600513Y-87657971D01*
X135600513Y-87657971D02*
X135448132Y-87657971D01*
X136057655Y-87848447D02*
X135829084Y-87848447D01*
X135943370Y-87848447D02*
X135943370Y-87448447D01*
X135943370Y-87448447D02*
X135905274Y-87505590D01*
X135905274Y-87505590D02*
X135867179Y-87543685D01*
X135867179Y-87543685D02*
X135829084Y-87562733D01*
X136400512Y-87581780D02*
X136400512Y-87848447D01*
X136305274Y-87429400D02*
X136210036Y-87715114D01*
X136210036Y-87715114D02*
X136457655Y-87715114D01*
X111273296Y-84091552D02*
X111406629Y-84282028D01*
X111501867Y-84091552D02*
X111501867Y-84491552D01*
X111501867Y-84491552D02*
X111349486Y-84491552D01*
X111349486Y-84491552D02*
X111311391Y-84472504D01*
X111311391Y-84472504D02*
X111292344Y-84453457D01*
X111292344Y-84453457D02*
X111273296Y-84415361D01*
X111273296Y-84415361D02*
X111273296Y-84358219D01*
X111273296Y-84358219D02*
X111292344Y-84320123D01*
X111292344Y-84320123D02*
X111311391Y-84301076D01*
X111311391Y-84301076D02*
X111349486Y-84282028D01*
X111349486Y-84282028D02*
X111501867Y-84282028D01*
X110892344Y-84091552D02*
X111120915Y-84091552D01*
X111006629Y-84091552D02*
X111006629Y-84491552D01*
X111006629Y-84491552D02*
X111044725Y-84434409D01*
X111044725Y-84434409D02*
X111082820Y-84396314D01*
X111082820Y-84396314D02*
X111120915Y-84377266D01*
X110549487Y-84491552D02*
X110625677Y-84491552D01*
X110625677Y-84491552D02*
X110663773Y-84472504D01*
X110663773Y-84472504D02*
X110682820Y-84453457D01*
X110682820Y-84453457D02*
X110720915Y-84396314D01*
X110720915Y-84396314D02*
X110739963Y-84320123D01*
X110739963Y-84320123D02*
X110739963Y-84167742D01*
X110739963Y-84167742D02*
X110720915Y-84129647D01*
X110720915Y-84129647D02*
X110701868Y-84110600D01*
X110701868Y-84110600D02*
X110663773Y-84091552D01*
X110663773Y-84091552D02*
X110587582Y-84091552D01*
X110587582Y-84091552D02*
X110549487Y-84110600D01*
X110549487Y-84110600D02*
X110530439Y-84129647D01*
X110530439Y-84129647D02*
X110511392Y-84167742D01*
X110511392Y-84167742D02*
X110511392Y-84262980D01*
X110511392Y-84262980D02*
X110530439Y-84301076D01*
X110530439Y-84301076D02*
X110549487Y-84320123D01*
X110549487Y-84320123D02*
X110587582Y-84339171D01*
X110587582Y-84339171D02*
X110663773Y-84339171D01*
X110663773Y-84339171D02*
X110701868Y-84320123D01*
X110701868Y-84320123D02*
X110720915Y-84301076D01*
X110720915Y-84301076D02*
X110739963Y-84262980D01*
D14*
X131744619Y-78307431D02*
X130744619Y-78307431D01*
X130744619Y-78307431D02*
X130744619Y-78069336D01*
X130744619Y-78069336D02*
X130792238Y-77926479D01*
X130792238Y-77926479D02*
X130887476Y-77831241D01*
X130887476Y-77831241D02*
X130982714Y-77783622D01*
X130982714Y-77783622D02*
X131173190Y-77736003D01*
X131173190Y-77736003D02*
X131316047Y-77736003D01*
X131316047Y-77736003D02*
X131506523Y-77783622D01*
X131506523Y-77783622D02*
X131601761Y-77831241D01*
X131601761Y-77831241D02*
X131697000Y-77926479D01*
X131697000Y-77926479D02*
X131744619Y-78069336D01*
X131744619Y-78069336D02*
X131744619Y-78307431D01*
X131744619Y-76783622D02*
X131744619Y-77355050D01*
X131744619Y-77069336D02*
X130744619Y-77069336D01*
X130744619Y-77069336D02*
X130887476Y-77164574D01*
X130887476Y-77164574D02*
X130982714Y-77259812D01*
X130982714Y-77259812D02*
X131030333Y-77355050D01*
D10*
X121466703Y-88418447D02*
X121333370Y-88227971D01*
X121238132Y-88418447D02*
X121238132Y-88018447D01*
X121238132Y-88018447D02*
X121390513Y-88018447D01*
X121390513Y-88018447D02*
X121428608Y-88037495D01*
X121428608Y-88037495D02*
X121447655Y-88056542D01*
X121447655Y-88056542D02*
X121466703Y-88094638D01*
X121466703Y-88094638D02*
X121466703Y-88151780D01*
X121466703Y-88151780D02*
X121447655Y-88189876D01*
X121447655Y-88189876D02*
X121428608Y-88208923D01*
X121428608Y-88208923D02*
X121390513Y-88227971D01*
X121390513Y-88227971D02*
X121238132Y-88227971D01*
X121847655Y-88418447D02*
X121619084Y-88418447D01*
X121733370Y-88418447D02*
X121733370Y-88018447D01*
X121733370Y-88018447D02*
X121695274Y-88075590D01*
X121695274Y-88075590D02*
X121657179Y-88113685D01*
X121657179Y-88113685D02*
X121619084Y-88132733D01*
X122228607Y-88418447D02*
X122000036Y-88418447D01*
X122114322Y-88418447D02*
X122114322Y-88018447D01*
X122114322Y-88018447D02*
X122076226Y-88075590D01*
X122076226Y-88075590D02*
X122038131Y-88113685D01*
X122038131Y-88113685D02*
X122000036Y-88132733D01*
X111233296Y-80421552D02*
X111366629Y-80612028D01*
X111461867Y-80421552D02*
X111461867Y-80821552D01*
X111461867Y-80821552D02*
X111309486Y-80821552D01*
X111309486Y-80821552D02*
X111271391Y-80802504D01*
X111271391Y-80802504D02*
X111252344Y-80783457D01*
X111252344Y-80783457D02*
X111233296Y-80745361D01*
X111233296Y-80745361D02*
X111233296Y-80688219D01*
X111233296Y-80688219D02*
X111252344Y-80650123D01*
X111252344Y-80650123D02*
X111271391Y-80631076D01*
X111271391Y-80631076D02*
X111309486Y-80612028D01*
X111309486Y-80612028D02*
X111461867Y-80612028D01*
X110852344Y-80421552D02*
X111080915Y-80421552D01*
X110966629Y-80421552D02*
X110966629Y-80821552D01*
X110966629Y-80821552D02*
X111004725Y-80764409D01*
X111004725Y-80764409D02*
X111042820Y-80726314D01*
X111042820Y-80726314D02*
X111080915Y-80707266D01*
X110719011Y-80821552D02*
X110452344Y-80821552D01*
X110452344Y-80821552D02*
X110623773Y-80421552D01*
X113756703Y-96148447D02*
X113623370Y-95957971D01*
X113528132Y-96148447D02*
X113528132Y-95748447D01*
X113528132Y-95748447D02*
X113680513Y-95748447D01*
X113680513Y-95748447D02*
X113718608Y-95767495D01*
X113718608Y-95767495D02*
X113737655Y-95786542D01*
X113737655Y-95786542D02*
X113756703Y-95824638D01*
X113756703Y-95824638D02*
X113756703Y-95881780D01*
X113756703Y-95881780D02*
X113737655Y-95919876D01*
X113737655Y-95919876D02*
X113718608Y-95938923D01*
X113718608Y-95938923D02*
X113680513Y-95957971D01*
X113680513Y-95957971D02*
X113528132Y-95957971D01*
X114137655Y-96148447D02*
X113909084Y-96148447D01*
X114023370Y-96148447D02*
X114023370Y-95748447D01*
X114023370Y-95748447D02*
X113985274Y-95805590D01*
X113985274Y-95805590D02*
X113947179Y-95843685D01*
X113947179Y-95843685D02*
X113909084Y-95862733D01*
X114499560Y-95748447D02*
X114309084Y-95748447D01*
X114309084Y-95748447D02*
X114290036Y-95938923D01*
X114290036Y-95938923D02*
X114309084Y-95919876D01*
X114309084Y-95919876D02*
X114347179Y-95900828D01*
X114347179Y-95900828D02*
X114442417Y-95900828D01*
X114442417Y-95900828D02*
X114480512Y-95919876D01*
X114480512Y-95919876D02*
X114499560Y-95938923D01*
X114499560Y-95938923D02*
X114518607Y-95977019D01*
X114518607Y-95977019D02*
X114518607Y-96072257D01*
X114518607Y-96072257D02*
X114499560Y-96110352D01*
X114499560Y-96110352D02*
X114480512Y-96129400D01*
X114480512Y-96129400D02*
X114442417Y-96148447D01*
X114442417Y-96148447D02*
X114347179Y-96148447D01*
X114347179Y-96148447D02*
X114309084Y-96129400D01*
X114309084Y-96129400D02*
X114290036Y-96110352D01*
D19*
X110304318Y-98739838D02*
X110304318Y-98014124D01*
X111574318Y-98376981D02*
X110304318Y-98376981D01*
X111574318Y-96925552D02*
X111574318Y-97651267D01*
X111574318Y-97288410D02*
X110304318Y-97288410D01*
X110304318Y-97288410D02*
X110485746Y-97409362D01*
X110485746Y-97409362D02*
X110606699Y-97530314D01*
X110606699Y-97530314D02*
X110667175Y-97651267D01*
D11*
X106554819Y-93261904D02*
X107364342Y-93261904D01*
X107364342Y-93261904D02*
X107459580Y-93214285D01*
X107459580Y-93214285D02*
X107507200Y-93166666D01*
X107507200Y-93166666D02*
X107554819Y-93071428D01*
X107554819Y-93071428D02*
X107554819Y-92880952D01*
X107554819Y-92880952D02*
X107507200Y-92785714D01*
X107507200Y-92785714D02*
X107459580Y-92738095D01*
X107459580Y-92738095D02*
X107364342Y-92690476D01*
X107364342Y-92690476D02*
X106554819Y-92690476D01*
X107554819Y-91690476D02*
X107554819Y-92261904D01*
X107554819Y-91976190D02*
X106554819Y-91976190D01*
X106554819Y-91976190D02*
X106697676Y-92071428D01*
X106697676Y-92071428D02*
X106792914Y-92166666D01*
X106792914Y-92166666D02*
X106840533Y-92261904D01*
X128929035Y-86882739D02*
X128929035Y-87692262D01*
X128929035Y-87692262D02*
X128976654Y-87787500D01*
X128976654Y-87787500D02*
X129024273Y-87835120D01*
X129024273Y-87835120D02*
X129119511Y-87882739D01*
X129119511Y-87882739D02*
X129309987Y-87882739D01*
X129309987Y-87882739D02*
X129405225Y-87835120D01*
X129405225Y-87835120D02*
X129452844Y-87787500D01*
X129452844Y-87787500D02*
X129500463Y-87692262D01*
X129500463Y-87692262D02*
X129500463Y-86882739D01*
X130024273Y-87882739D02*
X130214749Y-87882739D01*
X130214749Y-87882739D02*
X130309987Y-87835120D01*
X130309987Y-87835120D02*
X130357606Y-87787500D01*
X130357606Y-87787500D02*
X130452844Y-87644643D01*
X130452844Y-87644643D02*
X130500463Y-87454167D01*
X130500463Y-87454167D02*
X130500463Y-87073215D01*
X130500463Y-87073215D02*
X130452844Y-86977977D01*
X130452844Y-86977977D02*
X130405225Y-86930358D01*
X130405225Y-86930358D02*
X130309987Y-86882739D01*
X130309987Y-86882739D02*
X130119511Y-86882739D01*
X130119511Y-86882739D02*
X130024273Y-86930358D01*
X130024273Y-86930358D02*
X129976654Y-86977977D01*
X129976654Y-86977977D02*
X129929035Y-87073215D01*
X129929035Y-87073215D02*
X129929035Y-87311310D01*
X129929035Y-87311310D02*
X129976654Y-87406548D01*
X129976654Y-87406548D02*
X130024273Y-87454167D01*
X130024273Y-87454167D02*
X130119511Y-87501786D01*
X130119511Y-87501786D02*
X130309987Y-87501786D01*
X130309987Y-87501786D02*
X130405225Y-87454167D01*
X130405225Y-87454167D02*
X130452844Y-87406548D01*
X130452844Y-87406548D02*
X130500463Y-87311310D01*
D20*
X130912419Y-70796904D02*
X131721942Y-70796904D01*
X131721942Y-70796904D02*
X131817180Y-70749285D01*
X131817180Y-70749285D02*
X131864800Y-70701666D01*
X131864800Y-70701666D02*
X131912419Y-70606428D01*
X131912419Y-70606428D02*
X131912419Y-70415952D01*
X131912419Y-70415952D02*
X131864800Y-70320714D01*
X131864800Y-70320714D02*
X131817180Y-70273095D01*
X131817180Y-70273095D02*
X131721942Y-70225476D01*
X131721942Y-70225476D02*
X130912419Y-70225476D01*
X131007657Y-69796904D02*
X130960038Y-69749285D01*
X130960038Y-69749285D02*
X130912419Y-69654047D01*
X130912419Y-69654047D02*
X130912419Y-69415952D01*
X130912419Y-69415952D02*
X130960038Y-69320714D01*
X130960038Y-69320714D02*
X131007657Y-69273095D01*
X131007657Y-69273095D02*
X131102895Y-69225476D01*
X131102895Y-69225476D02*
X131198133Y-69225476D01*
X131198133Y-69225476D02*
X131340990Y-69273095D01*
X131340990Y-69273095D02*
X131912419Y-69844523D01*
X131912419Y-69844523D02*
X131912419Y-69225476D01*
D21*
G36*
X125363301Y-70454929D02*
G01*
X125276698Y-70492291D01*
X125179514Y-70525830D01*
X125080017Y-70549349D01*
X124986117Y-70557996D01*
X124906064Y-70555522D01*
X124832313Y-70545565D01*
X124764156Y-70528551D01*
X124698976Y-70503308D01*
X124641557Y-70471021D01*
X124591029Y-70431677D01*
X124546743Y-70384568D01*
X124509007Y-70329459D01*
X124477745Y-70265382D01*
X124455617Y-70197357D01*
X124441015Y-70119330D01*
X124434791Y-70029795D01*
X124439469Y-69929970D01*
X124456265Y-69842374D01*
X124484187Y-69765189D01*
X124522875Y-69696901D01*
X124572618Y-69636368D01*
X124631816Y-69585212D01*
X124699509Y-69544545D01*
X124776892Y-69514124D01*
X124865555Y-69494330D01*
X124967407Y-69486148D01*
X125055847Y-69489777D01*
X125147842Y-69504032D01*
X125240958Y-69529680D01*
X125347204Y-69571783D01*
X125350028Y-69733614D01*
X125337561Y-69733832D01*
X125274357Y-69692433D01*
X125193077Y-69649922D01*
X125142896Y-69632055D01*
X125083860Y-69617082D01*
X125020788Y-69608001D01*
X124945853Y-69605655D01*
X124876668Y-69611705D01*
X124816003Y-69626636D01*
X124762547Y-69649865D01*
X124715250Y-69681326D01*
X124673379Y-69721475D01*
X124631601Y-69780270D01*
X124601397Y-69848895D01*
X124583005Y-69929268D01*
X124577643Y-70023827D01*
X124583867Y-70105058D01*
X124598708Y-70175123D01*
X124621306Y-70235618D01*
X124651233Y-70287892D01*
X124688520Y-70332995D01*
X124733396Y-70371409D01*
X124783806Y-70401152D01*
X124840563Y-70422546D01*
X124904772Y-70435398D01*
X124977773Y-70439011D01*
X125044190Y-70434604D01*
X125110472Y-70423665D01*
X125174080Y-70407075D01*
X125226124Y-70387892D01*
X125221743Y-70136926D01*
X124944849Y-70141759D01*
X124942701Y-70018695D01*
X125355561Y-70011489D01*
X125363301Y-70454929D01*
G37*
G36*
X126393749Y-70513570D02*
G01*
X126223730Y-70516538D01*
X125717653Y-69601800D01*
X125733769Y-70525090D01*
X125605432Y-70527331D01*
X125587416Y-69495181D01*
X125800421Y-69491463D01*
X126262047Y-70326563D01*
X126247334Y-69483662D01*
X126375733Y-69481421D01*
X126393749Y-70513570D01*
G37*
G36*
X127052063Y-69475811D02*
G01*
X127149234Y-69489760D01*
X127234325Y-69515107D01*
X127301258Y-69547106D01*
X127367383Y-69594822D01*
X127422946Y-69652036D01*
X127468755Y-69719589D01*
X127502059Y-69794182D01*
X127523547Y-69879800D01*
X127532282Y-69978520D01*
X127526857Y-70070860D01*
X127507775Y-70155787D01*
X127475326Y-70234652D01*
X127430346Y-70307017D01*
X127377045Y-70366676D01*
X127314979Y-70414968D01*
X127241453Y-70453597D01*
X127158218Y-70480806D01*
X127064553Y-70496397D01*
X126929239Y-70504223D01*
X126668348Y-70508777D01*
X126652369Y-69593323D01*
X126789803Y-69593323D01*
X126803662Y-70387285D01*
X126932743Y-70385032D01*
X127028736Y-70379456D01*
X127105610Y-70367495D01*
X127176365Y-70345427D01*
X127240325Y-70311225D01*
X127287077Y-70273949D01*
X127324595Y-70230423D01*
X127353628Y-70180003D01*
X127373204Y-70124867D01*
X127385283Y-70058561D01*
X127388649Y-69978917D01*
X127382101Y-69899273D01*
X127366450Y-69832253D01*
X127342726Y-69775832D01*
X127309111Y-69725173D01*
X127266574Y-69682579D01*
X127214157Y-69647405D01*
X127150676Y-69619223D01*
X127083556Y-69601660D01*
X127011342Y-69593108D01*
X126918884Y-69591070D01*
X126789803Y-69593323D01*
X126652369Y-69593323D01*
X126650332Y-69476627D01*
X126908431Y-69472122D01*
X127052063Y-69475811D01*
G37*
G36*
X136031301Y-74264929D02*
G01*
X135944698Y-74302291D01*
X135847514Y-74335830D01*
X135748017Y-74359349D01*
X135654117Y-74367996D01*
X135574064Y-74365522D01*
X135500313Y-74355565D01*
X135432156Y-74338551D01*
X135366976Y-74313308D01*
X135309557Y-74281021D01*
X135259029Y-74241677D01*
X135214743Y-74194568D01*
X135177007Y-74139459D01*
X135145745Y-74075382D01*
X135123617Y-74007357D01*
X135109015Y-73929330D01*
X135102791Y-73839795D01*
X135107469Y-73739970D01*
X135124265Y-73652374D01*
X135152187Y-73575189D01*
X135190875Y-73506901D01*
X135240618Y-73446368D01*
X135299816Y-73395212D01*
X135367509Y-73354545D01*
X135444892Y-73324124D01*
X135533555Y-73304330D01*
X135635407Y-73296148D01*
X135723847Y-73299777D01*
X135815842Y-73314032D01*
X135908958Y-73339680D01*
X136015204Y-73381783D01*
X136018028Y-73543614D01*
X136005561Y-73543832D01*
X135942357Y-73502433D01*
X135861077Y-73459922D01*
X135810896Y-73442055D01*
X135751860Y-73427082D01*
X135688788Y-73418001D01*
X135613853Y-73415655D01*
X135544668Y-73421705D01*
X135484003Y-73436636D01*
X135430547Y-73459865D01*
X135383250Y-73491326D01*
X135341379Y-73531475D01*
X135299601Y-73590270D01*
X135269397Y-73658895D01*
X135251005Y-73739268D01*
X135245643Y-73833827D01*
X135251867Y-73915058D01*
X135266708Y-73985123D01*
X135289306Y-74045618D01*
X135319233Y-74097892D01*
X135356520Y-74142995D01*
X135401396Y-74181409D01*
X135451806Y-74211152D01*
X135508563Y-74232546D01*
X135572772Y-74245398D01*
X135645773Y-74249011D01*
X135712190Y-74244604D01*
X135778472Y-74233665D01*
X135842080Y-74217075D01*
X135894124Y-74197892D01*
X135889743Y-73946926D01*
X135612849Y-73951759D01*
X135610701Y-73828695D01*
X136023561Y-73821489D01*
X136031301Y-74264929D01*
G37*
G36*
X137061749Y-74323570D02*
G01*
X136891730Y-74326538D01*
X136385653Y-73411800D01*
X136401769Y-74335090D01*
X136273432Y-74337331D01*
X136255416Y-73305181D01*
X136468421Y-73301463D01*
X136930047Y-74136563D01*
X136915334Y-73293662D01*
X137043733Y-73291421D01*
X137061749Y-74323570D01*
G37*
G36*
X137720063Y-73285811D02*
G01*
X137817234Y-73299760D01*
X137902325Y-73325107D01*
X137969258Y-73357106D01*
X138035383Y-73404822D01*
X138090946Y-73462036D01*
X138136755Y-73529589D01*
X138170059Y-73604182D01*
X138191547Y-73689800D01*
X138200282Y-73788520D01*
X138194857Y-73880860D01*
X138175775Y-73965787D01*
X138143326Y-74044652D01*
X138098346Y-74117017D01*
X138045045Y-74176676D01*
X137982979Y-74224968D01*
X137909453Y-74263597D01*
X137826218Y-74290806D01*
X137732553Y-74306397D01*
X137597239Y-74314223D01*
X137336348Y-74318777D01*
X137320369Y-73403323D01*
X137457803Y-73403323D01*
X137471662Y-74197285D01*
X137600743Y-74195032D01*
X137696736Y-74189456D01*
X137773610Y-74177495D01*
X137844365Y-74155427D01*
X137908325Y-74121225D01*
X137955077Y-74083949D01*
X137992595Y-74040423D01*
X138021628Y-73990003D01*
X138041204Y-73934867D01*
X138053283Y-73868561D01*
X138056649Y-73788917D01*
X138050101Y-73709273D01*
X138034450Y-73642253D01*
X138010726Y-73585832D01*
X137977111Y-73535173D01*
X137934574Y-73492579D01*
X137882157Y-73457405D01*
X137818676Y-73429223D01*
X137751556Y-73411660D01*
X137679342Y-73403108D01*
X137586884Y-73401070D01*
X137457803Y-73403323D01*
X137320369Y-73403323D01*
X137318332Y-73286627D01*
X137576431Y-73282122D01*
X137720063Y-73285811D01*
G37*
G36*
X130502863Y-69773156D02*
G01*
X130566235Y-69779068D01*
X130621124Y-69791875D01*
X130673808Y-69813809D01*
X130709316Y-69836448D01*
X130736451Y-69862020D01*
X130756380Y-69890673D01*
X130775314Y-69940827D01*
X130782064Y-70003024D01*
X130777668Y-70050984D01*
X130765071Y-70092440D01*
X130744593Y-70128650D01*
X130701449Y-70175034D01*
X130644650Y-70212525D01*
X130644650Y-70218046D01*
X130711276Y-70238446D01*
X130765640Y-70268965D01*
X130809795Y-70309552D01*
X130842824Y-70359291D01*
X130863104Y-70417572D01*
X130870219Y-70486669D01*
X130866796Y-70537111D01*
X130856948Y-70581972D01*
X130841062Y-70622098D01*
X130806628Y-70675914D01*
X130762646Y-70718752D01*
X130701301Y-70757879D01*
X130634600Y-70783706D01*
X130560041Y-70797656D01*
X130457296Y-70803000D01*
X130090840Y-70803000D01*
X130090840Y-70683887D01*
X130228253Y-70683887D01*
X130410086Y-70683887D01*
X130496230Y-70681328D01*
X130557860Y-70674706D01*
X130611964Y-70661086D01*
X130652281Y-70641019D01*
X130686632Y-70611828D01*
X130709169Y-70580408D01*
X130722310Y-70543310D01*
X130727222Y-70492563D01*
X130722017Y-70434963D01*
X130708487Y-70395226D01*
X130683463Y-70363075D01*
X130640494Y-70333933D01*
X130604889Y-70320265D01*
X130559597Y-70311847D01*
X130444082Y-70306698D01*
X130228253Y-70306698D01*
X130228253Y-70683887D01*
X130090840Y-70683887D01*
X130090840Y-70187586D01*
X130228253Y-70187586D01*
X130405929Y-70187586D01*
X130467158Y-70185722D01*
X130508602Y-70181010D01*
X130545431Y-70170878D01*
X130579449Y-70153651D01*
X130607547Y-70129560D01*
X130625605Y-70099988D01*
X130635540Y-70065243D01*
X130639129Y-70022069D01*
X130635774Y-69986513D01*
X130626597Y-69959039D01*
X130610601Y-69936151D01*
X130586397Y-69917536D01*
X130551376Y-69902689D01*
X130507237Y-69894334D01*
X130392033Y-69889805D01*
X130228253Y-69889805D01*
X130228253Y-70187586D01*
X130090840Y-70187586D01*
X130090840Y-69770692D01*
X130396872Y-69770692D01*
X130502863Y-69773156D01*
G37*
G36*
X131816480Y-70508817D02*
G01*
X131809590Y-70568320D01*
X131788377Y-70628301D01*
X131754613Y-70682868D01*
X131709589Y-70728368D01*
X131650193Y-70767584D01*
X131580116Y-70797850D01*
X131502021Y-70816121D01*
X131402130Y-70822852D01*
X131293442Y-70817384D01*
X131201190Y-70802069D01*
X131112357Y-70776651D01*
X131019730Y-70740466D01*
X131019730Y-70568745D01*
X131029470Y-70568745D01*
X131083905Y-70608287D01*
X131144070Y-70641572D01*
X131210558Y-70668626D01*
X131279774Y-70688631D01*
X131343885Y-70700069D01*
X131403557Y-70703739D01*
X131487661Y-70697620D01*
X131552609Y-70681052D01*
X131602388Y-70655908D01*
X131634320Y-70629128D01*
X131656106Y-70599427D01*
X131669091Y-70566196D01*
X131673545Y-70528297D01*
X131669227Y-70483667D01*
X131657637Y-70450819D01*
X131639859Y-70426865D01*
X131600239Y-70399266D01*
X131537497Y-70376118D01*
X131424712Y-70353226D01*
X131295984Y-70330272D01*
X131227030Y-70311534D01*
X131171425Y-70288317D01*
X131127074Y-70261244D01*
X131092252Y-70230578D01*
X131063794Y-70193502D01*
X131043238Y-70151227D01*
X131030468Y-70102769D01*
X131025996Y-70046822D01*
X131032880Y-69984658D01*
X131052988Y-69929447D01*
X131086639Y-69879524D01*
X131135616Y-69833909D01*
X131192147Y-69798574D01*
X131256437Y-69772702D01*
X131329831Y-69756516D01*
X131413980Y-69750840D01*
X131520388Y-69756245D01*
X131613803Y-69771623D01*
X131701641Y-69795513D01*
X131774853Y-69822928D01*
X131774853Y-69985095D01*
X131765113Y-69985095D01*
X131723841Y-69955241D01*
X131672657Y-69927678D01*
X131609957Y-69902709D01*
X131545234Y-69884476D01*
X131479784Y-69873589D01*
X131413235Y-69869953D01*
X131340882Y-69875630D01*
X131282680Y-69891320D01*
X131235869Y-69915737D01*
X131197796Y-69950246D01*
X131176194Y-69988943D01*
X131168931Y-70033608D01*
X131173016Y-70075439D01*
X131184339Y-70108624D01*
X131202245Y-70135040D01*
X131226982Y-70155702D01*
X131264700Y-70174696D01*
X131319558Y-70191308D01*
X131445867Y-70214944D01*
X131584645Y-70243420D01*
X131659050Y-70268978D01*
X131715803Y-70300007D01*
X131758165Y-70335856D01*
X131782728Y-70368244D01*
X131800859Y-70406967D01*
X131812373Y-70453286D01*
X131816480Y-70508817D01*
G37*
G36*
X132425067Y-69756772D02*
G01*
X132487447Y-69773508D01*
X132540239Y-69800126D01*
X132585021Y-69836635D01*
X132622722Y-69883973D01*
X132656966Y-69950772D01*
X132683889Y-70037054D01*
X132701843Y-70147182D01*
X132708458Y-70286164D01*
X132704013Y-70403916D01*
X132691784Y-70500573D01*
X132673224Y-70579208D01*
X132649484Y-70642600D01*
X132621357Y-70693193D01*
X132583273Y-70739280D01*
X132538386Y-70774863D01*
X132485790Y-70800802D01*
X132423987Y-70817090D01*
X132350997Y-70822852D01*
X132276845Y-70816980D01*
X132214424Y-70800422D01*
X132161638Y-70774116D01*
X132116903Y-70738087D01*
X132079272Y-70691456D01*
X132045202Y-70625541D01*
X132018290Y-70539472D01*
X132000264Y-70428587D01*
X131993598Y-70287528D01*
X132134485Y-70287528D01*
X132136584Y-70390748D01*
X132142116Y-70467624D01*
X132154405Y-70537531D01*
X132174748Y-70597345D01*
X132203003Y-70645494D01*
X132239639Y-70679420D01*
X132268956Y-70694488D01*
X132305512Y-70704192D01*
X132351059Y-70707710D01*
X132393819Y-70704445D01*
X132429458Y-70695291D01*
X132459252Y-70680847D01*
X132485235Y-70660384D01*
X132507428Y-70633576D01*
X132525943Y-70599392D01*
X132545835Y-70540461D01*
X132558885Y-70467996D01*
X132565210Y-70388619D01*
X132567570Y-70286164D01*
X132565229Y-70184679D01*
X132558885Y-70104021D01*
X132545537Y-70030291D01*
X132525261Y-69972935D01*
X132495855Y-69925546D01*
X132458942Y-69892907D01*
X132429764Y-69878486D01*
X132394280Y-69869285D01*
X132351059Y-69865982D01*
X132308261Y-69869261D01*
X132272716Y-69878442D01*
X132243113Y-69892907D01*
X132205595Y-69925798D01*
X132175430Y-69974300D01*
X132156409Y-70029758D01*
X132143170Y-70107495D01*
X132136756Y-70191505D01*
X132134485Y-70287528D01*
X131993598Y-70287528D01*
X132000362Y-70145360D01*
X132018632Y-70033924D01*
X132045873Y-69947708D01*
X132080326Y-69881926D01*
X132118362Y-69835294D01*
X132163251Y-69799323D01*
X132215895Y-69773116D01*
X132277808Y-69756662D01*
X132350997Y-69750840D01*
X132425067Y-69756772D01*
G37*
G36*
X133555086Y-70803000D02*
G01*
X132995692Y-70803000D01*
X132995692Y-70695798D01*
X133210839Y-70695798D01*
X133210839Y-70008917D01*
X132995692Y-70008917D01*
X132995692Y-69913627D01*
X133089369Y-69906431D01*
X133136019Y-69896786D01*
X133165055Y-69885462D01*
X133193929Y-69865647D01*
X133215306Y-69841850D01*
X133229365Y-69812317D01*
X133236523Y-69770692D01*
X133344096Y-69770692D01*
X133344096Y-70695798D01*
X133555086Y-70695798D01*
X133555086Y-70803000D01*
G37*
G36*
X135749514Y-65850493D02*
G01*
X135355359Y-66876078D01*
X135172189Y-66872880D01*
X134814066Y-65834165D01*
X134961197Y-65836733D01*
X135269382Y-66750483D01*
X135609330Y-65848046D01*
X135749514Y-65850493D01*
G37*
G36*
X136205316Y-66104003D02*
G01*
X136273594Y-66126048D01*
X136332646Y-66160902D01*
X136383950Y-66209280D01*
X136423965Y-66267034D01*
X136453010Y-66334823D01*
X136470741Y-66414604D01*
X136475887Y-66508835D01*
X136467450Y-66602839D01*
X136446939Y-66681881D01*
X136415549Y-66748483D01*
X136373558Y-66804627D01*
X136320624Y-66851006D01*
X136260402Y-66883667D01*
X136191388Y-66903254D01*
X136111447Y-66909130D01*
X136030988Y-66900425D01*
X135962297Y-66878389D01*
X135903153Y-66843639D01*
X135852025Y-66795523D01*
X135812190Y-66737975D01*
X135783256Y-66670329D01*
X135765582Y-66590612D01*
X135760582Y-66498696D01*
X135895055Y-66498696D01*
X135898156Y-66571670D01*
X135909158Y-66630857D01*
X135926765Y-66678655D01*
X135950250Y-66717073D01*
X135981793Y-66749801D01*
X136018730Y-66773296D01*
X136062090Y-66788156D01*
X136113456Y-66794006D01*
X136164268Y-66790007D01*
X136207732Y-66776821D01*
X136245347Y-66754837D01*
X136278119Y-66723478D01*
X136303022Y-66686222D01*
X136322401Y-66639131D01*
X136335576Y-66580074D01*
X136341286Y-66506485D01*
X136338147Y-66430696D01*
X136327032Y-66370373D01*
X136309413Y-66322700D01*
X136286140Y-66285317D01*
X136254707Y-66253543D01*
X136217916Y-66230666D01*
X136174744Y-66216166D01*
X136123642Y-66210444D01*
X136071599Y-66214396D01*
X136027546Y-66227420D01*
X135989882Y-66249002D01*
X135957514Y-66279581D01*
X135933115Y-66316105D01*
X135913957Y-66363126D01*
X135900813Y-66423034D01*
X135895055Y-66498696D01*
X135760582Y-66498696D01*
X135760454Y-66496347D01*
X135768863Y-66402328D01*
X135789302Y-66323206D01*
X135820581Y-66256478D01*
X135862417Y-66200176D01*
X135915219Y-66153696D01*
X135975551Y-66120920D01*
X136044961Y-66101233D01*
X136125652Y-66095320D01*
X136205316Y-66104003D01*
G37*
G36*
X137313528Y-66910258D02*
G01*
X137183083Y-66907981D01*
X137184607Y-66820645D01*
X137117313Y-66866505D01*
X137056930Y-66897961D01*
X136993847Y-66917455D01*
X136923210Y-66923300D01*
X136862981Y-66917140D01*
X136812545Y-66901834D01*
X136770095Y-66878070D01*
X136734329Y-66845670D01*
X136706832Y-66806430D01*
X136686487Y-66758152D01*
X136673835Y-66698899D01*
X136670155Y-66626268D01*
X136678907Y-66124832D01*
X136809353Y-66127109D01*
X136801666Y-66567447D01*
X136805429Y-66668278D01*
X136813724Y-66708149D01*
X136827811Y-66740333D01*
X136849113Y-66767294D01*
X136875605Y-66785531D01*
X136908912Y-66795966D01*
X136962141Y-66800878D01*
X137013387Y-66795624D01*
X137073258Y-66776509D01*
X137131760Y-66747615D01*
X137186516Y-66711289D01*
X137196595Y-66133868D01*
X137327040Y-66136145D01*
X137313528Y-66910258D01*
G37*
G36*
X137972687Y-66915497D02*
G01*
X137892270Y-66929977D01*
X137814749Y-66934891D01*
X137755543Y-66929323D01*
X137707166Y-66915852D01*
X137667629Y-66895388D01*
X137635420Y-66868100D01*
X137610916Y-66834369D01*
X137592426Y-66790645D01*
X137580696Y-66734489D01*
X137577265Y-66662888D01*
X137584440Y-66251827D01*
X137496360Y-66250289D01*
X137498300Y-66139135D01*
X137586380Y-66140672D01*
X137590261Y-65918363D01*
X137720768Y-65920641D01*
X137716888Y-66142950D01*
X137986090Y-66147649D01*
X137984150Y-66258804D01*
X137714947Y-66254105D01*
X137708810Y-66605743D01*
X137709880Y-66700818D01*
X137715577Y-66734003D01*
X137728243Y-66764985D01*
X137746108Y-66789414D01*
X137769468Y-66806159D01*
X137799779Y-66815730D01*
X137850812Y-66820361D01*
X137883006Y-66818752D01*
X137917586Y-66812591D01*
X137967779Y-66798576D01*
X137974726Y-66798697D01*
X137972687Y-66915497D01*
G37*
G36*
X125444643Y-73199692D02*
G01*
X125068446Y-74232000D01*
X124885249Y-74232000D01*
X124509052Y-73199692D01*
X124656206Y-73199692D01*
X124980291Y-74107924D01*
X125304438Y-73199692D01*
X125444643Y-73199692D01*
G37*
G36*
X125731381Y-73326746D02*
G01*
X125584228Y-73326746D01*
X125584228Y-73191752D01*
X125731381Y-73191752D01*
X125731381Y-73326746D01*
G37*
G36*
X125723006Y-74232000D02*
G01*
X125592541Y-74232000D01*
X125592541Y-73457769D01*
X125723006Y-73457769D01*
X125723006Y-74232000D01*
G37*
G36*
X126629500Y-74232000D02*
G01*
X126499035Y-74232000D01*
X126499035Y-73791594D01*
X126492769Y-73691527D01*
X126483314Y-73647926D01*
X126469878Y-73618447D01*
X126448850Y-73593257D01*
X126419875Y-73575207D01*
X126384549Y-73564918D01*
X126335256Y-73561000D01*
X126281825Y-73567284D01*
X126223464Y-73587304D01*
X126166712Y-73617049D01*
X126111734Y-73654491D01*
X126111734Y-74232000D01*
X125981269Y-74232000D01*
X125981269Y-73457769D01*
X126111734Y-73457769D01*
X126111734Y-73545118D01*
X126174712Y-73499629D01*
X126238043Y-73466268D01*
X126304448Y-73444944D01*
X126371982Y-73437917D01*
X126434165Y-73443177D01*
X126485541Y-73457922D01*
X126528174Y-73481284D01*
X126563554Y-73513355D01*
X126590918Y-73552466D01*
X126611474Y-73600404D01*
X126624724Y-73658993D01*
X126629500Y-73730487D01*
X126629500Y-74232000D01*
G37*
D11*
X154019819Y-95808333D02*
X154734104Y-95808333D01*
X154734104Y-95808333D02*
X154876961Y-95855952D01*
X154876961Y-95855952D02*
X154972200Y-95951190D01*
X154972200Y-95951190D02*
X155019819Y-96094047D01*
X155019819Y-96094047D02*
X155019819Y-96189285D01*
X155019819Y-94808333D02*
X155019819Y-95379761D01*
X155019819Y-95094047D02*
X154019819Y-95094047D01*
X154019819Y-95094047D02*
X154162676Y-95189285D01*
X154162676Y-95189285D02*
X154257914Y-95284523D01*
X154257914Y-95284523D02*
X154305533Y-95379761D01*
X146037200Y-86643332D02*
X146084819Y-86500475D01*
X146084819Y-86500475D02*
X146084819Y-86262380D01*
X146084819Y-86262380D02*
X146037200Y-86167142D01*
X146037200Y-86167142D02*
X145989580Y-86119523D01*
X145989580Y-86119523D02*
X145894342Y-86071904D01*
X145894342Y-86071904D02*
X145799104Y-86071904D01*
X145799104Y-86071904D02*
X145703866Y-86119523D01*
X145703866Y-86119523D02*
X145656247Y-86167142D01*
X145656247Y-86167142D02*
X145608628Y-86262380D01*
X145608628Y-86262380D02*
X145561009Y-86452856D01*
X145561009Y-86452856D02*
X145513390Y-86548094D01*
X145513390Y-86548094D02*
X145465771Y-86595713D01*
X145465771Y-86595713D02*
X145370533Y-86643332D01*
X145370533Y-86643332D02*
X145275295Y-86643332D01*
X145275295Y-86643332D02*
X145180057Y-86595713D01*
X145180057Y-86595713D02*
X145132438Y-86548094D01*
X145132438Y-86548094D02*
X145084819Y-86452856D01*
X145084819Y-86452856D02*
X145084819Y-86214761D01*
X145084819Y-86214761D02*
X145132438Y-86071904D01*
X145084819Y-85738570D02*
X146084819Y-85500475D01*
X146084819Y-85500475D02*
X145370533Y-85309999D01*
X145370533Y-85309999D02*
X146084819Y-85119523D01*
X146084819Y-85119523D02*
X145084819Y-84881428D01*
X146084819Y-83976666D02*
X146084819Y-84548094D01*
X146084819Y-84262380D02*
X145084819Y-84262380D01*
X145084819Y-84262380D02*
X145227676Y-84357618D01*
X145227676Y-84357618D02*
X145322914Y-84452856D01*
X145322914Y-84452856D02*
X145370533Y-84548094D01*
X145048333Y-75239580D02*
X145000714Y-75287200D01*
X145000714Y-75287200D02*
X144857857Y-75334819D01*
X144857857Y-75334819D02*
X144762619Y-75334819D01*
X144762619Y-75334819D02*
X144619762Y-75287200D01*
X144619762Y-75287200D02*
X144524524Y-75191961D01*
X144524524Y-75191961D02*
X144476905Y-75096723D01*
X144476905Y-75096723D02*
X144429286Y-74906247D01*
X144429286Y-74906247D02*
X144429286Y-74763390D01*
X144429286Y-74763390D02*
X144476905Y-74572914D01*
X144476905Y-74572914D02*
X144524524Y-74477676D01*
X144524524Y-74477676D02*
X144619762Y-74382438D01*
X144619762Y-74382438D02*
X144762619Y-74334819D01*
X144762619Y-74334819D02*
X144857857Y-74334819D01*
X144857857Y-74334819D02*
X145000714Y-74382438D01*
X145000714Y-74382438D02*
X145048333Y-74430057D01*
X145619762Y-74763390D02*
X145524524Y-74715771D01*
X145524524Y-74715771D02*
X145476905Y-74668152D01*
X145476905Y-74668152D02*
X145429286Y-74572914D01*
X145429286Y-74572914D02*
X145429286Y-74525295D01*
X145429286Y-74525295D02*
X145476905Y-74430057D01*
X145476905Y-74430057D02*
X145524524Y-74382438D01*
X145524524Y-74382438D02*
X145619762Y-74334819D01*
X145619762Y-74334819D02*
X145810238Y-74334819D01*
X145810238Y-74334819D02*
X145905476Y-74382438D01*
X145905476Y-74382438D02*
X145953095Y-74430057D01*
X145953095Y-74430057D02*
X146000714Y-74525295D01*
X146000714Y-74525295D02*
X146000714Y-74572914D01*
X146000714Y-74572914D02*
X145953095Y-74668152D01*
X145953095Y-74668152D02*
X145905476Y-74715771D01*
X145905476Y-74715771D02*
X145810238Y-74763390D01*
X145810238Y-74763390D02*
X145619762Y-74763390D01*
X145619762Y-74763390D02*
X145524524Y-74811009D01*
X145524524Y-74811009D02*
X145476905Y-74858628D01*
X145476905Y-74858628D02*
X145429286Y-74953866D01*
X145429286Y-74953866D02*
X145429286Y-75144342D01*
X145429286Y-75144342D02*
X145476905Y-75239580D01*
X145476905Y-75239580D02*
X145524524Y-75287200D01*
X145524524Y-75287200D02*
X145619762Y-75334819D01*
X145619762Y-75334819D02*
X145810238Y-75334819D01*
X145810238Y-75334819D02*
X145905476Y-75287200D01*
X145905476Y-75287200D02*
X145953095Y-75239580D01*
X145953095Y-75239580D02*
X146000714Y-75144342D01*
X146000714Y-75144342D02*
X146000714Y-74953866D01*
X146000714Y-74953866D02*
X145953095Y-74858628D01*
X145953095Y-74858628D02*
X145905476Y-74811009D01*
X145905476Y-74811009D02*
X145810238Y-74763390D01*
D19*
X147111998Y-95764228D02*
X147111998Y-95038514D01*
X148381998Y-95401371D02*
X147111998Y-95401371D01*
X147535331Y-94070895D02*
X148381998Y-94070895D01*
X147051522Y-94373276D02*
X147958664Y-94675657D01*
X147958664Y-94675657D02*
X147958664Y-93889466D01*
D11*
X141942142Y-108044819D02*
X141608809Y-107568628D01*
X141370714Y-108044819D02*
X141370714Y-107044819D01*
X141370714Y-107044819D02*
X141751666Y-107044819D01*
X141751666Y-107044819D02*
X141846904Y-107092438D01*
X141846904Y-107092438D02*
X141894523Y-107140057D01*
X141894523Y-107140057D02*
X141942142Y-107235295D01*
X141942142Y-107235295D02*
X141942142Y-107378152D01*
X141942142Y-107378152D02*
X141894523Y-107473390D01*
X141894523Y-107473390D02*
X141846904Y-107521009D01*
X141846904Y-107521009D02*
X141751666Y-107568628D01*
X141751666Y-107568628D02*
X141370714Y-107568628D01*
X142894523Y-108044819D02*
X142323095Y-108044819D01*
X142608809Y-108044819D02*
X142608809Y-107044819D01*
X142608809Y-107044819D02*
X142513571Y-107187676D01*
X142513571Y-107187676D02*
X142418333Y-107282914D01*
X142418333Y-107282914D02*
X142323095Y-107330533D01*
X143513571Y-107044819D02*
X143608809Y-107044819D01*
X143608809Y-107044819D02*
X143704047Y-107092438D01*
X143704047Y-107092438D02*
X143751666Y-107140057D01*
X143751666Y-107140057D02*
X143799285Y-107235295D01*
X143799285Y-107235295D02*
X143846904Y-107425771D01*
X143846904Y-107425771D02*
X143846904Y-107663866D01*
X143846904Y-107663866D02*
X143799285Y-107854342D01*
X143799285Y-107854342D02*
X143751666Y-107949580D01*
X143751666Y-107949580D02*
X143704047Y-107997200D01*
X143704047Y-107997200D02*
X143608809Y-108044819D01*
X143608809Y-108044819D02*
X143513571Y-108044819D01*
X143513571Y-108044819D02*
X143418333Y-107997200D01*
X143418333Y-107997200D02*
X143370714Y-107949580D01*
X143370714Y-107949580D02*
X143323095Y-107854342D01*
X143323095Y-107854342D02*
X143275476Y-107663866D01*
X143275476Y-107663866D02*
X143275476Y-107425771D01*
X143275476Y-107425771D02*
X143323095Y-107235295D01*
X143323095Y-107235295D02*
X143370714Y-107140057D01*
X143370714Y-107140057D02*
X143418333Y-107092438D01*
X143418333Y-107092438D02*
X143513571Y-107044819D01*
D19*
X110633788Y-76560558D02*
X110633788Y-75834844D01*
X111903788Y-76197701D02*
X110633788Y-76197701D01*
X110754740Y-75471987D02*
X110694264Y-75411511D01*
X110694264Y-75411511D02*
X110633788Y-75290558D01*
X110633788Y-75290558D02*
X110633788Y-74988177D01*
X110633788Y-74988177D02*
X110694264Y-74867225D01*
X110694264Y-74867225D02*
X110754740Y-74806749D01*
X110754740Y-74806749D02*
X110875692Y-74746272D01*
X110875692Y-74746272D02*
X110996645Y-74746272D01*
X110996645Y-74746272D02*
X111178073Y-74806749D01*
X111178073Y-74806749D02*
X111903788Y-75532463D01*
X111903788Y-75532463D02*
X111903788Y-74746272D01*
D11*
X146069156Y-101231515D02*
X146574232Y-101736591D01*
X146574232Y-101736591D02*
X146641576Y-101871278D01*
X146641576Y-101871278D02*
X146641576Y-102005965D01*
X146641576Y-102005965D02*
X146574232Y-102140652D01*
X146574232Y-102140652D02*
X146506889Y-102207996D01*
X146944622Y-100827454D02*
X147416026Y-101298858D01*
X146506889Y-100726438D02*
X146843606Y-101399873D01*
X146843606Y-101399873D02*
X147281339Y-100962141D01*
D19*
X150444318Y-76197618D02*
X150444318Y-75471904D01*
X151714318Y-75834761D02*
X150444318Y-75834761D01*
X150444318Y-75169523D02*
X150444318Y-74383332D01*
X150444318Y-74383332D02*
X150928127Y-74806666D01*
X150928127Y-74806666D02*
X150928127Y-74625237D01*
X150928127Y-74625237D02*
X150988603Y-74504285D01*
X150988603Y-74504285D02*
X151049080Y-74443809D01*
X151049080Y-74443809D02*
X151170032Y-74383332D01*
X151170032Y-74383332D02*
X151472413Y-74383332D01*
X151472413Y-74383332D02*
X151593365Y-74443809D01*
X151593365Y-74443809D02*
X151653842Y-74504285D01*
X151653842Y-74504285D02*
X151714318Y-74625237D01*
X151714318Y-74625237D02*
X151714318Y-74988094D01*
X151714318Y-74988094D02*
X151653842Y-75109047D01*
X151653842Y-75109047D02*
X151593365Y-75169523D01*
D11*
X146407769Y-69787393D02*
X145902693Y-70292469D01*
X145902693Y-70292469D02*
X145768006Y-70359813D01*
X145768006Y-70359813D02*
X145633319Y-70359813D01*
X145633319Y-70359813D02*
X145498632Y-70292469D01*
X145498632Y-70292469D02*
X145431288Y-70225126D01*
X147047533Y-70427156D02*
X146912846Y-70292469D01*
X146912846Y-70292469D02*
X146811830Y-70258798D01*
X146811830Y-70258798D02*
X146744487Y-70258798D01*
X146744487Y-70258798D02*
X146576128Y-70292469D01*
X146576128Y-70292469D02*
X146407769Y-70393485D01*
X146407769Y-70393485D02*
X146138395Y-70662859D01*
X146138395Y-70662859D02*
X146104724Y-70763874D01*
X146104724Y-70763874D02*
X146104724Y-70831217D01*
X146104724Y-70831217D02*
X146138395Y-70932233D01*
X146138395Y-70932233D02*
X146273082Y-71066920D01*
X146273082Y-71066920D02*
X146374098Y-71100591D01*
X146374098Y-71100591D02*
X146441441Y-71100591D01*
X146441441Y-71100591D02*
X146542456Y-71066920D01*
X146542456Y-71066920D02*
X146710815Y-70898561D01*
X146710815Y-70898561D02*
X146744487Y-70797546D01*
X146744487Y-70797546D02*
X146744487Y-70730202D01*
X146744487Y-70730202D02*
X146710815Y-70629187D01*
X146710815Y-70629187D02*
X146576128Y-70494500D01*
X146576128Y-70494500D02*
X146475113Y-70460828D01*
X146475113Y-70460828D02*
X146407769Y-70460828D01*
X146407769Y-70460828D02*
X146306754Y-70494500D01*
X115704867Y-101918799D02*
X115199791Y-102423875D01*
X115199791Y-102423875D02*
X115065104Y-102491219D01*
X115065104Y-102491219D02*
X114930417Y-102491219D01*
X114930417Y-102491219D02*
X114795730Y-102423875D01*
X114795730Y-102423875D02*
X114728386Y-102356532D01*
X115940570Y-102289188D02*
X116007913Y-102289188D01*
X116007913Y-102289188D02*
X116108928Y-102322860D01*
X116108928Y-102322860D02*
X116277287Y-102491219D01*
X116277287Y-102491219D02*
X116310959Y-102592234D01*
X116310959Y-102592234D02*
X116310959Y-102659578D01*
X116310959Y-102659578D02*
X116277287Y-102760593D01*
X116277287Y-102760593D02*
X116209944Y-102827936D01*
X116209944Y-102827936D02*
X116075257Y-102895280D01*
X116075257Y-102895280D02*
X115267135Y-102895280D01*
X115267135Y-102895280D02*
X115704867Y-103333013D01*
D22*
X110558050Y-85816672D02*
X110558050Y-86291188D01*
X111603050Y-85816672D02*
X111603050Y-86291188D01*
D13*
X109550000Y-97572220D02*
X112450000Y-97572220D01*
X109550000Y-97972220D02*
X109550000Y-97572220D01*
X112450000Y-97572220D02*
X112450000Y-97972220D01*
X112450000Y-97972220D02*
X109550000Y-97972220D01*
X112500000Y-96122220D02*
X112500000Y-97222220D01*
D20*
X109100000Y-91150000D02*
X109100000Y-91300000D01*
X109100000Y-91150000D02*
X109740000Y-91150000D01*
X109300000Y-93850000D02*
X109740000Y-93850000D01*
X110660000Y-91150000D02*
X111300000Y-91150000D01*
X110660000Y-93850000D02*
X111300000Y-93850000D01*
X111275000Y-91275000D02*
X111275000Y-91425000D01*
X111300000Y-93700000D02*
X111300000Y-93850000D01*
X109100000Y-94210000D02*
X108740000Y-93850000D01*
X109100000Y-93850000D01*
X109100000Y-94210000D01*
G36*
X109100000Y-94210000D02*
G01*
X108740000Y-93850000D01*
X109100000Y-93850000D01*
X109100000Y-94210000D01*
G37*
D22*
X144380490Y-107453040D02*
X144380490Y-107171880D01*
X145400490Y-107453040D02*
X145400490Y-107171880D01*
X135740372Y-84573850D02*
X136214888Y-84573850D01*
X135740372Y-85618850D02*
X136214888Y-85618850D01*
X126069630Y-86017980D02*
X126069630Y-85736820D01*
X127089630Y-86017980D02*
X127089630Y-85736820D01*
X110547500Y-88987742D02*
X110547500Y-89462258D01*
X111592500Y-88987742D02*
X111592500Y-89462258D01*
X142404198Y-78829230D02*
X142926702Y-78829230D01*
X142404198Y-80299230D02*
X142926702Y-80299230D01*
X133612258Y-79797500D02*
X133137742Y-79797500D01*
X133612258Y-80842500D02*
X133137742Y-80842500D01*
X121951518Y-86713800D02*
X121477002Y-86713800D01*
X121951518Y-87758800D02*
X121477002Y-87758800D01*
D23*
X128960940Y-81935420D02*
X128960940Y-82230420D01*
X128960940Y-81935420D02*
X129255940Y-81935420D01*
X128960940Y-85935420D02*
X128960940Y-85640420D01*
X128960940Y-85935420D02*
X129255940Y-85935420D01*
X132960940Y-81935420D02*
X132665940Y-81935420D01*
X132960940Y-81935420D02*
X132960940Y-82230420D01*
X132960940Y-85935420D02*
X132665940Y-85935420D01*
X132960940Y-85935420D02*
X132960940Y-85640420D01*
D13*
X134060940Y-85185420D02*
G75*
G02*
X133860940Y-85185420I-100000J0D01*
G01*
X133860940Y-85185420D02*
G75*
G02*
X134060940Y-85185420I100000J0D01*
G01*
D22*
X142319130Y-77290200D02*
X142600290Y-77290200D01*
X142319130Y-78310200D02*
X142600290Y-78310200D01*
X108760590Y-81612840D02*
X108760590Y-83897840D01*
X108760590Y-83897840D02*
X110230590Y-83897840D01*
X110230590Y-83897840D02*
X110230590Y-81612840D01*
D19*
X120808000Y-75248000D02*
X120808000Y-64072000D01*
X142652000Y-64072000D02*
X120808000Y-64072000D01*
X142652000Y-75248000D02*
X120808000Y-75248000D01*
X142652000Y-75248000D02*
X142652000Y-64072000D01*
D22*
X143273410Y-64151840D02*
X143273410Y-65621840D01*
X143273410Y-65621840D02*
X145558410Y-65621840D01*
X145558410Y-64151840D02*
X143273410Y-64151840D01*
X121808110Y-89221450D02*
X122808110Y-89221450D01*
X121808110Y-90001450D02*
X121808110Y-89221450D01*
X121808110Y-114961450D02*
X121808110Y-108546450D01*
X140048110Y-89221450D02*
X139048110Y-89221450D01*
X140048110Y-90001450D02*
X140048110Y-89221450D01*
X140048110Y-108546450D02*
X140428110Y-108546450D01*
X140048110Y-114961450D02*
X121808110Y-114961450D01*
X140048110Y-114961450D02*
X140048110Y-108546450D01*
D14*
X150480000Y-80870000D02*
X150480000Y-83580000D01*
X150480000Y-80870000D02*
X153380000Y-80870000D01*
X150480000Y-85040000D02*
X150480000Y-85580000D01*
X150480000Y-87040000D02*
X150480000Y-87580000D01*
X150480000Y-89040000D02*
X150480000Y-89760000D01*
X150480000Y-89760000D02*
X153380000Y-89760000D01*
X153380000Y-81230000D02*
X153380000Y-80870000D01*
X153380000Y-87530000D02*
X153380000Y-83090000D01*
X153380000Y-89760000D02*
X153380000Y-89390000D01*
X155380000Y-85540000D02*
X153380000Y-85540000D01*
X155380000Y-87040000D02*
X153380000Y-87040000D01*
X155380000Y-87040000D02*
X155380000Y-85540000D01*
D22*
X145362389Y-100969959D02*
X146564471Y-102172041D01*
X145362389Y-100969959D02*
X147165511Y-99166837D01*
X146564471Y-102172041D02*
X148367593Y-100368919D01*
X111443538Y-77864440D02*
X110969022Y-77864440D01*
X111443538Y-78909440D02*
X110969022Y-78909440D01*
X116414951Y-72691970D02*
X116216140Y-72890781D01*
X117136200Y-73413219D02*
X116937389Y-73612030D01*
X143398472Y-83853760D02*
X143872988Y-83853760D01*
X143398472Y-84898760D02*
X143872988Y-84898760D01*
X145074420Y-75800000D02*
X145355580Y-75800000D01*
X145074420Y-76820000D02*
X145355580Y-76820000D01*
X110550430Y-82185742D02*
X110550430Y-82660258D01*
X111595430Y-82185742D02*
X111595430Y-82660258D01*
X135740372Y-86111820D02*
X136214888Y-86111820D01*
X135740372Y-87156820D02*
X136214888Y-87156820D01*
X138204820Y-80893190D02*
X137923660Y-80893190D01*
X138204820Y-81913190D02*
X137923660Y-81913190D01*
X147607252Y-91307390D02*
X148081768Y-91307390D01*
X147607252Y-92352390D02*
X148081768Y-92352390D01*
X110107962Y-94365550D02*
X110582478Y-94365550D01*
X110107962Y-95410550D02*
X110582478Y-95410550D01*
X146945740Y-77655960D02*
X147226900Y-77655960D01*
X146945740Y-78675960D02*
X147226900Y-78675960D01*
D13*
X146357680Y-94596610D02*
X149257680Y-94596610D01*
X146357680Y-94996610D02*
X146357680Y-94596610D01*
X149257680Y-94596610D02*
X149257680Y-94996610D01*
X149257680Y-94996610D02*
X146357680Y-94996610D01*
X149307680Y-93146610D02*
X149307680Y-94246610D01*
D22*
X109798122Y-69563190D02*
X112343707Y-72108775D01*
X110222386Y-69563190D02*
X110929493Y-70270297D01*
X110929493Y-70270297D02*
X110717361Y-70482429D01*
X111247691Y-71012759D02*
X111459823Y-70800627D01*
X111459823Y-70800627D02*
X112237641Y-71578444D01*
X112237641Y-71578444D02*
X112449773Y-71366312D01*
X112343707Y-72108775D02*
X115419621Y-69032860D01*
X112449773Y-71366312D02*
X112767971Y-71684511D01*
X112874037Y-66048869D02*
X111523463Y-67399443D01*
X112874037Y-66487276D02*
X109798122Y-69563190D01*
X112874037Y-66911540D02*
X110222386Y-69563190D01*
X113298301Y-70517784D02*
X112449773Y-71366312D01*
X113510433Y-70729916D02*
X113298301Y-70517784D01*
X113581143Y-67618647D02*
X112874037Y-66911540D01*
X113793276Y-67406514D02*
X113581143Y-67618647D01*
X113828631Y-69987454D02*
X114040763Y-70199586D01*
X114040763Y-70199586D02*
X113510433Y-70729916D01*
X114111474Y-68148977D02*
X114889291Y-68926794D01*
X114224611Y-67399443D02*
X112874037Y-66048869D01*
X114323606Y-67936845D02*
X114111474Y-68148977D01*
X114677159Y-69138926D02*
X113828631Y-69987454D01*
X114677159Y-69138926D02*
X114995357Y-69457124D01*
X114889291Y-68926794D02*
X114677159Y-69138926D01*
X115419621Y-69032860D02*
X112874037Y-66487276D01*
X142822258Y-105637500D02*
X142347742Y-105637500D01*
X142822258Y-106682500D02*
X142347742Y-106682500D01*
D13*
X109829470Y-77242940D02*
X109829470Y-76142940D01*
X109879470Y-75392940D02*
X112779470Y-75392940D01*
X109879470Y-75792940D02*
X109879470Y-75392940D01*
X112779470Y-75392940D02*
X112779470Y-75792940D01*
X112779470Y-75792940D02*
X109879470Y-75792940D01*
D22*
X143872988Y-82333570D02*
X143398472Y-82333570D01*
X143872988Y-83378570D02*
X143398472Y-83378570D01*
X115948339Y-70193629D02*
X114145217Y-71996751D01*
X117150421Y-71395711D02*
X115347299Y-73198833D01*
X117150421Y-71395711D02*
X115948339Y-70193629D01*
X142421030Y-107269820D02*
X142702190Y-107269820D01*
X142421030Y-108289820D02*
X142702190Y-108289820D01*
X145933756Y-103693553D02*
X148479340Y-106239137D01*
X146464086Y-103799619D02*
X146676218Y-103587487D01*
X146676218Y-103587487D02*
X146358020Y-103269289D01*
X146676218Y-103587487D02*
X147524746Y-102738959D01*
X147029771Y-104789568D02*
X147241903Y-104577436D01*
X147128766Y-105326970D02*
X148479340Y-106677544D01*
X147241903Y-104577436D02*
X146464086Y-103799619D01*
X147312614Y-102526827D02*
X147842944Y-101996497D01*
X147524746Y-102738959D02*
X147312614Y-102526827D01*
X147560101Y-105319899D02*
X147772234Y-105107766D01*
X147772234Y-105107766D02*
X148479340Y-105814873D01*
X147842944Y-101996497D02*
X148055076Y-102208629D01*
X148055076Y-102208629D02*
X148903604Y-101360101D01*
X148479340Y-105814873D02*
X151130991Y-103163223D01*
X148479340Y-106239137D02*
X151555255Y-103163223D01*
X148479340Y-106677544D02*
X149829914Y-105326970D01*
X148903604Y-101360101D02*
X148585406Y-101041902D01*
X149009670Y-100617638D02*
X145933756Y-103693553D01*
X149115736Y-101147969D02*
X148903604Y-101360101D01*
X149893554Y-101925786D02*
X149115736Y-101147969D01*
X150105686Y-101713654D02*
X149893554Y-101925786D01*
X150423884Y-102456116D02*
X150636016Y-102243984D01*
X151130991Y-103163223D02*
X150423884Y-102456116D01*
X151555255Y-103163223D02*
X149009670Y-100617638D01*
X147411070Y-73443970D02*
X147411070Y-75993970D01*
X149111070Y-73443970D02*
X147411070Y-73443970D01*
X149111070Y-73443970D02*
X149111070Y-75993970D01*
X137835872Y-82397070D02*
X138310388Y-82397070D01*
X137835872Y-83442070D02*
X138310388Y-83442070D01*
X146888590Y-97335880D02*
X147169750Y-97335880D01*
X146888590Y-98355880D02*
X147169750Y-98355880D01*
X142422000Y-104070690D02*
X142703160Y-104070690D01*
X142422000Y-105090690D02*
X142703160Y-105090690D01*
X126022640Y-82028910D02*
X126022640Y-81747750D01*
X127042640Y-82028910D02*
X127042640Y-81747750D01*
D13*
X149640000Y-76880000D02*
X149640000Y-75780000D01*
X149690000Y-75030000D02*
X152590000Y-75030000D01*
X149690000Y-75430000D02*
X149690000Y-75030000D01*
X152590000Y-75030000D02*
X152590000Y-75430000D01*
X152590000Y-75430000D02*
X149690000Y-75430000D01*
D22*
X108779640Y-85299970D02*
X108779640Y-87584970D01*
X108779640Y-87584970D02*
X110249640Y-87584970D01*
X110249640Y-87584970D02*
X110249640Y-85299970D01*
X138850370Y-77205400D02*
X137050370Y-77205400D01*
X138850370Y-77205400D02*
X139650370Y-77205400D01*
X138850370Y-80325400D02*
X138050370Y-80325400D01*
X138850370Y-80325400D02*
X139650370Y-80325400D01*
X117670000Y-85983770D02*
X119000000Y-85983770D01*
X117670000Y-87313770D02*
X117670000Y-85983770D01*
X117670000Y-88583770D02*
X117670000Y-101343770D01*
X117670000Y-88583770D02*
X120330000Y-88583770D01*
X117670000Y-101343770D02*
X120330000Y-101343770D01*
X120330000Y-88583770D02*
X120330000Y-101343770D01*
X119157500Y-74077742D02*
X119157500Y-74552258D01*
X120202500Y-74077742D02*
X120202500Y-74552258D01*
X134620000Y-75950000D02*
X129220000Y-75950000D01*
X134620000Y-79250000D02*
X129220000Y-79250000D01*
X134620000Y-79250000D02*
X134620000Y-75950000D01*
X129755580Y-79640000D02*
X129474420Y-79640000D01*
X129755580Y-80660000D02*
X129474420Y-80660000D01*
X151132258Y-77497500D02*
X150657742Y-77497500D01*
X151132258Y-78542500D02*
X150657742Y-78542500D01*
X135393970Y-78411460D02*
X135393970Y-78692620D01*
X136413970Y-78411460D02*
X136413970Y-78692620D01*
X145494295Y-68089287D02*
X148570210Y-71165201D01*
X146024626Y-67983221D02*
X146236758Y-68195353D01*
X146236758Y-68195353D02*
X145918559Y-68513551D01*
X146590311Y-66993271D02*
X146802443Y-67205403D01*
X146802443Y-67205403D02*
X146024626Y-67983221D01*
X146873154Y-69256013D02*
X147085286Y-69043881D01*
X147085286Y-69043881D02*
X146236758Y-68195353D01*
X147332773Y-66675073D02*
X147120641Y-66462941D01*
X147403484Y-69786343D02*
X146873154Y-69256013D01*
X147615616Y-69574211D02*
X147403484Y-69786343D01*
X148039880Y-65543702D02*
X145494295Y-68089287D01*
X148039880Y-65967966D02*
X147332773Y-66675073D01*
X148464144Y-70422739D02*
X147615616Y-69574211D01*
X148464144Y-70422739D02*
X148145946Y-70740937D01*
X148570210Y-71165201D02*
X151115794Y-68619617D01*
X148676276Y-70634871D02*
X148464144Y-70422739D01*
X149454093Y-69857054D02*
X148676276Y-70634871D01*
X149666225Y-70069186D02*
X149454093Y-69857054D01*
X149984423Y-69326723D02*
X150691530Y-68619617D01*
X150196556Y-69538856D02*
X149984423Y-69326723D01*
X150203627Y-69970191D02*
X151554201Y-68619617D01*
X150691530Y-68619617D02*
X148039880Y-65967966D01*
X151115794Y-68619617D02*
X148039880Y-65543702D01*
X151554201Y-68619617D02*
X150203627Y-67269043D01*
X108746620Y-88383530D02*
X108746620Y-90668530D01*
X108746620Y-90668530D02*
X110216620Y-90668530D01*
X110216620Y-90668530D02*
X110216620Y-88383530D01*
X110258839Y-104328983D02*
X111609413Y-105679557D01*
X110697246Y-104328983D02*
X113773160Y-107404898D01*
X111121510Y-104328983D02*
X113773160Y-106980634D01*
X111609413Y-102978409D02*
X110258839Y-104328983D01*
X111616484Y-103409744D02*
X111828617Y-103621877D01*
X111828617Y-103621877D02*
X111121510Y-104328983D01*
X112146815Y-102879414D02*
X112358947Y-103091546D01*
X112358947Y-103091546D02*
X113136764Y-102313729D01*
X113136764Y-102313729D02*
X113348896Y-102525861D01*
X113242830Y-101783399D02*
X110697246Y-104328983D01*
X113348896Y-102525861D02*
X113667094Y-102207663D01*
X113348896Y-102525861D02*
X114197424Y-103374389D01*
X113773160Y-106980634D02*
X114480267Y-106273527D01*
X113773160Y-107404898D02*
X116318745Y-104859313D01*
X114197424Y-103374389D02*
X114409556Y-103162257D01*
X114409556Y-103162257D02*
X114939886Y-103692587D01*
X114480267Y-106273527D02*
X114692399Y-106485659D01*
X114727754Y-103904719D02*
X115576282Y-104753247D01*
X114939886Y-103692587D02*
X114727754Y-103904719D01*
X115010597Y-105743197D02*
X115788414Y-104965379D01*
X115222729Y-105955329D02*
X115010597Y-105743197D01*
X115576282Y-104753247D02*
X115894481Y-104435049D01*
X115788414Y-104965379D02*
X115576282Y-104753247D01*
X116318745Y-104859313D02*
X113242830Y-101783399D01*
X114191660Y-96431640D02*
X113910500Y-96431640D01*
X114191660Y-97451640D02*
X113910500Y-97451640D01*
X142614070Y-86011710D02*
X143944070Y-86011710D01*
X142614070Y-87341710D02*
X142614070Y-86011710D01*
X142614070Y-88611710D02*
X142614070Y-101371710D01*
X142614070Y-88611710D02*
X145274070Y-88611710D01*
X142614070Y-101371710D02*
X145274070Y-101371710D01*
X145274070Y-88611710D02*
X145274070Y-101371710D01*
X115096169Y-101948521D02*
X113293047Y-100145399D01*
X115096169Y-101948521D02*
X116298251Y-100746439D01*
X116298251Y-100746439D02*
X114495129Y-98943317D01*
D24*
X122647460Y-109008420D02*
X119947440Y-109008420D01*
X108397550Y-101116380D02*
X108397550Y-102768910D01*
X141847570Y-109008420D02*
X147090000Y-109008420D01*
X108397550Y-70248020D02*
X108860000Y-69790000D01*
X108397550Y-75400410D02*
X108397550Y-97616520D01*
X139147550Y-109008420D02*
X141847570Y-109008420D01*
X114637060Y-64008510D02*
X113940000Y-64690000D01*
X108397550Y-97616520D02*
X108397550Y-101116380D01*
X113970000Y-108460000D02*
X114637060Y-109008420D01*
X123247410Y-64008510D02*
X138547610Y-64008510D01*
X153397460Y-71900540D02*
X153397460Y-70248020D01*
X147157950Y-64008510D02*
X153397460Y-70248020D01*
X108397550Y-102768910D02*
X108840000Y-103230000D01*
X153397460Y-102768910D02*
X153080000Y-103120000D01*
X108397550Y-70248020D02*
X108397550Y-71900540D01*
X147090000Y-109008420D02*
X153080000Y-103120000D01*
X153397460Y-97616520D02*
X153397460Y-75400410D01*
X113940000Y-64690000D02*
X108860000Y-69790000D01*
X139147550Y-109008420D02*
X122647460Y-109008420D01*
X153397460Y-102768910D02*
X153397460Y-101116380D01*
X153397460Y-71900540D02*
X153397460Y-75400410D01*
X108840000Y-103230000D02*
X113970000Y-108460000D01*
X147157950Y-64008510D02*
X138547610Y-64008510D01*
X123247410Y-64008510D02*
X114637060Y-64008510D01*
X114637060Y-109008420D02*
X119947440Y-109008420D01*
X153397460Y-97616520D02*
X153397460Y-101116380D01*
X108397550Y-75400410D02*
X108397550Y-71900540D01*
M02*
