G04 #@! TF.GenerationSoftware,KiCad,Pcbnew,9.0.1*
G04 #@! TF.CreationDate,2025-04-25T12:08:24+05:30*
G04 #@! TF.ProjectId,esp32_quad_baro_bootser_nousb_BMP,65737033-325f-4717-9561-645f6261726f,rev?*
G04 #@! TF.SameCoordinates,Original*
G04 #@! TF.FileFunction,Paste,Top*
G04 #@! TF.FilePolarity,Positive*
%FSLAX46Y46*%
G04 Gerber Fmt 4.6, Leading zero omitted, Abs format (unit mm)*
G04 Created by KiCad (PCBNEW 9.0.1) date 2025-04-25 12:08:24*
%MOMM*%
%LPD*%
G01*
G04 APERTURE LIST*
G04 Aperture macros list*
%AMRoundRect*
0 Rectangle with rounded corners*
0 $1 Rounding radius*
0 $2 $3 $4 $5 $6 $7 $8 $9 X,Y pos of 4 corners*
0 Add a 4 corners polygon primitive as box body*
4,1,4,$2,$3,$4,$5,$6,$7,$8,$9,$2,$3,0*
0 Add four circle primitives for the rounded corners*
1,1,$1+$1,$2,$3*
1,1,$1+$1,$4,$5*
1,1,$1+$1,$6,$7*
1,1,$1+$1,$8,$9*
0 Add four rect primitives between the rounded corners*
20,1,$1+$1,$2,$3,$4,$5,0*
20,1,$1+$1,$4,$5,$6,$7,0*
20,1,$1+$1,$6,$7,$8,$9,0*
20,1,$1+$1,$8,$9,$2,$3,0*%
%AMRotRect*
0 Rectangle, with rotation*
0 The origin of the aperture is its center*
0 $1 length*
0 $2 width*
0 $3 Rotation angle, in degrees counterclockwise*
0 Add horizontal line*
21,1,$1,$2,0,0,$3*%
G04 Aperture macros list end*
%ADD10RoundRect,0.200000X-0.275000X0.200000X-0.275000X-0.200000X0.275000X-0.200000X0.275000X0.200000X0*%
%ADD11R,0.600000X1.100000*%
%ADD12R,0.500000X0.350000*%
%ADD13RoundRect,0.225000X0.250000X-0.225000X0.250000X0.225000X-0.250000X0.225000X-0.250000X-0.225000X0*%
%ADD14RoundRect,0.200000X-0.200000X-0.275000X0.200000X-0.275000X0.200000X0.275000X-0.200000X0.275000X0*%
%ADD15RoundRect,0.250000X-0.250000X-0.475000X0.250000X-0.475000X0.250000X0.475000X-0.250000X0.475000X0*%
%ADD16RoundRect,0.200000X0.200000X0.275000X-0.200000X0.275000X-0.200000X-0.275000X0.200000X-0.275000X0*%
%ADD17R,0.790000X0.280000*%
%ADD18R,0.280000X0.790000*%
%ADD19RoundRect,0.225000X-0.225000X-0.250000X0.225000X-0.250000X0.225000X0.250000X-0.225000X0.250000X0*%
%ADD20RoundRect,0.218750X0.256250X-0.218750X0.256250X0.218750X-0.256250X0.218750X-0.256250X-0.218750X0*%
%ADD21RoundRect,0.218750X-0.218750X-0.256250X0.218750X-0.256250X0.218750X0.256250X-0.218750X0.256250X0*%
%ADD22R,1.500000X0.900000*%
%ADD23R,0.900000X1.500000*%
%ADD24R,1.050000X1.050000*%
%ADD25R,2.500000X1.000000*%
%ADD26RotRect,0.600000X0.450000X45.000000*%
%ADD27RoundRect,0.225000X-0.017678X0.335876X-0.335876X0.017678X0.017678X-0.335876X0.335876X-0.017678X0*%
%ADD28RoundRect,0.225000X0.225000X0.250000X-0.225000X0.250000X-0.225000X-0.250000X0.225000X-0.250000X0*%
%ADD29RotRect,0.600000X0.450000X225.000000*%
%ADD30R,0.450000X0.600000*%
%ADD31RoundRect,0.150000X-0.512500X-0.150000X0.512500X-0.150000X0.512500X0.150000X-0.512500X0.150000X0*%
%ADD32R,2.500000X1.800000*%
%ADD33RoundRect,0.225000X-0.250000X0.225000X-0.250000X-0.225000X0.250000X-0.225000X0.250000X0.225000X0*%
%ADD34RotRect,0.600000X0.450000X135.000000*%
G04 #@! TA.AperFunction,Profile*
%ADD35C,0.025400*%
G04 #@! TD*
G04 APERTURE END LIST*
D10*
X111080550Y-85228930D03*
X111080550Y-86878930D03*
D11*
X111950000Y-96672220D03*
X110050000Y-96672220D03*
X111000000Y-98872220D03*
D12*
X109400000Y-93475000D03*
X109400000Y-92825000D03*
X109400000Y-92175000D03*
X109400000Y-91525000D03*
X111000000Y-91525000D03*
X111000000Y-92175000D03*
X111000000Y-92825000D03*
X111000000Y-93475000D03*
D13*
X144890490Y-108087460D03*
X144890490Y-106537460D03*
D14*
X135152630Y-85096350D03*
X136802630Y-85096350D03*
D13*
X126579630Y-86652400D03*
X126579630Y-85102400D03*
D10*
X111070000Y-88400000D03*
X111070000Y-90050000D03*
D15*
X141715450Y-79564230D03*
X143615450Y-79564230D03*
D16*
X134200000Y-80320000D03*
X132550000Y-80320000D03*
X122539260Y-87236300D03*
X120889260Y-87236300D03*
D17*
X132930940Y-85185420D03*
X132930940Y-84685420D03*
X132930940Y-84185420D03*
X132930940Y-83685420D03*
X132930940Y-83185420D03*
X132930940Y-82685420D03*
D18*
X132210940Y-81965420D03*
X131710940Y-81965420D03*
X131210940Y-81965420D03*
X130710940Y-81965420D03*
X130210940Y-81965420D03*
X129710940Y-81965420D03*
D17*
X128990940Y-82685420D03*
X128990940Y-83185420D03*
X128990940Y-83685420D03*
X128990940Y-84185420D03*
X128990940Y-84685420D03*
X128990940Y-85185420D03*
D18*
X129710940Y-85905420D03*
X130210940Y-85905420D03*
X130710940Y-85905420D03*
X131210940Y-85905420D03*
X131710940Y-85905420D03*
X132210940Y-85905420D03*
D19*
X141684710Y-77800200D03*
X143234710Y-77800200D03*
D20*
X109495590Y-83200340D03*
X109495590Y-81625340D03*
D21*
X143970910Y-64886840D03*
X145545910Y-64886840D03*
D22*
X139678110Y-107351450D03*
X139678110Y-106081450D03*
X139678110Y-104811450D03*
X139678110Y-103541450D03*
X139678110Y-102271450D03*
X139678110Y-101001450D03*
X139678110Y-99731450D03*
X139678110Y-98461450D03*
X139678110Y-97191450D03*
X139678110Y-95921450D03*
X139678110Y-94651450D03*
X139678110Y-93381450D03*
X139678110Y-92111450D03*
X139678110Y-90841450D03*
D23*
X136638110Y-89591450D03*
X135368110Y-89591450D03*
X134098110Y-89591450D03*
X132828110Y-89591450D03*
X131558110Y-89591450D03*
X130288110Y-89591450D03*
X129018110Y-89591450D03*
X127748110Y-89591450D03*
X126478110Y-89591450D03*
X125208110Y-89591450D03*
D22*
X122178110Y-90841450D03*
X122178110Y-92111450D03*
X122178110Y-93381450D03*
X122178110Y-94651450D03*
X122178110Y-95921450D03*
X122178110Y-97191450D03*
X122178110Y-98461450D03*
X122178110Y-99731450D03*
X122178110Y-101001450D03*
X122178110Y-102271450D03*
X122178110Y-103541450D03*
X122178110Y-104811450D03*
X122178110Y-106081450D03*
X122178110Y-107351450D03*
D24*
X133133110Y-101536450D03*
X133133110Y-100011450D03*
X133133110Y-98486450D03*
X131608110Y-101536450D03*
X131608110Y-100011450D03*
X131608110Y-98486450D03*
X130083110Y-101536450D03*
X130083110Y-100011450D03*
X130083110Y-98486450D03*
D25*
X149630000Y-88310000D03*
X149630000Y-86310000D03*
X149630000Y-84310000D03*
D26*
X146281628Y-101252802D03*
X147766552Y-99767878D03*
D16*
X112031280Y-78386940D03*
X110381280Y-78386940D03*
D27*
X117224178Y-72603992D03*
X116128162Y-73700008D03*
D14*
X142810730Y-84376260D03*
X144460730Y-84376260D03*
D19*
X144440000Y-76310000D03*
X145990000Y-76310000D03*
D10*
X111072930Y-81598000D03*
X111072930Y-83248000D03*
D14*
X135152630Y-86634320D03*
X136802630Y-86634320D03*
D28*
X138839240Y-81403190D03*
X137289240Y-81403190D03*
D14*
X147019510Y-91829890D03*
X148669510Y-91829890D03*
X109520220Y-94888050D03*
X111170220Y-94888050D03*
D19*
X146311320Y-78165960D03*
X147861320Y-78165960D03*
D11*
X148757680Y-93696610D03*
X146857680Y-93696610D03*
X147807680Y-95896610D03*
D16*
X143410000Y-106160000D03*
X141760000Y-106160000D03*
D11*
X110379470Y-76692940D03*
X112279470Y-76692940D03*
X111329470Y-74492940D03*
D16*
X144460730Y-82856070D03*
X142810730Y-82856070D03*
D29*
X116231182Y-71112868D03*
X114746258Y-72597792D03*
D19*
X141786610Y-107779820D03*
X143336610Y-107779820D03*
D30*
X148261070Y-73893970D03*
X148261070Y-75993970D03*
D14*
X137248130Y-82919570D03*
X138898130Y-82919570D03*
D19*
X146254170Y-97845880D03*
X147804170Y-97845880D03*
X141787580Y-104580690D03*
X143337580Y-104580690D03*
D13*
X126532640Y-82663330D03*
X126532640Y-81113330D03*
D11*
X150190000Y-76330000D03*
X152090000Y-76330000D03*
X151140000Y-74130000D03*
D20*
X109514640Y-86887470D03*
X109514640Y-85312470D03*
D31*
X137712870Y-77815400D03*
X137712870Y-78765400D03*
X137712870Y-79715400D03*
X139987870Y-79715400D03*
X139987870Y-77815400D03*
D10*
X119680000Y-73490000D03*
X119680000Y-75140000D03*
D32*
X133220000Y-77600000D03*
X129220000Y-77600000D03*
D28*
X130390000Y-80150000D03*
X128840000Y-80150000D03*
D16*
X151720000Y-78020000D03*
X150070000Y-78020000D03*
D33*
X135903970Y-77777040D03*
X135903970Y-79327040D03*
D20*
X109481620Y-89971030D03*
X109481620Y-88396030D03*
D28*
X114826080Y-96941640D03*
X113276080Y-96941640D03*
D34*
X115379012Y-101029282D03*
X113894088Y-99544358D03*
D35*
X122647460Y-109008420D02*
X119947440Y-109008420D01*
X108397550Y-101116380D02*
X108397550Y-102768910D01*
X141847570Y-109008420D02*
X147090000Y-109008420D01*
X108397550Y-70248020D02*
X108860000Y-69790000D01*
X108397550Y-75400410D02*
X108397550Y-97616520D01*
X139147550Y-109008420D02*
X141847570Y-109008420D01*
X114637060Y-64008510D02*
X113940000Y-64690000D01*
X108397550Y-97616520D02*
X108397550Y-101116380D01*
X113970000Y-108460000D02*
X114637060Y-109008420D01*
X123247410Y-64008510D02*
X138547610Y-64008510D01*
X153397460Y-71900540D02*
X153397460Y-70248020D01*
X147157950Y-64008510D02*
X153397460Y-70248020D01*
X108397550Y-102768910D02*
X108840000Y-103230000D01*
X153397460Y-102768910D02*
X153080000Y-103120000D01*
X108397550Y-70248020D02*
X108397550Y-71900540D01*
X147090000Y-109008420D02*
X153080000Y-103120000D01*
X153397460Y-97616520D02*
X153397460Y-75400410D01*
X113940000Y-64690000D02*
X108860000Y-69790000D01*
X139147550Y-109008420D02*
X122647460Y-109008420D01*
X153397460Y-102768910D02*
X153397460Y-101116380D01*
X153397460Y-71900540D02*
X153397460Y-75400410D01*
X108840000Y-103230000D02*
X113970000Y-108460000D01*
X147157950Y-64008510D02*
X138547610Y-64008510D01*
X123247410Y-64008510D02*
X114637060Y-64008510D01*
X114637060Y-109008420D02*
X119947440Y-109008420D01*
X153397460Y-97616520D02*
X153397460Y-101116380D01*
X108397550Y-75400410D02*
X108397550Y-71900540D01*
M02*
