M48
METRIC
T1C0.300
T2C0.400
T3C0.600
T4C0.800
T5C0.800
T6C0.914
T7C1.000
%
G90
G05
T1
X130.083Y99.249
X130.083Y100.774
X131.608Y99.249
X131.608Y100.774
X133.133Y99.249
X133.133Y100.774
T2
X109.0Y96.5
X109.32Y79.63
X112.0Y93.0
X112.174Y90.26
X112.49Y88.31
X112.62Y87.12
X113.0Y91.0
X114.5Y94.5
X114.826Y95.254
X115.47Y81.68
X115.48Y83.0
X115.57Y89.54
X115.58Y102.48
X115.95Y101.63
X115.981Y87.764
X116.154Y70.899
X116.49Y104.45
X116.801Y70.252
X117.04Y103.29
X117.41Y104.26
X117.434Y69.619
X117.47Y84.83
X119.12Y102.36
X119.16Y103.98
X120.18Y86.14
X120.37Y101.78
X120.702Y95.929
X120.86Y88.74
X122.54Y88.146
X123.21Y89.3
X123.24Y83.94
X123.28Y84.94
X123.588Y102.293
X123.622Y97.194
X123.916Y100.973
X124.16Y81.49
X124.22Y104.811
X124.23Y83.94
X124.27Y84.9
X124.38Y86.47
X124.83Y80.7
X125.62Y79.62
X125.67Y103.25
X126.16Y76.056
X126.48Y92.57
X126.498Y96.784
X127.697Y104.788
X127.746Y81.643
X127.763Y97.528
X128.97Y66.49
X128.97Y67.28
X129.81Y66.49
X129.81Y67.28
X130.44Y94.0
X130.72Y67.28
X130.73Y66.49
X131.04Y72.53
X131.11Y92.25
X131.537Y87.197
X132.02Y72.5
X133.06Y72.46
X133.53Y81.572
X133.703Y86.142
X134.35Y94.93
X134.807Y82.141
X134.879Y76.056
X134.97Y96.11
X135.23Y104.82
X135.946Y95.557
X136.026Y76.072
X136.114Y80.58
X136.897Y76.072
X137.18Y87.96
X137.46Y84.0
X137.7Y98.478
X138.05Y92.38
X138.12Y93.88
X138.41Y95.55
X138.441Y68.417
X139.31Y88.07
X140.45Y85.8
X141.098Y69.412
X141.15Y76.12
X141.21Y86.74
X141.95Y81.46
X142.27Y102.69
X143.269Y102.668
X143.346Y68.275
X143.66Y80.95
X143.71Y74.69
X143.83Y70.71
X144.24Y68.275
X144.56Y74.71
X144.58Y102.53
X144.59Y71.32
X145.084Y68.275
X145.75Y83.07
X146.11Y88.11
X146.15Y70.99
X146.27Y100.83
X146.282Y99.105
X146.282Y99.962
X146.282Y102.149
X146.379Y107.776
X146.54Y70.07
X146.79Y69.08
X147.177Y79.417
X147.41Y103.46
X148.13Y80.81
X148.63Y80.21
X149.5Y90.36
X151.36Y99.86
X151.96Y100.73
X152.27Y71.38
T3
X111.813Y69.386
X112.697Y68.503
X112.712Y104.506
X113.596Y105.39
X148.217Y67.559
X148.656Y104.224
X149.101Y68.443
X149.54Y103.34
T4
X153.39Y82.16
X153.39Y88.46
T5
X151.59Y94.45
X151.59Y96.45
T6
X122.967Y69.66
X122.967Y73.47
X140.747Y65.85
X140.747Y73.47
T7
X119.0Y87.314
X119.0Y89.854
X119.0Y92.394
X119.0Y94.934
X119.0Y97.474
X119.0Y100.014
X143.944Y87.342
X143.944Y89.882
X143.944Y92.422
X143.944Y94.962
X143.944Y97.502
X143.944Y100.042
M30
