G04 #@! TF.GenerationSoftware,KiCad,Pcbnew,9.0.1*
G04 #@! TF.CreationDate,2025-04-25T12:08:24+05:30*
G04 #@! TF.ProjectId,esp32_quad_baro_bootser_nousb_BMP,65737033-325f-4717-9561-645f6261726f,rev?*
G04 #@! TF.SameCoordinates,Original*
G04 #@! TF.FileFunction,Soldermask,Bot*
G04 #@! TF.FilePolarity,Negative*
%FSLAX46Y46*%
G04 Gerber Fmt 4.6, Leading zero omitted, Abs format (unit mm)*
G04 Created by KiCad (PCBNEW 9.0.1) date 2025-04-25 12:08:24*
%MOMM*%
%LPD*%
G01*
G04 APERTURE LIST*
G04 Aperture macros list*
%AMRoundRect*
0 Rectangle with rounded corners*
0 $1 Rounding radius*
0 $2 $3 $4 $5 $6 $7 $8 $9 X,Y pos of 4 corners*
0 Add a 4 corners polygon primitive as box body*
4,1,4,$2,$3,$4,$5,$6,$7,$8,$9,$2,$3,0*
0 Add four circle primitives for the rounded corners*
1,1,$1+$1,$2,$3*
1,1,$1+$1,$4,$5*
1,1,$1+$1,$6,$7*
1,1,$1+$1,$8,$9*
0 Add four rect primitives between the rounded corners*
20,1,$1+$1,$2,$3,$4,$5,0*
20,1,$1+$1,$4,$5,$6,$7,0*
20,1,$1+$1,$6,$7,$8,$9,0*
20,1,$1+$1,$8,$9,$2,$3,0*%
%AMHorizOval*
0 Thick line with rounded ends*
0 $1 width*
0 $2 $3 position (X,Y) of the first rounded end (center of the circle)*
0 $4 $5 position (X,Y) of the second rounded end (center of the circle)*
0 Add line between two ends*
20,1,$1,$2,$3,$4,$5,0*
0 Add two circle primitives to create the rounded ends*
1,1,$1,$2,$3*
1,1,$1,$4,$5*%
G04 Aperture macros list end*
%ADD10O,2.743200X1.727200*%
%ADD11RoundRect,0.250000X-0.650000X0.350000X-0.650000X-0.350000X0.650000X-0.350000X0.650000X0.350000X0*%
%ADD12O,1.800000X1.200000*%
%ADD13C,1.400000*%
%ADD14RoundRect,0.225000X-0.176777X0.494975X-0.494975X0.176777X0.176777X-0.494975X0.494975X-0.176777X0*%
%ADD15HorizOval,0.900000X-0.176777X0.176777X0.176777X-0.176777X0*%
%ADD16RoundRect,0.225000X0.176777X-0.494975X0.494975X-0.176777X-0.176777X0.494975X-0.494975X0.176777X0*%
%ADD17R,1.700000X1.700000*%
%ADD18O,1.700000X1.700000*%
%ADD19RoundRect,0.225000X0.494975X0.176777X0.176777X0.494975X-0.494975X-0.176777X-0.176777X-0.494975X0*%
%ADD20HorizOval,0.900000X0.176777X0.176777X-0.176777X-0.176777X0*%
%ADD21RoundRect,0.225000X-0.494975X-0.176777X-0.176777X-0.494975X0.494975X0.176777X0.176777X0.494975X0*%
%ADD22HorizOval,0.900000X-0.176777X-0.176777X0.176777X0.176777X0*%
%ADD23RoundRect,0.225000X0.225000X0.250000X-0.225000X0.250000X-0.225000X-0.250000X0.225000X-0.250000X0*%
%ADD24RoundRect,0.218750X-0.256250X0.218750X-0.256250X-0.218750X0.256250X-0.218750X0.256250X0.218750X0*%
%ADD25RoundRect,0.200000X-0.200000X-0.275000X0.200000X-0.275000X0.200000X0.275000X-0.200000X0.275000X0*%
%ADD26RoundRect,0.200000X0.275000X-0.200000X0.275000X0.200000X-0.275000X0.200000X-0.275000X-0.200000X0*%
%ADD27RoundRect,0.225000X0.250000X-0.225000X0.250000X0.225000X-0.250000X0.225000X-0.250000X-0.225000X0*%
%ADD28RoundRect,0.200000X-0.275000X0.200000X-0.275000X-0.200000X0.275000X-0.200000X0.275000X0.200000X0*%
G04 #@! TA.AperFunction,Profile*
%ADD29C,0.025400*%
G04 #@! TD*
G04 APERTURE END LIST*
D10*
X122967000Y-69660000D03*
X122967000Y-73470000D03*
X140747000Y-73470000D03*
X140747000Y-65850000D03*
D11*
X151590000Y-94450000D03*
D12*
X151590000Y-96450000D03*
D13*
X153390000Y-88460000D03*
X153390000Y-82160000D03*
D14*
X112697260Y-68502530D03*
D15*
X111813377Y-69386413D03*
D16*
X148656117Y-104223883D03*
D15*
X149540000Y-103340000D03*
D17*
X119000000Y-87313770D03*
D18*
X119000000Y-89853770D03*
X119000000Y-92393770D03*
X119000000Y-94933770D03*
X119000000Y-97473770D03*
X119000000Y-100013770D03*
D19*
X149100540Y-68442840D03*
D20*
X148216657Y-67558957D03*
D21*
X112712500Y-104505760D03*
D22*
X113596383Y-105389643D03*
D17*
X143944070Y-87341710D03*
D18*
X143944070Y-89881710D03*
X143944070Y-92421710D03*
X143944070Y-94961710D03*
X143944070Y-97501710D03*
X143944070Y-100041710D03*
D23*
X111040000Y-91610000D03*
X109490000Y-91610000D03*
D24*
X109610000Y-84275000D03*
X109610000Y-85850000D03*
D25*
X109490000Y-99890000D03*
X111140000Y-99890000D03*
D26*
X112620000Y-99900000D03*
X112620000Y-98250000D03*
D27*
X111190000Y-88870000D03*
X111190000Y-87320000D03*
D28*
X109580000Y-87330000D03*
X109580000Y-88980000D03*
X151810000Y-89395000D03*
X151810000Y-91045000D03*
D24*
X151840000Y-86440000D03*
X151840000Y-88015000D03*
D25*
X109675000Y-98340000D03*
X111325000Y-98340000D03*
X109420000Y-93140000D03*
X111070000Y-93140000D03*
D29*
X122647460Y-109008420D02*
X119947440Y-109008420D01*
X108397550Y-101116380D02*
X108397550Y-102768910D01*
X141847570Y-109008420D02*
X147090000Y-109008420D01*
X108397550Y-70248020D02*
X108860000Y-69790000D01*
X108397550Y-75400410D02*
X108397550Y-97616520D01*
X139147550Y-109008420D02*
X141847570Y-109008420D01*
X114637060Y-64008510D02*
X113940000Y-64690000D01*
X108397550Y-97616520D02*
X108397550Y-101116380D01*
X113970000Y-108460000D02*
X114637060Y-109008420D01*
X123247410Y-64008510D02*
X138547610Y-64008510D01*
X153397460Y-71900540D02*
X153397460Y-70248020D01*
X147157950Y-64008510D02*
X153397460Y-70248020D01*
X108397550Y-102768910D02*
X108840000Y-103230000D01*
X153397460Y-102768910D02*
X153080000Y-103120000D01*
X108397550Y-70248020D02*
X108397550Y-71900540D01*
X147090000Y-109008420D02*
X153080000Y-103120000D01*
X153397460Y-97616520D02*
X153397460Y-75400410D01*
X113940000Y-64690000D02*
X108860000Y-69790000D01*
X139147550Y-109008420D02*
X122647460Y-109008420D01*
X153397460Y-102768910D02*
X153397460Y-101116380D01*
X153397460Y-71900540D02*
X153397460Y-75400410D01*
X108840000Y-103230000D02*
X113970000Y-108460000D01*
X147157950Y-64008510D02*
X138547610Y-64008510D01*
X123247410Y-64008510D02*
X114637060Y-64008510D01*
X114637060Y-109008420D02*
X119947440Y-109008420D01*
X153397460Y-97616520D02*
X153397460Y-101116380D01*
X108397550Y-75400410D02*
X108397550Y-71900540D01*
M02*
