G04 #@! TF.GenerationSoftware,KiCad,Pcbnew,9.0.1*
G04 #@! TF.CreationDate,2025-04-25T12:08:24+05:30*
G04 #@! TF.ProjectId,esp32_quad_baro_bootser_nousb_BMP,65737033-325f-4717-9561-645f6261726f,rev?*
G04 #@! TF.SameCoordinates,Original*
G04 #@! TF.FileFunction,Other,Comment*
%FSLAX46Y46*%
G04 Gerber Fmt 4.6, Leading zero omitted, Abs format (unit mm)*
G04 Created by KiCad (PCBNEW 9.0.1) date 2025-04-25 12:08:24*
%MOMM*%
%LPD*%
G01*
G04 APERTURE LIST*
%ADD10C,0.150000*%
G04 #@! TA.AperFunction,Profile*
%ADD11C,0.025400*%
G04 #@! TD*
G04 APERTURE END LIST*
D10*
X128166205Y-112270554D02*
X128642395Y-112270554D01*
X128070967Y-112556269D02*
X128404300Y-111556269D01*
X128404300Y-111556269D02*
X128737633Y-112556269D01*
X129070967Y-111889602D02*
X129070967Y-112556269D01*
X129070967Y-111984840D02*
X129118586Y-111937221D01*
X129118586Y-111937221D02*
X129213824Y-111889602D01*
X129213824Y-111889602D02*
X129356681Y-111889602D01*
X129356681Y-111889602D02*
X129451919Y-111937221D01*
X129451919Y-111937221D02*
X129499538Y-112032459D01*
X129499538Y-112032459D02*
X129499538Y-112556269D01*
X129832872Y-111889602D02*
X130213824Y-111889602D01*
X129975729Y-111556269D02*
X129975729Y-112413411D01*
X129975729Y-112413411D02*
X130023348Y-112508650D01*
X130023348Y-112508650D02*
X130118586Y-112556269D01*
X130118586Y-112556269D02*
X130213824Y-112556269D01*
X130928110Y-112508650D02*
X130832872Y-112556269D01*
X130832872Y-112556269D02*
X130642396Y-112556269D01*
X130642396Y-112556269D02*
X130547158Y-112508650D01*
X130547158Y-112508650D02*
X130499539Y-112413411D01*
X130499539Y-112413411D02*
X130499539Y-112032459D01*
X130499539Y-112032459D02*
X130547158Y-111937221D01*
X130547158Y-111937221D02*
X130642396Y-111889602D01*
X130642396Y-111889602D02*
X130832872Y-111889602D01*
X130832872Y-111889602D02*
X130928110Y-111937221D01*
X130928110Y-111937221D02*
X130975729Y-112032459D01*
X130975729Y-112032459D02*
X130975729Y-112127697D01*
X130975729Y-112127697D02*
X130499539Y-112222935D01*
X131404301Y-111889602D02*
X131404301Y-112556269D01*
X131404301Y-111984840D02*
X131451920Y-111937221D01*
X131451920Y-111937221D02*
X131547158Y-111889602D01*
X131547158Y-111889602D02*
X131690015Y-111889602D01*
X131690015Y-111889602D02*
X131785253Y-111937221D01*
X131785253Y-111937221D02*
X131832872Y-112032459D01*
X131832872Y-112032459D02*
X131832872Y-112556269D01*
X132309063Y-111889602D02*
X132309063Y-112556269D01*
X132309063Y-111984840D02*
X132356682Y-111937221D01*
X132356682Y-111937221D02*
X132451920Y-111889602D01*
X132451920Y-111889602D02*
X132594777Y-111889602D01*
X132594777Y-111889602D02*
X132690015Y-111937221D01*
X132690015Y-111937221D02*
X132737634Y-112032459D01*
X132737634Y-112032459D02*
X132737634Y-112556269D01*
X133642396Y-112556269D02*
X133642396Y-112032459D01*
X133642396Y-112032459D02*
X133594777Y-111937221D01*
X133594777Y-111937221D02*
X133499539Y-111889602D01*
X133499539Y-111889602D02*
X133309063Y-111889602D01*
X133309063Y-111889602D02*
X133213825Y-111937221D01*
X133642396Y-112508650D02*
X133547158Y-112556269D01*
X133547158Y-112556269D02*
X133309063Y-112556269D01*
X133309063Y-112556269D02*
X133213825Y-112508650D01*
X133213825Y-112508650D02*
X133166206Y-112413411D01*
X133166206Y-112413411D02*
X133166206Y-112318173D01*
X133166206Y-112318173D02*
X133213825Y-112222935D01*
X133213825Y-112222935D02*
X133309063Y-112175316D01*
X133309063Y-112175316D02*
X133547158Y-112175316D01*
X133547158Y-112175316D02*
X133642396Y-112127697D01*
D11*
X122647460Y-109008420D02*
X119947440Y-109008420D01*
X108397550Y-101116380D02*
X108397550Y-102768910D01*
X141847570Y-109008420D02*
X147090000Y-109008420D01*
X108397550Y-70248020D02*
X108860000Y-69790000D01*
X108397550Y-75400410D02*
X108397550Y-97616520D01*
X139147550Y-109008420D02*
X141847570Y-109008420D01*
X114637060Y-64008510D02*
X113940000Y-64690000D01*
X108397550Y-97616520D02*
X108397550Y-101116380D01*
X113970000Y-108460000D02*
X114637060Y-109008420D01*
X123247410Y-64008510D02*
X138547610Y-64008510D01*
X153397460Y-71900540D02*
X153397460Y-70248020D01*
X147157950Y-64008510D02*
X153397460Y-70248020D01*
X108397550Y-102768910D02*
X108840000Y-103230000D01*
X153397460Y-102768910D02*
X153080000Y-103120000D01*
X108397550Y-70248020D02*
X108397550Y-71900540D01*
X147090000Y-109008420D02*
X153080000Y-103120000D01*
X153397460Y-97616520D02*
X153397460Y-75400410D01*
X113940000Y-64690000D02*
X108860000Y-69790000D01*
X139147550Y-109008420D02*
X122647460Y-109008420D01*
X153397460Y-102768910D02*
X153397460Y-101116380D01*
X153397460Y-71900540D02*
X153397460Y-75400410D01*
X108840000Y-103230000D02*
X113970000Y-108460000D01*
X147157950Y-64008510D02*
X138547610Y-64008510D01*
X123247410Y-64008510D02*
X114637060Y-64008510D01*
X114637060Y-109008420D02*
X119947440Y-109008420D01*
X153397460Y-97616520D02*
X153397460Y-101116380D01*
X108397550Y-75400410D02*
X108397550Y-71900540D01*
M02*
