G04 #@! TF.GenerationSoftware,KiCad,Pcbnew,9.0.1*
G04 #@! TF.CreationDate,2025-04-25T12:08:24+05:30*
G04 #@! TF.ProjectId,esp32_quad_baro_bootser_nousb_BMP,65737033-325f-4717-9561-645f6261726f,rev?*
G04 #@! TF.SameCoordinates,Original*
G04 #@! TF.FileFunction,Legend,Bot*
G04 #@! TF.FilePolarity,Positive*
%FSLAX46Y46*%
G04 Gerber Fmt 4.6, Leading zero omitted, Abs format (unit mm)*
G04 Created by KiCad (PCBNEW 9.0.1) date 2025-04-25 12:08:24*
%MOMM*%
%LPD*%
G01*
G04 APERTURE LIST*
%ADD10C,0.150000*%
%ADD11C,0.120000*%
%ADD12C,0.000000*%
G04 #@! TA.AperFunction,Profile*
%ADD13C,0.025400*%
G04 #@! TD*
G04 APERTURE END LIST*
D10*
X126053220Y-104956009D02*
X125719887Y-104956009D01*
X125577030Y-105479819D02*
X126053220Y-105479819D01*
X126053220Y-105479819D02*
X126053220Y-104479819D01*
X126053220Y-104479819D02*
X125577030Y-104479819D01*
X125148458Y-105479819D02*
X125148458Y-104479819D01*
X125148458Y-104479819D02*
X124577030Y-105479819D01*
X124577030Y-105479819D02*
X124577030Y-104479819D01*
X143576009Y-105640112D02*
X143623628Y-105782969D01*
X143623628Y-105782969D02*
X143671247Y-105830588D01*
X143671247Y-105830588D02*
X143766485Y-105878207D01*
X143766485Y-105878207D02*
X143909342Y-105878207D01*
X143909342Y-105878207D02*
X144004580Y-105830588D01*
X144004580Y-105830588D02*
X144052200Y-105782969D01*
X144052200Y-105782969D02*
X144099819Y-105687731D01*
X144099819Y-105687731D02*
X144099819Y-105306779D01*
X144099819Y-105306779D02*
X143099819Y-105306779D01*
X143099819Y-105306779D02*
X143099819Y-105640112D01*
X143099819Y-105640112D02*
X143147438Y-105735350D01*
X143147438Y-105735350D02*
X143195057Y-105782969D01*
X143195057Y-105782969D02*
X143290295Y-105830588D01*
X143290295Y-105830588D02*
X143385533Y-105830588D01*
X143385533Y-105830588D02*
X143480771Y-105782969D01*
X143480771Y-105782969D02*
X143528390Y-105735350D01*
X143528390Y-105735350D02*
X143576009Y-105640112D01*
X143576009Y-105640112D02*
X143576009Y-105306779D01*
X143099819Y-106497255D02*
X143099819Y-106687731D01*
X143099819Y-106687731D02*
X143147438Y-106782969D01*
X143147438Y-106782969D02*
X143242676Y-106878207D01*
X143242676Y-106878207D02*
X143433152Y-106925826D01*
X143433152Y-106925826D02*
X143766485Y-106925826D01*
X143766485Y-106925826D02*
X143956961Y-106878207D01*
X143956961Y-106878207D02*
X144052200Y-106782969D01*
X144052200Y-106782969D02*
X144099819Y-106687731D01*
X144099819Y-106687731D02*
X144099819Y-106497255D01*
X144099819Y-106497255D02*
X144052200Y-106402017D01*
X144052200Y-106402017D02*
X143956961Y-106306779D01*
X143956961Y-106306779D02*
X143766485Y-106259160D01*
X143766485Y-106259160D02*
X143433152Y-106259160D01*
X143433152Y-106259160D02*
X143242676Y-106306779D01*
X143242676Y-106306779D02*
X143147438Y-106402017D01*
X143147438Y-106402017D02*
X143099819Y-106497255D01*
X143099819Y-107544874D02*
X143099819Y-107735350D01*
X143099819Y-107735350D02*
X143147438Y-107830588D01*
X143147438Y-107830588D02*
X143242676Y-107925826D01*
X143242676Y-107925826D02*
X143433152Y-107973445D01*
X143433152Y-107973445D02*
X143766485Y-107973445D01*
X143766485Y-107973445D02*
X143956961Y-107925826D01*
X143956961Y-107925826D02*
X144052200Y-107830588D01*
X144052200Y-107830588D02*
X144099819Y-107735350D01*
X144099819Y-107735350D02*
X144099819Y-107544874D01*
X144099819Y-107544874D02*
X144052200Y-107449636D01*
X144052200Y-107449636D02*
X143956961Y-107354398D01*
X143956961Y-107354398D02*
X143766485Y-107306779D01*
X143766485Y-107306779D02*
X143433152Y-107306779D01*
X143433152Y-107306779D02*
X143242676Y-107354398D01*
X143242676Y-107354398D02*
X143147438Y-107449636D01*
X143147438Y-107449636D02*
X143099819Y-107544874D01*
X143099819Y-108259160D02*
X143099819Y-108830588D01*
X144099819Y-108544874D02*
X143099819Y-108544874D01*
X110431666Y-90539580D02*
X110479285Y-90587200D01*
X110479285Y-90587200D02*
X110622142Y-90634819D01*
X110622142Y-90634819D02*
X110717380Y-90634819D01*
X110717380Y-90634819D02*
X110860237Y-90587200D01*
X110860237Y-90587200D02*
X110955475Y-90491961D01*
X110955475Y-90491961D02*
X111003094Y-90396723D01*
X111003094Y-90396723D02*
X111050713Y-90206247D01*
X111050713Y-90206247D02*
X111050713Y-90063390D01*
X111050713Y-90063390D02*
X111003094Y-89872914D01*
X111003094Y-89872914D02*
X110955475Y-89777676D01*
X110955475Y-89777676D02*
X110860237Y-89682438D01*
X110860237Y-89682438D02*
X110717380Y-89634819D01*
X110717380Y-89634819D02*
X110622142Y-89634819D01*
X110622142Y-89634819D02*
X110479285Y-89682438D01*
X110479285Y-89682438D02*
X110431666Y-89730057D01*
X110098332Y-89634819D02*
X109431666Y-89634819D01*
X109431666Y-89634819D02*
X109860237Y-90634819D01*
X108634819Y-83943452D02*
X108634819Y-83467262D01*
X108634819Y-83467262D02*
X107634819Y-83467262D01*
X108111009Y-84276786D02*
X108111009Y-84610119D01*
X108634819Y-84752976D02*
X108634819Y-84276786D01*
X108634819Y-84276786D02*
X107634819Y-84276786D01*
X107634819Y-84276786D02*
X107634819Y-84752976D01*
X108634819Y-85181548D02*
X107634819Y-85181548D01*
X107634819Y-85181548D02*
X107634819Y-85419643D01*
X107634819Y-85419643D02*
X107682438Y-85562500D01*
X107682438Y-85562500D02*
X107777676Y-85657738D01*
X107777676Y-85657738D02*
X107872914Y-85705357D01*
X107872914Y-85705357D02*
X108063390Y-85752976D01*
X108063390Y-85752976D02*
X108206247Y-85752976D01*
X108206247Y-85752976D02*
X108396723Y-85705357D01*
X108396723Y-85705357D02*
X108491961Y-85657738D01*
X108491961Y-85657738D02*
X108587200Y-85562500D01*
X108587200Y-85562500D02*
X108634819Y-85419643D01*
X108634819Y-85419643D02*
X108634819Y-85181548D01*
X107634819Y-86086310D02*
X107634819Y-86752976D01*
X107634819Y-86752976D02*
X108634819Y-86324405D01*
X110481666Y-101774819D02*
X110814999Y-101298628D01*
X111053094Y-101774819D02*
X111053094Y-100774819D01*
X111053094Y-100774819D02*
X110672142Y-100774819D01*
X110672142Y-100774819D02*
X110576904Y-100822438D01*
X110576904Y-100822438D02*
X110529285Y-100870057D01*
X110529285Y-100870057D02*
X110481666Y-100965295D01*
X110481666Y-100965295D02*
X110481666Y-101108152D01*
X110481666Y-101108152D02*
X110529285Y-101203390D01*
X110529285Y-101203390D02*
X110576904Y-101251009D01*
X110576904Y-101251009D02*
X110672142Y-101298628D01*
X110672142Y-101298628D02*
X111053094Y-101298628D01*
X109624523Y-101108152D02*
X109624523Y-101774819D01*
X109862618Y-100727200D02*
X110100713Y-101441485D01*
X110100713Y-101441485D02*
X109481666Y-101441485D01*
X114504819Y-98908333D02*
X114028628Y-98575000D01*
X114504819Y-98336905D02*
X113504819Y-98336905D01*
X113504819Y-98336905D02*
X113504819Y-98717857D01*
X113504819Y-98717857D02*
X113552438Y-98813095D01*
X113552438Y-98813095D02*
X113600057Y-98860714D01*
X113600057Y-98860714D02*
X113695295Y-98908333D01*
X113695295Y-98908333D02*
X113838152Y-98908333D01*
X113838152Y-98908333D02*
X113933390Y-98860714D01*
X113933390Y-98860714D02*
X113981009Y-98813095D01*
X113981009Y-98813095D02*
X114028628Y-98717857D01*
X114028628Y-98717857D02*
X114028628Y-98336905D01*
X113504819Y-99813095D02*
X113504819Y-99336905D01*
X113504819Y-99336905D02*
X113981009Y-99289286D01*
X113981009Y-99289286D02*
X113933390Y-99336905D01*
X113933390Y-99336905D02*
X113885771Y-99432143D01*
X113885771Y-99432143D02*
X113885771Y-99670238D01*
X113885771Y-99670238D02*
X113933390Y-99765476D01*
X113933390Y-99765476D02*
X113981009Y-99813095D01*
X113981009Y-99813095D02*
X114076247Y-99860714D01*
X114076247Y-99860714D02*
X114314342Y-99860714D01*
X114314342Y-99860714D02*
X114409580Y-99813095D01*
X114409580Y-99813095D02*
X114457200Y-99765476D01*
X114457200Y-99765476D02*
X114504819Y-99670238D01*
X114504819Y-99670238D02*
X114504819Y-99432143D01*
X114504819Y-99432143D02*
X114457200Y-99336905D01*
X114457200Y-99336905D02*
X114409580Y-99289286D01*
X112979580Y-87928333D02*
X113027200Y-87880714D01*
X113027200Y-87880714D02*
X113074819Y-87737857D01*
X113074819Y-87737857D02*
X113074819Y-87642619D01*
X113074819Y-87642619D02*
X113027200Y-87499762D01*
X113027200Y-87499762D02*
X112931961Y-87404524D01*
X112931961Y-87404524D02*
X112836723Y-87356905D01*
X112836723Y-87356905D02*
X112646247Y-87309286D01*
X112646247Y-87309286D02*
X112503390Y-87309286D01*
X112503390Y-87309286D02*
X112312914Y-87356905D01*
X112312914Y-87356905D02*
X112217676Y-87404524D01*
X112217676Y-87404524D02*
X112122438Y-87499762D01*
X112122438Y-87499762D02*
X112074819Y-87642619D01*
X112074819Y-87642619D02*
X112074819Y-87737857D01*
X112074819Y-87737857D02*
X112122438Y-87880714D01*
X112122438Y-87880714D02*
X112170057Y-87928333D01*
X112074819Y-88785476D02*
X112074819Y-88595000D01*
X112074819Y-88595000D02*
X112122438Y-88499762D01*
X112122438Y-88499762D02*
X112170057Y-88452143D01*
X112170057Y-88452143D02*
X112312914Y-88356905D01*
X112312914Y-88356905D02*
X112503390Y-88309286D01*
X112503390Y-88309286D02*
X112884342Y-88309286D01*
X112884342Y-88309286D02*
X112979580Y-88356905D01*
X112979580Y-88356905D02*
X113027200Y-88404524D01*
X113027200Y-88404524D02*
X113074819Y-88499762D01*
X113074819Y-88499762D02*
X113074819Y-88690238D01*
X113074819Y-88690238D02*
X113027200Y-88785476D01*
X113027200Y-88785476D02*
X112979580Y-88833095D01*
X112979580Y-88833095D02*
X112884342Y-88880714D01*
X112884342Y-88880714D02*
X112646247Y-88880714D01*
X112646247Y-88880714D02*
X112551009Y-88833095D01*
X112551009Y-88833095D02*
X112503390Y-88785476D01*
X112503390Y-88785476D02*
X112455771Y-88690238D01*
X112455771Y-88690238D02*
X112455771Y-88499762D01*
X112455771Y-88499762D02*
X112503390Y-88404524D01*
X112503390Y-88404524D02*
X112551009Y-88356905D01*
X112551009Y-88356905D02*
X112646247Y-88309286D01*
X108604819Y-87512142D02*
X108128628Y-87178809D01*
X108604819Y-86940714D02*
X107604819Y-86940714D01*
X107604819Y-86940714D02*
X107604819Y-87321666D01*
X107604819Y-87321666D02*
X107652438Y-87416904D01*
X107652438Y-87416904D02*
X107700057Y-87464523D01*
X107700057Y-87464523D02*
X107795295Y-87512142D01*
X107795295Y-87512142D02*
X107938152Y-87512142D01*
X107938152Y-87512142D02*
X108033390Y-87464523D01*
X108033390Y-87464523D02*
X108081009Y-87416904D01*
X108081009Y-87416904D02*
X108128628Y-87321666D01*
X108128628Y-87321666D02*
X108128628Y-86940714D01*
X107604819Y-87845476D02*
X107604819Y-88464523D01*
X107604819Y-88464523D02*
X107985771Y-88131190D01*
X107985771Y-88131190D02*
X107985771Y-88274047D01*
X107985771Y-88274047D02*
X108033390Y-88369285D01*
X108033390Y-88369285D02*
X108081009Y-88416904D01*
X108081009Y-88416904D02*
X108176247Y-88464523D01*
X108176247Y-88464523D02*
X108414342Y-88464523D01*
X108414342Y-88464523D02*
X108509580Y-88416904D01*
X108509580Y-88416904D02*
X108557200Y-88369285D01*
X108557200Y-88369285D02*
X108604819Y-88274047D01*
X108604819Y-88274047D02*
X108604819Y-87988333D01*
X108604819Y-87988333D02*
X108557200Y-87893095D01*
X108557200Y-87893095D02*
X108509580Y-87845476D01*
X107604819Y-89083571D02*
X107604819Y-89178809D01*
X107604819Y-89178809D02*
X107652438Y-89274047D01*
X107652438Y-89274047D02*
X107700057Y-89321666D01*
X107700057Y-89321666D02*
X107795295Y-89369285D01*
X107795295Y-89369285D02*
X107985771Y-89416904D01*
X107985771Y-89416904D02*
X108223866Y-89416904D01*
X108223866Y-89416904D02*
X108414342Y-89369285D01*
X108414342Y-89369285D02*
X108509580Y-89321666D01*
X108509580Y-89321666D02*
X108557200Y-89274047D01*
X108557200Y-89274047D02*
X108604819Y-89178809D01*
X108604819Y-89178809D02*
X108604819Y-89083571D01*
X108604819Y-89083571D02*
X108557200Y-88988333D01*
X108557200Y-88988333D02*
X108509580Y-88940714D01*
X108509580Y-88940714D02*
X108414342Y-88893095D01*
X108414342Y-88893095D02*
X108223866Y-88845476D01*
X108223866Y-88845476D02*
X107985771Y-88845476D01*
X107985771Y-88845476D02*
X107795295Y-88893095D01*
X107795295Y-88893095D02*
X107700057Y-88940714D01*
X107700057Y-88940714D02*
X107652438Y-88988333D01*
X107652438Y-88988333D02*
X107604819Y-89083571D01*
X150834819Y-89577142D02*
X150358628Y-89243809D01*
X150834819Y-89005714D02*
X149834819Y-89005714D01*
X149834819Y-89005714D02*
X149834819Y-89386666D01*
X149834819Y-89386666D02*
X149882438Y-89481904D01*
X149882438Y-89481904D02*
X149930057Y-89529523D01*
X149930057Y-89529523D02*
X150025295Y-89577142D01*
X150025295Y-89577142D02*
X150168152Y-89577142D01*
X150168152Y-89577142D02*
X150263390Y-89529523D01*
X150263390Y-89529523D02*
X150311009Y-89481904D01*
X150311009Y-89481904D02*
X150358628Y-89386666D01*
X150358628Y-89386666D02*
X150358628Y-89005714D01*
X149834819Y-89910476D02*
X149834819Y-90529523D01*
X149834819Y-90529523D02*
X150215771Y-90196190D01*
X150215771Y-90196190D02*
X150215771Y-90339047D01*
X150215771Y-90339047D02*
X150263390Y-90434285D01*
X150263390Y-90434285D02*
X150311009Y-90481904D01*
X150311009Y-90481904D02*
X150406247Y-90529523D01*
X150406247Y-90529523D02*
X150644342Y-90529523D01*
X150644342Y-90529523D02*
X150739580Y-90481904D01*
X150739580Y-90481904D02*
X150787200Y-90434285D01*
X150787200Y-90434285D02*
X150834819Y-90339047D01*
X150834819Y-90339047D02*
X150834819Y-90053333D01*
X150834819Y-90053333D02*
X150787200Y-89958095D01*
X150787200Y-89958095D02*
X150739580Y-89910476D01*
X150834819Y-91481904D02*
X150834819Y-90910476D01*
X150834819Y-91196190D02*
X149834819Y-91196190D01*
X149834819Y-91196190D02*
X149977676Y-91100952D01*
X149977676Y-91100952D02*
X150072914Y-91005714D01*
X150072914Y-91005714D02*
X150120533Y-90910476D01*
X150864819Y-86108452D02*
X150864819Y-85632262D01*
X150864819Y-85632262D02*
X149864819Y-85632262D01*
X150341009Y-86441786D02*
X150341009Y-86775119D01*
X150864819Y-86917976D02*
X150864819Y-86441786D01*
X150864819Y-86441786D02*
X149864819Y-86441786D01*
X149864819Y-86441786D02*
X149864819Y-86917976D01*
X150864819Y-87346548D02*
X149864819Y-87346548D01*
X149864819Y-87346548D02*
X149864819Y-87584643D01*
X149864819Y-87584643D02*
X149912438Y-87727500D01*
X149912438Y-87727500D02*
X150007676Y-87822738D01*
X150007676Y-87822738D02*
X150102914Y-87870357D01*
X150102914Y-87870357D02*
X150293390Y-87917976D01*
X150293390Y-87917976D02*
X150436247Y-87917976D01*
X150436247Y-87917976D02*
X150626723Y-87870357D01*
X150626723Y-87870357D02*
X150721961Y-87822738D01*
X150721961Y-87822738D02*
X150817200Y-87727500D01*
X150817200Y-87727500D02*
X150864819Y-87584643D01*
X150864819Y-87584643D02*
X150864819Y-87346548D01*
X150293390Y-88489405D02*
X150245771Y-88394167D01*
X150245771Y-88394167D02*
X150198152Y-88346548D01*
X150198152Y-88346548D02*
X150102914Y-88298929D01*
X150102914Y-88298929D02*
X150055295Y-88298929D01*
X150055295Y-88298929D02*
X149960057Y-88346548D01*
X149960057Y-88346548D02*
X149912438Y-88394167D01*
X149912438Y-88394167D02*
X149864819Y-88489405D01*
X149864819Y-88489405D02*
X149864819Y-88679881D01*
X149864819Y-88679881D02*
X149912438Y-88775119D01*
X149912438Y-88775119D02*
X149960057Y-88822738D01*
X149960057Y-88822738D02*
X150055295Y-88870357D01*
X150055295Y-88870357D02*
X150102914Y-88870357D01*
X150102914Y-88870357D02*
X150198152Y-88822738D01*
X150198152Y-88822738D02*
X150245771Y-88775119D01*
X150245771Y-88775119D02*
X150293390Y-88679881D01*
X150293390Y-88679881D02*
X150293390Y-88489405D01*
X150293390Y-88489405D02*
X150341009Y-88394167D01*
X150341009Y-88394167D02*
X150388628Y-88346548D01*
X150388628Y-88346548D02*
X150483866Y-88298929D01*
X150483866Y-88298929D02*
X150674342Y-88298929D01*
X150674342Y-88298929D02*
X150769580Y-88346548D01*
X150769580Y-88346548D02*
X150817200Y-88394167D01*
X150817200Y-88394167D02*
X150864819Y-88489405D01*
X150864819Y-88489405D02*
X150864819Y-88679881D01*
X150864819Y-88679881D02*
X150817200Y-88775119D01*
X150817200Y-88775119D02*
X150769580Y-88822738D01*
X150769580Y-88822738D02*
X150674342Y-88870357D01*
X150674342Y-88870357D02*
X150483866Y-88870357D01*
X150483866Y-88870357D02*
X150388628Y-88822738D01*
X150388628Y-88822738D02*
X150341009Y-88775119D01*
X150341009Y-88775119D02*
X150293390Y-88679881D01*
X110666666Y-100224819D02*
X110999999Y-99748628D01*
X111238094Y-100224819D02*
X111238094Y-99224819D01*
X111238094Y-99224819D02*
X110857142Y-99224819D01*
X110857142Y-99224819D02*
X110761904Y-99272438D01*
X110761904Y-99272438D02*
X110714285Y-99320057D01*
X110714285Y-99320057D02*
X110666666Y-99415295D01*
X110666666Y-99415295D02*
X110666666Y-99558152D01*
X110666666Y-99558152D02*
X110714285Y-99653390D01*
X110714285Y-99653390D02*
X110761904Y-99701009D01*
X110761904Y-99701009D02*
X110857142Y-99748628D01*
X110857142Y-99748628D02*
X111238094Y-99748628D01*
X109809523Y-99224819D02*
X109999999Y-99224819D01*
X109999999Y-99224819D02*
X110095237Y-99272438D01*
X110095237Y-99272438D02*
X110142856Y-99320057D01*
X110142856Y-99320057D02*
X110238094Y-99462914D01*
X110238094Y-99462914D02*
X110285713Y-99653390D01*
X110285713Y-99653390D02*
X110285713Y-100034342D01*
X110285713Y-100034342D02*
X110238094Y-100129580D01*
X110238094Y-100129580D02*
X110190475Y-100177200D01*
X110190475Y-100177200D02*
X110095237Y-100224819D01*
X110095237Y-100224819D02*
X109904761Y-100224819D01*
X109904761Y-100224819D02*
X109809523Y-100177200D01*
X109809523Y-100177200D02*
X109761904Y-100129580D01*
X109761904Y-100129580D02*
X109714285Y-100034342D01*
X109714285Y-100034342D02*
X109714285Y-99796247D01*
X109714285Y-99796247D02*
X109761904Y-99701009D01*
X109761904Y-99701009D02*
X109809523Y-99653390D01*
X109809523Y-99653390D02*
X109904761Y-99605771D01*
X109904761Y-99605771D02*
X110095237Y-99605771D01*
X110095237Y-99605771D02*
X110190475Y-99653390D01*
X110190475Y-99653390D02*
X110238094Y-99701009D01*
X110238094Y-99701009D02*
X110285713Y-99796247D01*
X110411666Y-95024819D02*
X110744999Y-94548628D01*
X110983094Y-95024819D02*
X110983094Y-94024819D01*
X110983094Y-94024819D02*
X110602142Y-94024819D01*
X110602142Y-94024819D02*
X110506904Y-94072438D01*
X110506904Y-94072438D02*
X110459285Y-94120057D01*
X110459285Y-94120057D02*
X110411666Y-94215295D01*
X110411666Y-94215295D02*
X110411666Y-94358152D01*
X110411666Y-94358152D02*
X110459285Y-94453390D01*
X110459285Y-94453390D02*
X110506904Y-94501009D01*
X110506904Y-94501009D02*
X110602142Y-94548628D01*
X110602142Y-94548628D02*
X110983094Y-94548628D01*
X110078332Y-94024819D02*
X109459285Y-94024819D01*
X109459285Y-94024819D02*
X109792618Y-94405771D01*
X109792618Y-94405771D02*
X109649761Y-94405771D01*
X109649761Y-94405771D02*
X109554523Y-94453390D01*
X109554523Y-94453390D02*
X109506904Y-94501009D01*
X109506904Y-94501009D02*
X109459285Y-94596247D01*
X109459285Y-94596247D02*
X109459285Y-94834342D01*
X109459285Y-94834342D02*
X109506904Y-94929580D01*
X109506904Y-94929580D02*
X109554523Y-94977200D01*
X109554523Y-94977200D02*
X109649761Y-95024819D01*
X109649761Y-95024819D02*
X109935475Y-95024819D01*
X109935475Y-95024819D02*
X110030713Y-94977200D01*
X110030713Y-94977200D02*
X110078332Y-94929580D01*
D11*
X110124420Y-91100000D02*
X110405580Y-91100000D01*
X110124420Y-92120000D02*
X110405580Y-92120000D01*
D12*
G36*
X138660260Y-66098187D02*
G01*
X139892801Y-66737068D01*
X140876294Y-67709812D01*
X141538721Y-68918025D01*
X141808067Y-70263312D01*
X141612314Y-71647279D01*
X141421329Y-72099509D01*
X140710146Y-73129769D01*
X139765769Y-73999307D01*
X138768297Y-74525839D01*
X138332775Y-74633331D01*
X136891164Y-74662648D01*
X135520179Y-74242040D01*
X134349752Y-73427157D01*
X133509810Y-72273647D01*
X133403855Y-72046463D01*
X133013922Y-70787161D01*
X133064590Y-69603953D01*
X133558192Y-68305659D01*
X133932558Y-67716562D01*
X134921962Y-66770765D01*
X136136769Y-66124464D01*
X137398426Y-65889977D01*
X138660260Y-66098187D01*
G37*
G36*
X139395284Y-96899907D02*
G01*
X140550610Y-97772753D01*
X141386985Y-99058212D01*
X141586347Y-99589519D01*
X141784538Y-101035843D01*
X141502884Y-102391935D01*
X140785436Y-103574037D01*
X139676245Y-104498388D01*
X138219362Y-105081230D01*
X137549181Y-105188563D01*
X137003404Y-105182246D01*
X136560476Y-105079870D01*
X135861438Y-104914941D01*
X135660175Y-104849923D01*
X134858129Y-104340830D01*
X134062863Y-103531776D01*
X133417616Y-102588638D01*
X133065626Y-101677291D01*
X133055461Y-100350721D01*
X133459717Y-99042525D01*
X134197928Y-97884885D01*
X135188736Y-97005250D01*
X136350783Y-96531065D01*
X136390307Y-96523788D01*
X137986639Y-96472607D01*
X139395284Y-96899907D01*
G37*
G36*
X118753148Y-65073433D02*
G01*
X118999061Y-65263381D01*
X119587034Y-65799036D01*
X120478699Y-66643181D01*
X121635690Y-67758601D01*
X123019640Y-69108079D01*
X124592182Y-70654399D01*
X126314950Y-72360347D01*
X128149578Y-74188706D01*
X137267837Y-83304007D01*
X139101445Y-81484450D01*
X139566759Y-81034692D01*
X140352811Y-80330625D01*
X140973106Y-79845559D01*
X141323362Y-79664893D01*
X141509069Y-79718189D01*
X142048835Y-80075823D01*
X142708475Y-80654390D01*
X143350218Y-81317216D01*
X143836295Y-81927626D01*
X144028936Y-82348947D01*
X143973291Y-82505546D01*
X143615748Y-83024807D01*
X143000187Y-83754664D01*
X142212247Y-84589495D01*
X140395558Y-86420213D01*
X142212247Y-88250930D01*
X142659329Y-88713468D01*
X143363237Y-89499475D01*
X143848265Y-90120104D01*
X144028936Y-90470904D01*
X144028742Y-90477244D01*
X143842105Y-90840737D01*
X143386989Y-91430668D01*
X142783644Y-92116586D01*
X142152320Y-92768040D01*
X141613267Y-93254576D01*
X141286735Y-93445745D01*
X141144302Y-93363353D01*
X140670990Y-92976397D01*
X139966070Y-92344696D01*
X139121133Y-91548490D01*
X137151028Y-89651235D01*
X127958028Y-98844234D01*
X127870212Y-98932039D01*
X126033031Y-100763462D01*
X124310023Y-102470914D01*
X122739293Y-104017343D01*
X121358951Y-105365693D01*
X120207103Y-106478911D01*
X119321858Y-107319943D01*
X118741322Y-107851736D01*
X118503605Y-108037234D01*
X118498071Y-108037044D01*
X118158053Y-107843369D01*
X117595583Y-107371043D01*
X116937432Y-106745886D01*
X116310370Y-106093715D01*
X115841168Y-105540349D01*
X115656596Y-105211605D01*
X115657034Y-105208433D01*
X115859962Y-104949887D01*
X116407435Y-104350448D01*
X117262402Y-103448304D01*
X118387813Y-102281639D01*
X119746618Y-100888639D01*
X121301766Y-99307490D01*
X123016208Y-97576377D01*
X124852893Y-95733487D01*
X134049191Y-86534291D01*
X124988000Y-77427360D01*
X123175154Y-75598669D01*
X121475513Y-73871136D01*
X119935206Y-72292486D01*
X118591467Y-70901496D01*
X117481526Y-69736945D01*
X116642615Y-68837612D01*
X116111965Y-68242273D01*
X115926809Y-67989709D01*
X116108380Y-67634684D01*
X116571808Y-67055512D01*
X117192511Y-66381215D01*
X117845902Y-65740376D01*
X118407399Y-65261578D01*
X118752416Y-65073404D01*
X118753148Y-65073433D01*
G37*
D11*
X108875000Y-83577500D02*
X108875000Y-85862500D01*
X110345000Y-83577500D02*
X108875000Y-83577500D01*
X110345000Y-85862500D02*
X110345000Y-83577500D01*
X110552258Y-99367500D02*
X110077742Y-99367500D01*
X110552258Y-100412500D02*
X110077742Y-100412500D01*
X112097500Y-98837742D02*
X112097500Y-99312258D01*
X113142500Y-98837742D02*
X113142500Y-99312258D01*
X110680000Y-87954420D02*
X110680000Y-88235580D01*
X111700000Y-87954420D02*
X111700000Y-88235580D01*
X109057500Y-88392258D02*
X109057500Y-87917742D01*
X110102500Y-88392258D02*
X110102500Y-87917742D01*
X151287500Y-90457258D02*
X151287500Y-89982742D01*
X152332500Y-90457258D02*
X152332500Y-89982742D01*
X151105000Y-85742500D02*
X151105000Y-88027500D01*
X152575000Y-85742500D02*
X151105000Y-85742500D01*
X152575000Y-88027500D02*
X152575000Y-85742500D01*
X110737258Y-97817500D02*
X110262742Y-97817500D01*
X110737258Y-98862500D02*
X110262742Y-98862500D01*
X110482258Y-92617500D02*
X110007742Y-92617500D01*
X110482258Y-93662500D02*
X110007742Y-93662500D01*
D13*
X122647460Y-109008420D02*
X119947440Y-109008420D01*
X108397550Y-101116380D02*
X108397550Y-102768910D01*
X141847570Y-109008420D02*
X147090000Y-109008420D01*
X108397550Y-70248020D02*
X108860000Y-69790000D01*
X108397550Y-75400410D02*
X108397550Y-97616520D01*
X139147550Y-109008420D02*
X141847570Y-109008420D01*
X114637060Y-64008510D02*
X113940000Y-64690000D01*
X108397550Y-97616520D02*
X108397550Y-101116380D01*
X113970000Y-108460000D02*
X114637060Y-109008420D01*
X123247410Y-64008510D02*
X138547610Y-64008510D01*
X153397460Y-71900540D02*
X153397460Y-70248020D01*
X147157950Y-64008510D02*
X153397460Y-70248020D01*
X108397550Y-102768910D02*
X108840000Y-103230000D01*
X153397460Y-102768910D02*
X153080000Y-103120000D01*
X108397550Y-70248020D02*
X108397550Y-71900540D01*
X147090000Y-109008420D02*
X153080000Y-103120000D01*
X153397460Y-97616520D02*
X153397460Y-75400410D01*
X113940000Y-64690000D02*
X108860000Y-69790000D01*
X139147550Y-109008420D02*
X122647460Y-109008420D01*
X153397460Y-102768910D02*
X153397460Y-101116380D01*
X153397460Y-71900540D02*
X153397460Y-75400410D01*
X108840000Y-103230000D02*
X113970000Y-108460000D01*
X147157950Y-64008510D02*
X138547610Y-64008510D01*
X123247410Y-64008510D02*
X114637060Y-64008510D01*
X114637060Y-109008420D02*
X119947440Y-109008420D01*
X153397460Y-97616520D02*
X153397460Y-101116380D01*
X108397550Y-75400410D02*
X108397550Y-71900540D01*
M02*
