M48
; DRILL file {KiCad 9.0.0} date 2025-04-14T11:35:23+0530
; FORMAT={-:-/ absolute / inch / decimal}
; #@! TF.CreationDate,2025-04-14T11:35:23+05:30
; #@! TF.GenerationSoftware,Kicad,Pcbnew,9.0.0
; #@! TF.FileFunction,Plated,1,2,PTH
FMAT,2
INCH
; #@! TA.AperFunction,Plated,PTH,ComponentDrill
T1C0.0118
; #@! TA.AperFunction,Plated,PTH,ViaDrill
T2C0.0157
; #@! TA.AperFunction,Plated,PTH,ComponentDrill
T3C0.0236
; #@! TA.AperFunction,Plated,PTH,ComponentDrill
T4C0.0315
; #@! TA.AperFunction,Plated,PTH,ComponentDrill
T5C0.0315
; #@! TA.AperFunction,Plated,PTH,ComponentDrill
T6C0.0360
; #@! TA.AperFunction,Plated,PTH,ComponentDrill
T7C0.0394
%
G90
G05
T1
X5.1214Y-3.9074
X5.1214Y-3.9675
X5.1814Y-3.9074
X5.1814Y-3.9675
X5.2415Y-3.9074
X5.2415Y-3.9675
T2
X4.3039Y-3.135
X4.4224Y-3.6894
X4.4249Y-3.5642
X4.4287Y-3.4768
X4.4311Y-3.6169
X4.4339Y-3.4299
X4.4764Y-3.7319
X4.4888Y-3.6937
X4.5004Y-3.7591
X4.5461Y-3.2157
X4.5465Y-3.2677
X4.55Y-3.5252
X4.5504Y-4.0346
X4.565Y-4.0012
X4.5662Y-3.4553
X4.573Y-2.7913
X4.5862Y-4.1122
X4.5985Y-2.7658
X4.6079Y-4.0665
X4.6224Y-4.1047
X4.6234Y-2.7409
X4.6248Y-3.3398
X4.6898Y-4.0299
X4.6913Y-4.0937
X4.7315Y-3.3913
X4.739Y-4.0071
X4.752Y-3.7767
X4.7583Y-3.4937
X4.8244Y-3.4703
X4.8508Y-3.5157
X4.852Y-3.3047
X4.8535Y-3.3441
X4.8656Y-4.0273
X4.867Y-3.8266
X4.8786Y-3.9753
X4.8882Y-3.2083
X4.8906Y-4.1264
X4.8909Y-3.3047
X4.8925Y-3.3425
X4.8969Y-3.4043
X4.9146Y-3.1772
X4.9457Y-3.1346
X4.9476Y-4.065
X4.9669Y-2.9943
X4.9795Y-3.6445
X4.9802Y-3.8104
X5.0274Y-4.1255
X5.0294Y-3.2143
X5.0301Y-3.8397
X5.0776Y-2.6177
X5.0776Y-2.6488
X5.1106Y-2.6177
X5.1106Y-2.6488
X5.1354Y-3.7008
X5.1465Y-2.6488
X5.1469Y-2.6177
X5.1591Y-2.8555
X5.1618Y-3.6319
X5.1786Y-3.433
X5.1976Y-2.8543
X5.2386Y-2.8528
X5.2571Y-3.2115
X5.2639Y-3.3914
X5.2894Y-3.7374
X5.3073Y-3.2339
X5.3102Y-2.9943
X5.3138Y-3.7839
X5.324Y-4.1268
X5.3522Y-3.7621
X5.3553Y-2.9949
X5.3588Y-3.1724
X5.3896Y-2.9949
X5.4008Y-3.463
X5.4118Y-3.3071
X5.4212Y-3.8771
X5.435Y-3.637
X5.4378Y-3.6961
X5.4492Y-3.7618
X5.4504Y-2.6936
X5.4846Y-3.4673
X5.5295Y-3.378
X5.555Y-2.7327
X5.5571Y-2.9969
X5.5594Y-3.415
X5.5886Y-3.2071
X5.6012Y-4.0429
X5.6405Y-4.042
X5.6436Y-2.688
X5.6559Y-3.187
X5.6579Y-2.9406
X5.6626Y-2.7839
X5.6787Y-2.688
X5.6913Y-2.9413
X5.6921Y-4.0366
X5.6925Y-2.8079
X5.7119Y-2.688
X5.7382Y-3.2705
X5.7524Y-3.4689
X5.7539Y-2.7949
X5.7587Y-3.9697
X5.7591Y-3.9018
X5.7591Y-3.9355
X5.7591Y-4.0216
X5.763Y-4.2431
X5.7693Y-2.7587
X5.7791Y-2.7197
X5.7944Y-3.1266
X5.8035Y-4.0732
X5.8319Y-3.1815
X5.8516Y-3.1579
X5.8858Y-3.5575
X5.9591Y-3.9315
X5.9827Y-3.9657
X5.9949Y-2.8102
T3
X4.4021Y-2.7317
X4.4369Y-2.6969
X4.4375Y-4.1144
X4.4723Y-4.1492
X5.8353Y-2.6598
X5.8526Y-4.1033
X5.8701Y-2.6946
X5.8874Y-4.0685
T4
X6.039Y-3.2346
X6.039Y-3.4827
T5
X5.9681Y-3.7185
X5.9681Y-3.7972
T6
X4.8412Y-2.7425
X4.8412Y-2.8925
X5.5412Y-2.5925
X5.5412Y-2.8925
T7
X4.6598Y-3.4375
X4.6598Y-3.5375
X4.6598Y-3.6376
X4.6598Y-3.7375
X4.6598Y-3.8375
X4.6598Y-3.9375
X5.6418Y-3.4386
X5.6418Y-3.5387
X5.6418Y-3.6386
X5.6418Y-3.7386
X5.6418Y-3.8386
X5.6418Y-3.9386
M30
