%TF.GenerationSoftware,KiCad,Pcbnew,9.0.0*%
%TF.CreationDate,2025-04-14T11:35:23+05:30*%
%TF.ProjectId,esp32_quad_baro_bootser_nousb_BMP,65737033-325f-4717-9561-645f6261726f,rev?*%
%TF.SameCoordinates,Original*%
%TF.FileFunction,Soldermask,Top*%
%TF.FilePolarity,Negative*%
%FSLAX46Y46*%
G04 Gerber Fmt 4.6, Leading zero omitted, Abs format (unit mm)*
G04 Created by KiCad (PCBNEW 9.0.0) date 2025-04-14 11:35:23*
%MOMM*%
%LPD*%
G01*
G04 APERTURE LIST*
G04 Aperture macros list*
%AMRoundRect*
0 Rectangle with rounded corners*
0 $1 Rounding radius*
0 $2 $3 $4 $5 $6 $7 $8 $9 X,Y pos of 4 corners*
0 Add a 4 corners polygon primitive as box body*
4,1,4,$2,$3,$4,$5,$6,$7,$8,$9,$2,$3,0*
0 Add four circle primitives for the rounded corners*
1,1,$1+$1,$2,$3*
1,1,$1+$1,$4,$5*
1,1,$1+$1,$6,$7*
1,1,$1+$1,$8,$9*
0 Add four rect primitives between the rounded corners*
20,1,$1+$1,$2,$3,$4,$5,0*
20,1,$1+$1,$4,$5,$6,$7,0*
20,1,$1+$1,$6,$7,$8,$9,0*
20,1,$1+$1,$8,$9,$2,$3,0*%
%AMHorizOval*
0 Thick line with rounded ends*
0 $1 width*
0 $2 $3 position (X,Y) of the first rounded end (center of the circle)*
0 $4 $5 position (X,Y) of the second rounded end (center of the circle)*
0 Add line between two ends*
20,1,$1,$2,$3,$4,$5,0*
0 Add two circle primitives to create the rounded ends*
1,1,$1,$2,$3*
1,1,$1,$4,$5*%
%AMRotRect*
0 Rectangle, with rotation*
0 The origin of the aperture is its center*
0 $1 length*
0 $2 width*
0 $3 Rotation angle, in degrees counterclockwise*
0 Add horizontal line*
21,1,$1,$2,0,0,$3*%
G04 Aperture macros list end*
%ADD10RoundRect,0.200000X-0.275000X0.200000X-0.275000X-0.200000X0.275000X-0.200000X0.275000X0.200000X0*%
%ADD11R,0.600000X1.100000*%
%ADD12RoundRect,0.225000X0.250000X-0.225000X0.250000X0.225000X-0.250000X0.225000X-0.250000X-0.225000X0*%
%ADD13RoundRect,0.200000X-0.200000X-0.275000X0.200000X-0.275000X0.200000X0.275000X-0.200000X0.275000X0*%
%ADD14RoundRect,0.250000X-0.250000X-0.475000X0.250000X-0.475000X0.250000X0.475000X-0.250000X0.475000X0*%
%ADD15RoundRect,0.200000X0.200000X0.275000X-0.200000X0.275000X-0.200000X-0.275000X0.200000X-0.275000X0*%
%ADD16RoundRect,0.102000X0.395000X0.140000X-0.395000X0.140000X-0.395000X-0.140000X0.395000X-0.140000X0*%
%ADD17RoundRect,0.102000X0.140000X0.395000X-0.140000X0.395000X-0.140000X-0.395000X0.140000X-0.395000X0*%
%ADD18RoundRect,0.225000X-0.225000X-0.250000X0.225000X-0.250000X0.225000X0.250000X-0.225000X0.250000X0*%
%ADD19RoundRect,0.218750X0.256250X-0.218750X0.256250X0.218750X-0.256250X0.218750X-0.256250X-0.218750X0*%
%ADD20O,2.743200X1.727200*%
%ADD21RoundRect,0.250000X-0.650000X0.350000X-0.650000X-0.350000X0.650000X-0.350000X0.650000X0.350000X0*%
%ADD22O,1.800000X1.200000*%
%ADD23RoundRect,0.218750X-0.218750X-0.256250X0.218750X-0.256250X0.218750X0.256250X-0.218750X0.256250X0*%
%ADD24R,1.500000X0.900000*%
%ADD25R,0.900000X1.500000*%
%ADD26C,0.600000*%
%ADD27R,4.200000X4.200000*%
%ADD28R,2.500000X1.000000*%
%ADD29C,1.400000*%
%ADD30RotRect,0.600000X0.450000X45.000000*%
%ADD31RoundRect,0.225000X-0.017678X0.335876X-0.335876X0.017678X0.017678X-0.335876X0.335876X-0.017678X0*%
%ADD32RoundRect,0.225000X0.225000X0.250000X-0.225000X0.250000X-0.225000X-0.250000X0.225000X-0.250000X0*%
%ADD33RoundRect,0.225000X-0.176777X0.494975X-0.494975X0.176777X0.176777X-0.494975X0.494975X-0.176777X0*%
%ADD34HorizOval,0.900000X-0.176777X0.176777X0.176777X-0.176777X0*%
%ADD35RotRect,0.600000X0.450000X225.000000*%
%ADD36RoundRect,0.225000X0.176777X-0.494975X0.494975X-0.176777X-0.176777X0.494975X-0.494975X0.176777X0*%
%ADD37R,0.450000X0.600000*%
%ADD38RoundRect,0.150000X-0.512500X-0.150000X0.512500X-0.150000X0.512500X0.150000X-0.512500X0.150000X0*%
%ADD39R,1.700000X1.700000*%
%ADD40O,1.700000X1.700000*%
%ADD41R,2.500000X1.800000*%
%ADD42RoundRect,0.225000X-0.250000X0.225000X-0.250000X-0.225000X0.250000X-0.225000X0.250000X0.225000X0*%
%ADD43RoundRect,0.225000X0.494975X0.176777X0.176777X0.494975X-0.494975X-0.176777X-0.176777X-0.494975X0*%
%ADD44HorizOval,0.900000X0.176777X0.176777X-0.176777X-0.176777X0*%
%ADD45RoundRect,0.225000X-0.494975X-0.176777X-0.176777X-0.494975X0.494975X0.176777X0.176777X0.494975X0*%
%ADD46HorizOval,0.900000X-0.176777X-0.176777X0.176777X0.176777X0*%
%ADD47RotRect,0.600000X0.450000X135.000000*%
G04 APERTURE END LIST*
D10*
%TO.C,R16*%
X111080550Y-85228930D03*
X111080550Y-86878930D03*
%TD*%
D11*
%TO.C,T1*%
X111361260Y-96672220D03*
X109461260Y-96672220D03*
X110411260Y-98872220D03*
%TD*%
D12*
%TO.C,C9*%
X144890490Y-108087460D03*
X144890490Y-106537460D03*
%TD*%
D13*
%TO.C,R12*%
X135152630Y-85096350D03*
X136802630Y-85096350D03*
%TD*%
D12*
%TO.C,C13*%
X126579630Y-86652400D03*
X126579630Y-85102400D03*
%TD*%
D10*
%TO.C,R15*%
X111070000Y-88400000D03*
X111070000Y-90050000D03*
%TD*%
D14*
%TO.C,C3*%
X141715450Y-79564230D03*
X143615450Y-79564230D03*
%TD*%
D15*
%TO.C,R13*%
X134200000Y-80320000D03*
X132550000Y-80320000D03*
%TD*%
%TO.C,R11*%
X122539260Y-87236300D03*
X120889260Y-87236300D03*
%TD*%
D16*
%TO.C,U9*%
X132930940Y-85185420D03*
X132930940Y-84685420D03*
X132930940Y-84185420D03*
X132930940Y-83685420D03*
X132930940Y-83185420D03*
X132930940Y-82685420D03*
D17*
X132210940Y-81965420D03*
X131710940Y-81965420D03*
X131210940Y-81965420D03*
X130710940Y-81965420D03*
X130210940Y-81965420D03*
X129710940Y-81965420D03*
D16*
X128990940Y-82685420D03*
X128990940Y-83185420D03*
X128990940Y-83685420D03*
X128990940Y-84185420D03*
X128990940Y-84685420D03*
X128990940Y-85185420D03*
D17*
X129710940Y-85905420D03*
X130210940Y-85905420D03*
X130710940Y-85905420D03*
X131210940Y-85905420D03*
X131710940Y-85905420D03*
X132210940Y-85905420D03*
%TD*%
D18*
%TO.C,C4*%
X141684710Y-77800200D03*
X143234710Y-77800200D03*
%TD*%
D19*
%TO.C,LED6*%
X109495590Y-83200340D03*
X109495590Y-81625340D03*
%TD*%
D20*
%TO.C,U2*%
X122967000Y-69660000D03*
X122967000Y-73470000D03*
X140747000Y-73470000D03*
X140747000Y-65850000D03*
%TD*%
D21*
%TO.C,J1*%
X151590000Y-94450000D03*
D22*
X151590000Y-96450000D03*
%TD*%
D23*
%TO.C,LED1*%
X143970910Y-64886840D03*
X145545910Y-64886840D03*
%TD*%
D24*
%TO.C,U8*%
X139678110Y-107351450D03*
X139678110Y-106081450D03*
X139678110Y-104811450D03*
X139678110Y-103541450D03*
X139678110Y-102271450D03*
X139678110Y-101001450D03*
X139678110Y-99731450D03*
X139678110Y-98461450D03*
X139678110Y-97191450D03*
X139678110Y-95921450D03*
X139678110Y-94651450D03*
X139678110Y-93381450D03*
X139678110Y-92111450D03*
X139678110Y-90841450D03*
D25*
X136638110Y-89591450D03*
X135368110Y-89591450D03*
X134098110Y-89591450D03*
X132828110Y-89591450D03*
X131558110Y-89591450D03*
X130288110Y-89591450D03*
X129018110Y-89591450D03*
X127748110Y-89591450D03*
X126478110Y-89591450D03*
X125208110Y-89591450D03*
D24*
X122178110Y-90841450D03*
X122178110Y-92111450D03*
X122178110Y-93381450D03*
X122178110Y-94651450D03*
X122178110Y-95921450D03*
X122178110Y-97191450D03*
X122178110Y-98461450D03*
X122178110Y-99731450D03*
X122178110Y-101001450D03*
X122178110Y-102271450D03*
X122178110Y-103541450D03*
X122178110Y-104811450D03*
X122178110Y-106081450D03*
X122178110Y-107351450D03*
D26*
X133133110Y-100773950D03*
X133133110Y-99248950D03*
X131608110Y-100773950D03*
D27*
X131608110Y-100011450D03*
D26*
X131608110Y-99248950D03*
X130083110Y-100773950D03*
X130083110Y-99248950D03*
%TD*%
D28*
%TO.C,SW1*%
X149630000Y-88310000D03*
X149630000Y-86310000D03*
X149630000Y-84310000D03*
D29*
X153390000Y-88460000D03*
X153390000Y-82160000D03*
%TD*%
D30*
%TO.C,D5*%
X146281628Y-101252802D03*
X147766552Y-99767878D03*
%TD*%
D15*
%TO.C,R19*%
X112031280Y-78386940D03*
X110381280Y-78386940D03*
%TD*%
D31*
%TO.C,C16*%
X117224178Y-72603992D03*
X116128162Y-73700008D03*
%TD*%
D13*
%TO.C,U5*%
X142810730Y-84376260D03*
X144460730Y-84376260D03*
%TD*%
D18*
%TO.C,C8*%
X144440000Y-76310000D03*
X145990000Y-76310000D03*
%TD*%
D10*
%TO.C,R17*%
X111072930Y-81598000D03*
X111072930Y-83248000D03*
%TD*%
D13*
%TO.C,R14*%
X135152630Y-86634320D03*
X136802630Y-86634320D03*
%TD*%
D32*
%TO.C,C2*%
X138839240Y-81403190D03*
X137289240Y-81403190D03*
%TD*%
D13*
%TO.C,R21*%
X147019510Y-91829890D03*
X148669510Y-91829890D03*
%TD*%
%TO.C,R18*%
X109520220Y-94888050D03*
X111170220Y-94888050D03*
%TD*%
D18*
%TO.C,C17*%
X146311320Y-78165960D03*
X147861320Y-78165960D03*
%TD*%
D11*
%TO.C,T4*%
X148757680Y-93696610D03*
X146857680Y-93696610D03*
X147807680Y-95896610D03*
%TD*%
D33*
%TO.C,J5*%
X112697260Y-68502530D03*
D34*
X111813377Y-69386413D03*
%TD*%
D15*
%TO.C,R10*%
X143410000Y-106160000D03*
X141760000Y-106160000D03*
%TD*%
D11*
%TO.C,T2*%
X110379470Y-76692940D03*
X112279470Y-76692940D03*
X111329470Y-74492940D03*
%TD*%
D15*
%TO.C,U4*%
X144460730Y-82856070D03*
X142810730Y-82856070D03*
%TD*%
D35*
%TO.C,D3*%
X116231182Y-71112868D03*
X114746258Y-72597792D03*
%TD*%
D18*
%TO.C,C10*%
X141786610Y-107779820D03*
X143336610Y-107779820D03*
%TD*%
D36*
%TO.C,J4*%
X148656117Y-104223883D03*
D34*
X149540000Y-103340000D03*
%TD*%
D37*
%TO.C,D4*%
X148261070Y-73893970D03*
X148261070Y-75993970D03*
%TD*%
D13*
%TO.C,R1*%
X137248130Y-82919570D03*
X138898130Y-82919570D03*
%TD*%
D18*
%TO.C,C18*%
X146254170Y-97845880D03*
X147804170Y-97845880D03*
%TD*%
%TO.C,C11*%
X141787580Y-104580690D03*
X143337580Y-104580690D03*
%TD*%
D12*
%TO.C,C14*%
X126532640Y-82663330D03*
X126532640Y-81113330D03*
%TD*%
D11*
%TO.C,T3*%
X150190000Y-76330000D03*
X152090000Y-76330000D03*
X151140000Y-74130000D03*
%TD*%
D19*
%TO.C,LED5*%
X109514640Y-86887470D03*
X109514640Y-85312470D03*
%TD*%
D38*
%TO.C,U3*%
X137712870Y-77815400D03*
X137712870Y-78765400D03*
X137712870Y-79715400D03*
X139987870Y-79715400D03*
X139987870Y-77815400D03*
%TD*%
D39*
%TO.C,J8*%
X118358920Y-87313770D03*
D40*
X118358920Y-89853770D03*
X118358920Y-92393770D03*
X118358920Y-94933770D03*
X118358920Y-97473770D03*
X118358920Y-100013770D03*
%TD*%
D10*
%TO.C,R2*%
X119680000Y-73490000D03*
X119680000Y-75140000D03*
%TD*%
D41*
%TO.C,D1*%
X133220000Y-77600000D03*
X129220000Y-77600000D03*
%TD*%
D32*
%TO.C,C12*%
X130390000Y-80150000D03*
X128840000Y-80150000D03*
%TD*%
D15*
%TO.C,R20*%
X151720000Y-78020000D03*
X150070000Y-78020000D03*
%TD*%
D42*
%TO.C,C1*%
X135903970Y-77777040D03*
X135903970Y-79327040D03*
%TD*%
D43*
%TO.C,J6*%
X149100540Y-68442840D03*
D44*
X148216657Y-67558957D03*
%TD*%
D19*
%TO.C,LED4*%
X109481620Y-89971030D03*
X109481620Y-88396030D03*
%TD*%
D45*
%TO.C,J2*%
X112712500Y-104505760D03*
D46*
X113596383Y-105389643D03*
%TD*%
D32*
%TO.C,C15*%
X114826080Y-96941640D03*
X113276080Y-96941640D03*
%TD*%
D39*
%TO.C,J9*%
X143302990Y-87341710D03*
D40*
X143302990Y-89881710D03*
X143302990Y-92421710D03*
X143302990Y-94961710D03*
X143302990Y-97501710D03*
X143302990Y-100041710D03*
%TD*%
D47*
%TO.C,D2*%
X115379012Y-101029282D03*
X113894088Y-99544358D03*
%TD*%
M02*
