%TF.GenerationSoftware,KiCad,Pcbnew,9.0.0*%
%TF.CreationDate,2025-04-14T11:35:23+05:30*%
%TF.ProjectId,esp32_quad_baro_bootser_nousb_BMP,65737033-325f-4717-9561-645f6261726f,rev?*%
%TF.SameCoordinates,Original*%
%TF.FileFunction,Copper,L2,Bot*%
%TF.FilePolarity,Positive*%
%FSLAX46Y46*%
G04 Gerber Fmt 4.6, Leading zero omitted, Abs format (unit mm)*
G04 Created by KiCad (PCBNEW 9.0.0) date 2025-04-14 11:35:23*
%MOMM*%
%LPD*%
G01*
G04 APERTURE LIST*
G04 Aperture macros list*
%AMRoundRect*
0 Rectangle with rounded corners*
0 $1 Rounding radius*
0 $2 $3 $4 $5 $6 $7 $8 $9 X,Y pos of 4 corners*
0 Add a 4 corners polygon primitive as box body*
4,1,4,$2,$3,$4,$5,$6,$7,$8,$9,$2,$3,0*
0 Add four circle primitives for the rounded corners*
1,1,$1+$1,$2,$3*
1,1,$1+$1,$4,$5*
1,1,$1+$1,$6,$7*
1,1,$1+$1,$8,$9*
0 Add four rect primitives between the rounded corners*
20,1,$1+$1,$2,$3,$4,$5,0*
20,1,$1+$1,$4,$5,$6,$7,0*
20,1,$1+$1,$6,$7,$8,$9,0*
20,1,$1+$1,$8,$9,$2,$3,0*%
%AMHorizOval*
0 Thick line with rounded ends*
0 $1 width*
0 $2 $3 position (X,Y) of the first rounded end (center of the circle)*
0 $4 $5 position (X,Y) of the second rounded end (center of the circle)*
0 Add line between two ends*
20,1,$1,$2,$3,$4,$5,0*
0 Add two circle primitives to create the rounded ends*
1,1,$1,$2,$3*
1,1,$1,$4,$5*%
G04 Aperture macros list end*
%TA.AperFunction,ComponentPad*%
%ADD10O,2.540000X1.524000*%
%TD*%
%TA.AperFunction,ComponentPad*%
%ADD11RoundRect,0.250000X-0.650000X0.350000X-0.650000X-0.350000X0.650000X-0.350000X0.650000X0.350000X0*%
%TD*%
%TA.AperFunction,ComponentPad*%
%ADD12O,1.800000X1.200000*%
%TD*%
%TA.AperFunction,HeatsinkPad*%
%ADD13C,0.600000*%
%TD*%
%TA.AperFunction,ComponentPad*%
%ADD14C,1.400000*%
%TD*%
%TA.AperFunction,ComponentPad*%
%ADD15RoundRect,0.225000X-0.176777X0.494975X-0.494975X0.176777X0.176777X-0.494975X0.494975X-0.176777X0*%
%TD*%
%TA.AperFunction,ComponentPad*%
%ADD16HorizOval,0.900000X-0.176777X0.176777X0.176777X-0.176777X0*%
%TD*%
%TA.AperFunction,ComponentPad*%
%ADD17RoundRect,0.225000X0.176777X-0.494975X0.494975X-0.176777X-0.176777X0.494975X-0.494975X0.176777X0*%
%TD*%
%TA.AperFunction,ComponentPad*%
%ADD18R,1.700000X1.700000*%
%TD*%
%TA.AperFunction,ComponentPad*%
%ADD19O,1.700000X1.700000*%
%TD*%
%TA.AperFunction,ComponentPad*%
%ADD20RoundRect,0.225000X0.494975X0.176777X0.176777X0.494975X-0.494975X-0.176777X-0.176777X-0.494975X0*%
%TD*%
%TA.AperFunction,ComponentPad*%
%ADD21HorizOval,0.900000X0.176777X0.176777X-0.176777X-0.176777X0*%
%TD*%
%TA.AperFunction,ComponentPad*%
%ADD22RoundRect,0.225000X-0.494975X-0.176777X-0.176777X-0.494975X0.494975X0.176777X0.176777X0.494975X0*%
%TD*%
%TA.AperFunction,ComponentPad*%
%ADD23HorizOval,0.900000X-0.176777X-0.176777X0.176777X0.176777X0*%
%TD*%
%TA.AperFunction,SMDPad,CuDef*%
%ADD24R,0.500000X0.350000*%
%TD*%
%TA.AperFunction,SMDPad,CuDef*%
%ADD25RoundRect,0.225000X0.225000X0.250000X-0.225000X0.250000X-0.225000X-0.250000X0.225000X-0.250000X0*%
%TD*%
%TA.AperFunction,SMDPad,CuDef*%
%ADD26RoundRect,0.218750X-0.256250X0.218750X-0.256250X-0.218750X0.256250X-0.218750X0.256250X0.218750X0*%
%TD*%
%TA.AperFunction,SMDPad,CuDef*%
%ADD27RoundRect,0.200000X-0.200000X-0.275000X0.200000X-0.275000X0.200000X0.275000X-0.200000X0.275000X0*%
%TD*%
%TA.AperFunction,SMDPad,CuDef*%
%ADD28RoundRect,0.200000X0.275000X-0.200000X0.275000X0.200000X-0.275000X0.200000X-0.275000X-0.200000X0*%
%TD*%
%TA.AperFunction,SMDPad,CuDef*%
%ADD29RoundRect,0.225000X0.250000X-0.225000X0.250000X0.225000X-0.250000X0.225000X-0.250000X-0.225000X0*%
%TD*%
%TA.AperFunction,SMDPad,CuDef*%
%ADD30RoundRect,0.200000X-0.275000X0.200000X-0.275000X-0.200000X0.275000X-0.200000X0.275000X0.200000X0*%
%TD*%
%TA.AperFunction,ViaPad*%
%ADD31C,0.800000*%
%TD*%
%TA.AperFunction,Conductor*%
%ADD32C,0.250000*%
%TD*%
%TA.AperFunction,Conductor*%
%ADD33C,0.400000*%
%TD*%
%TA.AperFunction,Conductor*%
%ADD34C,0.700000*%
%TD*%
%TA.AperFunction,Conductor*%
%ADD35C,0.300000*%
%TD*%
%TA.AperFunction,Conductor*%
%ADD36C,1.524000*%
%TD*%
%TA.AperFunction,Conductor*%
%ADD37C,1.016000*%
%TD*%
G04 APERTURE END LIST*
D10*
%TO.P,U2,1,GND*%
%TO.N,GND*%
X122967000Y-69660000D03*
%TO.P,U2,2,Vin*%
%TO.N,VDD*%
X122967000Y-73470000D03*
%TO.P,U2,3,GND*%
%TO.N,GND*%
X140747000Y-73470000D03*
%TO.P,U2,4,Vout*%
%TO.N,+BATT*%
X140747000Y-65850000D03*
%TD*%
D11*
%TO.P,J1,1,Pin_1*%
%TO.N,VDD*%
X151590000Y-94450000D03*
D12*
%TO.P,J1,2,Pin_2*%
%TO.N,GND*%
X151590000Y-96450000D03*
%TD*%
D13*
%TO.P,U8,39,GND*%
%TO.N,GND*%
X133133110Y-100773950D03*
X133133110Y-99248950D03*
X131608110Y-100773950D03*
X131608110Y-99248950D03*
X130083110Y-100773950D03*
X130083110Y-99248950D03*
%TD*%
D14*
%TO.P,SW1,4,4*%
%TO.N,GND*%
X153390000Y-88460000D03*
%TO.P,SW1,5*%
%TO.N,N/C*%
X153390000Y-82160000D03*
%TD*%
D15*
%TO.P,J5,1,Pin_1*%
%TO.N,VDD*%
X112697260Y-68502530D03*
D16*
%TO.P,J5,2,Pin_2*%
%TO.N,Net-(D3-A)*%
X111813377Y-69386413D03*
%TD*%
D17*
%TO.P,J4,1,Pin_1*%
%TO.N,VDD*%
X148656117Y-104223883D03*
D16*
%TO.P,J4,2,Pin_2*%
%TO.N,Net-(D5-A)*%
X149540000Y-103340000D03*
%TD*%
D18*
%TO.P,J8,1,Pin_1*%
%TO.N,+3V3*%
X118358920Y-87313770D03*
D19*
%TO.P,J8,2,Pin_2*%
%TO.N,GND*%
X118358920Y-89853770D03*
%TO.P,J8,3,Pin_3*%
%TO.N,/SCL*%
X118358920Y-92393770D03*
%TO.P,J8,4,Pin_4*%
%TO.N,/SDA*%
X118358920Y-94933770D03*
%TO.P,J8,5,Pin_5*%
%TO.N,unconnected-(J8-Pin_5-Pad5)*%
X118358920Y-97473770D03*
%TO.P,J8,6,Pin_6*%
%TO.N,unconnected-(J8-Pin_6-Pad6)*%
X118358920Y-100013770D03*
%TD*%
D20*
%TO.P,J6,1,Pin_1*%
%TO.N,Net-(D4-A)*%
X149100540Y-68442840D03*
D21*
%TO.P,J6,2,Pin_2*%
%TO.N,VDD*%
X148216657Y-67558957D03*
%TD*%
D22*
%TO.P,J2,1,Pin_1*%
%TO.N,Net-(D2-A)*%
X112712500Y-104505760D03*
D23*
%TO.P,J2,2,Pin_2*%
%TO.N,VDD*%
X113596383Y-105389643D03*
%TD*%
D18*
%TO.P,J9,1,Pin_1*%
%TO.N,GND*%
X143302990Y-87341710D03*
D19*
%TO.P,J9,2,Pin_2*%
%TO.N,VDD*%
X143302990Y-89881710D03*
%TO.P,J9,3,Pin_3*%
%TO.N,/SRV_2*%
X143302990Y-92421710D03*
%TO.P,J9,4,Pin_4*%
%TO.N,/RX*%
X143302990Y-94961710D03*
%TO.P,J9,5,Pin_5*%
%TO.N,/TX*%
X143302990Y-97501710D03*
%TO.P,J9,6,Pin_6*%
%TO.N,/IO0*%
X143302990Y-100041710D03*
%TD*%
D24*
%TO.P,U1,1,GND*%
%TO.N,GND*%
X110000000Y-94680000D03*
%TO.P,U1,2,CSB*%
%TO.N,Net-(U1-CSB)*%
X110000000Y-95330000D03*
%TO.P,U1,3,SDI*%
%TO.N,/SDA*%
X110000000Y-95980000D03*
%TO.P,U1,4,SCK*%
%TO.N,/SCL*%
X110000000Y-96630000D03*
%TO.P,U1,5,SDO*%
%TO.N,Net-(U1-SDO)*%
X111600000Y-96630000D03*
%TO.P,U1,6,VDDIO*%
%TO.N,+3V3*%
X111600000Y-95980000D03*
%TO.P,U1,7,GND*%
%TO.N,GND*%
X111600000Y-95330000D03*
%TO.P,U1,8,VDD*%
%TO.N,+3V3*%
X111600000Y-94680000D03*
%TD*%
D25*
%TO.P,C7,1*%
%TO.N,+3V3*%
X111040000Y-91610000D03*
%TO.P,C7,2*%
%TO.N,GND*%
X109490000Y-91610000D03*
%TD*%
D26*
%TO.P,LED7,1,K*%
%TO.N,GND*%
X109610000Y-84275000D03*
%TO.P,LED7,2,A*%
%TO.N,Net-(LED7-A)*%
X109610000Y-85850000D03*
%TD*%
D27*
%TO.P,R4,1*%
%TO.N,/SDA*%
X109490000Y-99890000D03*
%TO.P,R4,2*%
%TO.N,+3V3*%
X111140000Y-99890000D03*
%TD*%
D28*
%TO.P,R5,1*%
%TO.N,GND*%
X112620000Y-99900000D03*
%TO.P,R5,2*%
%TO.N,Net-(U1-SDO)*%
X112620000Y-98250000D03*
%TD*%
D29*
%TO.P,C6,1*%
%TO.N,+3V3*%
X111190000Y-88870000D03*
%TO.P,C6,2*%
%TO.N,GND*%
X111190000Y-87320000D03*
%TD*%
D30*
%TO.P,R30,1*%
%TO.N,Net-(LED7-A)*%
X109580000Y-87330000D03*
%TO.P,R30,2*%
%TO.N,+3V3*%
X109580000Y-88980000D03*
%TD*%
%TO.P,R31,1*%
%TO.N,Net-(LED8-A)*%
X151810000Y-89395000D03*
%TO.P,R31,2*%
%TO.N,+3V3*%
X151810000Y-91045000D03*
%TD*%
D26*
%TO.P,LED8,1,K*%
%TO.N,GND*%
X151840000Y-86440000D03*
%TO.P,LED8,2,A*%
%TO.N,Net-(LED8-A)*%
X151840000Y-88015000D03*
%TD*%
D27*
%TO.P,R6,1*%
%TO.N,/SCL*%
X109480000Y-98340000D03*
%TO.P,R6,2*%
%TO.N,+3V3*%
X111130000Y-98340000D03*
%TD*%
%TO.P,R3,1*%
%TO.N,Net-(U1-CSB)*%
X109420000Y-93140000D03*
%TO.P,R3,2*%
%TO.N,+3V3*%
X111070000Y-93140000D03*
%TD*%
D31*
%TO.N,VBUS*%
X136897110Y-76071730D03*
X136025890Y-76071730D03*
X134879080Y-76056490D03*
%TO.N,GND*%
X143268700Y-102668070D03*
X131040000Y-72530000D03*
X142270000Y-102690000D03*
X123240000Y-83940000D03*
X120860000Y-88740000D03*
X124830000Y-80700000D03*
X146378930Y-107776010D03*
X124160000Y-81490000D03*
X143660000Y-80950000D03*
X141210000Y-86740000D03*
X112330000Y-93710000D03*
X152270000Y-71380000D03*
X134806690Y-82141060D03*
X144560000Y-74710000D03*
X143710000Y-74690000D03*
X151960000Y-100730000D03*
X117470000Y-84830000D03*
X124380000Y-86470000D03*
X117040000Y-103290000D03*
X123210000Y-89300000D03*
X117410000Y-104260000D03*
X124230000Y-83940000D03*
X112550000Y-91870000D03*
X112490000Y-88310000D03*
X141150000Y-76120000D03*
X120180000Y-86140000D03*
X133060000Y-72460000D03*
X116490000Y-104450000D03*
X124270000Y-84900000D03*
X109320000Y-79630000D03*
X132020000Y-72500000D03*
X123280000Y-84940000D03*
X112620000Y-87120000D03*
X151360000Y-99860000D03*
%TO.N,+3V3*%
X133530340Y-81572100D03*
X149500000Y-90360000D03*
X140450000Y-85800000D03*
X119120000Y-102360000D03*
X146110000Y-88110000D03*
X112393400Y-90530000D03*
X127746031Y-81642652D03*
X135230000Y-104820000D03*
%TO.N,+BATT*%
X138441183Y-68416600D03*
X126160000Y-76056490D03*
%TO.N,/SDA*%
X127763270Y-97528380D03*
X123916440Y-100972620D03*
X133703060Y-86141560D03*
X127697230Y-104787700D03*
%TO.N,/SCL*%
X120370000Y-101780000D03*
X126498350Y-96784160D03*
X131537320Y-87197320D03*
X124220000Y-104811450D03*
%TO.N,/SRV_2*%
X125620000Y-79620000D03*
X138050000Y-92380000D03*
%TO.N,Net-(LED1-A)*%
X137460000Y-84000000D03*
X141097959Y-69411800D03*
%TO.N,/LED_1*%
X115570000Y-89540000D03*
X119160000Y-103980000D03*
%TO.N,/LED_2*%
X120702070Y-95929450D03*
X115980845Y-87763985D03*
%TO.N,/LED_3*%
X123621800Y-97194370D03*
X115480000Y-83000000D03*
%TO.N,/RX*%
X134350000Y-94930000D03*
X123587510Y-102293420D03*
X125670000Y-103250000D03*
X131110000Y-92250000D03*
%TO.N,/TX*%
X137180000Y-87960000D03*
X139310000Y-88070000D03*
%TO.N,/IO0*%
X122539760Y-88145620D03*
X130440000Y-94000000D03*
X138120000Y-93880000D03*
X126480000Y-92570000D03*
X134970000Y-96110000D03*
%TO.N,/MOT_2*%
X135945600Y-95556704D03*
X115470000Y-81680000D03*
%TO.N,/MOT_3*%
X147176600Y-79416910D03*
X137699750Y-98478340D03*
%TO.N,/MOT_4*%
X138410000Y-95550000D03*
X144580000Y-102530000D03*
%TO.N,LDO_EN*%
X136113520Y-80580230D03*
X141950000Y-81460000D03*
%TO.N,VDD*%
X143830000Y-70710000D03*
X113700000Y-94790000D03*
X145083530Y-68275200D03*
X146281628Y-99105232D03*
X130730000Y-66490000D03*
X146790000Y-69080000D03*
X146281628Y-99962482D03*
X145750000Y-83070000D03*
X143346170Y-68275200D03*
X147410000Y-103460000D03*
X114309510Y-95480490D03*
X144590000Y-71320000D03*
X146270000Y-100830000D03*
X114015540Y-93820000D03*
X115580000Y-102480000D03*
X146150000Y-70990000D03*
X148130000Y-80810000D03*
X116154200Y-70899020D03*
X129810000Y-67280000D03*
X117434360Y-69618860D03*
X115950000Y-101630000D03*
X130720000Y-67280000D03*
X144240000Y-68275200D03*
X128970000Y-66490000D03*
X148630000Y-80210000D03*
X129810000Y-66490000D03*
X128970000Y-67280000D03*
X146281628Y-102149422D03*
X116801265Y-70251955D03*
X146540000Y-70070000D03*
%TD*%
D32*
%TO.N,GND*%
X116269940Y-104450000D02*
X116490000Y-104450000D01*
X112620000Y-100800060D02*
X116269940Y-104450000D01*
X112620000Y-99900000D02*
X112620000Y-100800060D01*
D33*
X109490000Y-91610000D02*
X110260000Y-92380000D01*
D32*
X120180000Y-87670000D02*
X120180000Y-86140000D01*
D33*
X111190000Y-87320000D02*
X110380000Y-88130000D01*
D32*
X120860000Y-88740000D02*
X120728524Y-88608524D01*
D33*
X110380000Y-88130000D02*
X108910000Y-88130000D01*
X108751400Y-88288600D02*
X108751400Y-90871400D01*
D32*
X120728524Y-88218524D02*
X120180000Y-87670000D01*
X143660000Y-80950000D02*
X143710000Y-80900000D01*
X110260000Y-94420000D02*
X110000000Y-94680000D01*
X121810000Y-89300000D02*
X123210000Y-89300000D01*
X143710000Y-80900000D02*
X143710000Y-74690000D01*
X120860000Y-88740000D02*
X121202200Y-89082200D01*
X121592200Y-89082200D02*
X121810000Y-89300000D01*
D33*
X108910000Y-88130000D02*
X108751400Y-88288600D01*
X110260000Y-92380000D02*
X110260000Y-94420000D01*
D32*
X121202200Y-89082200D02*
X121592200Y-89082200D01*
D33*
X108751400Y-90871400D02*
X109490000Y-91610000D01*
D32*
X120728524Y-88608524D02*
X120728524Y-88218524D01*
%TO.N,+3V3*%
X121492310Y-90622310D02*
X123187582Y-90622310D01*
X124375400Y-99447908D02*
X120943308Y-102880000D01*
D33*
X110800000Y-96220000D02*
X110800000Y-98010000D01*
D32*
X127786103Y-81602580D02*
X133499860Y-81602580D01*
D33*
X111040000Y-91610000D02*
X111040000Y-93110000D01*
D32*
X140450000Y-85800000D02*
X141090000Y-85160000D01*
X119750000Y-88400000D02*
X119750000Y-88865752D01*
X111190000Y-88870000D02*
X111190000Y-89326600D01*
X119120000Y-102360000D02*
X119130000Y-102220000D01*
X119640000Y-102880000D02*
X119120000Y-102360000D01*
X124375400Y-91810128D02*
X124375400Y-99447908D01*
X111040000Y-93110000D02*
X111070000Y-93140000D01*
X111130000Y-99880000D02*
X111140000Y-99890000D01*
X110850000Y-94680000D02*
X110800000Y-94730000D01*
X112090000Y-90530000D02*
X112393400Y-90530000D01*
D33*
X110800000Y-98010000D02*
X111130000Y-98340000D01*
X111600000Y-95980000D02*
X111040000Y-95980000D01*
D32*
X118663770Y-87313770D02*
X119750000Y-88400000D01*
D33*
X111070000Y-94150000D02*
X111600000Y-94680000D01*
D32*
X135230000Y-104820000D02*
X135230000Y-104885000D01*
X146110000Y-88110000D02*
X146000000Y-88110000D01*
X146110000Y-87721090D02*
X146110000Y-88110000D01*
D33*
X111190000Y-89326600D02*
X112393400Y-90530000D01*
D32*
X118358920Y-87313770D02*
X118663770Y-87313770D01*
X120943308Y-102880000D02*
X119640000Y-102880000D01*
X120880000Y-89995752D02*
X120880000Y-90010000D01*
X141090000Y-85160000D02*
X143548910Y-85160000D01*
D33*
X111130000Y-98340000D02*
X111130000Y-99880000D01*
D32*
X133499860Y-81602580D02*
X133530340Y-81572100D01*
X120880000Y-90010000D02*
X121492310Y-90622310D01*
X119750000Y-88865752D02*
X120880000Y-89995752D01*
D33*
X110800000Y-94730000D02*
X110800000Y-96220000D01*
D32*
X127746031Y-81642652D02*
X127786103Y-81602580D01*
X111130000Y-90530000D02*
X109580000Y-88980000D01*
X149500000Y-90360000D02*
X150250000Y-91110000D01*
D33*
X111040000Y-91580000D02*
X112090000Y-90530000D01*
D32*
X150250000Y-91110000D02*
X152280000Y-91110000D01*
X123187582Y-90622310D02*
X124375400Y-91810128D01*
X143548910Y-85160000D02*
X146110000Y-87721090D01*
D33*
X111070000Y-93140000D02*
X111070000Y-94150000D01*
X111600000Y-94680000D02*
X110850000Y-94680000D01*
D32*
X111040000Y-91610000D02*
X111040000Y-91580000D01*
X151760000Y-91095000D02*
X151810000Y-91045000D01*
X112393400Y-90530000D02*
X111130000Y-90530000D01*
D34*
%TO.N,+BATT*%
X138441183Y-68416600D02*
X137613813Y-69243970D01*
X130240000Y-74270000D02*
X128453510Y-76056490D01*
X137613813Y-69243970D02*
X137613813Y-72314273D01*
X137613813Y-72314273D02*
X135658086Y-74270000D01*
X135658086Y-74270000D02*
X130240000Y-74270000D01*
X128453510Y-76056490D02*
X126160000Y-76056490D01*
D35*
%TO.N,/SDA*%
X129230120Y-90614500D02*
X129230120Y-95039180D01*
X108722550Y-96775250D02*
X109517800Y-95980000D01*
X129230120Y-95039180D02*
X129230120Y-96061530D01*
X129230120Y-96061530D02*
X127763270Y-97528380D01*
X133703060Y-86141560D02*
X129230120Y-90614500D01*
X117013600Y-106813600D02*
X125671330Y-106813600D01*
X127697230Y-102896670D02*
X125779530Y-100978970D01*
X109490000Y-99890000D02*
X109490000Y-101070000D01*
X109517800Y-95980000D02*
X110000000Y-95980000D01*
X111140000Y-102720000D02*
X112920000Y-102720000D01*
D32*
X123922790Y-100978970D02*
X123916440Y-100972620D01*
D35*
X125779530Y-100978970D02*
X123922790Y-100978970D01*
X109490000Y-99890000D02*
X108722550Y-99122550D01*
X125671330Y-106813600D02*
X127697230Y-104787700D01*
X112920000Y-102720000D02*
X117013600Y-106813600D01*
X127697230Y-104787700D02*
X127697230Y-102896670D01*
X108722550Y-99122550D02*
X108722550Y-96775250D01*
X109490000Y-101070000D02*
X111140000Y-102720000D01*
%TO.N,/SCL*%
X111858600Y-100718600D02*
X115736400Y-104596400D01*
D32*
X122260000Y-99890000D02*
X122260000Y-93980000D01*
D35*
X110705150Y-100718600D02*
X111858600Y-100718600D01*
X110000000Y-96630000D02*
X110000000Y-97820000D01*
X116554248Y-105580000D02*
X123270000Y-105580000D01*
X131537320Y-87197320D02*
X128600200Y-90134440D01*
X128600200Y-90134440D02*
X128600200Y-94682310D01*
X110453275Y-99313275D02*
X110386400Y-99380150D01*
D32*
X131537320Y-87197320D02*
X131511040Y-87223600D01*
D35*
X123270000Y-105580000D02*
X124060000Y-104790000D01*
X109480000Y-98340000D02*
X110453275Y-99313275D01*
X128600200Y-94682310D02*
X126498350Y-96784160D01*
X115736400Y-104762152D02*
X116554248Y-105580000D01*
X110000000Y-97820000D02*
X109480000Y-98340000D01*
D32*
X122260000Y-93980000D02*
X120673770Y-92393770D01*
X120370000Y-101780000D02*
X122260000Y-99890000D01*
X120673770Y-92393770D02*
X118358920Y-92393770D01*
D35*
X115736400Y-104596400D02*
X115736400Y-104762152D01*
X110386400Y-99380150D02*
X110386400Y-100399850D01*
X110386400Y-100399850D02*
X110705150Y-100718600D01*
D32*
%TO.N,/SRV_2*%
X135690000Y-94235352D02*
X136699200Y-95244552D01*
X135690000Y-84704248D02*
X135690000Y-94235352D01*
X137060000Y-94251668D02*
X137060000Y-92720000D01*
X136699200Y-98543542D02*
X137387598Y-99231940D01*
X138011902Y-99231940D02*
X138453350Y-98790492D01*
X137656400Y-94848067D02*
X137060000Y-94251668D01*
X137220634Y-83200634D02*
X137174868Y-83246400D01*
X137147848Y-83246400D02*
X135690000Y-84704248D01*
X136699200Y-95244552D02*
X136699200Y-98543542D01*
X137387598Y-99231940D02*
X138011902Y-99231940D01*
X138050000Y-92380000D02*
X138091710Y-92421710D01*
X137400000Y-92380000D02*
X138050000Y-92380000D01*
X138091710Y-92421710D02*
X143302990Y-92421710D01*
X125620000Y-79620000D02*
X125928000Y-79928000D01*
X138453350Y-98790492D02*
X138453350Y-98166188D01*
X137656400Y-97369238D02*
X137656400Y-94848067D01*
X137060000Y-92720000D02*
X137400000Y-92380000D01*
X138453350Y-98166188D02*
X137656400Y-97369238D01*
X125928000Y-79928000D02*
X133948000Y-79928000D01*
X138050000Y-92380000D02*
X138290000Y-92380000D01*
X137174868Y-83246400D02*
X137147848Y-83246400D01*
X133948000Y-79928000D02*
X137220634Y-83200634D01*
%TO.N,Net-(LED1-A)*%
X138128600Y-83331400D02*
X137460000Y-84000000D01*
X142703600Y-81147848D02*
X142703600Y-81916400D01*
X142714400Y-71028241D02*
X142714400Y-71172097D01*
X141097959Y-69411800D02*
X142714400Y-71028241D01*
X142810000Y-71267697D02*
X142810000Y-81041448D01*
X141288600Y-83331400D02*
X138128600Y-83331400D01*
X142703600Y-81916400D02*
X141288600Y-83331400D01*
X142714400Y-71172097D02*
X142810000Y-71267697D01*
X142810000Y-81041448D02*
X142703600Y-81147848D01*
%TO.N,/LED_1*%
X117212650Y-100814164D02*
X116507260Y-100108774D01*
X115554760Y-89555240D02*
X115570000Y-89540000D01*
X117212650Y-102032650D02*
X117212650Y-100814164D01*
X116507260Y-100108774D02*
X116507260Y-95697040D01*
X115554760Y-94744540D02*
X115554760Y-89555240D01*
X119160000Y-103980000D02*
X117212650Y-102032650D01*
X116507260Y-95697040D02*
X115554760Y-94744540D01*
%TO.N,/LED_2*%
X117807740Y-96198690D02*
X120432830Y-96198690D01*
X116333270Y-94724220D02*
X117807740Y-96198690D01*
X116333270Y-88116410D02*
X116333270Y-94724220D01*
X120432830Y-96198690D02*
X120702070Y-95929450D01*
X115980845Y-87763985D02*
X116333270Y-88116410D01*
%TO.N,/LED_3*%
X123621800Y-91733370D02*
X123621800Y-97194370D01*
X115880000Y-83400000D02*
X115880000Y-86008330D01*
X115480000Y-83000000D02*
X115880000Y-83400000D01*
X116949220Y-91069220D02*
X116980910Y-91100910D01*
X115880000Y-86008330D02*
X116949220Y-87077550D01*
X122989340Y-91100910D02*
X123621800Y-91733370D01*
X116949220Y-87077550D02*
X116949220Y-91069220D01*
X116980910Y-91100910D02*
X122989340Y-91100910D01*
%TO.N,/RX*%
X131120000Y-92270000D02*
X131140000Y-92270000D01*
X125670000Y-103250000D02*
X124713420Y-102293420D01*
X131160000Y-92270000D02*
X131110000Y-92250000D01*
X134350000Y-94930000D02*
X131690000Y-92270000D01*
X124713420Y-102293420D02*
X123587510Y-102293420D01*
X131110000Y-92250000D02*
X131120000Y-92270000D01*
X131690000Y-92270000D02*
X131160000Y-92270000D01*
%TO.N,/TX*%
X137180000Y-87960000D02*
X139200000Y-87960000D01*
X139200000Y-87960000D02*
X139310000Y-88070000D01*
%TO.N,/IO0*%
X138540000Y-93910000D02*
X139711280Y-93910000D01*
X138120000Y-93880000D02*
X138540000Y-93910000D01*
X140770000Y-97508720D02*
X143302990Y-100041710D01*
X134970000Y-96110000D02*
X132690000Y-96110000D01*
X139711280Y-93910000D02*
X140770000Y-94968720D01*
X130440000Y-94000000D02*
X130680000Y-94100000D01*
X126480000Y-92570000D02*
X126480000Y-90390000D01*
X138480000Y-93910000D02*
X138510000Y-93910000D01*
X140770000Y-94968720D02*
X140770000Y-97508720D01*
X138120000Y-93880000D02*
X138480000Y-93910000D01*
X126480000Y-90390000D02*
X124235620Y-88145620D01*
X124235620Y-88145620D02*
X122539760Y-88145620D01*
X132690000Y-96110000D02*
X130440000Y-94000000D01*
%TO.N,/MOT_2*%
X127308790Y-82520000D02*
X127378790Y-82450000D01*
X116310000Y-82520000D02*
X127308790Y-82520000D01*
X132961710Y-82450000D02*
X134860000Y-84348290D01*
X127378790Y-82450000D02*
X132961710Y-82450000D01*
X115470000Y-81680000D02*
X116310000Y-82520000D01*
X135103600Y-94617848D02*
X135103600Y-94714704D01*
X134860000Y-94374248D02*
X135103600Y-94617848D01*
X135103600Y-94714704D02*
X135945600Y-95556704D01*
X134860000Y-84348290D02*
X134860000Y-94374248D01*
%TO.N,/MOT_3*%
X144634400Y-81047904D02*
X144634400Y-81712152D01*
X136168600Y-86631400D02*
X136168600Y-94037110D01*
X136168600Y-94037110D02*
X137177800Y-95046310D01*
X146265394Y-79416910D02*
X144634400Y-81047904D01*
X138990000Y-83810000D02*
X136168600Y-86631400D01*
X144634400Y-81712152D02*
X142536552Y-83810000D01*
X147176600Y-79416910D02*
X146265394Y-79416910D01*
X142536552Y-83810000D02*
X138990000Y-83810000D01*
X137177800Y-97956390D02*
X137699750Y-98478340D01*
X137177800Y-95046310D02*
X137177800Y-97956390D01*
%TO.N,/MOT_4*%
X141530000Y-101810000D02*
X143880000Y-101810000D01*
X144600000Y-102530000D02*
X144580000Y-102510000D01*
X141530000Y-99970868D02*
X141530000Y-101810000D01*
X144580000Y-102530000D02*
X144600000Y-102530000D01*
X139059960Y-97500828D02*
X141530000Y-99970868D01*
X143880000Y-101810000D02*
X144580000Y-102510000D01*
X139059960Y-96199960D02*
X139059960Y-97500828D01*
X144580000Y-102510000D02*
X144580000Y-102530000D01*
X139059960Y-96199960D02*
X138410000Y-95550000D01*
%TO.N,LDO_EN*%
X136993290Y-81460000D02*
X136113520Y-80580230D01*
X141950000Y-81460000D02*
X136993290Y-81460000D01*
%TO.N,Net-(LED7-A)*%
X109610000Y-87300000D02*
X109580000Y-87330000D01*
X109610000Y-85850000D02*
X109610000Y-87300000D01*
%TO.N,Net-(LED8-A)*%
X151810000Y-89395000D02*
X151810000Y-88045000D01*
X151810000Y-88045000D02*
X151840000Y-88015000D01*
D36*
%TO.N,VDD*%
X148386567Y-104223883D02*
X148372684Y-104210000D01*
D37*
X124280000Y-73470000D02*
X122967000Y-73470000D01*
X140544860Y-68275200D02*
X138759660Y-66490000D01*
D36*
X145760000Y-90443490D02*
X145760000Y-93640000D01*
D37*
X118493540Y-69223890D02*
X118177310Y-68907660D01*
D36*
X145750000Y-83070000D02*
X145750000Y-85783394D01*
D37*
X114015540Y-93820000D02*
X114680000Y-93820000D01*
X114460000Y-87070000D02*
X114460000Y-84800000D01*
X130730000Y-66490000D02*
X120594970Y-66490000D01*
X138759660Y-66490000D02*
X130730000Y-66490000D01*
D36*
X148130000Y-80810000D02*
X147750116Y-80810000D01*
D37*
X148130000Y-80810000D02*
X148503269Y-81183269D01*
X113780000Y-85126816D02*
X114121592Y-85468408D01*
X113700000Y-94870980D02*
X114309510Y-95480490D01*
X145083530Y-68275200D02*
X140544860Y-68275200D01*
D36*
X145750000Y-81510000D02*
X145750000Y-83070000D01*
D37*
X120437430Y-67280000D02*
X118493540Y-69223890D01*
X146281628Y-102149422D02*
X146281628Y-102483138D01*
X113700000Y-94790000D02*
X113700000Y-94135540D01*
X114460000Y-84800000D02*
X113867956Y-84207956D01*
X113800000Y-85146816D02*
X112861140Y-84207956D01*
X128970000Y-66490000D02*
X128970000Y-67467000D01*
D36*
X147310000Y-94450000D02*
X151590000Y-94450000D01*
D37*
X120594970Y-66490000D02*
X118177310Y-68907660D01*
X117434360Y-69618860D02*
X116801265Y-70251955D01*
X113867956Y-84207956D02*
X112861140Y-84207956D01*
X130720000Y-68280000D02*
X124500000Y-74500000D01*
D36*
X145750000Y-85783394D02*
X147500600Y-87533994D01*
X148567200Y-78569584D02*
X148567200Y-79992916D01*
D37*
X130720000Y-67280000D02*
X120437430Y-67280000D01*
X143346170Y-68275200D02*
X140544860Y-68275200D01*
X139549660Y-67280000D02*
X130720000Y-67280000D01*
D36*
X148022373Y-104223883D02*
X148386567Y-104223883D01*
D37*
X128970000Y-67467000D02*
X122967000Y-73470000D01*
D36*
X144590000Y-71320000D02*
X143980000Y-70710000D01*
D37*
X114536220Y-95105602D02*
X114997230Y-95566612D01*
X113780000Y-74162220D02*
X113780000Y-77190000D01*
D34*
X148480000Y-71980000D02*
X148480000Y-74250000D01*
D37*
X113800000Y-93604460D02*
X113800000Y-85146816D01*
D36*
X146270000Y-100830000D02*
X146264630Y-100835370D01*
X147050116Y-81510000D02*
X148567200Y-79992916D01*
D37*
X129810000Y-66490000D02*
X129810000Y-67940000D01*
X145083530Y-68275200D02*
X143346170Y-68275200D01*
X116351050Y-101171050D02*
X116351050Y-101738950D01*
X112861140Y-84207956D02*
X112861140Y-74192080D01*
D36*
X147750116Y-80810000D02*
X147752606Y-80807510D01*
D37*
X114433400Y-90010796D02*
X114433400Y-87096600D01*
X129810000Y-67940000D02*
X124280000Y-73470000D01*
X114309510Y-95480490D02*
X114536220Y-95253780D01*
X114997230Y-99817230D02*
X116351050Y-101171050D01*
X114536220Y-95253780D02*
X114536220Y-94340680D01*
D36*
X148480000Y-71980000D02*
X148480000Y-70510890D01*
D37*
X114309510Y-95480490D02*
X114061240Y-95728760D01*
D36*
X148130000Y-80430116D02*
X148130000Y-80810000D01*
X148480000Y-70510890D02*
X147209510Y-69240400D01*
X147500600Y-87533994D02*
X147500600Y-88919400D01*
X146264630Y-100835370D02*
X146264630Y-102072440D01*
X148567200Y-75217200D02*
X148567200Y-79992916D01*
X148567200Y-79992916D02*
X148130000Y-80430116D01*
D37*
X114693160Y-93142380D02*
X114693160Y-90270556D01*
D36*
X144590000Y-71320000D02*
X144670000Y-71320000D01*
D37*
X118493540Y-69223890D02*
X118493540Y-69448680D01*
X115564920Y-102464920D02*
X115580000Y-102480000D01*
X115564920Y-102525080D02*
X115564920Y-102495080D01*
D36*
X146452490Y-80807510D02*
X145750000Y-81510000D01*
X146281628Y-102483138D02*
X148022373Y-104223883D01*
D37*
X114433400Y-87096600D02*
X114460000Y-87070000D01*
X116801265Y-70251955D02*
X116154200Y-70899020D01*
D36*
X146321780Y-89881710D02*
X145760000Y-90443490D01*
D37*
X114536220Y-94340680D02*
X114536220Y-95105602D01*
X116351050Y-101738950D02*
X115564920Y-102525080D01*
X123470000Y-73470000D02*
X122967000Y-73470000D01*
X112861140Y-74192080D02*
X116154200Y-70899020D01*
X113700000Y-94790000D02*
X113700000Y-94870980D01*
X130720000Y-67280000D02*
X130720000Y-68280000D01*
X118145560Y-68907660D02*
X117434360Y-69618860D01*
D36*
X143980000Y-70710000D02*
X143830000Y-70710000D01*
D37*
X113700000Y-94135540D02*
X114015540Y-93820000D01*
X114015540Y-93820000D02*
X113800000Y-93604460D01*
D36*
X146500000Y-93640000D02*
X147310000Y-94450000D01*
D32*
X148797616Y-78800000D02*
X148567200Y-78569584D01*
D37*
X114015540Y-93820000D02*
X114693160Y-93142380D01*
X114997230Y-95566612D02*
X114997230Y-99817230D01*
D36*
X148372684Y-104210000D02*
X147990000Y-104210000D01*
X148480000Y-71980000D02*
X148270000Y-72190000D01*
X145760000Y-100320000D02*
X146270000Y-100830000D01*
X146538290Y-89881710D02*
X143302990Y-89881710D01*
X148270000Y-78272384D02*
X148567200Y-78569584D01*
D37*
X113780000Y-77190000D02*
X113780000Y-85126816D01*
D32*
X114060000Y-76910000D02*
X113780000Y-77190000D01*
D36*
X147752606Y-80807510D02*
X146452490Y-80807510D01*
D37*
X115564920Y-102495080D02*
X115580000Y-102480000D01*
D36*
X147500600Y-88919400D02*
X146538290Y-89881710D01*
D37*
X114061240Y-99823270D02*
X115564920Y-101326950D01*
D36*
X145760000Y-93640000D02*
X145760000Y-97830000D01*
D37*
X118177310Y-68907660D02*
X118145560Y-68907660D01*
X115564920Y-101326950D02*
X115564920Y-102464920D01*
X114693160Y-90270556D02*
X114433400Y-90010796D01*
X140544860Y-68275200D02*
X139549660Y-67280000D01*
D36*
X145760000Y-93640000D02*
X146500000Y-93640000D01*
X148270000Y-72190000D02*
X148270000Y-78272384D01*
X145750000Y-81510000D02*
X147050116Y-81510000D01*
D37*
X114061240Y-95728760D02*
X114061240Y-99823270D01*
D36*
X145760000Y-97830000D02*
X145760000Y-100320000D01*
D37*
X116154200Y-70899020D02*
X116154200Y-70850760D01*
D36*
X144670000Y-71320000D02*
X148567200Y-75217200D01*
D37*
X118493540Y-69448680D02*
X113780000Y-74162220D01*
X124500000Y-74500000D02*
X123470000Y-73470000D01*
D33*
%TO.N,Net-(U1-CSB)*%
X109396400Y-95066400D02*
X109660000Y-95330000D01*
D32*
X109420000Y-93140000D02*
X109396400Y-93163600D01*
X109660000Y-95330000D02*
X110000000Y-95330000D01*
D33*
X109396400Y-93163600D02*
X109396400Y-95066400D01*
%TO.N,Net-(U1-SDO)*%
X111600000Y-97230000D02*
X112620000Y-98250000D01*
X111600000Y-96630000D02*
X111600000Y-97230000D01*
%TO.N,+3V3*%
X111040000Y-95980000D02*
X110800000Y-96220000D01*
%TD*%
%TA.AperFunction,Conductor*%
%TO.N,GND*%
G36*
X147092090Y-64226603D02*
G01*
X147096926Y-64231036D01*
X153174934Y-70309044D01*
X153196674Y-70355664D01*
X153196960Y-70362218D01*
X153196960Y-81189380D01*
X153179367Y-81237718D01*
X153136432Y-81263134D01*
X153118991Y-81266604D01*
X152949907Y-81336641D01*
X152797730Y-81438323D01*
X152797727Y-81438325D01*
X152668325Y-81567727D01*
X152668323Y-81567730D01*
X152566641Y-81719907D01*
X152496604Y-81888991D01*
X152496603Y-81888993D01*
X152460900Y-82068491D01*
X152460900Y-82251508D01*
X152489456Y-82395076D01*
X152496604Y-82431009D01*
X152566642Y-82600094D01*
X152668321Y-82752267D01*
X152668323Y-82752269D01*
X152668325Y-82752272D01*
X152797727Y-82881674D01*
X152797730Y-82881676D01*
X152797733Y-82881679D01*
X152949906Y-82983358D01*
X152993538Y-83001431D01*
X153118985Y-83053394D01*
X153118987Y-83053394D01*
X153118991Y-83053396D01*
X153136430Y-83056864D01*
X153180406Y-83083548D01*
X153196960Y-83130619D01*
X153196960Y-87203289D01*
X153179367Y-87251627D01*
X153134818Y-87277347D01*
X153133525Y-87277563D01*
X153107129Y-87281744D01*
X153107125Y-87281745D01*
X152926299Y-87340499D01*
X152926285Y-87340505D01*
X152756867Y-87426828D01*
X152733218Y-87444008D01*
X153174934Y-87885724D01*
X153196674Y-87932344D01*
X153196960Y-87938898D01*
X153196960Y-88109572D01*
X153144395Y-88139921D01*
X153069921Y-88214395D01*
X153017260Y-88305606D01*
X152990001Y-88407339D01*
X152990001Y-88419211D01*
X152566126Y-87995336D01*
X152544386Y-87948716D01*
X152544100Y-87942162D01*
X152544100Y-87742294D01*
X152544099Y-87742293D01*
X152542337Y-87723501D01*
X152541263Y-87712049D01*
X152503891Y-87605246D01*
X152496675Y-87584622D01*
X152496673Y-87584619D01*
X152494512Y-87581690D01*
X152416505Y-87475995D01*
X152416504Y-87475994D01*
X152385808Y-87453339D01*
X152357364Y-87410480D01*
X152363123Y-87359363D01*
X152400393Y-87323908D01*
X152404658Y-87322275D01*
X152405477Y-87321893D01*
X152550070Y-87232707D01*
X152550074Y-87232704D01*
X152670204Y-87112574D01*
X152670207Y-87112570D01*
X152759391Y-86967981D01*
X152812829Y-86806713D01*
X152812830Y-86806711D01*
X152823000Y-86707166D01*
X152823000Y-86694000D01*
X150857001Y-86694000D01*
X150857001Y-86707167D01*
X150867170Y-86806716D01*
X150920608Y-86967981D01*
X151009792Y-87112570D01*
X151009795Y-87112574D01*
X151129925Y-87232704D01*
X151129929Y-87232707D01*
X151274519Y-87321891D01*
X151278487Y-87323742D01*
X151277840Y-87325129D01*
X151313538Y-87353354D01*
X151323941Y-87403730D01*
X151299529Y-87449009D01*
X151294191Y-87453339D01*
X151263495Y-87475994D01*
X151183326Y-87584619D01*
X151183324Y-87584622D01*
X151138738Y-87712046D01*
X151138736Y-87712055D01*
X151135900Y-87742293D01*
X151135900Y-88287706D01*
X151138736Y-88317944D01*
X151138737Y-88317951D01*
X151149084Y-88347521D01*
X151183324Y-88445377D01*
X151183326Y-88445380D01*
X151263495Y-88554005D01*
X151372120Y-88634174D01*
X151392382Y-88641264D01*
X151402482Y-88644798D01*
X151442297Y-88677368D01*
X151451861Y-88727911D01*
X151426699Y-88772777D01*
X151402483Y-88786758D01*
X151332232Y-88811339D01*
X151332229Y-88811341D01*
X151228153Y-88888153D01*
X151151341Y-88992229D01*
X151151339Y-88992232D01*
X151108619Y-89114321D01*
X151108617Y-89114330D01*
X151105900Y-89143301D01*
X151105900Y-89646698D01*
X151108617Y-89675669D01*
X151108618Y-89675676D01*
X151108619Y-89675678D01*
X151151339Y-89797767D01*
X151151341Y-89797770D01*
X151228153Y-89901847D01*
X151332229Y-89978658D01*
X151332232Y-89978660D01*
X151359242Y-89988111D01*
X151454324Y-90021382D01*
X151483301Y-90024099D01*
X151483304Y-90024100D01*
X151483310Y-90024100D01*
X152136696Y-90024100D01*
X152136697Y-90024099D01*
X152165676Y-90021382D01*
X152287770Y-89978659D01*
X152391847Y-89901847D01*
X152468659Y-89797770D01*
X152511382Y-89675676D01*
X152514099Y-89646697D01*
X152514100Y-89646696D01*
X152514100Y-89464379D01*
X152531693Y-89416041D01*
X152576242Y-89390321D01*
X152626900Y-89399254D01*
X152633502Y-89403541D01*
X152756868Y-89493172D01*
X152926285Y-89579494D01*
X152926299Y-89579500D01*
X153107121Y-89638253D01*
X153107135Y-89638256D01*
X153133523Y-89642436D01*
X153178514Y-89667374D01*
X153196949Y-89715397D01*
X153196960Y-89716710D01*
X153196960Y-102662746D01*
X153179367Y-102711084D01*
X153177539Y-102713182D01*
X152936717Y-102979514D01*
X152933656Y-102982705D01*
X147029899Y-108786347D01*
X146983094Y-108807687D01*
X146977181Y-108807920D01*
X114735843Y-108807920D01*
X114688086Y-108790809D01*
X114465804Y-108608061D01*
X114108721Y-108314487D01*
X114102811Y-108309073D01*
X108984118Y-103090600D01*
X108983661Y-103090129D01*
X108657611Y-102750342D01*
X108618990Y-102710094D01*
X108598217Y-102663035D01*
X108598050Y-102658028D01*
X108598050Y-99715726D01*
X108615643Y-99667388D01*
X108660192Y-99641668D01*
X108710850Y-99650601D01*
X108726424Y-99662552D01*
X108838874Y-99775002D01*
X108860614Y-99821622D01*
X108860900Y-99828176D01*
X108860900Y-100216698D01*
X108863617Y-100245669D01*
X108863618Y-100245676D01*
X108870888Y-100266452D01*
X108906339Y-100367767D01*
X108906341Y-100367770D01*
X108971141Y-100455572D01*
X108983153Y-100471847D01*
X109080356Y-100543586D01*
X109108800Y-100586443D01*
X109110900Y-100604090D01*
X109110900Y-101020091D01*
X109110900Y-101119909D01*
X109125682Y-101175075D01*
X109136735Y-101216326D01*
X109136735Y-101216328D01*
X109186644Y-101302773D01*
X110907224Y-103023353D01*
X110907226Y-103023354D01*
X110907227Y-103023355D01*
X110937764Y-103040985D01*
X110993662Y-103073260D01*
X110993672Y-103073265D01*
X111014045Y-103078723D01*
X111014046Y-103078724D01*
X111014047Y-103078724D01*
X111090091Y-103099100D01*
X112731824Y-103099100D01*
X112780162Y-103116693D01*
X112784998Y-103121126D01*
X113119051Y-103455179D01*
X113140791Y-103501799D01*
X113127477Y-103551486D01*
X113085340Y-103580991D01*
X113034096Y-103576507D01*
X113033252Y-103576107D01*
X113024641Y-103571960D01*
X113024633Y-103571958D01*
X112889278Y-103551556D01*
X112889276Y-103551556D01*
X112753920Y-103571958D01*
X112753913Y-103571960D01*
X112630587Y-103631349D01*
X112606844Y-103651021D01*
X111857761Y-104400104D01*
X111838089Y-104423847D01*
X111778700Y-104547173D01*
X111778698Y-104547180D01*
X111758296Y-104682536D01*
X111758296Y-104682537D01*
X111778698Y-104817893D01*
X111778700Y-104817900D01*
X111838089Y-104941227D01*
X111848201Y-104953431D01*
X111857752Y-104964958D01*
X112253302Y-105360508D01*
X112263492Y-105368951D01*
X112277032Y-105380170D01*
X112353098Y-105416800D01*
X112400363Y-105439561D01*
X112484964Y-105452313D01*
X112535722Y-105459964D01*
X112535723Y-105459964D01*
X112654097Y-105442121D01*
X112704517Y-105452313D01*
X112736590Y-105492530D01*
X112740506Y-105516481D01*
X112740506Y-105633306D01*
X112766603Y-105764508D01*
X112766604Y-105764509D01*
X112815832Y-105883356D01*
X112817795Y-105888095D01*
X112892114Y-105999321D01*
X112892116Y-105999323D01*
X112892118Y-105999326D01*
X112986699Y-106093907D01*
X112986702Y-106093909D01*
X112986705Y-106093912D01*
X113097931Y-106168231D01*
X113221516Y-106219421D01*
X113221517Y-106219422D01*
X113221518Y-106219422D01*
X113221520Y-106219423D01*
X113309380Y-106236899D01*
X113352719Y-106245520D01*
X113352720Y-106245520D01*
X113486493Y-106245520D01*
X113519070Y-106239039D01*
X113617692Y-106219423D01*
X113741281Y-106168231D01*
X113852507Y-106093912D01*
X114300652Y-105645767D01*
X114374971Y-105534541D01*
X114426163Y-105410952D01*
X114452261Y-105279752D01*
X114452261Y-105145980D01*
X114446693Y-105117991D01*
X114438864Y-105078629D01*
X114426163Y-105014780D01*
X114392300Y-104933029D01*
X114390057Y-104881641D01*
X114421372Y-104840831D01*
X114471592Y-104829697D01*
X114514951Y-104851080D01*
X116780826Y-107116955D01*
X116830736Y-107145770D01*
X116867273Y-107166865D01*
X116963691Y-107192700D01*
X116963694Y-107192700D01*
X125721236Y-107192700D01*
X125721239Y-107192700D01*
X125817657Y-107166865D01*
X125904103Y-107116955D01*
X127582231Y-105438825D01*
X127628851Y-105417086D01*
X127635405Y-105416800D01*
X127759192Y-105416800D01*
X127790285Y-105410615D01*
X127880732Y-105392624D01*
X127995221Y-105345201D01*
X128098258Y-105276354D01*
X128185884Y-105188728D01*
X128254731Y-105085691D01*
X128302154Y-104971202D01*
X128326330Y-104849661D01*
X128326330Y-104758038D01*
X134600900Y-104758038D01*
X134600900Y-104881961D01*
X134625075Y-105003498D01*
X134625076Y-105003501D01*
X134665951Y-105102184D01*
X134672499Y-105117991D01*
X134741346Y-105221028D01*
X134741348Y-105221030D01*
X134741350Y-105221033D01*
X134828966Y-105308649D01*
X134828969Y-105308651D01*
X134828972Y-105308654D01*
X134932009Y-105377501D01*
X135046498Y-105424924D01*
X135132953Y-105442121D01*
X135168038Y-105449100D01*
X135168039Y-105449100D01*
X135291962Y-105449100D01*
X135316269Y-105444264D01*
X135413502Y-105424924D01*
X135527991Y-105377501D01*
X135631028Y-105308654D01*
X135718654Y-105221028D01*
X135787501Y-105117991D01*
X135834924Y-105003502D01*
X135859100Y-104881961D01*
X135859100Y-104758039D01*
X135834924Y-104636498D01*
X135787501Y-104522009D01*
X135718654Y-104418972D01*
X135718651Y-104418969D01*
X135718649Y-104418966D01*
X135631033Y-104331350D01*
X135631030Y-104331348D01*
X135631028Y-104331346D01*
X135527991Y-104262499D01*
X135413502Y-104215076D01*
X135413499Y-104215075D01*
X135413498Y-104215075D01*
X135291962Y-104190900D01*
X135291961Y-104190900D01*
X135168039Y-104190900D01*
X135168038Y-104190900D01*
X135046501Y-104215075D01*
X135046498Y-104215076D01*
X134932010Y-104262498D01*
X134828969Y-104331348D01*
X134828966Y-104331350D01*
X134741350Y-104418966D01*
X134741348Y-104418969D01*
X134672498Y-104522010D01*
X134625076Y-104636498D01*
X134625075Y-104636501D01*
X134600900Y-104758038D01*
X128326330Y-104758038D01*
X128326330Y-104725739D01*
X128302154Y-104604198D01*
X128254731Y-104489709D01*
X128185884Y-104386672D01*
X128185881Y-104386669D01*
X128185879Y-104386666D01*
X128098356Y-104299143D01*
X128076616Y-104252523D01*
X128076330Y-104245969D01*
X128076330Y-102846763D01*
X128076330Y-102846761D01*
X128050495Y-102750343D01*
X128050495Y-102750342D01*
X128000585Y-102663897D01*
X128000582Y-102663894D01*
X128000581Y-102663892D01*
X126834265Y-101497576D01*
X129718691Y-101497576D01*
X129718692Y-101497577D01*
X129847420Y-101550897D01*
X129847423Y-101550898D01*
X130003528Y-101581950D01*
X130162692Y-101581950D01*
X130318795Y-101550898D01*
X130447527Y-101497576D01*
X131243691Y-101497576D01*
X131243692Y-101497577D01*
X131372420Y-101550897D01*
X131372423Y-101550898D01*
X131528528Y-101581950D01*
X131687692Y-101581950D01*
X131843795Y-101550898D01*
X131972527Y-101497576D01*
X132768691Y-101497576D01*
X132768692Y-101497577D01*
X132897420Y-101550897D01*
X132897423Y-101550898D01*
X133053528Y-101581950D01*
X133212692Y-101581950D01*
X133368795Y-101550898D01*
X133497527Y-101497576D01*
X133133111Y-101133160D01*
X133133109Y-101133160D01*
X132768691Y-101497576D01*
X131972527Y-101497576D01*
X131608111Y-101133160D01*
X131608109Y-101133160D01*
X131243691Y-101497576D01*
X130447527Y-101497576D01*
X130083111Y-101133160D01*
X130083109Y-101133160D01*
X129718691Y-101497576D01*
X126834265Y-101497576D01*
X126031057Y-100694368D01*
X129275110Y-100694368D01*
X129275110Y-100853531D01*
X129306161Y-101009636D01*
X129306162Y-101009639D01*
X129359482Y-101138367D01*
X129723900Y-100773950D01*
X129723900Y-100773949D01*
X129694064Y-100744113D01*
X129933110Y-100744113D01*
X129933110Y-100803787D01*
X129955946Y-100858918D01*
X129998142Y-100901114D01*
X130053273Y-100923950D01*
X130112947Y-100923950D01*
X130168078Y-100901114D01*
X130210274Y-100858918D01*
X130233110Y-100803787D01*
X130233110Y-100773948D01*
X130442320Y-100773948D01*
X130442320Y-100773951D01*
X130806735Y-101138366D01*
X130830937Y-101133552D01*
X130860281Y-101133552D01*
X130884483Y-101138366D01*
X131248900Y-100773950D01*
X131248900Y-100773949D01*
X131219064Y-100744113D01*
X131458110Y-100744113D01*
X131458110Y-100803787D01*
X131480946Y-100858918D01*
X131523142Y-100901114D01*
X131578273Y-100923950D01*
X131637947Y-100923950D01*
X131693078Y-100901114D01*
X131735274Y-100858918D01*
X131758110Y-100803787D01*
X131758110Y-100773948D01*
X131967320Y-100773948D01*
X131967320Y-100773951D01*
X132331735Y-101138366D01*
X132355937Y-101133552D01*
X132385281Y-101133552D01*
X132409483Y-101138366D01*
X132773900Y-100773950D01*
X132773900Y-100773949D01*
X132744064Y-100744113D01*
X132983110Y-100744113D01*
X132983110Y-100803787D01*
X133005946Y-100858918D01*
X133048142Y-100901114D01*
X133103273Y-100923950D01*
X133162947Y-100923950D01*
X133218078Y-100901114D01*
X133260274Y-100858918D01*
X133283110Y-100803787D01*
X133283110Y-100773948D01*
X133492320Y-100773948D01*
X133492320Y-100773951D01*
X133856736Y-101138367D01*
X133910058Y-101009635D01*
X133941110Y-100853531D01*
X133941110Y-100694368D01*
X133910058Y-100538263D01*
X133910057Y-100538260D01*
X133856737Y-100409532D01*
X133856736Y-100409531D01*
X133492320Y-100773948D01*
X133283110Y-100773948D01*
X133283110Y-100744113D01*
X133260274Y-100688982D01*
X133218078Y-100646786D01*
X133162947Y-100623950D01*
X133103273Y-100623950D01*
X133048142Y-100646786D01*
X133005946Y-100688982D01*
X132983110Y-100744113D01*
X132744064Y-100744113D01*
X132409482Y-100409531D01*
X132385280Y-100414346D01*
X132355938Y-100414346D01*
X132331736Y-100409531D01*
X131967320Y-100773948D01*
X131758110Y-100773948D01*
X131758110Y-100744113D01*
X131735274Y-100688982D01*
X131693078Y-100646786D01*
X131637947Y-100623950D01*
X131578273Y-100623950D01*
X131523142Y-100646786D01*
X131480946Y-100688982D01*
X131458110Y-100744113D01*
X131219064Y-100744113D01*
X130884482Y-100409531D01*
X130860280Y-100414346D01*
X130830938Y-100414346D01*
X130806736Y-100409531D01*
X130442320Y-100773948D01*
X130233110Y-100773948D01*
X130233110Y-100744113D01*
X130210274Y-100688982D01*
X130168078Y-100646786D01*
X130112947Y-100623950D01*
X130053273Y-100623950D01*
X129998142Y-100646786D01*
X129955946Y-100688982D01*
X129933110Y-100744113D01*
X129694064Y-100744113D01*
X129359482Y-100409531D01*
X129306162Y-100538260D01*
X129306161Y-100538263D01*
X129275110Y-100694368D01*
X126031057Y-100694368D01*
X126012303Y-100675614D01*
X125925857Y-100625705D01*
X125919307Y-100623950D01*
X125829439Y-100599870D01*
X125829436Y-100599870D01*
X124463868Y-100599870D01*
X124415530Y-100582277D01*
X124405735Y-100572374D01*
X124405097Y-100571597D01*
X124405094Y-100571592D01*
X124405089Y-100571587D01*
X124405085Y-100571582D01*
X124317473Y-100483970D01*
X124317470Y-100483968D01*
X124317468Y-100483966D01*
X124214431Y-100415119D01*
X124102405Y-100368716D01*
X124064482Y-100333966D01*
X124057767Y-100282966D01*
X124078009Y-100246070D01*
X124351503Y-99972576D01*
X129718691Y-99972576D01*
X129723506Y-99996778D01*
X129723506Y-100026120D01*
X129718691Y-100050322D01*
X130083109Y-100414740D01*
X130083111Y-100414740D01*
X130447526Y-100050323D01*
X130442712Y-100026121D01*
X130442712Y-100023926D01*
X130442142Y-100022887D01*
X130442712Y-99996777D01*
X130447526Y-99972576D01*
X131243691Y-99972576D01*
X131248506Y-99996778D01*
X131248506Y-100026120D01*
X131243691Y-100050322D01*
X131608109Y-100414740D01*
X131608111Y-100414740D01*
X131972526Y-100050323D01*
X131967712Y-100026121D01*
X131967712Y-100023926D01*
X131967142Y-100022887D01*
X131967712Y-99996777D01*
X131972526Y-99972576D01*
X132768691Y-99972576D01*
X132773506Y-99996778D01*
X132773506Y-100026120D01*
X132768691Y-100050322D01*
X133133109Y-100414740D01*
X133133111Y-100414740D01*
X133497526Y-100050323D01*
X133492712Y-100026121D01*
X133492712Y-99996777D01*
X133497526Y-99972575D01*
X133133111Y-99608160D01*
X133133109Y-99608160D01*
X132768691Y-99972576D01*
X131972526Y-99972576D01*
X131972526Y-99972575D01*
X131608111Y-99608160D01*
X131608109Y-99608160D01*
X131243691Y-99972576D01*
X130447526Y-99972576D01*
X130447526Y-99972575D01*
X130083111Y-99608160D01*
X130083109Y-99608160D01*
X129718691Y-99972576D01*
X124351503Y-99972576D01*
X124586628Y-99737451D01*
X124586638Y-99737444D01*
X124658747Y-99665335D01*
X124658751Y-99665331D01*
X124705369Y-99584586D01*
X124716597Y-99542683D01*
X124729501Y-99494526D01*
X124729501Y-99401290D01*
X124729501Y-99396688D01*
X124729500Y-99396670D01*
X124729500Y-99169368D01*
X129275110Y-99169368D01*
X129275110Y-99328531D01*
X129306161Y-99484636D01*
X129306162Y-99484639D01*
X129359482Y-99613367D01*
X129723900Y-99248950D01*
X129723900Y-99248949D01*
X129694064Y-99219113D01*
X129933110Y-99219113D01*
X129933110Y-99278787D01*
X129955946Y-99333918D01*
X129998142Y-99376114D01*
X130053273Y-99398950D01*
X130112947Y-99398950D01*
X130168078Y-99376114D01*
X130210274Y-99333918D01*
X130233110Y-99278787D01*
X130233110Y-99248948D01*
X130442320Y-99248948D01*
X130442320Y-99248951D01*
X130806735Y-99613366D01*
X130830937Y-99608552D01*
X130860281Y-99608552D01*
X130884483Y-99613366D01*
X131248900Y-99248950D01*
X131248900Y-99248949D01*
X131219064Y-99219113D01*
X131458110Y-99219113D01*
X131458110Y-99278787D01*
X131480946Y-99333918D01*
X131523142Y-99376114D01*
X131578273Y-99398950D01*
X131637947Y-99398950D01*
X131693078Y-99376114D01*
X131735274Y-99333918D01*
X131758110Y-99278787D01*
X131758110Y-99248948D01*
X131967320Y-99248948D01*
X131967320Y-99248951D01*
X132331735Y-99613366D01*
X132355937Y-99608552D01*
X132385281Y-99608552D01*
X132409483Y-99613366D01*
X132773900Y-99248950D01*
X132773900Y-99248949D01*
X132744064Y-99219113D01*
X132983110Y-99219113D01*
X132983110Y-99278787D01*
X133005946Y-99333918D01*
X133048142Y-99376114D01*
X133103273Y-99398950D01*
X133162947Y-99398950D01*
X133218078Y-99376114D01*
X133260274Y-99333918D01*
X133283110Y-99278787D01*
X133283110Y-99248948D01*
X133492320Y-99248948D01*
X133492320Y-99248951D01*
X133856736Y-99613367D01*
X133910058Y-99484635D01*
X133941110Y-99328531D01*
X133941110Y-99169368D01*
X133910058Y-99013263D01*
X133910057Y-99013260D01*
X133856737Y-98884532D01*
X133856736Y-98884531D01*
X133492320Y-99248948D01*
X133283110Y-99248948D01*
X133283110Y-99219113D01*
X133260274Y-99163982D01*
X133218078Y-99121786D01*
X133162947Y-99098950D01*
X133103273Y-99098950D01*
X133048142Y-99121786D01*
X133005946Y-99163982D01*
X132983110Y-99219113D01*
X132744064Y-99219113D01*
X132409482Y-98884531D01*
X132385280Y-98889346D01*
X132355938Y-98889346D01*
X132331736Y-98884531D01*
X131967320Y-99248948D01*
X131758110Y-99248948D01*
X131758110Y-99219113D01*
X131735274Y-99163982D01*
X131693078Y-99121786D01*
X131637947Y-99098950D01*
X131578273Y-99098950D01*
X131523142Y-99121786D01*
X131480946Y-99163982D01*
X131458110Y-99219113D01*
X131219064Y-99219113D01*
X130884482Y-98884531D01*
X130860280Y-98889346D01*
X130830938Y-98889346D01*
X130806736Y-98884531D01*
X130442320Y-99248948D01*
X130233110Y-99248948D01*
X130233110Y-99219113D01*
X130210274Y-99163982D01*
X130168078Y-99121786D01*
X130112947Y-99098950D01*
X130053273Y-99098950D01*
X129998142Y-99121786D01*
X129955946Y-99163982D01*
X129933110Y-99219113D01*
X129694064Y-99219113D01*
X129359482Y-98884531D01*
X129306162Y-99013260D01*
X129306161Y-99013263D01*
X129275110Y-99169368D01*
X124729500Y-99169368D01*
X124729500Y-98525322D01*
X129718691Y-98525322D01*
X130083109Y-98889740D01*
X130083111Y-98889740D01*
X130447527Y-98525322D01*
X131243691Y-98525322D01*
X131608109Y-98889740D01*
X131608111Y-98889740D01*
X131972527Y-98525322D01*
X132768691Y-98525322D01*
X133133109Y-98889740D01*
X133133111Y-98889740D01*
X133497527Y-98525322D01*
X133368799Y-98472002D01*
X133368796Y-98472001D01*
X133212692Y-98440950D01*
X133053528Y-98440950D01*
X132897423Y-98472001D01*
X132897420Y-98472002D01*
X132768691Y-98525322D01*
X131972527Y-98525322D01*
X131843799Y-98472002D01*
X131843796Y-98472001D01*
X131687692Y-98440950D01*
X131528528Y-98440950D01*
X131372423Y-98472001D01*
X131372420Y-98472002D01*
X131243691Y-98525322D01*
X130447527Y-98525322D01*
X130318799Y-98472002D01*
X130318796Y-98472001D01*
X130162692Y-98440950D01*
X130003528Y-98440950D01*
X129847423Y-98472001D01*
X129847420Y-98472002D01*
X129718691Y-98525322D01*
X124729500Y-98525322D01*
X124729500Y-96722199D01*
X125869250Y-96722199D01*
X125869250Y-96846121D01*
X125893426Y-96967662D01*
X125940849Y-97082151D01*
X126009696Y-97185188D01*
X126009698Y-97185190D01*
X126009700Y-97185193D01*
X126097316Y-97272809D01*
X126097319Y-97272811D01*
X126097322Y-97272814D01*
X126200359Y-97341661D01*
X126314848Y-97389084D01*
X126406003Y-97407216D01*
X126436388Y-97413260D01*
X126436389Y-97413260D01*
X126560312Y-97413260D01*
X126584619Y-97408424D01*
X126681852Y-97389084D01*
X126796341Y-97341661D01*
X126899378Y-97272814D01*
X126987004Y-97185188D01*
X127055851Y-97082151D01*
X127103274Y-96967662D01*
X127127450Y-96846121D01*
X127127450Y-96722335D01*
X127145043Y-96673997D01*
X127149476Y-96669161D01*
X127974924Y-95843713D01*
X128722647Y-95095990D01*
X128769266Y-95074251D01*
X128818953Y-95087565D01*
X128848458Y-95129702D01*
X128851020Y-95149165D01*
X128851020Y-95873353D01*
X128833427Y-95921691D01*
X128828994Y-95926527D01*
X127878267Y-96877254D01*
X127831647Y-96898994D01*
X127825093Y-96899280D01*
X127701308Y-96899280D01*
X127579771Y-96923455D01*
X127579768Y-96923456D01*
X127465280Y-96970878D01*
X127362239Y-97039728D01*
X127362236Y-97039730D01*
X127274620Y-97127346D01*
X127274618Y-97127349D01*
X127205768Y-97230390D01*
X127158346Y-97344878D01*
X127158345Y-97344881D01*
X127134170Y-97466418D01*
X127134170Y-97590340D01*
X127134169Y-97590340D01*
X127158345Y-97711878D01*
X127158346Y-97711882D01*
X127205769Y-97826371D01*
X127274616Y-97929408D01*
X127274618Y-97929410D01*
X127274620Y-97929413D01*
X127362236Y-98017029D01*
X127362239Y-98017031D01*
X127362242Y-98017034D01*
X127465279Y-98085881D01*
X127579768Y-98133304D01*
X127670923Y-98151436D01*
X127701308Y-98157480D01*
X127701309Y-98157480D01*
X127825232Y-98157480D01*
X127849539Y-98152644D01*
X127946772Y-98133304D01*
X128061261Y-98085881D01*
X128164298Y-98017034D01*
X128251924Y-97929408D01*
X128320771Y-97826371D01*
X128368194Y-97711882D01*
X128392370Y-97590341D01*
X128392370Y-97466555D01*
X128409963Y-97418217D01*
X128414396Y-97413381D01*
X129533475Y-96294303D01*
X129557533Y-96252633D01*
X129583385Y-96207857D01*
X129609220Y-96111439D01*
X129609220Y-96011621D01*
X129609220Y-94989271D01*
X129609220Y-90802675D01*
X129626813Y-90754337D01*
X129631235Y-90749512D01*
X133588061Y-86792685D01*
X133634681Y-86770946D01*
X133641235Y-86770660D01*
X133765022Y-86770660D01*
X133790892Y-86765514D01*
X133886562Y-86746484D01*
X134001051Y-86699061D01*
X134104088Y-86630214D01*
X134191714Y-86542588D01*
X134260561Y-86439551D01*
X134307984Y-86325062D01*
X134332160Y-86203521D01*
X134332160Y-86079599D01*
X134330962Y-86073578D01*
X134313045Y-85983502D01*
X134307984Y-85958058D01*
X134260561Y-85843569D01*
X134191714Y-85740532D01*
X134191711Y-85740529D01*
X134191709Y-85740526D01*
X134104093Y-85652910D01*
X134104090Y-85652908D01*
X134104088Y-85652906D01*
X134001051Y-85584059D01*
X133984716Y-85577293D01*
X133938400Y-85558108D01*
X133886562Y-85536636D01*
X133886559Y-85536635D01*
X133886558Y-85536635D01*
X133765022Y-85512460D01*
X133765021Y-85512460D01*
X133641099Y-85512460D01*
X133641098Y-85512460D01*
X133519561Y-85536635D01*
X133519558Y-85536636D01*
X133405070Y-85584058D01*
X133302029Y-85652908D01*
X133302026Y-85652910D01*
X133214410Y-85740526D01*
X133214408Y-85740529D01*
X133145558Y-85843570D01*
X133098136Y-85958058D01*
X133098135Y-85958061D01*
X133073960Y-86079598D01*
X133073960Y-86203383D01*
X133056367Y-86251721D01*
X133051934Y-86256557D01*
X132266436Y-87042055D01*
X132219816Y-87063795D01*
X132170129Y-87050481D01*
X132145514Y-87016461D01*
X132143657Y-87017231D01*
X132142244Y-87013821D01*
X132142244Y-87013818D01*
X132094821Y-86899329D01*
X132025974Y-86796292D01*
X132025971Y-86796289D01*
X132025969Y-86796286D01*
X131938353Y-86708670D01*
X131938350Y-86708668D01*
X131938348Y-86708666D01*
X131835311Y-86639819D01*
X131829164Y-86637273D01*
X131801776Y-86625928D01*
X131720822Y-86592396D01*
X131720819Y-86592395D01*
X131720818Y-86592395D01*
X131599282Y-86568220D01*
X131599281Y-86568220D01*
X131475359Y-86568220D01*
X131475358Y-86568220D01*
X131353821Y-86592395D01*
X131353818Y-86592396D01*
X131239330Y-86639818D01*
X131136289Y-86708668D01*
X131136286Y-86708670D01*
X131048670Y-86796286D01*
X131048668Y-86796289D01*
X130979818Y-86899330D01*
X130932396Y-87013818D01*
X130932395Y-87013821D01*
X130908220Y-87135358D01*
X130908220Y-87259143D01*
X130890627Y-87307481D01*
X130886194Y-87312317D01*
X129621283Y-88577229D01*
X128367427Y-89831085D01*
X128332135Y-89866377D01*
X128296843Y-89901668D01*
X128246935Y-89988111D01*
X128246935Y-89988113D01*
X128221100Y-90084531D01*
X128221100Y-90084533D01*
X128221100Y-94494133D01*
X128203507Y-94542471D01*
X128199074Y-94547307D01*
X126613347Y-96133034D01*
X126566727Y-96154774D01*
X126560173Y-96155060D01*
X126436388Y-96155060D01*
X126314851Y-96179235D01*
X126314848Y-96179236D01*
X126200360Y-96226658D01*
X126097319Y-96295508D01*
X126097316Y-96295510D01*
X126009700Y-96383126D01*
X126009698Y-96383129D01*
X125940848Y-96486170D01*
X125893426Y-96600658D01*
X125893425Y-96600661D01*
X125872528Y-96705720D01*
X125869250Y-96722199D01*
X124729500Y-96722199D01*
X124729500Y-91763512D01*
X124729500Y-91763510D01*
X124705369Y-91673450D01*
X124705368Y-91673449D01*
X124705368Y-91673447D01*
X124662167Y-91598622D01*
X124658751Y-91592705D01*
X124658749Y-91592703D01*
X124658747Y-91592700D01*
X124590208Y-91524161D01*
X124590185Y-91524140D01*
X123475225Y-90409180D01*
X123475213Y-90409166D01*
X123405009Y-90338962D01*
X123405003Y-90338958D01*
X123324267Y-90292344D01*
X123324255Y-90292339D01*
X123305228Y-90287240D01*
X123305228Y-90287241D01*
X123281551Y-90280897D01*
X123234200Y-90268209D01*
X123140964Y-90268209D01*
X123136361Y-90268209D01*
X123136345Y-90268210D01*
X121670131Y-90268210D01*
X121621793Y-90250617D01*
X121616957Y-90246184D01*
X121189817Y-89819044D01*
X121186246Y-89815216D01*
X121181489Y-89809746D01*
X121163351Y-89778329D01*
X121097423Y-89712401D01*
X121097420Y-89712399D01*
X120126126Y-88741105D01*
X120104386Y-88694485D01*
X120104100Y-88687931D01*
X120104100Y-88452686D01*
X120104101Y-88452673D01*
X120104101Y-88353383D01*
X120103436Y-88350900D01*
X120079969Y-88263322D01*
X120073801Y-88252639D01*
X120066673Y-88240292D01*
X120033354Y-88182581D01*
X120033347Y-88182572D01*
X119983916Y-88133141D01*
X119983916Y-88133142D01*
X119967423Y-88116649D01*
X119967420Y-88116647D01*
X119964786Y-88114013D01*
X119964786Y-88114012D01*
X119964785Y-88114012D01*
X119934431Y-88083658D01*
X121910660Y-88083658D01*
X121910660Y-88207581D01*
X121933075Y-88320272D01*
X121934836Y-88329122D01*
X121982259Y-88443611D01*
X122051106Y-88546648D01*
X122051108Y-88546650D01*
X122051110Y-88546653D01*
X122138726Y-88634269D01*
X122138729Y-88634271D01*
X122138732Y-88634274D01*
X122241769Y-88703121D01*
X122356258Y-88750544D01*
X122446378Y-88768470D01*
X122477798Y-88774720D01*
X122477799Y-88774720D01*
X122601722Y-88774720D01*
X122633142Y-88768470D01*
X122723262Y-88750544D01*
X122837751Y-88703121D01*
X122940788Y-88634274D01*
X123028414Y-88546648D01*
X123037439Y-88533139D01*
X123078922Y-88502724D01*
X123099965Y-88499720D01*
X124057799Y-88499720D01*
X124106137Y-88517313D01*
X124110973Y-88521746D01*
X126103874Y-90514647D01*
X126125614Y-90561267D01*
X126125900Y-90567821D01*
X126125900Y-92009794D01*
X126108307Y-92058132D01*
X126092480Y-92072320D01*
X126078971Y-92081346D01*
X126078966Y-92081350D01*
X125991350Y-92168966D01*
X125991348Y-92168969D01*
X125922498Y-92272010D01*
X125875076Y-92386498D01*
X125875075Y-92386501D01*
X125850900Y-92508038D01*
X125850900Y-92631961D01*
X125872122Y-92738654D01*
X125875076Y-92753502D01*
X125922499Y-92867991D01*
X125991346Y-92971028D01*
X125991348Y-92971030D01*
X125991350Y-92971033D01*
X126078966Y-93058649D01*
X126078969Y-93058651D01*
X126078972Y-93058654D01*
X126182009Y-93127501D01*
X126296498Y-93174924D01*
X126387653Y-93193056D01*
X126418038Y-93199100D01*
X126418039Y-93199100D01*
X126541962Y-93199100D01*
X126566269Y-93194264D01*
X126663502Y-93174924D01*
X126777991Y-93127501D01*
X126881028Y-93058654D01*
X126968654Y-92971028D01*
X127037501Y-92867991D01*
X127084924Y-92753502D01*
X127109100Y-92631961D01*
X127109100Y-92508039D01*
X127108013Y-92502576D01*
X127094900Y-92436650D01*
X127084924Y-92386498D01*
X127037501Y-92272009D01*
X126968654Y-92168972D01*
X126968651Y-92168969D01*
X126968649Y-92168966D01*
X126881033Y-92081350D01*
X126881028Y-92081346D01*
X126867520Y-92072320D01*
X126837104Y-92030836D01*
X126834100Y-92009794D01*
X126834100Y-90442686D01*
X126834101Y-90442673D01*
X126834101Y-90343384D01*
X126834101Y-90343382D01*
X126809970Y-90253323D01*
X126786790Y-90213174D01*
X126763351Y-90172577D01*
X126763348Y-90172574D01*
X126763347Y-90172572D01*
X126694808Y-90104033D01*
X126694785Y-90104012D01*
X124523263Y-87932490D01*
X124523251Y-87932476D01*
X124453047Y-87862272D01*
X124453041Y-87862268D01*
X124372300Y-87815652D01*
X124372299Y-87815651D01*
X124372298Y-87815651D01*
X124340385Y-87807100D01*
X124282238Y-87791519D01*
X124189002Y-87791519D01*
X124184399Y-87791519D01*
X124184383Y-87791520D01*
X123099965Y-87791520D01*
X123051627Y-87773927D01*
X123037441Y-87758103D01*
X123028414Y-87744592D01*
X123028411Y-87744589D01*
X123028409Y-87744586D01*
X122940793Y-87656970D01*
X122940790Y-87656968D01*
X122940788Y-87656966D01*
X122837751Y-87588119D01*
X122829301Y-87584619D01*
X122778236Y-87563467D01*
X122723262Y-87540696D01*
X122723259Y-87540695D01*
X122723258Y-87540695D01*
X122601722Y-87516520D01*
X122601721Y-87516520D01*
X122477799Y-87516520D01*
X122477798Y-87516520D01*
X122356261Y-87540695D01*
X122356258Y-87540696D01*
X122241770Y-87588118D01*
X122138729Y-87656968D01*
X122138726Y-87656970D01*
X122051110Y-87744586D01*
X122051108Y-87744589D01*
X121982258Y-87847630D01*
X121934836Y-87962118D01*
X121934835Y-87962121D01*
X121910660Y-88083658D01*
X119934431Y-88083658D01*
X119460046Y-87609273D01*
X119438306Y-87562653D01*
X119438020Y-87556099D01*
X119438020Y-86441206D01*
X119424727Y-86374381D01*
X119424725Y-86374376D01*
X119374092Y-86298597D01*
X119298313Y-86247964D01*
X119298308Y-86247962D01*
X119231484Y-86234670D01*
X119231482Y-86234670D01*
X117486358Y-86234670D01*
X117486356Y-86234670D01*
X117419531Y-86247962D01*
X117419526Y-86247964D01*
X117343747Y-86298597D01*
X117293114Y-86374376D01*
X117293112Y-86374381D01*
X117279820Y-86441206D01*
X117279820Y-86725829D01*
X117262227Y-86774167D01*
X117217678Y-86799887D01*
X117167020Y-86790954D01*
X117151446Y-86779003D01*
X116256126Y-85883683D01*
X116234386Y-85837063D01*
X116234100Y-85830509D01*
X116234100Y-83353384D01*
X116234100Y-83353382D01*
X116209969Y-83263322D01*
X116209968Y-83263321D01*
X116209968Y-83263319D01*
X116165976Y-83187124D01*
X116163351Y-83182577D01*
X116163349Y-83182575D01*
X116163347Y-83182572D01*
X116126512Y-83145737D01*
X116104772Y-83099117D01*
X116105931Y-83077891D01*
X116109100Y-83061961D01*
X116109100Y-82934345D01*
X116110048Y-82934345D01*
X116121864Y-82888216D01*
X116163672Y-82858247D01*
X116203395Y-82858027D01*
X116263382Y-82874100D01*
X116356618Y-82874100D01*
X127257553Y-82874100D01*
X127257569Y-82874101D01*
X127262172Y-82874101D01*
X127355409Y-82874101D01*
X127419423Y-82856947D01*
X127419423Y-82856946D01*
X127426435Y-82855068D01*
X127445468Y-82849969D01*
X127509724Y-82812870D01*
X127512080Y-82811721D01*
X127519571Y-82810931D01*
X127545066Y-82804100D01*
X132783889Y-82804100D01*
X132832227Y-82821693D01*
X132837063Y-82826126D01*
X134483874Y-84472937D01*
X134505614Y-84519557D01*
X134505900Y-84526111D01*
X134505900Y-94227954D01*
X134488307Y-94276292D01*
X134443758Y-94302012D01*
X134416030Y-94301709D01*
X134411963Y-94300900D01*
X134411961Y-94300900D01*
X134288039Y-94300900D01*
X134288036Y-94300900D01*
X134272105Y-94304069D01*
X134221264Y-94296243D01*
X134204261Y-94283488D01*
X131977643Y-92056870D01*
X131977631Y-92056856D01*
X131907427Y-91986652D01*
X131907421Y-91986648D01*
X131826685Y-91940034D01*
X131826673Y-91940029D01*
X131807646Y-91934930D01*
X131807646Y-91934931D01*
X131783969Y-91928587D01*
X131736618Y-91915899D01*
X131683568Y-91915899D01*
X131635230Y-91898306D01*
X131621041Y-91882477D01*
X131598655Y-91848973D01*
X131598649Y-91848966D01*
X131511033Y-91761350D01*
X131511030Y-91761348D01*
X131511028Y-91761346D01*
X131407991Y-91692499D01*
X131403848Y-91690783D01*
X131363572Y-91674100D01*
X131293502Y-91645076D01*
X131293499Y-91645075D01*
X131293498Y-91645075D01*
X131171962Y-91620900D01*
X131171961Y-91620900D01*
X131048039Y-91620900D01*
X131048038Y-91620900D01*
X130926501Y-91645075D01*
X130926498Y-91645076D01*
X130812010Y-91692498D01*
X130708969Y-91761348D01*
X130708966Y-91761350D01*
X130621350Y-91848966D01*
X130621348Y-91848969D01*
X130552498Y-91952010D01*
X130505076Y-92066498D01*
X130505075Y-92066501D01*
X130481559Y-92184724D01*
X130480900Y-92188039D01*
X130480900Y-92311961D01*
X130505076Y-92433502D01*
X130533688Y-92502577D01*
X130545335Y-92530697D01*
X130552499Y-92547991D01*
X130621346Y-92651028D01*
X130621348Y-92651030D01*
X130621350Y-92651033D01*
X130708966Y-92738649D01*
X130708969Y-92738651D01*
X130708972Y-92738654D01*
X130812009Y-92807501D01*
X130926498Y-92854924D01*
X131003105Y-92870162D01*
X131048038Y-92879100D01*
X131048039Y-92879100D01*
X131171962Y-92879100D01*
X131196269Y-92874264D01*
X131293502Y-92854924D01*
X131407991Y-92807501D01*
X131511028Y-92738654D01*
X131531281Y-92718400D01*
X131577898Y-92696661D01*
X131627586Y-92709974D01*
X131637628Y-92718401D01*
X133703488Y-94784261D01*
X133725228Y-94830881D01*
X133724069Y-94852105D01*
X133720900Y-94868036D01*
X133720900Y-94991961D01*
X133744200Y-95109101D01*
X133745076Y-95113502D01*
X133756988Y-95142259D01*
X133791185Y-95224820D01*
X133792499Y-95227991D01*
X133861346Y-95331028D01*
X133861348Y-95331030D01*
X133861350Y-95331033D01*
X133948966Y-95418649D01*
X133948969Y-95418651D01*
X133948972Y-95418654D01*
X134052009Y-95487501D01*
X134166498Y-95534924D01*
X134246815Y-95550900D01*
X134288038Y-95559100D01*
X134288039Y-95559100D01*
X134411961Y-95559100D01*
X134442521Y-95553021D01*
X134444276Y-95553291D01*
X134445836Y-95552438D01*
X134469516Y-95557175D01*
X134493362Y-95560846D01*
X134494533Y-95562181D01*
X134496276Y-95562530D01*
X134511361Y-95581370D01*
X134527279Y-95599520D01*
X134527317Y-95601297D01*
X134528428Y-95602684D01*
X134527874Y-95626810D01*
X134528401Y-95650947D01*
X134527275Y-95652893D01*
X134527248Y-95654110D01*
X134521383Y-95663087D01*
X134513675Y-95676422D01*
X134512070Y-95678247D01*
X134481346Y-95708972D01*
X134469557Y-95726614D01*
X134466278Y-95730346D01*
X134447813Y-95740449D01*
X134430838Y-95752896D01*
X134423028Y-95754010D01*
X134421151Y-95755038D01*
X134418936Y-95754594D01*
X134409795Y-95755900D01*
X132859802Y-95755900D01*
X132811464Y-95738307D01*
X132808362Y-95735554D01*
X132706284Y-95639828D01*
X131092292Y-94126262D01*
X131069068Y-94080364D01*
X131068896Y-94064033D01*
X131069100Y-94061963D01*
X131069100Y-93938038D01*
X131057802Y-93881239D01*
X131044924Y-93816498D01*
X130997501Y-93702009D01*
X130928654Y-93598972D01*
X130928651Y-93598969D01*
X130928649Y-93598966D01*
X130841033Y-93511350D01*
X130841030Y-93511348D01*
X130841028Y-93511346D01*
X130737991Y-93442499D01*
X130735113Y-93441307D01*
X130687894Y-93421748D01*
X130623502Y-93395076D01*
X130623499Y-93395075D01*
X130623498Y-93395075D01*
X130501962Y-93370900D01*
X130501961Y-93370900D01*
X130378039Y-93370900D01*
X130378038Y-93370900D01*
X130256501Y-93395075D01*
X130256498Y-93395076D01*
X130142010Y-93442498D01*
X130038969Y-93511348D01*
X130038966Y-93511350D01*
X129951350Y-93598966D01*
X129951348Y-93598969D01*
X129882498Y-93702010D01*
X129835076Y-93816498D01*
X129835075Y-93816501D01*
X129810900Y-93938038D01*
X129810900Y-94061961D01*
X129826146Y-94138611D01*
X129835076Y-94183502D01*
X129882499Y-94297991D01*
X129951346Y-94401028D01*
X129951348Y-94401030D01*
X129951350Y-94401033D01*
X130038966Y-94488649D01*
X130038969Y-94488651D01*
X130038972Y-94488654D01*
X130142009Y-94557501D01*
X130256498Y-94604924D01*
X130321522Y-94617858D01*
X130378038Y-94629100D01*
X130378039Y-94629100D01*
X130501960Y-94629100D01*
X130501961Y-94629100D01*
X130539310Y-94621670D01*
X130590148Y-94629494D01*
X130605417Y-94640569D01*
X132443629Y-96364403D01*
X132472577Y-96393351D01*
X132477572Y-96396235D01*
X132481779Y-96400180D01*
X132481780Y-96400180D01*
X132481783Y-96400183D01*
X132517872Y-96419502D01*
X132553322Y-96439969D01*
X132558894Y-96441462D01*
X132563983Y-96444186D01*
X132603863Y-96453511D01*
X132643382Y-96464100D01*
X132649147Y-96464100D01*
X132654771Y-96465415D01*
X132694500Y-96464139D01*
X132696914Y-96464100D01*
X134409795Y-96464100D01*
X134458133Y-96481693D01*
X134472318Y-96497516D01*
X134481346Y-96511028D01*
X134481347Y-96511029D01*
X134481350Y-96511033D01*
X134568966Y-96598649D01*
X134568969Y-96598651D01*
X134568972Y-96598654D01*
X134672009Y-96667501D01*
X134786498Y-96714924D01*
X134877653Y-96733056D01*
X134908038Y-96739100D01*
X134908039Y-96739100D01*
X135031962Y-96739100D01*
X135056269Y-96734264D01*
X135153502Y-96714924D01*
X135267991Y-96667501D01*
X135371028Y-96598654D01*
X135458654Y-96511028D01*
X135527501Y-96407991D01*
X135574924Y-96293502D01*
X135595530Y-96189907D01*
X135622216Y-96145932D01*
X135670926Y-96129397D01*
X135698059Y-96135102D01*
X135762098Y-96161628D01*
X135853253Y-96179760D01*
X135883638Y-96185804D01*
X135883639Y-96185804D01*
X136007562Y-96185804D01*
X136031869Y-96180968D01*
X136129102Y-96161628D01*
X136241123Y-96115226D01*
X136292513Y-96112983D01*
X136333323Y-96144298D01*
X136345100Y-96184703D01*
X136345100Y-98492304D01*
X136345099Y-98492322D01*
X136345099Y-98496924D01*
X136345099Y-98590160D01*
X136359353Y-98643355D01*
X136359354Y-98643362D01*
X136369230Y-98680219D01*
X136378571Y-98696398D01*
X136413471Y-98756847D01*
X136415848Y-98760963D01*
X136415852Y-98760969D01*
X136486056Y-98831173D01*
X136486070Y-98831185D01*
X137101610Y-99446725D01*
X137101631Y-99446748D01*
X137170170Y-99515287D01*
X137170173Y-99515289D01*
X137170175Y-99515291D01*
X137250920Y-99561909D01*
X137250923Y-99561910D01*
X137250926Y-99561911D01*
X137254406Y-99562843D01*
X137256149Y-99563310D01*
X137302149Y-99575636D01*
X137340979Y-99586041D01*
X137340980Y-99586041D01*
X137438819Y-99586041D01*
X137438835Y-99586040D01*
X137960665Y-99586040D01*
X137960681Y-99586041D01*
X137965284Y-99586041D01*
X138058521Y-99586041D01*
X138084308Y-99579131D01*
X138143351Y-99563310D01*
X138148580Y-99561909D01*
X138229325Y-99515291D01*
X138295253Y-99449363D01*
X138301438Y-99443178D01*
X138301445Y-99443168D01*
X138664578Y-99080035D01*
X138664588Y-99080028D01*
X138736697Y-99007919D01*
X138736701Y-99007915D01*
X138783319Y-98927170D01*
X138793338Y-98889777D01*
X138807451Y-98837110D01*
X138807451Y-98743874D01*
X138807451Y-98739272D01*
X138807450Y-98739254D01*
X138807450Y-98119572D01*
X138807450Y-98119570D01*
X138783319Y-98029510D01*
X138783318Y-98029509D01*
X138783318Y-98029507D01*
X138757255Y-97984366D01*
X138736701Y-97948765D01*
X138736699Y-97948763D01*
X138736697Y-97948760D01*
X138668147Y-97880210D01*
X138668149Y-97880207D01*
X138668135Y-97880200D01*
X138032526Y-97244591D01*
X138010786Y-97197971D01*
X138010500Y-97191417D01*
X138010500Y-96177999D01*
X138028093Y-96129661D01*
X138072642Y-96103941D01*
X138114475Y-96108522D01*
X138226498Y-96154924D01*
X138312149Y-96171961D01*
X138348038Y-96179100D01*
X138348039Y-96179100D01*
X138471963Y-96179100D01*
X138477926Y-96177913D01*
X138487890Y-96175931D01*
X138538730Y-96183753D01*
X138555738Y-96196511D01*
X138683834Y-96324607D01*
X138705574Y-96371227D01*
X138705860Y-96377781D01*
X138705860Y-97449590D01*
X138705859Y-97449608D01*
X138705859Y-97454210D01*
X138705859Y-97547446D01*
X138716361Y-97586639D01*
X138717353Y-97590340D01*
X138717353Y-97590347D01*
X138729990Y-97637505D01*
X138776608Y-97718249D01*
X138776612Y-97718255D01*
X138846816Y-97788459D01*
X138846830Y-97788471D01*
X141153874Y-100095515D01*
X141175614Y-100142135D01*
X141175900Y-100148689D01*
X141175900Y-101856618D01*
X141185628Y-101892925D01*
X141200031Y-101946680D01*
X141246648Y-102027421D01*
X141246652Y-102027427D01*
X141312572Y-102093347D01*
X141312575Y-102093349D01*
X141312577Y-102093351D01*
X141341272Y-102109918D01*
X141393319Y-102139968D01*
X141393321Y-102139968D01*
X141393322Y-102139969D01*
X141483382Y-102164100D01*
X141576618Y-102164100D01*
X143702179Y-102164100D01*
X143750517Y-102181693D01*
X143755353Y-102186126D01*
X143936806Y-102367579D01*
X143958546Y-102414199D01*
X143957387Y-102435423D01*
X143950900Y-102468036D01*
X143950900Y-102591961D01*
X143968926Y-102682587D01*
X143975076Y-102713502D01*
X144022499Y-102827991D01*
X144091346Y-102931028D01*
X144091348Y-102931030D01*
X144091350Y-102931033D01*
X144178966Y-103018649D01*
X144178969Y-103018651D01*
X144178972Y-103018654D01*
X144282009Y-103087501D01*
X144396498Y-103134924D01*
X144487653Y-103153056D01*
X144518038Y-103159100D01*
X144518039Y-103159100D01*
X144641962Y-103159100D01*
X144666269Y-103154264D01*
X144763502Y-103134924D01*
X144877991Y-103087501D01*
X144981028Y-103018654D01*
X145068654Y-102931028D01*
X145137501Y-102827991D01*
X145179238Y-102727227D01*
X145213990Y-102689302D01*
X145264990Y-102682587D01*
X145308374Y-102710226D01*
X145322468Y-102741331D01*
X145328615Y-102772232D01*
X145394393Y-102931033D01*
X145403327Y-102952602D01*
X145511786Y-103114923D01*
X145511794Y-103114932D01*
X147177688Y-104780825D01*
X147187037Y-104792215D01*
X147212082Y-104829697D01*
X147220164Y-104841793D01*
X147358204Y-104979833D01*
X147358207Y-104979835D01*
X147358210Y-104979838D01*
X147520538Y-105088302D01*
X147545563Y-105098667D01*
X147552241Y-105101827D01*
X147552909Y-105102184D01*
X147552910Y-105102184D01*
X147552911Y-105102185D01*
X147658642Y-105145980D01*
X147733279Y-105176896D01*
X147848166Y-105199748D01*
X147924756Y-105214984D01*
X147924758Y-105214984D01*
X148123692Y-105214984D01*
X148123712Y-105214983D01*
X148285229Y-105214983D01*
X148285249Y-105214984D01*
X148288953Y-105214984D01*
X148484184Y-105214984D01*
X148560773Y-105199748D01*
X148675661Y-105176896D01*
X148696189Y-105168392D01*
X148736175Y-105163508D01*
X148832894Y-105178087D01*
X148832895Y-105178087D01*
X148859966Y-105174006D01*
X148968254Y-105157684D01*
X149050683Y-105117989D01*
X149091584Y-105098293D01*
X149091585Y-105098291D01*
X149091587Y-105098291D01*
X149115315Y-105078631D01*
X149510865Y-104683081D01*
X149530525Y-104659353D01*
X149530525Y-104659351D01*
X149530527Y-104659350D01*
X149568483Y-104580530D01*
X149589918Y-104536020D01*
X149610321Y-104400660D01*
X149592478Y-104282285D01*
X149602670Y-104231867D01*
X149642887Y-104199794D01*
X149666838Y-104195878D01*
X149783665Y-104195878D01*
X149827396Y-104187178D01*
X149914863Y-104169780D01*
X150038452Y-104118588D01*
X150149678Y-104044269D01*
X150244269Y-103949678D01*
X150318588Y-103838452D01*
X150369780Y-103714863D01*
X150395878Y-103583663D01*
X150395878Y-103449891D01*
X150369780Y-103318691D01*
X150326857Y-103215066D01*
X150318589Y-103195104D01*
X150318588Y-103195102D01*
X150244269Y-103083876D01*
X150244266Y-103083873D01*
X150244264Y-103083870D01*
X149796129Y-102635735D01*
X149796126Y-102635733D01*
X149796124Y-102635731D01*
X149684898Y-102561412D01*
X149684896Y-102561411D01*
X149561312Y-102510221D01*
X149561311Y-102510220D01*
X149430110Y-102484123D01*
X149430109Y-102484123D01*
X149296337Y-102484123D01*
X149296336Y-102484123D01*
X149165134Y-102510220D01*
X149165133Y-102510221D01*
X149041549Y-102561411D01*
X148930319Y-102635733D01*
X148930316Y-102635735D01*
X148835735Y-102730316D01*
X148835733Y-102730319D01*
X148761411Y-102841549D01*
X148710221Y-102965133D01*
X148710220Y-102965134D01*
X148684123Y-103096336D01*
X148684123Y-103169800D01*
X148666530Y-103218138D01*
X148621981Y-103243858D01*
X148594252Y-103243555D01*
X148470301Y-103218899D01*
X148470299Y-103218899D01*
X148450164Y-103218899D01*
X148401826Y-103201306D01*
X148396990Y-103196873D01*
X147277756Y-102077639D01*
X147256016Y-102031019D01*
X147255730Y-102024465D01*
X147255730Y-100962023D01*
X147257175Y-100947351D01*
X147261101Y-100927615D01*
X147261101Y-100732383D01*
X147239881Y-100625705D01*
X147223013Y-100540907D01*
X147148302Y-100360538D01*
X147130547Y-100333966D01*
X147039841Y-100198214D01*
X147039838Y-100198211D01*
X146990316Y-100148689D01*
X146931740Y-100090113D01*
X146910001Y-100043494D01*
X146910842Y-100028170D01*
X146910366Y-100028124D01*
X146910728Y-100024447D01*
X146910728Y-99900520D01*
X146899362Y-99843382D01*
X146886552Y-99778980D01*
X146839129Y-99664491D01*
X146779757Y-99575635D01*
X146767531Y-99525670D01*
X146779758Y-99492078D01*
X146808301Y-99449360D01*
X146839129Y-99403223D01*
X146886552Y-99288734D01*
X146910728Y-99167193D01*
X146910728Y-99043271D01*
X146910409Y-99041669D01*
X146899324Y-98985938D01*
X146886552Y-98921730D01*
X146839129Y-98807241D01*
X146770282Y-98704204D01*
X146770280Y-98704202D01*
X146768168Y-98701628D01*
X146751100Y-98653923D01*
X146751100Y-95403800D01*
X146768693Y-95355462D01*
X146813242Y-95329742D01*
X146855075Y-95334323D01*
X147020906Y-95403013D01*
X147112478Y-95421228D01*
X147212383Y-95441101D01*
X147212385Y-95441101D01*
X147411319Y-95441101D01*
X147411339Y-95441100D01*
X150562149Y-95441100D01*
X150610487Y-95458693D01*
X150636207Y-95503242D01*
X150627274Y-95553900D01*
X150606350Y-95577138D01*
X150568191Y-95604861D01*
X150568177Y-95604873D01*
X150444873Y-95728177D01*
X150444861Y-95728191D01*
X150342354Y-95869280D01*
X150342352Y-95869284D01*
X150263177Y-96024670D01*
X150263177Y-96024671D01*
X150209283Y-96190540D01*
X150208418Y-96195999D01*
X150208419Y-96196000D01*
X151278314Y-96196000D01*
X151269920Y-96204394D01*
X151217259Y-96295606D01*
X151190000Y-96397339D01*
X151190000Y-96502661D01*
X151217259Y-96604394D01*
X151269920Y-96695606D01*
X151278314Y-96704000D01*
X150208419Y-96704000D01*
X150209283Y-96709459D01*
X150263177Y-96875328D01*
X150263177Y-96875329D01*
X150342352Y-97030715D01*
X150342354Y-97030719D01*
X150444861Y-97171808D01*
X150444873Y-97171822D01*
X150568177Y-97295126D01*
X150568191Y-97295138D01*
X150709280Y-97397645D01*
X150709284Y-97397647D01*
X150864671Y-97476822D01*
X151030530Y-97530714D01*
X151030545Y-97530717D01*
X151202796Y-97557999D01*
X151202803Y-97558000D01*
X151336000Y-97558000D01*
X151336000Y-96761686D01*
X151344394Y-96770080D01*
X151435606Y-96822741D01*
X151537339Y-96850000D01*
X151642661Y-96850000D01*
X151744394Y-96822741D01*
X151835606Y-96770080D01*
X151844000Y-96761686D01*
X151844000Y-97558000D01*
X151977197Y-97558000D01*
X151977203Y-97557999D01*
X152149454Y-97530717D01*
X152149469Y-97530714D01*
X152315328Y-97476822D01*
X152315329Y-97476822D01*
X152470715Y-97397647D01*
X152470719Y-97397645D01*
X152611808Y-97295138D01*
X152611822Y-97295126D01*
X152735126Y-97171822D01*
X152735138Y-97171808D01*
X152837645Y-97030719D01*
X152837647Y-97030715D01*
X152916822Y-96875329D01*
X152916822Y-96875328D01*
X152970716Y-96709459D01*
X152971581Y-96704000D01*
X151901686Y-96704000D01*
X151910080Y-96695606D01*
X151962741Y-96604394D01*
X151990000Y-96502661D01*
X151990000Y-96397339D01*
X151962741Y-96295606D01*
X151910080Y-96204394D01*
X151901686Y-96196000D01*
X152971581Y-96196000D01*
X152971581Y-96195999D01*
X152970716Y-96190540D01*
X152916822Y-96024671D01*
X152916822Y-96024670D01*
X152837647Y-95869284D01*
X152837645Y-95869280D01*
X152735138Y-95728191D01*
X152735126Y-95728177D01*
X152611822Y-95604873D01*
X152611808Y-95604861D01*
X152470719Y-95502354D01*
X152470715Y-95502352D01*
X152315331Y-95423178D01*
X152309327Y-95421228D01*
X152268791Y-95389559D01*
X152258095Y-95339244D01*
X152282243Y-95293825D01*
X152324524Y-95274939D01*
X152342887Y-95272965D01*
X152471969Y-95224820D01*
X152582259Y-95142259D01*
X152664820Y-95031969D01*
X152712965Y-94902887D01*
X152719100Y-94845826D01*
X152719100Y-94054174D01*
X152712965Y-93997113D01*
X152664820Y-93868031D01*
X152658276Y-93859289D01*
X152582259Y-93757740D01*
X152471971Y-93675181D01*
X152471969Y-93675180D01*
X152342887Y-93627035D01*
X152339288Y-93626648D01*
X152285827Y-93620900D01*
X152285826Y-93620900D01*
X152155910Y-93620900D01*
X152114131Y-93608227D01*
X152059462Y-93571698D01*
X152036578Y-93562219D01*
X151879096Y-93496988D01*
X151879095Y-93496987D01*
X151687616Y-93458900D01*
X151687615Y-93458900D01*
X147751675Y-93458900D01*
X147703337Y-93441307D01*
X147698501Y-93436874D01*
X147272474Y-93010847D01*
X147272454Y-93010825D01*
X147131795Y-92870166D01*
X147131792Y-92870164D01*
X147131790Y-92870162D01*
X146969462Y-92761698D01*
X146949665Y-92753498D01*
X146903800Y-92734500D01*
X146797522Y-92690478D01*
X146759597Y-92655725D01*
X146751100Y-92621002D01*
X146751100Y-90911611D01*
X146768693Y-90863273D01*
X146811630Y-90837856D01*
X146827384Y-90834723D01*
X147007752Y-90760012D01*
X147027511Y-90746810D01*
X147027514Y-90746808D01*
X147170076Y-90651551D01*
X147170077Y-90651549D01*
X147170080Y-90651548D01*
X147308128Y-90513500D01*
X147312405Y-90509223D01*
X147312416Y-90509209D01*
X147523587Y-90298038D01*
X148870900Y-90298038D01*
X148870900Y-90421961D01*
X148893717Y-90536673D01*
X148895076Y-90543502D01*
X148926115Y-90618436D01*
X148935970Y-90642230D01*
X148942499Y-90657991D01*
X149011346Y-90761028D01*
X149011348Y-90761030D01*
X149011350Y-90761033D01*
X149098966Y-90848649D01*
X149098969Y-90848651D01*
X149098972Y-90848654D01*
X149202009Y-90917501D01*
X149316498Y-90964924D01*
X149407653Y-90983056D01*
X149438038Y-90989100D01*
X149438039Y-90989100D01*
X149561963Y-90989100D01*
X149567926Y-90987913D01*
X149577890Y-90985931D01*
X149628730Y-90993753D01*
X149645738Y-91006511D01*
X149964012Y-91324785D01*
X149964033Y-91324808D01*
X150032572Y-91393347D01*
X150032575Y-91393349D01*
X150032577Y-91393351D01*
X150113322Y-91439969D01*
X150125836Y-91443322D01*
X150164609Y-91453711D01*
X150203381Y-91464101D01*
X150203382Y-91464101D01*
X150301221Y-91464101D01*
X150301237Y-91464100D01*
X151125430Y-91464100D01*
X151173768Y-91481693D01*
X151185936Y-91494645D01*
X151228151Y-91551845D01*
X151228152Y-91551845D01*
X151228153Y-91551847D01*
X151306948Y-91610000D01*
X151332229Y-91628658D01*
X151332232Y-91628660D01*
X151361539Y-91638915D01*
X151454324Y-91671382D01*
X151483301Y-91674099D01*
X151483304Y-91674100D01*
X151483310Y-91674100D01*
X152136696Y-91674100D01*
X152136697Y-91674099D01*
X152165676Y-91671382D01*
X152287770Y-91628659D01*
X152391847Y-91551847D01*
X152468659Y-91447770D01*
X152476798Y-91424505D01*
X152494604Y-91396169D01*
X152497420Y-91393352D01*
X152497423Y-91393351D01*
X152563351Y-91327423D01*
X152609969Y-91246678D01*
X152634100Y-91156618D01*
X152634100Y-91063382D01*
X152609969Y-90973322D01*
X152609968Y-90973321D01*
X152609968Y-90973319D01*
X152574340Y-90911611D01*
X152563351Y-90892577D01*
X152563349Y-90892575D01*
X152563347Y-90892572D01*
X152536126Y-90865351D01*
X152514386Y-90818731D01*
X152514100Y-90812177D01*
X152514100Y-90793304D01*
X152514099Y-90793301D01*
X152512956Y-90781112D01*
X152511382Y-90764324D01*
X152474174Y-90657991D01*
X152468660Y-90642232D01*
X152468658Y-90642229D01*
X152457720Y-90627408D01*
X152391847Y-90538153D01*
X152287770Y-90461341D01*
X152287767Y-90461339D01*
X152175232Y-90421962D01*
X152165676Y-90418618D01*
X152165671Y-90418617D01*
X152165669Y-90418617D01*
X152136698Y-90415900D01*
X152136690Y-90415900D01*
X151483310Y-90415900D01*
X151483301Y-90415900D01*
X151454330Y-90418617D01*
X151454326Y-90418617D01*
X151454324Y-90418618D01*
X151454321Y-90418618D01*
X151454321Y-90418619D01*
X151332232Y-90461339D01*
X151332229Y-90461341D01*
X151228153Y-90538153D01*
X151151341Y-90642229D01*
X151151339Y-90642232D01*
X151129189Y-90705537D01*
X151096618Y-90745351D01*
X151058209Y-90755900D01*
X150427821Y-90755900D01*
X150379483Y-90738307D01*
X150374647Y-90733874D01*
X150146511Y-90505738D01*
X150124771Y-90459118D01*
X150125930Y-90437893D01*
X150129100Y-90421961D01*
X150129100Y-90298039D01*
X150128680Y-90295930D01*
X150115966Y-90232009D01*
X150104924Y-90176498D01*
X150057501Y-90062009D01*
X149988654Y-89958972D01*
X149988651Y-89958969D01*
X149988649Y-89958966D01*
X149901033Y-89871350D01*
X149901030Y-89871348D01*
X149901028Y-89871346D01*
X149797991Y-89802499D01*
X149784191Y-89796783D01*
X149762852Y-89787944D01*
X149683502Y-89755076D01*
X149683499Y-89755075D01*
X149683498Y-89755075D01*
X149561962Y-89730900D01*
X149561961Y-89730900D01*
X149438039Y-89730900D01*
X149438038Y-89730900D01*
X149316501Y-89755075D01*
X149316498Y-89755076D01*
X149202010Y-89802498D01*
X149098969Y-89871348D01*
X149098966Y-89871350D01*
X149011350Y-89958966D01*
X149011348Y-89958969D01*
X148942498Y-90062010D01*
X148895076Y-90176498D01*
X148895075Y-90176501D01*
X148870900Y-90298038D01*
X147523587Y-90298038D01*
X148128099Y-89693526D01*
X148128113Y-89693515D01*
X148270433Y-89551195D01*
X148270438Y-89551190D01*
X148378902Y-89388862D01*
X148453613Y-89208493D01*
X148455815Y-89197423D01*
X148479739Y-89077151D01*
X148491701Y-89017016D01*
X148491701Y-88818678D01*
X148491700Y-88818665D01*
X148491700Y-87436377D01*
X148491699Y-87436376D01*
X148486548Y-87410480D01*
X148477096Y-87362957D01*
X148453613Y-87244900D01*
X148403604Y-87124168D01*
X148378902Y-87064532D01*
X148270438Y-86902204D01*
X148270435Y-86902201D01*
X148270433Y-86902198D01*
X148130518Y-86762283D01*
X148130487Y-86762254D01*
X147541066Y-86172833D01*
X150857000Y-86172833D01*
X150857000Y-86186000D01*
X151586000Y-86186000D01*
X152094000Y-86186000D01*
X152822999Y-86186000D01*
X152822999Y-86172832D01*
X152812829Y-86073283D01*
X152759391Y-85912018D01*
X152670207Y-85767429D01*
X152670204Y-85767425D01*
X152550074Y-85647295D01*
X152550070Y-85647292D01*
X152405480Y-85558108D01*
X152405481Y-85558108D01*
X152244213Y-85504670D01*
X152244211Y-85504669D01*
X152144667Y-85494500D01*
X152094000Y-85494500D01*
X152094000Y-86186000D01*
X151586000Y-86186000D01*
X151586000Y-85494499D01*
X151535333Y-85494500D01*
X151435783Y-85504670D01*
X151274518Y-85558108D01*
X151129929Y-85647292D01*
X151129925Y-85647295D01*
X151009795Y-85767425D01*
X151009792Y-85767429D01*
X150920608Y-85912018D01*
X150867170Y-86073286D01*
X150867169Y-86073288D01*
X150857000Y-86172833D01*
X147541066Y-86172833D01*
X146763126Y-85394893D01*
X146741386Y-85348273D01*
X146741100Y-85341719D01*
X146741100Y-82576300D01*
X146747782Y-82557940D01*
X146751175Y-82538700D01*
X146756371Y-82534339D01*
X146758693Y-82527962D01*
X146775615Y-82518192D01*
X146790580Y-82505635D01*
X146800348Y-82503912D01*
X146803242Y-82502242D01*
X146816300Y-82501100D01*
X146948777Y-82501100D01*
X146948797Y-82501101D01*
X146952501Y-82501101D01*
X147147733Y-82501101D01*
X147211557Y-82488405D01*
X147339210Y-82463013D01*
X147519578Y-82388302D01*
X147528221Y-82382526D01*
X147545623Y-82370900D01*
X147681902Y-82279841D01*
X147681903Y-82279839D01*
X147681906Y-82279838D01*
X147819954Y-82141790D01*
X147824231Y-82137513D01*
X147824242Y-82137499D01*
X148098186Y-81863555D01*
X148144805Y-81841816D01*
X148180137Y-81847255D01*
X148288252Y-81892039D01*
X148288262Y-81892042D01*
X148288263Y-81892042D01*
X148288265Y-81892043D01*
X148383630Y-81911012D01*
X148430670Y-81920369D01*
X148430671Y-81920369D01*
X148575868Y-81920369D01*
X148611227Y-81913335D01*
X148718273Y-81892043D01*
X148852417Y-81836479D01*
X148973143Y-81755812D01*
X149075812Y-81653143D01*
X149156479Y-81532417D01*
X149212043Y-81398273D01*
X149240369Y-81255867D01*
X149240369Y-81110671D01*
X149238822Y-81102896D01*
X149221051Y-81013552D01*
X149212043Y-80968265D01*
X149212042Y-80968262D01*
X149212038Y-80968249D01*
X149167255Y-80860137D01*
X149167031Y-80855019D01*
X149164092Y-80850822D01*
X149165930Y-80829813D01*
X149165010Y-80808747D01*
X149168239Y-80803425D01*
X149168576Y-80799578D01*
X149183553Y-80778188D01*
X149194699Y-80767042D01*
X149194713Y-80767031D01*
X149337033Y-80624711D01*
X149337038Y-80624706D01*
X149445502Y-80462378D01*
X149511263Y-80303617D01*
X149520213Y-80282010D01*
X149554697Y-80108649D01*
X149558301Y-80090532D01*
X149558301Y-79892194D01*
X149558300Y-79892181D01*
X149558300Y-75318539D01*
X149558301Y-75318518D01*
X149558301Y-75119583D01*
X149528521Y-74969874D01*
X149520213Y-74928106D01*
X149445502Y-74747738D01*
X149378161Y-74646955D01*
X149353496Y-74610041D01*
X149353493Y-74610038D01*
X149350512Y-74605576D01*
X149337038Y-74585410D01*
X149281695Y-74530067D01*
X149280343Y-74528561D01*
X149271450Y-74506459D01*
X149261386Y-74484877D01*
X149261218Y-74481027D01*
X149261142Y-74480839D01*
X149261201Y-74480655D01*
X149261100Y-74478323D01*
X149261100Y-72617747D01*
X149273773Y-72575968D01*
X149299278Y-72537797D01*
X149358302Y-72449462D01*
X149433013Y-72269093D01*
X149447094Y-72198302D01*
X149468163Y-72092385D01*
X149471101Y-72077616D01*
X149471101Y-71879278D01*
X149471100Y-71879265D01*
X149471100Y-70612229D01*
X149471101Y-70612208D01*
X149471101Y-70413273D01*
X149446063Y-70287402D01*
X149433013Y-70221796D01*
X149396831Y-70134446D01*
X149358302Y-70041428D01*
X149249838Y-69879100D01*
X149249835Y-69879097D01*
X149249833Y-69879094D01*
X149109918Y-69739179D01*
X149109887Y-69739150D01*
X148893544Y-69522807D01*
X148871804Y-69476187D01*
X148885118Y-69426500D01*
X148927255Y-69396995D01*
X148935503Y-69395274D01*
X149059123Y-69376641D01*
X149182456Y-69317248D01*
X149206185Y-69297588D01*
X149955288Y-68548485D01*
X149974948Y-68524756D01*
X150034341Y-68401423D01*
X150054744Y-68266063D01*
X150054316Y-68263226D01*
X150049643Y-68232223D01*
X150034341Y-68130703D01*
X150017428Y-68095582D01*
X149974950Y-68007372D01*
X149968208Y-67999236D01*
X149955288Y-67983642D01*
X149559738Y-67588092D01*
X149536370Y-67568730D01*
X149536007Y-67568429D01*
X149412680Y-67509040D01*
X149412677Y-67509039D01*
X149412675Y-67509038D01*
X149412673Y-67509038D01*
X149277318Y-67488636D01*
X149277316Y-67488636D01*
X149158943Y-67506478D01*
X149108523Y-67496286D01*
X149076451Y-67456068D01*
X149072535Y-67432118D01*
X149072535Y-67315292D01*
X149062095Y-67262814D01*
X149046437Y-67184094D01*
X148995245Y-67060505D01*
X148920926Y-66949279D01*
X148920923Y-66949276D01*
X148920921Y-66949273D01*
X148826340Y-66854692D01*
X148826337Y-66854690D01*
X148826335Y-66854688D01*
X148715109Y-66780369D01*
X148715108Y-66780368D01*
X148715106Y-66780367D01*
X148591523Y-66729178D01*
X148591521Y-66729177D01*
X148591520Y-66729177D01*
X148591518Y-66729176D01*
X148591516Y-66729176D01*
X148460322Y-66703079D01*
X148460320Y-66703079D01*
X148326548Y-66703079D01*
X148326546Y-66703079D01*
X148195351Y-66729176D01*
X148195344Y-66729178D01*
X148071761Y-66780367D01*
X147960530Y-66854690D01*
X147960527Y-66854692D01*
X147512392Y-67302827D01*
X147512390Y-67302830D01*
X147438068Y-67414060D01*
X147386878Y-67537644D01*
X147386877Y-67537645D01*
X147360780Y-67668847D01*
X147360780Y-67802620D01*
X147386877Y-67933822D01*
X147386878Y-67933823D01*
X147426112Y-68028542D01*
X147438069Y-68057409D01*
X147480613Y-68121080D01*
X147505147Y-68157798D01*
X147517373Y-68207764D01*
X147494622Y-68253899D01*
X147447538Y-68274616D01*
X147427949Y-68273332D01*
X147307127Y-68249299D01*
X147307125Y-68249299D01*
X147111895Y-68249299D01*
X147111893Y-68249299D01*
X146920419Y-68287386D01*
X146920416Y-68287387D01*
X146740045Y-68362099D01*
X146577725Y-68470558D01*
X146577721Y-68470562D01*
X146560241Y-68488041D01*
X146535849Y-68504339D01*
X146492012Y-68522497D01*
X146388969Y-68591348D01*
X146388966Y-68591350D01*
X146301350Y-68678966D01*
X146301348Y-68678969D01*
X146232498Y-68782010D01*
X146185076Y-68896498D01*
X146185075Y-68896501D01*
X146160900Y-69018038D01*
X146160900Y-69141961D01*
X146185076Y-69263503D01*
X146185077Y-69263506D01*
X146217854Y-69342638D01*
X146222133Y-69356744D01*
X146242009Y-69456666D01*
X146234184Y-69507507D01*
X146210033Y-69533863D01*
X146138975Y-69581342D01*
X146138966Y-69581350D01*
X146051350Y-69668966D01*
X146051348Y-69668969D01*
X145982498Y-69772010D01*
X145935076Y-69886498D01*
X145935075Y-69886501D01*
X145910900Y-70008038D01*
X145910900Y-70131961D01*
X145935075Y-70253498D01*
X145935077Y-70253505D01*
X145957418Y-70307441D01*
X145959661Y-70358832D01*
X145928346Y-70399641D01*
X145916721Y-70405693D01*
X145852012Y-70432497D01*
X145748969Y-70501348D01*
X145748966Y-70501350D01*
X145661350Y-70588966D01*
X145661348Y-70588969D01*
X145592495Y-70692014D01*
X145592492Y-70692020D01*
X145591960Y-70693306D01*
X145591589Y-70693710D01*
X145590755Y-70695271D01*
X145590354Y-70695057D01*
X145586269Y-70699513D01*
X145584090Y-70707648D01*
X145569355Y-70717965D01*
X145557201Y-70731225D01*
X145548851Y-70732322D01*
X145541953Y-70737153D01*
X145524032Y-70735584D01*
X145506200Y-70737929D01*
X145497734Y-70733283D01*
X145490709Y-70732669D01*
X145469316Y-70717689D01*
X145442474Y-70690847D01*
X145442454Y-70690825D01*
X145301795Y-70550166D01*
X145301792Y-70550164D01*
X145301790Y-70550162D01*
X145139462Y-70441698D01*
X145139459Y-70441696D01*
X145139458Y-70441696D01*
X145124394Y-70435456D01*
X145108659Y-70428938D01*
X145084264Y-70412637D01*
X144752474Y-70080847D01*
X144752451Y-70080822D01*
X144611795Y-69940166D01*
X144611792Y-69940164D01*
X144611790Y-69940162D01*
X144449462Y-69831698D01*
X144449223Y-69831599D01*
X144449218Y-69831596D01*
X144324642Y-69779995D01*
X144269094Y-69756987D01*
X144269091Y-69756986D01*
X144269090Y-69756986D01*
X144077617Y-69718899D01*
X144077615Y-69718899D01*
X143882385Y-69718899D01*
X143878681Y-69718899D01*
X143878661Y-69718900D01*
X143732384Y-69718900D01*
X143540904Y-69756987D01*
X143540903Y-69756988D01*
X143360539Y-69831697D01*
X143198207Y-69940164D01*
X143198204Y-69940166D01*
X143060166Y-70078204D01*
X143060164Y-70078207D01*
X142951697Y-70240539D01*
X142876988Y-70420903D01*
X142876987Y-70420905D01*
X142859779Y-70507415D01*
X142833093Y-70551392D01*
X142784383Y-70567926D01*
X142736441Y-70549282D01*
X142732850Y-70545918D01*
X141744470Y-69557538D01*
X141722730Y-69510918D01*
X141723889Y-69489693D01*
X141727059Y-69473761D01*
X141727059Y-69349839D01*
X141702883Y-69228298D01*
X141656481Y-69116276D01*
X141654238Y-69064887D01*
X141685553Y-69024077D01*
X141725958Y-69012300D01*
X145156129Y-69012300D01*
X145191488Y-69005266D01*
X145298534Y-68983974D01*
X145432678Y-68928410D01*
X145553404Y-68847743D01*
X145656073Y-68745074D01*
X145736740Y-68624348D01*
X145792304Y-68490204D01*
X145820630Y-68347798D01*
X145820630Y-68202602D01*
X145792304Y-68060196D01*
X145736740Y-67926052D01*
X145736738Y-67926049D01*
X145656076Y-67805329D01*
X145656068Y-67805320D01*
X145553409Y-67702661D01*
X145553400Y-67702653D01*
X145432680Y-67621991D01*
X145298537Y-67566427D01*
X145298536Y-67566426D01*
X145156129Y-67538100D01*
X145156128Y-67538100D01*
X143418768Y-67538100D01*
X140881325Y-67538100D01*
X140832987Y-67520507D01*
X140828151Y-67516074D01*
X140281551Y-66969474D01*
X140259811Y-66922854D01*
X140273125Y-66873167D01*
X140315262Y-66843662D01*
X140334725Y-66841100D01*
X141352616Y-66841100D01*
X141400160Y-66831642D01*
X141544093Y-66803013D01*
X141724462Y-66728302D01*
X141886790Y-66619838D01*
X142024838Y-66481790D01*
X142133302Y-66319462D01*
X142208013Y-66139093D01*
X142246100Y-65947615D01*
X142246100Y-65752385D01*
X142208013Y-65560907D01*
X142133302Y-65380538D01*
X142024838Y-65218210D01*
X142024835Y-65218207D01*
X142024833Y-65218204D01*
X141886795Y-65080166D01*
X141886792Y-65080164D01*
X141886790Y-65080162D01*
X141724462Y-64971698D01*
X141724460Y-64971697D01*
X141544096Y-64896988D01*
X141544095Y-64896987D01*
X141352616Y-64858900D01*
X141352615Y-64858900D01*
X140141385Y-64858900D01*
X140141384Y-64858900D01*
X139949904Y-64896987D01*
X139949903Y-64896988D01*
X139769539Y-64971697D01*
X139607207Y-65080164D01*
X139607204Y-65080166D01*
X139469166Y-65218204D01*
X139469164Y-65218207D01*
X139360697Y-65380539D01*
X139285988Y-65560903D01*
X139285987Y-65560904D01*
X139247900Y-65752384D01*
X139247900Y-65789039D01*
X139230307Y-65837377D01*
X139185758Y-65863097D01*
X139135100Y-65854164D01*
X139130931Y-65851572D01*
X139108808Y-65836790D01*
X139108806Y-65836789D01*
X138974667Y-65781227D01*
X138974666Y-65781226D01*
X138832259Y-65752900D01*
X138832258Y-65752900D01*
X130802598Y-65752900D01*
X120667568Y-65752900D01*
X120522372Y-65752900D01*
X120522371Y-65752900D01*
X120379963Y-65781226D01*
X120379962Y-65781227D01*
X120245819Y-65836791D01*
X120125099Y-65917453D01*
X120125090Y-65917461D01*
X117776608Y-68265943D01*
X117765214Y-68275295D01*
X117675685Y-68335117D01*
X117675680Y-68335121D01*
X117122842Y-68887961D01*
X116964486Y-69046317D01*
X116331391Y-69679412D01*
X115952491Y-70058311D01*
X115829627Y-70181175D01*
X115808149Y-70195528D01*
X115808302Y-70195813D01*
X115805417Y-70197354D01*
X115805243Y-70197471D01*
X115805048Y-70197551D01*
X115805046Y-70197552D01*
X115684329Y-70278213D01*
X115684320Y-70278221D01*
X115581661Y-70380880D01*
X115581653Y-70380889D01*
X115500992Y-70501606D01*
X115500991Y-70501608D01*
X115500911Y-70501803D01*
X115500794Y-70501977D01*
X115499253Y-70504862D01*
X115498968Y-70504709D01*
X115484614Y-70526187D01*
X113028314Y-72982489D01*
X112391266Y-73619537D01*
X112364330Y-73646473D01*
X112288596Y-73722206D01*
X112288593Y-73722209D01*
X112207931Y-73842929D01*
X112152367Y-73977072D01*
X112152366Y-73977073D01*
X112124040Y-74119481D01*
X112124040Y-84280554D01*
X112152366Y-84422962D01*
X112152367Y-84422963D01*
X112207931Y-84557106D01*
X112288593Y-84677826D01*
X112288601Y-84677835D01*
X113040874Y-85430107D01*
X113062614Y-85476727D01*
X113062900Y-85483281D01*
X113062900Y-90151726D01*
X113045307Y-90200064D01*
X113000758Y-90225784D01*
X112950100Y-90216851D01*
X112925173Y-90193505D01*
X112923146Y-90190471D01*
X112882054Y-90128972D01*
X112882051Y-90128969D01*
X112882049Y-90128966D01*
X112794433Y-90041350D01*
X112794430Y-90041348D01*
X112794428Y-90041346D01*
X112691391Y-89972499D01*
X112576902Y-89925076D01*
X112576899Y-89925075D01*
X112576898Y-89925075D01*
X112455362Y-89900900D01*
X112455361Y-89900900D01*
X112402287Y-89900900D01*
X112353949Y-89883307D01*
X112349113Y-89878874D01*
X111862266Y-89392027D01*
X111840526Y-89345407D01*
X111844460Y-89314016D01*
X111860985Y-89266790D01*
X111891223Y-89180376D01*
X111894099Y-89149703D01*
X111894100Y-89149703D01*
X111894100Y-88590296D01*
X111894099Y-88590295D01*
X111892874Y-88577229D01*
X111891223Y-88559624D01*
X111853799Y-88452673D01*
X111846012Y-88430419D01*
X111846010Y-88430416D01*
X111829460Y-88407991D01*
X111764724Y-88320276D01*
X111764722Y-88320274D01*
X111764721Y-88320273D01*
X111761249Y-88316801D01*
X111739509Y-88270181D01*
X111752823Y-88220494D01*
X111774946Y-88199623D01*
X111897722Y-88123895D01*
X111897732Y-88123887D01*
X112018887Y-88002732D01*
X112018892Y-88002726D01*
X112108845Y-87856887D01*
X112108846Y-87856886D01*
X112162743Y-87694236D01*
X112173000Y-87593837D01*
X112173000Y-87574000D01*
X111265200Y-87574000D01*
X111216862Y-87556407D01*
X111191142Y-87511858D01*
X111190000Y-87498800D01*
X111190000Y-87320000D01*
X111011200Y-87320000D01*
X110962862Y-87302407D01*
X110937142Y-87257858D01*
X110936000Y-87244800D01*
X110936000Y-87066000D01*
X111444000Y-87066000D01*
X112173000Y-87066000D01*
X112173000Y-87046162D01*
X112162743Y-86945763D01*
X112108846Y-86783113D01*
X112108845Y-86783112D01*
X112018892Y-86637273D01*
X112018887Y-86637267D01*
X111897732Y-86516112D01*
X111897726Y-86516107D01*
X111751887Y-86426154D01*
X111751886Y-86426153D01*
X111589236Y-86372256D01*
X111488838Y-86362000D01*
X111444000Y-86362000D01*
X111444000Y-87066000D01*
X110936000Y-87066000D01*
X110936000Y-86362000D01*
X110891162Y-86362000D01*
X110790763Y-86372256D01*
X110628113Y-86426153D01*
X110628112Y-86426154D01*
X110482273Y-86516107D01*
X110482267Y-86516112D01*
X110361112Y-86637267D01*
X110361107Y-86637273D01*
X110271154Y-86783112D01*
X110269302Y-86787084D01*
X110267886Y-86786423D01*
X110239700Y-86822046D01*
X110189320Y-86832430D01*
X110155589Y-86818534D01*
X110057770Y-86746341D01*
X110057768Y-86746340D01*
X110014462Y-86731186D01*
X110008845Y-86726591D01*
X110001700Y-86725331D01*
X109989427Y-86710704D01*
X109974648Y-86698614D01*
X109972393Y-86690405D01*
X109968635Y-86685926D01*
X109964100Y-86660206D01*
X109964100Y-86562344D01*
X109981693Y-86514006D01*
X110014464Y-86491364D01*
X110077875Y-86469176D01*
X110077876Y-86469175D01*
X110077880Y-86469174D01*
X110186505Y-86389005D01*
X110266674Y-86280380D01*
X110311263Y-86152951D01*
X110314099Y-86122705D01*
X110314100Y-86122705D01*
X110314100Y-85577294D01*
X110314099Y-85577293D01*
X110312300Y-85558108D01*
X110311263Y-85547049D01*
X110266674Y-85419620D01*
X110186505Y-85310995D01*
X110186504Y-85310994D01*
X110155808Y-85288339D01*
X110127364Y-85245480D01*
X110133123Y-85194363D01*
X110170393Y-85158908D01*
X110174658Y-85157275D01*
X110175477Y-85156893D01*
X110320070Y-85067707D01*
X110320074Y-85067704D01*
X110440204Y-84947574D01*
X110440207Y-84947570D01*
X110529391Y-84802981D01*
X110582829Y-84641713D01*
X110582830Y-84641711D01*
X110593000Y-84542166D01*
X110593000Y-84529000D01*
X109685200Y-84529000D01*
X109636862Y-84511407D01*
X109611142Y-84466858D01*
X109610000Y-84453800D01*
X109610000Y-84275000D01*
X109431200Y-84275000D01*
X109382862Y-84257407D01*
X109357142Y-84212858D01*
X109356000Y-84199800D01*
X109356000Y-84021000D01*
X109864000Y-84021000D01*
X110592999Y-84021000D01*
X110592999Y-84007832D01*
X110582829Y-83908283D01*
X110529391Y-83747018D01*
X110440207Y-83602429D01*
X110440204Y-83602425D01*
X110320074Y-83482295D01*
X110320070Y-83482292D01*
X110175480Y-83393108D01*
X110175481Y-83393108D01*
X110014213Y-83339670D01*
X110014211Y-83339669D01*
X109914667Y-83329500D01*
X109864000Y-83329500D01*
X109864000Y-84021000D01*
X109356000Y-84021000D01*
X109356000Y-83329499D01*
X109305333Y-83329500D01*
X109205783Y-83339670D01*
X109044518Y-83393108D01*
X108899929Y-83482292D01*
X108899925Y-83482295D01*
X108779795Y-83602425D01*
X108779795Y-83602426D01*
X108737254Y-83671395D01*
X108696903Y-83703299D01*
X108645485Y-83701803D01*
X108607059Y-83667606D01*
X108598050Y-83631916D01*
X108598050Y-70362996D01*
X108615643Y-70314658D01*
X108620332Y-70309566D01*
X108642711Y-70287402D01*
X108973256Y-69960023D01*
X108973908Y-69959752D01*
X109001566Y-69931984D01*
X109029427Y-69904391D01*
X109029428Y-69904388D01*
X109033239Y-69900614D01*
X109035258Y-69898159D01*
X109787706Y-69142749D01*
X110957500Y-69142749D01*
X110957500Y-69276522D01*
X110983597Y-69407724D01*
X110983598Y-69407725D01*
X111034788Y-69531309D01*
X111034789Y-69531311D01*
X111109108Y-69642537D01*
X111109110Y-69642539D01*
X111109112Y-69642542D01*
X111557247Y-70090677D01*
X111557250Y-70090679D01*
X111557253Y-70090682D01*
X111668479Y-70165001D01*
X111792068Y-70216193D01*
X111870788Y-70231851D01*
X111923266Y-70242291D01*
X111923268Y-70242291D01*
X112057042Y-70242291D01*
X112100773Y-70233591D01*
X112188240Y-70216193D01*
X112311829Y-70165001D01*
X112423055Y-70090682D01*
X112517646Y-69996091D01*
X112591965Y-69884865D01*
X112643157Y-69761276D01*
X112669255Y-69630076D01*
X112669255Y-69513251D01*
X112686848Y-69464913D01*
X112731397Y-69439193D01*
X112755661Y-69438891D01*
X112874037Y-69456734D01*
X112874038Y-69456734D01*
X112901109Y-69452653D01*
X113009397Y-69436331D01*
X113090979Y-69397044D01*
X113132727Y-69376940D01*
X113132728Y-69376938D01*
X113132730Y-69376938D01*
X113156458Y-69357278D01*
X113552008Y-68961728D01*
X113571668Y-68938000D01*
X113571668Y-68937998D01*
X113571670Y-68937997D01*
X113615131Y-68847746D01*
X113631061Y-68814667D01*
X113651464Y-68679307D01*
X113631061Y-68543947D01*
X113604138Y-68488040D01*
X113571670Y-68420617D01*
X113555770Y-68401426D01*
X113552008Y-68396885D01*
X113552002Y-68396879D01*
X113551998Y-68396874D01*
X112802915Y-67647791D01*
X112802909Y-67647786D01*
X112802905Y-67647782D01*
X112779176Y-67628122D01*
X112779175Y-67628121D01*
X112779172Y-67628119D01*
X112655846Y-67568730D01*
X112655843Y-67568729D01*
X112655841Y-67568728D01*
X112655839Y-67568728D01*
X112520484Y-67548326D01*
X112520482Y-67548326D01*
X112385126Y-67568728D01*
X112385119Y-67568730D01*
X112261792Y-67628119D01*
X112238064Y-67647780D01*
X112238060Y-67647783D01*
X111842513Y-68043330D01*
X111842510Y-68043334D01*
X111822849Y-68067062D01*
X111763460Y-68190389D01*
X111763458Y-68190396D01*
X111748839Y-68287386D01*
X111743056Y-68325753D01*
X111757453Y-68421270D01*
X111760899Y-68444127D01*
X111750707Y-68494547D01*
X111710490Y-68526620D01*
X111686539Y-68530536D01*
X111569713Y-68530536D01*
X111438511Y-68556633D01*
X111438510Y-68556634D01*
X111314926Y-68607824D01*
X111203696Y-68682146D01*
X111203693Y-68682148D01*
X111109112Y-68776729D01*
X111109110Y-68776732D01*
X111034788Y-68887962D01*
X110983598Y-69011546D01*
X110983597Y-69011547D01*
X110957500Y-69142749D01*
X109787706Y-69142749D01*
X114080884Y-64832668D01*
X114081391Y-64832166D01*
X114696869Y-64230437D01*
X114743732Y-64209227D01*
X114749439Y-64209010D01*
X123207528Y-64209010D01*
X138507728Y-64209010D01*
X147043752Y-64209010D01*
X147092090Y-64226603D01*
G37*
%TD.AperFunction*%
%TA.AperFunction,Conductor*%
G36*
X112847138Y-99917593D02*
G01*
X112872858Y-99962142D01*
X112874000Y-99975200D01*
X112874000Y-100807999D01*
X112952231Y-100807999D01*
X112952234Y-100807998D01*
X113023558Y-100801517D01*
X113187703Y-100750368D01*
X113334845Y-100661418D01*
X113456418Y-100539845D01*
X113456420Y-100539842D01*
X113511870Y-100448117D01*
X113551933Y-100415852D01*
X113603362Y-100416887D01*
X113629399Y-100433846D01*
X114805794Y-101610241D01*
X114827534Y-101656861D01*
X114827820Y-101663415D01*
X114827820Y-102597678D01*
X114856146Y-102740086D01*
X114856147Y-102740087D01*
X114873539Y-102782074D01*
X114901247Y-102848969D01*
X114911711Y-102874230D01*
X114992373Y-102994950D01*
X114992381Y-102994959D01*
X115095040Y-103097618D01*
X115095049Y-103097626D01*
X115215769Y-103178288D01*
X115215772Y-103178290D01*
X115349912Y-103233852D01*
X115349913Y-103233853D01*
X115349914Y-103233853D01*
X115349916Y-103233854D01*
X115445281Y-103252823D01*
X115492321Y-103262180D01*
X115492322Y-103262180D01*
X115637519Y-103262180D01*
X115672878Y-103255146D01*
X115779924Y-103233854D01*
X115914068Y-103178290D01*
X115994919Y-103124266D01*
X116034790Y-103097626D01*
X116034790Y-103097625D01*
X116034794Y-103097623D01*
X116852648Y-102279767D01*
X116870352Y-102271511D01*
X116886355Y-102260306D01*
X116893115Y-102260897D01*
X116899266Y-102258029D01*
X116918137Y-102263085D01*
X116937599Y-102264788D01*
X116945725Y-102270478D01*
X116948953Y-102271343D01*
X116958993Y-102279767D01*
X116995227Y-102316001D01*
X116995229Y-102316002D01*
X116999519Y-102320292D01*
X118513488Y-103834261D01*
X118535228Y-103880881D01*
X118534069Y-103902105D01*
X118530900Y-103918036D01*
X118530900Y-103918038D01*
X118530900Y-103918039D01*
X118530900Y-104041961D01*
X118555076Y-104163502D01*
X118559975Y-104175329D01*
X118596081Y-104262498D01*
X118602499Y-104277991D01*
X118671346Y-104381028D01*
X118671348Y-104381030D01*
X118671350Y-104381033D01*
X118758966Y-104468649D01*
X118758969Y-104468651D01*
X118758972Y-104468654D01*
X118862009Y-104537501D01*
X118976498Y-104584924D01*
X119067653Y-104603056D01*
X119098038Y-104609100D01*
X119098039Y-104609100D01*
X119221962Y-104609100D01*
X119246605Y-104604198D01*
X119343502Y-104584924D01*
X119457991Y-104537501D01*
X119561028Y-104468654D01*
X119648654Y-104381028D01*
X119717501Y-104277991D01*
X119764924Y-104163502D01*
X119789100Y-104041961D01*
X119789100Y-103918039D01*
X119789099Y-103918036D01*
X119781709Y-103880881D01*
X119764924Y-103796498D01*
X119717501Y-103682009D01*
X119648654Y-103578972D01*
X119648651Y-103578969D01*
X119648649Y-103578966D01*
X119561033Y-103491350D01*
X119561030Y-103491348D01*
X119561028Y-103491346D01*
X119457991Y-103422499D01*
X119343502Y-103375076D01*
X119343499Y-103375075D01*
X119343498Y-103375075D01*
X119221962Y-103350900D01*
X119221961Y-103350900D01*
X119098039Y-103350900D01*
X119098036Y-103350900D01*
X119082105Y-103354069D01*
X119031264Y-103346243D01*
X119014261Y-103333488D01*
X118687632Y-103006859D01*
X118665892Y-102960239D01*
X118679206Y-102910552D01*
X118721343Y-102881047D01*
X118772587Y-102885531D01*
X118782585Y-102891159D01*
X118822009Y-102917501D01*
X118936498Y-102964924D01*
X119009847Y-102979514D01*
X119058038Y-102989100D01*
X119058039Y-102989100D01*
X119181963Y-102989100D01*
X119187926Y-102987913D01*
X119197890Y-102985931D01*
X119221023Y-102989490D01*
X119244345Y-102991531D01*
X119247177Y-102993514D01*
X119248730Y-102993753D01*
X119265738Y-103006511D01*
X119354012Y-103094785D01*
X119354033Y-103094808D01*
X119422572Y-103163347D01*
X119422575Y-103163349D01*
X119422577Y-103163351D01*
X119462949Y-103186660D01*
X119503321Y-103209969D01*
X119510285Y-103211834D01*
X119522354Y-103215068D01*
X119593382Y-103234101D01*
X119691221Y-103234101D01*
X119691237Y-103234100D01*
X120892071Y-103234100D01*
X120892087Y-103234101D01*
X120896690Y-103234101D01*
X120989927Y-103234101D01*
X121060949Y-103215069D01*
X121060948Y-103215069D01*
X121060953Y-103215068D01*
X121079986Y-103209969D01*
X121160731Y-103163351D01*
X121226659Y-103097423D01*
X121232844Y-103091238D01*
X121232851Y-103091228D01*
X123189889Y-101134190D01*
X123236508Y-101112451D01*
X123286195Y-101125765D01*
X123312536Y-101158584D01*
X123358939Y-101270611D01*
X123427786Y-101373648D01*
X123427788Y-101373650D01*
X123427790Y-101373653D01*
X123515408Y-101461271D01*
X123515411Y-101461273D01*
X123515412Y-101461274D01*
X123613170Y-101526594D01*
X123643587Y-101568077D01*
X123640223Y-101619406D01*
X123604651Y-101656565D01*
X123571391Y-101664320D01*
X123525548Y-101664320D01*
X123404011Y-101688495D01*
X123404008Y-101688496D01*
X123289520Y-101735918D01*
X123186479Y-101804768D01*
X123186476Y-101804770D01*
X123098860Y-101892386D01*
X123098858Y-101892389D01*
X123030008Y-101995430D01*
X122982586Y-102109918D01*
X122982585Y-102109921D01*
X122958410Y-102231458D01*
X122958410Y-102355381D01*
X122980607Y-102466976D01*
X122982586Y-102476922D01*
X123030009Y-102591411D01*
X123098856Y-102694448D01*
X123098858Y-102694450D01*
X123098860Y-102694453D01*
X123186476Y-102782069D01*
X123186479Y-102782071D01*
X123186482Y-102782074D01*
X123289519Y-102850921D01*
X123404008Y-102898344D01*
X123495163Y-102916476D01*
X123525548Y-102922520D01*
X123525549Y-102922520D01*
X123649472Y-102922520D01*
X123674713Y-102917499D01*
X123771012Y-102898344D01*
X123885501Y-102850921D01*
X123988538Y-102782074D01*
X124076164Y-102694448D01*
X124085189Y-102680939D01*
X124126672Y-102650524D01*
X124147715Y-102647520D01*
X124535599Y-102647520D01*
X124583937Y-102665113D01*
X124588773Y-102669546D01*
X125023488Y-103104261D01*
X125045228Y-103150881D01*
X125044069Y-103172105D01*
X125040900Y-103188036D01*
X125040900Y-103188038D01*
X125040900Y-103188039D01*
X125040900Y-103311961D01*
X125065076Y-103433502D01*
X125112499Y-103547991D01*
X125181346Y-103651028D01*
X125181348Y-103651030D01*
X125181350Y-103651033D01*
X125268966Y-103738649D01*
X125268969Y-103738651D01*
X125268972Y-103738654D01*
X125372009Y-103807501D01*
X125486498Y-103854924D01*
X125577653Y-103873056D01*
X125608038Y-103879100D01*
X125608039Y-103879100D01*
X125731962Y-103879100D01*
X125756269Y-103874264D01*
X125853502Y-103854924D01*
X125967991Y-103807501D01*
X126071028Y-103738654D01*
X126158654Y-103651028D01*
X126227501Y-103547991D01*
X126274924Y-103433502D01*
X126299100Y-103311961D01*
X126299100Y-103188039D01*
X126299099Y-103188036D01*
X126288535Y-103134924D01*
X126274924Y-103066498D01*
X126227501Y-102952009D01*
X126158654Y-102848972D01*
X126158651Y-102848969D01*
X126158649Y-102848966D01*
X126071033Y-102761350D01*
X126071030Y-102761348D01*
X126071028Y-102761346D01*
X125967991Y-102692499D01*
X125853502Y-102645076D01*
X125853499Y-102645075D01*
X125853498Y-102645075D01*
X125731962Y-102620900D01*
X125731961Y-102620900D01*
X125608039Y-102620900D01*
X125608036Y-102620900D01*
X125592105Y-102624069D01*
X125541264Y-102616243D01*
X125524261Y-102603488D01*
X125001063Y-102080290D01*
X125001051Y-102080276D01*
X124930847Y-102010072D01*
X124930841Y-102010068D01*
X124850105Y-101963454D01*
X124850093Y-101963449D01*
X124831066Y-101958350D01*
X124831066Y-101958351D01*
X124807389Y-101952007D01*
X124760038Y-101939319D01*
X124666802Y-101939319D01*
X124662199Y-101939319D01*
X124662183Y-101939320D01*
X124147715Y-101939320D01*
X124099377Y-101921727D01*
X124085191Y-101905903D01*
X124076164Y-101892392D01*
X124076161Y-101892389D01*
X124076159Y-101892386D01*
X123988541Y-101804768D01*
X123985144Y-101802498D01*
X123890779Y-101739445D01*
X123860363Y-101697963D01*
X123863727Y-101646634D01*
X123899299Y-101609475D01*
X123932559Y-101601720D01*
X123978402Y-101601720D01*
X124004654Y-101596498D01*
X124099942Y-101577544D01*
X124214431Y-101530121D01*
X124317468Y-101461274D01*
X124340435Y-101438307D01*
X124398647Y-101380096D01*
X124445267Y-101358356D01*
X124451821Y-101358070D01*
X125591354Y-101358070D01*
X125639692Y-101375663D01*
X125644528Y-101380096D01*
X127296104Y-103031672D01*
X127317844Y-103078292D01*
X127318130Y-103084846D01*
X127318130Y-104245969D01*
X127300537Y-104294307D01*
X127296104Y-104299143D01*
X127208580Y-104386666D01*
X127208578Y-104386669D01*
X127139728Y-104489710D01*
X127092306Y-104604198D01*
X127092305Y-104604201D01*
X127068130Y-104725738D01*
X127068130Y-104849523D01*
X127050537Y-104897861D01*
X127046104Y-104902697D01*
X125536328Y-106412474D01*
X125489708Y-106434214D01*
X125483154Y-106434500D01*
X117201776Y-106434500D01*
X117153438Y-106416907D01*
X117148602Y-106412474D01*
X116823602Y-106087474D01*
X116801862Y-106040854D01*
X116815176Y-105991167D01*
X116857313Y-105961662D01*
X116876776Y-105959100D01*
X123319906Y-105959100D01*
X123319909Y-105959100D01*
X123416327Y-105933265D01*
X123502773Y-105883355D01*
X123953773Y-105432353D01*
X124000391Y-105410615D01*
X124032862Y-105415612D01*
X124032957Y-105415300D01*
X124035143Y-105415963D01*
X124035720Y-105416051D01*
X124036498Y-105416374D01*
X124116840Y-105432355D01*
X124158038Y-105440550D01*
X124158039Y-105440550D01*
X124281962Y-105440550D01*
X124306269Y-105435714D01*
X124403502Y-105416374D01*
X124517991Y-105368951D01*
X124621028Y-105300104D01*
X124708654Y-105212478D01*
X124777501Y-105109441D01*
X124824924Y-104994952D01*
X124849100Y-104873411D01*
X124849100Y-104749489D01*
X124824924Y-104627948D01*
X124777501Y-104513459D01*
X124708654Y-104410422D01*
X124708651Y-104410419D01*
X124708649Y-104410416D01*
X124621033Y-104322800D01*
X124621030Y-104322798D01*
X124621028Y-104322796D01*
X124517991Y-104253949D01*
X124514548Y-104252523D01*
X124424143Y-104215076D01*
X124403502Y-104206526D01*
X124403499Y-104206525D01*
X124403498Y-104206525D01*
X124281962Y-104182350D01*
X124281961Y-104182350D01*
X124158039Y-104182350D01*
X124158038Y-104182350D01*
X124036501Y-104206525D01*
X124036498Y-104206526D01*
X123922010Y-104253948D01*
X123818969Y-104322798D01*
X123818966Y-104322800D01*
X123731350Y-104410416D01*
X123731348Y-104410419D01*
X123662498Y-104513460D01*
X123624912Y-104604201D01*
X123615076Y-104627948D01*
X123613375Y-104636498D01*
X123601934Y-104694015D01*
X123581353Y-104732517D01*
X123134997Y-105178874D01*
X123088378Y-105200614D01*
X123081824Y-105200900D01*
X116742424Y-105200900D01*
X116694086Y-105183307D01*
X116689250Y-105178874D01*
X116137526Y-104627150D01*
X116115786Y-104580530D01*
X116115500Y-104573976D01*
X116115500Y-104546493D01*
X116115500Y-104546491D01*
X116089665Y-104450073D01*
X116089665Y-104450072D01*
X116039755Y-104363627D01*
X116039752Y-104363624D01*
X116039751Y-104363622D01*
X112388026Y-100711897D01*
X112366286Y-100665277D01*
X112366000Y-100658723D01*
X112366000Y-99975200D01*
X112383593Y-99926862D01*
X112428142Y-99901142D01*
X112441200Y-99900000D01*
X112798800Y-99900000D01*
X112847138Y-99917593D01*
G37*
%TD.AperFunction*%
%TA.AperFunction,Conductor*%
G36*
X144726833Y-82208372D02*
G01*
X144756338Y-82250509D01*
X144758900Y-82269972D01*
X144758900Y-85682659D01*
X144758899Y-85682672D01*
X144758899Y-85687668D01*
X144758684Y-85688257D01*
X144758678Y-85688427D01*
X144758677Y-85688440D01*
X144758619Y-85688435D01*
X144741306Y-85736006D01*
X144696757Y-85761726D01*
X144646099Y-85752793D01*
X144630525Y-85740842D01*
X143836553Y-84946870D01*
X143836541Y-84946856D01*
X143766337Y-84876652D01*
X143766331Y-84876648D01*
X143685595Y-84830034D01*
X143685583Y-84830029D01*
X143666556Y-84824930D01*
X143666556Y-84824931D01*
X143642879Y-84818587D01*
X143595528Y-84805899D01*
X143502292Y-84805899D01*
X143497689Y-84805899D01*
X143497673Y-84805900D01*
X141141237Y-84805900D01*
X141141221Y-84805899D01*
X141136618Y-84805899D01*
X141043382Y-84805899D01*
X140972354Y-84824931D01*
X140967033Y-84826356D01*
X140953325Y-84830029D01*
X140953320Y-84830032D01*
X140872578Y-84876648D01*
X140872576Y-84876649D01*
X140839613Y-84909613D01*
X140806649Y-84942577D01*
X140806647Y-84942579D01*
X140681522Y-85067704D01*
X140595738Y-85153488D01*
X140549118Y-85175227D01*
X140527897Y-85174069D01*
X140511962Y-85170900D01*
X140511961Y-85170900D01*
X140388039Y-85170900D01*
X140388038Y-85170900D01*
X140266501Y-85195075D01*
X140266498Y-85195076D01*
X140152010Y-85242498D01*
X140048969Y-85311348D01*
X140048966Y-85311350D01*
X139961350Y-85398966D01*
X139961348Y-85398969D01*
X139892498Y-85502010D01*
X139845076Y-85616498D01*
X139845075Y-85616501D01*
X139820900Y-85738037D01*
X139820900Y-85738039D01*
X139820900Y-85861961D01*
X139845076Y-85983502D01*
X139847857Y-85990215D01*
X139890448Y-86093041D01*
X139892499Y-86097991D01*
X139961346Y-86201028D01*
X139961348Y-86201030D01*
X139961350Y-86201033D01*
X140048966Y-86288649D01*
X140048969Y-86288651D01*
X140048972Y-86288654D01*
X140152009Y-86357501D01*
X140266498Y-86404924D01*
X140357653Y-86423056D01*
X140388038Y-86429100D01*
X140388039Y-86429100D01*
X140511962Y-86429100D01*
X140536269Y-86424264D01*
X140633502Y-86404924D01*
X140747991Y-86357501D01*
X140851028Y-86288654D01*
X140938654Y-86201028D01*
X141007501Y-86097991D01*
X141054924Y-85983502D01*
X141079100Y-85861961D01*
X141079100Y-85738039D01*
X141075931Y-85722108D01*
X141083754Y-85671267D01*
X141096507Y-85654264D01*
X141214648Y-85536125D01*
X141261269Y-85514386D01*
X141267822Y-85514100D01*
X143371089Y-85514100D01*
X143419427Y-85531693D01*
X143424263Y-85536126D01*
X143743473Y-85855336D01*
X143765213Y-85901956D01*
X143751899Y-85951643D01*
X143709762Y-85981148D01*
X143690299Y-85983710D01*
X143556990Y-85983710D01*
X143556990Y-86911007D01*
X143495983Y-86875785D01*
X143368816Y-86841710D01*
X143237164Y-86841710D01*
X143109997Y-86875785D01*
X143048990Y-86911007D01*
X143048990Y-85983710D01*
X142404396Y-85983710D01*
X142343897Y-85990214D01*
X142343894Y-85990215D01*
X142207026Y-86041265D01*
X142207024Y-86041266D01*
X142090086Y-86128806D01*
X142002546Y-86245744D01*
X142002545Y-86245746D01*
X141951495Y-86382614D01*
X141951494Y-86382617D01*
X141944990Y-86443116D01*
X141944990Y-87087710D01*
X142872287Y-87087710D01*
X142837065Y-87148717D01*
X142802990Y-87275884D01*
X142802990Y-87407536D01*
X142837065Y-87534703D01*
X142872287Y-87595710D01*
X141944990Y-87595710D01*
X141944990Y-88240303D01*
X141951494Y-88300802D01*
X141951495Y-88300805D01*
X142002545Y-88437673D01*
X142002546Y-88437675D01*
X142090086Y-88554613D01*
X142207024Y-88642153D01*
X142207026Y-88642154D01*
X142343894Y-88693204D01*
X142343897Y-88693205D01*
X142404396Y-88699709D01*
X142404408Y-88699710D01*
X142973978Y-88699710D01*
X143022316Y-88717303D01*
X143048036Y-88761852D01*
X143039103Y-88812510D01*
X142999698Y-88845575D01*
X142997216Y-88846429D01*
X142888769Y-88881665D01*
X142888761Y-88881668D01*
X142888759Y-88881669D01*
X142888755Y-88881670D01*
X142888755Y-88881671D01*
X142737413Y-88958783D01*
X142600010Y-89058611D01*
X142599997Y-89058622D01*
X142479902Y-89178717D01*
X142479891Y-89178730D01*
X142380063Y-89316133D01*
X142302951Y-89467475D01*
X142302945Y-89467489D01*
X142250462Y-89629015D01*
X142250459Y-89629027D01*
X142223890Y-89796780D01*
X142223890Y-89966639D01*
X142250459Y-90134392D01*
X142250462Y-90134404D01*
X142302107Y-90293352D01*
X142302949Y-90295941D01*
X142367159Y-90421961D01*
X142380063Y-90447286D01*
X142479891Y-90584689D01*
X142479902Y-90584702D01*
X142599997Y-90704797D01*
X142600010Y-90704808D01*
X142737413Y-90804636D01*
X142737415Y-90804637D01*
X142737418Y-90804639D01*
X142888759Y-90881751D01*
X143050300Y-90934239D01*
X143218063Y-90960810D01*
X143218067Y-90960810D01*
X143387913Y-90960810D01*
X143387917Y-90960810D01*
X143555680Y-90934239D01*
X143717221Y-90881751D01*
X143718684Y-90881005D01*
X143719480Y-90880814D01*
X143719952Y-90880619D01*
X143719982Y-90880693D01*
X143752822Y-90872810D01*
X144693700Y-90872810D01*
X144742038Y-90890403D01*
X144767758Y-90934952D01*
X144768900Y-90948010D01*
X144768900Y-100219265D01*
X144768899Y-100219278D01*
X144768899Y-100417616D01*
X144806626Y-100607282D01*
X144806987Y-100609094D01*
X144851585Y-100716762D01*
X144871263Y-100764270D01*
X144871262Y-100764270D01*
X144881696Y-100789458D01*
X144881698Y-100789462D01*
X144990162Y-100951790D01*
X144990164Y-100951792D01*
X144990166Y-100951795D01*
X145130825Y-101092454D01*
X145130847Y-101092474D01*
X145251504Y-101213131D01*
X145273244Y-101259751D01*
X145273530Y-101266305D01*
X145273530Y-102170055D01*
X145274982Y-102177357D01*
X145267154Y-102228197D01*
X145228478Y-102262112D01*
X145177050Y-102263232D01*
X145138699Y-102233803D01*
X145137502Y-102232011D01*
X145137501Y-102232009D01*
X145068654Y-102128972D01*
X145068653Y-102128971D01*
X145068651Y-102128968D01*
X144981033Y-102041350D01*
X144981030Y-102041348D01*
X144981028Y-102041346D01*
X144877991Y-101972499D01*
X144856270Y-101963502D01*
X144843832Y-101958350D01*
X144763502Y-101925076D01*
X144763499Y-101925075D01*
X144763498Y-101925075D01*
X144641962Y-101900900D01*
X144641961Y-101900900D01*
X144518039Y-101900900D01*
X144514363Y-101901262D01*
X144514243Y-101900051D01*
X144467945Y-101892925D01*
X144450943Y-101880170D01*
X144167643Y-101596870D01*
X144167631Y-101596856D01*
X144097427Y-101526652D01*
X144097421Y-101526648D01*
X144016685Y-101480034D01*
X144016673Y-101480029D01*
X143997646Y-101474930D01*
X143997646Y-101474931D01*
X143973969Y-101468587D01*
X143926618Y-101455899D01*
X143833382Y-101455899D01*
X143828779Y-101455899D01*
X143828763Y-101455900D01*
X141959300Y-101455900D01*
X141910962Y-101438307D01*
X141885242Y-101393758D01*
X141884100Y-101380700D01*
X141884100Y-100023554D01*
X141884101Y-100023541D01*
X141884101Y-99924252D01*
X141884101Y-99924250D01*
X141859969Y-99834191D01*
X141859969Y-99834190D01*
X141813351Y-99753445D01*
X141813349Y-99753443D01*
X141813347Y-99753440D01*
X141744808Y-99684901D01*
X141744785Y-99684880D01*
X139436086Y-97376181D01*
X139414346Y-97329561D01*
X139414060Y-97323007D01*
X139414060Y-96252646D01*
X139414061Y-96252633D01*
X139414061Y-96153343D01*
X139412075Y-96145932D01*
X139389929Y-96063282D01*
X139384012Y-96053033D01*
X139343311Y-95982537D01*
X139343310Y-95982535D01*
X139274768Y-95913993D01*
X139274745Y-95913972D01*
X139056511Y-95695738D01*
X139034771Y-95649118D01*
X139035930Y-95627893D01*
X139039100Y-95611961D01*
X139039100Y-95488039D01*
X139014924Y-95366498D01*
X138967501Y-95252009D01*
X138898654Y-95148972D01*
X138898651Y-95148969D01*
X138898649Y-95148966D01*
X138811033Y-95061350D01*
X138811030Y-95061348D01*
X138811028Y-95061346D01*
X138707991Y-94992499D01*
X138706692Y-94991961D01*
X138647923Y-94967618D01*
X138593502Y-94945076D01*
X138593499Y-94945075D01*
X138593498Y-94945075D01*
X138471962Y-94920900D01*
X138471961Y-94920900D01*
X138348039Y-94920900D01*
X138348038Y-94920900D01*
X138226501Y-94945075D01*
X138226494Y-94945077D01*
X138114477Y-94991476D01*
X138106057Y-94991843D01*
X138098758Y-94996058D01*
X138081048Y-94992935D01*
X138063086Y-94993719D01*
X138056399Y-94988588D01*
X138048100Y-94987125D01*
X138036542Y-94973351D01*
X138022277Y-94962405D01*
X138019573Y-94953128D01*
X138015035Y-94947720D01*
X138010500Y-94922000D01*
X138010500Y-94894688D01*
X138010501Y-94894685D01*
X138010500Y-94801448D01*
X137986369Y-94711389D01*
X137975296Y-94692210D01*
X137939751Y-94630644D01*
X137928231Y-94619124D01*
X137923859Y-94612320D01*
X137919868Y-94594645D01*
X137912209Y-94578221D01*
X137914352Y-94570220D01*
X137912529Y-94562143D01*
X137920832Y-94546037D01*
X137925523Y-94528534D01*
X137932306Y-94523783D01*
X137936102Y-94516423D01*
X137952815Y-94509423D01*
X137967660Y-94499029D01*
X137978479Y-94498674D01*
X137983549Y-94496552D01*
X137989242Y-94498322D01*
X138001793Y-94497912D01*
X138007409Y-94499029D01*
X138058038Y-94509100D01*
X138058039Y-94509100D01*
X138181962Y-94509100D01*
X138206269Y-94504264D01*
X138303502Y-94484924D01*
X138417991Y-94437501D01*
X138521028Y-94368654D01*
X138555187Y-94334495D01*
X138603557Y-94286126D01*
X138650177Y-94264386D01*
X138656731Y-94264100D01*
X139533459Y-94264100D01*
X139581797Y-94281693D01*
X139586633Y-94286126D01*
X140393874Y-95093367D01*
X140415614Y-95139987D01*
X140415900Y-95146541D01*
X140415900Y-97457482D01*
X140415899Y-97457500D01*
X140415899Y-97462102D01*
X140415899Y-97555338D01*
X140428480Y-97602289D01*
X140440031Y-97645398D01*
X140482091Y-97718249D01*
X140486648Y-97726141D01*
X140486652Y-97726147D01*
X140556856Y-97796351D01*
X140556870Y-97796363D01*
X142293018Y-99532511D01*
X142314758Y-99579131D01*
X142306852Y-99619817D01*
X142302953Y-99627471D01*
X142302945Y-99627489D01*
X142250462Y-99789015D01*
X142250459Y-99789027D01*
X142223890Y-99956780D01*
X142223890Y-100126639D01*
X142250459Y-100294392D01*
X142250462Y-100294404D01*
X142300406Y-100448117D01*
X142302949Y-100455941D01*
X142349932Y-100548150D01*
X142380063Y-100607286D01*
X142479891Y-100744689D01*
X142479902Y-100744702D01*
X142599997Y-100864797D01*
X142600010Y-100864808D01*
X142737413Y-100964636D01*
X142737415Y-100964637D01*
X142737418Y-100964639D01*
X142888759Y-101041751D01*
X143050300Y-101094239D01*
X143218063Y-101120810D01*
X143218067Y-101120810D01*
X143387913Y-101120810D01*
X143387917Y-101120810D01*
X143555680Y-101094239D01*
X143717221Y-101041751D01*
X143868562Y-100964639D01*
X143939676Y-100912972D01*
X144005969Y-100864808D01*
X144005970Y-100864806D01*
X144005977Y-100864802D01*
X144126082Y-100744697D01*
X144146382Y-100716757D01*
X144213809Y-100623950D01*
X144225919Y-100607282D01*
X144303031Y-100455941D01*
X144355519Y-100294400D01*
X144382090Y-100126637D01*
X144382090Y-99956783D01*
X144355519Y-99789020D01*
X144303031Y-99627479D01*
X144225919Y-99476138D01*
X144225917Y-99476135D01*
X144225916Y-99476133D01*
X144126088Y-99338730D01*
X144126077Y-99338717D01*
X144005982Y-99218622D01*
X144005969Y-99218611D01*
X143868566Y-99118783D01*
X143829641Y-99098950D01*
X143717221Y-99041669D01*
X143717214Y-99041666D01*
X143717210Y-99041665D01*
X143555684Y-98989182D01*
X143555672Y-98989179D01*
X143387919Y-98962610D01*
X143387917Y-98962610D01*
X143218063Y-98962610D01*
X143218060Y-98962610D01*
X143050307Y-98989179D01*
X143050295Y-98989182D01*
X142888769Y-99041665D01*
X142888762Y-99041667D01*
X142888759Y-99041669D01*
X142888755Y-99041671D01*
X142888751Y-99041673D01*
X142881097Y-99045572D01*
X142830040Y-99051835D01*
X142793791Y-99031738D01*
X141178833Y-97416780D01*
X142223890Y-97416780D01*
X142223890Y-97586639D01*
X142250459Y-97754392D01*
X142250462Y-97754404D01*
X142293871Y-97888004D01*
X142302949Y-97915941D01*
X142360814Y-98029507D01*
X142380063Y-98067286D01*
X142479891Y-98204689D01*
X142479902Y-98204702D01*
X142599997Y-98324797D01*
X142600010Y-98324808D01*
X142737413Y-98424636D01*
X142737415Y-98424637D01*
X142737418Y-98424639D01*
X142888759Y-98501751D01*
X143050300Y-98554239D01*
X143218063Y-98580810D01*
X143218067Y-98580810D01*
X143387913Y-98580810D01*
X143387917Y-98580810D01*
X143555680Y-98554239D01*
X143717221Y-98501751D01*
X143868562Y-98424639D01*
X144005977Y-98324802D01*
X144126082Y-98204697D01*
X144141201Y-98183888D01*
X144212406Y-98085881D01*
X144225919Y-98067282D01*
X144303031Y-97915941D01*
X144355519Y-97754400D01*
X144382090Y-97586637D01*
X144382090Y-97416783D01*
X144355519Y-97249020D01*
X144303031Y-97087479D01*
X144225919Y-96936138D01*
X144225917Y-96936135D01*
X144225916Y-96936133D01*
X144126088Y-96798730D01*
X144126077Y-96798717D01*
X144005982Y-96678622D01*
X144005969Y-96678611D01*
X143868566Y-96578783D01*
X143822580Y-96555352D01*
X143717221Y-96501669D01*
X143717214Y-96501666D01*
X143717210Y-96501665D01*
X143555684Y-96449182D01*
X143555672Y-96449179D01*
X143387919Y-96422610D01*
X143387917Y-96422610D01*
X143218063Y-96422610D01*
X143218060Y-96422610D01*
X143050307Y-96449179D01*
X143050295Y-96449182D01*
X142888769Y-96501665D01*
X142888761Y-96501668D01*
X142888759Y-96501669D01*
X142888755Y-96501670D01*
X142888755Y-96501671D01*
X142737413Y-96578783D01*
X142600010Y-96678611D01*
X142599997Y-96678622D01*
X142479902Y-96798717D01*
X142479891Y-96798730D01*
X142380063Y-96936133D01*
X142302951Y-97087475D01*
X142302945Y-97087489D01*
X142250462Y-97249015D01*
X142250459Y-97249027D01*
X142223890Y-97416780D01*
X141178833Y-97416780D01*
X141146126Y-97384073D01*
X141124386Y-97337453D01*
X141124100Y-97330899D01*
X141124100Y-95021406D01*
X141124101Y-95021393D01*
X141124101Y-94922103D01*
X141124073Y-94922000D01*
X141116755Y-94894688D01*
X141116381Y-94893291D01*
X141116381Y-94893288D01*
X141111957Y-94876780D01*
X142223890Y-94876780D01*
X142223890Y-95046639D01*
X142250459Y-95214392D01*
X142250462Y-95214404D01*
X142301651Y-95371949D01*
X142302949Y-95375941D01*
X142368747Y-95505077D01*
X142380063Y-95527286D01*
X142479891Y-95664689D01*
X142479902Y-95664702D01*
X142599997Y-95784797D01*
X142600010Y-95784808D01*
X142737413Y-95884636D01*
X142737415Y-95884637D01*
X142737418Y-95884639D01*
X142888759Y-95961751D01*
X143050300Y-96014239D01*
X143218063Y-96040810D01*
X143218067Y-96040810D01*
X143387913Y-96040810D01*
X143387917Y-96040810D01*
X143555680Y-96014239D01*
X143717221Y-95961751D01*
X143868562Y-95884639D01*
X144005977Y-95784802D01*
X144126082Y-95664697D01*
X144146382Y-95636757D01*
X144206811Y-95553582D01*
X144225919Y-95527282D01*
X144303031Y-95375941D01*
X144355519Y-95214400D01*
X144382090Y-95046637D01*
X144382090Y-94876783D01*
X144355519Y-94709020D01*
X144303031Y-94547479D01*
X144225919Y-94396138D01*
X144225917Y-94396135D01*
X144225916Y-94396133D01*
X144126088Y-94258730D01*
X144126077Y-94258717D01*
X144005982Y-94138622D01*
X144005969Y-94138611D01*
X143868566Y-94038783D01*
X143844691Y-94026618D01*
X143717221Y-93961669D01*
X143717214Y-93961666D01*
X143717210Y-93961665D01*
X143555684Y-93909182D01*
X143555672Y-93909179D01*
X143387919Y-93882610D01*
X143387917Y-93882610D01*
X143218063Y-93882610D01*
X143218060Y-93882610D01*
X143050307Y-93909179D01*
X143050295Y-93909182D01*
X142888769Y-93961665D01*
X142888761Y-93961668D01*
X142888759Y-93961669D01*
X142888755Y-93961670D01*
X142888755Y-93961671D01*
X142737413Y-94038783D01*
X142600010Y-94138611D01*
X142599997Y-94138622D01*
X142479902Y-94258717D01*
X142479891Y-94258730D01*
X142380063Y-94396133D01*
X142302951Y-94547475D01*
X142302945Y-94547489D01*
X142250462Y-94709015D01*
X142250459Y-94709027D01*
X142223890Y-94876780D01*
X141111957Y-94876780D01*
X141099970Y-94832047D01*
X141099968Y-94832040D01*
X141091098Y-94816677D01*
X141082307Y-94801450D01*
X141053351Y-94751297D01*
X141053349Y-94751295D01*
X141053347Y-94751292D01*
X140984808Y-94682753D01*
X140984785Y-94682732D01*
X139998923Y-93696870D01*
X139998911Y-93696856D01*
X139928707Y-93626652D01*
X139928701Y-93626648D01*
X139847965Y-93580034D01*
X139847953Y-93580029D01*
X139828926Y-93574930D01*
X139828926Y-93574931D01*
X139805249Y-93568587D01*
X139757898Y-93555899D01*
X139664662Y-93555899D01*
X139660059Y-93555899D01*
X139660043Y-93555900D01*
X138700251Y-93555900D01*
X138651913Y-93538307D01*
X138637726Y-93522481D01*
X138608654Y-93478972D01*
X138608651Y-93478969D01*
X138608649Y-93478966D01*
X138521033Y-93391350D01*
X138521030Y-93391348D01*
X138521028Y-93391346D01*
X138417991Y-93322499D01*
X138403981Y-93316696D01*
X138384456Y-93308608D01*
X138303502Y-93275076D01*
X138303499Y-93275075D01*
X138303498Y-93275075D01*
X138181962Y-93250900D01*
X138181961Y-93250900D01*
X138058039Y-93250900D01*
X138058038Y-93250900D01*
X137936501Y-93275075D01*
X137936498Y-93275076D01*
X137822010Y-93322498D01*
X137718969Y-93391348D01*
X137718966Y-93391350D01*
X137631350Y-93478966D01*
X137631348Y-93478969D01*
X137562496Y-93582013D01*
X137558775Y-93590998D01*
X137524022Y-93628923D01*
X137473022Y-93635636D01*
X137429639Y-93607996D01*
X137414100Y-93562219D01*
X137414100Y-92897821D01*
X137419715Y-92882393D01*
X137421146Y-92866040D01*
X137430560Y-92852595D01*
X137431693Y-92849483D01*
X137436126Y-92844647D01*
X137477371Y-92803402D01*
X137523991Y-92781662D01*
X137573678Y-92794976D01*
X137583719Y-92803402D01*
X137648966Y-92868649D01*
X137648969Y-92868651D01*
X137648972Y-92868654D01*
X137752009Y-92937501D01*
X137866498Y-92984924D01*
X137957653Y-93003056D01*
X137988038Y-93009100D01*
X137988039Y-93009100D01*
X138111962Y-93009100D01*
X138136269Y-93004264D01*
X138233502Y-92984924D01*
X138347991Y-92937501D01*
X138451028Y-92868654D01*
X138483752Y-92835930D01*
X138521847Y-92797836D01*
X138568467Y-92776096D01*
X138575021Y-92775810D01*
X142228776Y-92775810D01*
X142277114Y-92793403D01*
X142300294Y-92827772D01*
X142302068Y-92833229D01*
X142302949Y-92835942D01*
X142380063Y-92987286D01*
X142479891Y-93124689D01*
X142479902Y-93124702D01*
X142599997Y-93244797D01*
X142600010Y-93244808D01*
X142737413Y-93344636D01*
X142737415Y-93344637D01*
X142737418Y-93344639D01*
X142888759Y-93421751D01*
X143050300Y-93474239D01*
X143218063Y-93500810D01*
X143218067Y-93500810D01*
X143387913Y-93500810D01*
X143387917Y-93500810D01*
X143555680Y-93474239D01*
X143717221Y-93421751D01*
X143868562Y-93344639D01*
X143964308Y-93275076D01*
X144005969Y-93244808D01*
X144005970Y-93244806D01*
X144005977Y-93244802D01*
X144126082Y-93124697D01*
X144146382Y-93096757D01*
X144225916Y-92987286D01*
X144225915Y-92987286D01*
X144225919Y-92987282D01*
X144303031Y-92835941D01*
X144355519Y-92674400D01*
X144382090Y-92506637D01*
X144382090Y-92336783D01*
X144355519Y-92169020D01*
X144303031Y-92007479D01*
X144225919Y-91856138D01*
X144225917Y-91856135D01*
X144225916Y-91856133D01*
X144126088Y-91718730D01*
X144126077Y-91718717D01*
X144005982Y-91598622D01*
X144005969Y-91598611D01*
X143868566Y-91498783D01*
X143825885Y-91477036D01*
X143717221Y-91421669D01*
X143717214Y-91421666D01*
X143717210Y-91421665D01*
X143555684Y-91369182D01*
X143555672Y-91369179D01*
X143387919Y-91342610D01*
X143387917Y-91342610D01*
X143218063Y-91342610D01*
X143218060Y-91342610D01*
X143050307Y-91369179D01*
X143050295Y-91369182D01*
X142888769Y-91421665D01*
X142888761Y-91421668D01*
X142888759Y-91421669D01*
X142888755Y-91421670D01*
X142888755Y-91421671D01*
X142737413Y-91498783D01*
X142600010Y-91598611D01*
X142599997Y-91598622D01*
X142479902Y-91718717D01*
X142479891Y-91718730D01*
X142380063Y-91856133D01*
X142302949Y-92007477D01*
X142302197Y-92009794D01*
X142300294Y-92015647D01*
X142268627Y-92056182D01*
X142228776Y-92067610D01*
X138638076Y-92067610D01*
X138589738Y-92050017D01*
X138575550Y-92034189D01*
X138538657Y-91978975D01*
X138538649Y-91978966D01*
X138451033Y-91891350D01*
X138451030Y-91891348D01*
X138451028Y-91891346D01*
X138347991Y-91822499D01*
X138233502Y-91775076D01*
X138233499Y-91775075D01*
X138233498Y-91775075D01*
X138111962Y-91750900D01*
X138111961Y-91750900D01*
X137988039Y-91750900D01*
X137988038Y-91750900D01*
X137866501Y-91775075D01*
X137866498Y-91775076D01*
X137752010Y-91822498D01*
X137648969Y-91891348D01*
X137648966Y-91891350D01*
X137561350Y-91978966D01*
X137561346Y-91978972D01*
X137552320Y-91992480D01*
X137533442Y-92006321D01*
X137515515Y-92021365D01*
X137512106Y-92021966D01*
X137510838Y-92022896D01*
X137489795Y-92025900D01*
X137451237Y-92025900D01*
X137451221Y-92025899D01*
X137446618Y-92025899D01*
X137353382Y-92025899D01*
X137263323Y-92050030D01*
X137263321Y-92050030D01*
X137235290Y-92066215D01*
X137182578Y-92096647D01*
X137149614Y-92129612D01*
X137116649Y-92162577D01*
X137116647Y-92162579D01*
X136842579Y-92436647D01*
X136842577Y-92436649D01*
X136820911Y-92458315D01*
X136776649Y-92502576D01*
X136776648Y-92502578D01*
X136730030Y-92583322D01*
X136726252Y-92597421D01*
X136726253Y-92597422D01*
X136710631Y-92655725D01*
X136705899Y-92673383D01*
X136705899Y-92772673D01*
X136705900Y-92772686D01*
X136705900Y-93892089D01*
X136698157Y-93913361D01*
X136692300Y-93935222D01*
X136689483Y-93937194D01*
X136688307Y-93940427D01*
X136668701Y-93951746D01*
X136650163Y-93964727D01*
X136646736Y-93964427D01*
X136643758Y-93966147D01*
X136621464Y-93962215D01*
X136598919Y-93960243D01*
X136595095Y-93957565D01*
X136593100Y-93957214D01*
X136577526Y-93945263D01*
X136544726Y-93912463D01*
X136522986Y-93865843D01*
X136522700Y-93859289D01*
X136522700Y-88356532D01*
X136540293Y-88308194D01*
X136584842Y-88282474D01*
X136635500Y-88291407D01*
X136660426Y-88314753D01*
X136664925Y-88321486D01*
X136691344Y-88361026D01*
X136691350Y-88361033D01*
X136778966Y-88448649D01*
X136778969Y-88448651D01*
X136778972Y-88448654D01*
X136882009Y-88517501D01*
X136996498Y-88564924D01*
X137058375Y-88577232D01*
X137118038Y-88589100D01*
X137118039Y-88589100D01*
X137241962Y-88589100D01*
X137266269Y-88584264D01*
X137363502Y-88564924D01*
X137477991Y-88517501D01*
X137581028Y-88448654D01*
X137668654Y-88361028D01*
X137677679Y-88347519D01*
X137719162Y-88317104D01*
X137740205Y-88314100D01*
X138679930Y-88314100D01*
X138728268Y-88331693D01*
X138749405Y-88360523D01*
X138752499Y-88367991D01*
X138821346Y-88471028D01*
X138821348Y-88471030D01*
X138821350Y-88471033D01*
X138908966Y-88558649D01*
X138908969Y-88558651D01*
X138908972Y-88558654D01*
X139012009Y-88627501D01*
X139126498Y-88674924D01*
X139191889Y-88687931D01*
X139248038Y-88699100D01*
X139248039Y-88699100D01*
X139371962Y-88699100D01*
X139401602Y-88693204D01*
X139493502Y-88674924D01*
X139607991Y-88627501D01*
X139711028Y-88558654D01*
X139798654Y-88471028D01*
X139867501Y-88367991D01*
X139914924Y-88253502D01*
X139939100Y-88131961D01*
X139939100Y-88008039D01*
X139938044Y-88002732D01*
X139927055Y-87947486D01*
X139914924Y-87886498D01*
X139867501Y-87772009D01*
X139798654Y-87668972D01*
X139798651Y-87668969D01*
X139798649Y-87668966D01*
X139711033Y-87581350D01*
X139711030Y-87581348D01*
X139711028Y-87581346D01*
X139607991Y-87512499D01*
X139606443Y-87511858D01*
X139574456Y-87498608D01*
X139493502Y-87465076D01*
X139493499Y-87465075D01*
X139493498Y-87465075D01*
X139371962Y-87440900D01*
X139371961Y-87440900D01*
X139248039Y-87440900D01*
X139248038Y-87440900D01*
X139126501Y-87465075D01*
X139126498Y-87465076D01*
X139012010Y-87512498D01*
X138908969Y-87581348D01*
X138908966Y-87581350D01*
X138906443Y-87583874D01*
X138859823Y-87605614D01*
X138853269Y-87605900D01*
X137740205Y-87605900D01*
X137691867Y-87588307D01*
X137677681Y-87572483D01*
X137668654Y-87558972D01*
X137668651Y-87558969D01*
X137668649Y-87558966D01*
X137581033Y-87471350D01*
X137581030Y-87471348D01*
X137581028Y-87471346D01*
X137477991Y-87402499D01*
X137363502Y-87355076D01*
X137363499Y-87355075D01*
X137363498Y-87355075D01*
X137241962Y-87330900D01*
X137241961Y-87330900D01*
X137118039Y-87330900D01*
X137118038Y-87330900D01*
X136996501Y-87355075D01*
X136996498Y-87355076D01*
X136882010Y-87402498D01*
X136778969Y-87471348D01*
X136778966Y-87471350D01*
X136691350Y-87558966D01*
X136691342Y-87558975D01*
X136660426Y-87605246D01*
X136618943Y-87635663D01*
X136567613Y-87632298D01*
X136530455Y-87596727D01*
X136522700Y-87563467D01*
X136522700Y-86809221D01*
X136540293Y-86760883D01*
X136544726Y-86756047D01*
X139114647Y-84186126D01*
X139161267Y-84164386D01*
X139167821Y-84164100D01*
X142485315Y-84164100D01*
X142485331Y-84164101D01*
X142489934Y-84164101D01*
X142583171Y-84164101D01*
X142654193Y-84145069D01*
X142654192Y-84145069D01*
X142654197Y-84145068D01*
X142673230Y-84139969D01*
X142753975Y-84093351D01*
X142819903Y-84027423D01*
X142826088Y-84021238D01*
X142826095Y-84021228D01*
X144630527Y-82216797D01*
X144677146Y-82195058D01*
X144726833Y-82208372D01*
G37*
%TD.AperFunction*%
%TA.AperFunction,Conductor*%
G36*
X113017986Y-90839441D02*
G01*
X113055145Y-90875012D01*
X113062900Y-90908273D01*
X113062900Y-93677058D01*
X113069886Y-93712180D01*
X113062061Y-93763021D01*
X113058659Y-93768628D01*
X113046790Y-93786391D01*
X112991227Y-93920532D01*
X112991226Y-93920533D01*
X112962900Y-94062941D01*
X112962900Y-94943578D01*
X112991226Y-95085986D01*
X112991227Y-95085987D01*
X113013524Y-95139816D01*
X113044417Y-95214400D01*
X113046791Y-95220130D01*
X113127453Y-95340850D01*
X113127461Y-95340859D01*
X113315397Y-95528795D01*
X113337137Y-95575415D01*
X113335978Y-95596638D01*
X113324140Y-95656157D01*
X113324140Y-97684446D01*
X113306547Y-97732784D01*
X113261998Y-97758504D01*
X113211340Y-97749571D01*
X113204285Y-97744952D01*
X113097770Y-97666341D01*
X113097767Y-97666339D01*
X113004985Y-97633874D01*
X112975676Y-97623618D01*
X112975671Y-97623617D01*
X112975669Y-97623617D01*
X112946698Y-97620900D01*
X112946690Y-97620900D01*
X112628888Y-97620900D01*
X112580550Y-97603307D01*
X112575714Y-97598874D01*
X112051126Y-97074286D01*
X112044188Y-97059409D01*
X112033635Y-97046832D01*
X112030784Y-97030664D01*
X112029386Y-97027666D01*
X112029100Y-97021112D01*
X112029100Y-96972138D01*
X112041773Y-96930359D01*
X112065807Y-96894390D01*
X112079100Y-96827562D01*
X112079100Y-96432438D01*
X112076413Y-96418932D01*
X112065807Y-96365612D01*
X112065807Y-96365610D01*
X112053223Y-96346777D01*
X112040997Y-96296814D01*
X112053223Y-96263223D01*
X112065807Y-96244390D01*
X112075776Y-96194269D01*
X112079100Y-96177563D01*
X112079100Y-96005711D01*
X112096693Y-95957373D01*
X112109234Y-95945511D01*
X112212903Y-95867903D01*
X112300443Y-95750965D01*
X112300444Y-95750963D01*
X112351494Y-95614095D01*
X112351495Y-95614092D01*
X112357999Y-95553593D01*
X112358000Y-95553582D01*
X112358000Y-95505000D01*
X111675200Y-95505000D01*
X111626862Y-95487407D01*
X111601142Y-95442858D01*
X111600000Y-95429800D01*
X111600000Y-95230200D01*
X111617593Y-95181862D01*
X111662142Y-95156142D01*
X111675200Y-95155000D01*
X112358000Y-95155000D01*
X112358000Y-95106418D01*
X112357999Y-95106406D01*
X112351495Y-95045907D01*
X112351494Y-95045904D01*
X112300444Y-94909036D01*
X112300443Y-94909034D01*
X112212903Y-94792096D01*
X112109234Y-94714489D01*
X112081081Y-94671437D01*
X112079100Y-94654289D01*
X112079100Y-94482436D01*
X112065807Y-94415611D01*
X112065805Y-94415606D01*
X112015172Y-94339827D01*
X111939393Y-94289194D01*
X111939388Y-94289192D01*
X111872564Y-94275900D01*
X111872562Y-94275900D01*
X111833887Y-94275900D01*
X111785549Y-94258307D01*
X111780713Y-94253874D01*
X111521126Y-93994287D01*
X111514188Y-93979410D01*
X111503635Y-93966833D01*
X111500784Y-93950665D01*
X111499386Y-93947667D01*
X111499100Y-93941113D01*
X111499100Y-93817189D01*
X111516693Y-93768851D01*
X111529645Y-93756683D01*
X111576847Y-93721847D01*
X111653659Y-93617770D01*
X111696382Y-93495676D01*
X111699099Y-93466697D01*
X111699100Y-93466696D01*
X111699100Y-92813304D01*
X111699099Y-92813301D01*
X111697649Y-92797836D01*
X111696382Y-92784324D01*
X111653659Y-92662230D01*
X111576847Y-92558153D01*
X111576843Y-92558150D01*
X111499645Y-92501175D01*
X111487618Y-92483053D01*
X111473635Y-92466389D01*
X111472577Y-92460390D01*
X111471200Y-92458315D01*
X111469100Y-92440669D01*
X111469100Y-92311710D01*
X111486693Y-92263372D01*
X111499641Y-92251207D01*
X111589724Y-92184724D01*
X111671011Y-92074583D01*
X111716223Y-91945376D01*
X111719099Y-91914703D01*
X111719100Y-91914703D01*
X111719100Y-91538886D01*
X111736693Y-91490548D01*
X111741103Y-91485735D01*
X112090942Y-91135895D01*
X112137560Y-91114157D01*
X112172890Y-91119594D01*
X112209898Y-91134924D01*
X112301053Y-91153056D01*
X112331438Y-91159100D01*
X112331439Y-91159100D01*
X112455362Y-91159100D01*
X112479669Y-91154264D01*
X112576902Y-91134924D01*
X112691391Y-91087501D01*
X112794428Y-91018654D01*
X112882054Y-90931028D01*
X112925173Y-90866494D01*
X112966656Y-90836077D01*
X113017986Y-90839441D01*
G37*
%TD.AperFunction*%
%TA.AperFunction,Conductor*%
G36*
X110459529Y-92164481D02*
G01*
X110461390Y-92164536D01*
X110467578Y-92168606D01*
X110479022Y-92174470D01*
X110487377Y-92180796D01*
X110490276Y-92184724D01*
X110580773Y-92251513D01*
X110581095Y-92251757D01*
X110594807Y-92272980D01*
X110608800Y-92294063D01*
X110608744Y-92294551D01*
X110609011Y-92294963D01*
X110610900Y-92311710D01*
X110610900Y-92484951D01*
X110593307Y-92533289D01*
X110580356Y-92545456D01*
X110563156Y-92558150D01*
X110563154Y-92558152D01*
X110486341Y-92662229D01*
X110486339Y-92662232D01*
X110443619Y-92784321D01*
X110443617Y-92784330D01*
X110440900Y-92813301D01*
X110440900Y-93466698D01*
X110443617Y-93495669D01*
X110443618Y-93495676D01*
X110449101Y-93511346D01*
X110486339Y-93617767D01*
X110486341Y-93617770D01*
X110563153Y-93721847D01*
X110610355Y-93756683D01*
X110638800Y-93799542D01*
X110640900Y-93817189D01*
X110640900Y-94012822D01*
X110623307Y-94061160D01*
X110578758Y-94086880D01*
X110528100Y-94077947D01*
X110520635Y-94073023D01*
X110495964Y-94054555D01*
X110359095Y-94003505D01*
X110359092Y-94003504D01*
X110298593Y-93997000D01*
X110175000Y-93997000D01*
X110175000Y-94604800D01*
X110157407Y-94653138D01*
X110112858Y-94678858D01*
X110099800Y-94680000D01*
X109900700Y-94680000D01*
X109852362Y-94662407D01*
X109826642Y-94617858D01*
X109825500Y-94604800D01*
X109825500Y-93834606D01*
X109843093Y-93786268D01*
X109856040Y-93774104D01*
X109926847Y-93721847D01*
X110003659Y-93617770D01*
X110046382Y-93495676D01*
X110049099Y-93466697D01*
X110049100Y-93466696D01*
X110049100Y-92813304D01*
X110049099Y-92813301D01*
X110047649Y-92797836D01*
X110046382Y-92784324D01*
X110003659Y-92662230D01*
X109990695Y-92644665D01*
X109976147Y-92595326D01*
X109996717Y-92548178D01*
X110023229Y-92531365D01*
X110022918Y-92530697D01*
X110026886Y-92528846D01*
X110172726Y-92438892D01*
X110172732Y-92438887D01*
X110293887Y-92317732D01*
X110293895Y-92317722D01*
X110369623Y-92194946D01*
X110387601Y-92180729D01*
X110404404Y-92165133D01*
X110407522Y-92164976D01*
X110409972Y-92163040D01*
X110432884Y-92163706D01*
X110455779Y-92162560D01*
X110459529Y-92164481D01*
G37*
%TD.AperFunction*%
%TA.AperFunction,Conductor*%
G36*
X108710850Y-84852958D02*
G01*
X108737254Y-84878605D01*
X108779792Y-84947570D01*
X108779795Y-84947574D01*
X108899925Y-85067704D01*
X108899929Y-85067707D01*
X109044519Y-85156891D01*
X109048487Y-85158742D01*
X109047840Y-85160129D01*
X109083538Y-85188354D01*
X109093941Y-85238730D01*
X109069529Y-85284009D01*
X109064191Y-85288339D01*
X109033495Y-85310994D01*
X108953326Y-85419619D01*
X108953324Y-85419622D01*
X108908738Y-85547046D01*
X108908736Y-85547055D01*
X108905900Y-85577293D01*
X108905900Y-86122706D01*
X108908736Y-86152944D01*
X108908737Y-86152951D01*
X108908738Y-86152953D01*
X108953324Y-86280377D01*
X108953326Y-86280380D01*
X109033495Y-86389005D01*
X109142120Y-86469174D01*
X109142121Y-86469174D01*
X109142124Y-86469176D01*
X109205536Y-86491364D01*
X109211152Y-86495958D01*
X109218300Y-86497219D01*
X109230572Y-86511844D01*
X109245351Y-86523934D01*
X109247605Y-86532144D01*
X109251365Y-86536624D01*
X109255900Y-86562344D01*
X109255900Y-86639212D01*
X109238307Y-86687550D01*
X109205537Y-86710192D01*
X109102232Y-86746339D01*
X109102229Y-86746341D01*
X108998153Y-86823153D01*
X108921341Y-86927229D01*
X108921339Y-86927232D01*
X108878619Y-87049321D01*
X108878617Y-87049330D01*
X108875900Y-87078301D01*
X108875900Y-87581698D01*
X108878143Y-87605614D01*
X108878618Y-87610676D01*
X108878619Y-87610678D01*
X108921339Y-87732767D01*
X108921341Y-87732770D01*
X108998153Y-87836847D01*
X109081066Y-87898039D01*
X109102229Y-87913658D01*
X109102232Y-87913660D01*
X109131539Y-87923915D01*
X109224324Y-87956382D01*
X109253301Y-87959099D01*
X109253304Y-87959100D01*
X109253310Y-87959100D01*
X109906696Y-87959100D01*
X109906697Y-87959099D01*
X109935676Y-87956382D01*
X110057770Y-87913659D01*
X110161847Y-87836847D01*
X110161848Y-87836844D01*
X110162710Y-87836209D01*
X110212049Y-87821661D01*
X110259197Y-87842231D01*
X110271369Y-87857237D01*
X110361107Y-88002726D01*
X110361112Y-88002732D01*
X110482267Y-88123887D01*
X110482273Y-88123892D01*
X110605053Y-88199623D01*
X110636958Y-88239973D01*
X110635462Y-88291391D01*
X110618757Y-88316794D01*
X110615279Y-88320272D01*
X110533989Y-88430416D01*
X110533987Y-88430419D01*
X110488778Y-88559621D01*
X110488776Y-88559630D01*
X110485900Y-88590295D01*
X110485900Y-89149704D01*
X110488776Y-89180369D01*
X110488778Y-89180380D01*
X110491718Y-89188782D01*
X110491075Y-89240218D01*
X110457519Y-89279206D01*
X110406753Y-89287504D01*
X110367563Y-89266790D01*
X110306126Y-89205353D01*
X110284386Y-89158733D01*
X110284100Y-89152179D01*
X110284100Y-88728304D01*
X110284099Y-88728301D01*
X110281382Y-88699324D01*
X110246154Y-88598649D01*
X110238660Y-88577232D01*
X110238658Y-88577229D01*
X110234258Y-88571267D01*
X110161847Y-88473153D01*
X110057770Y-88396341D01*
X110057767Y-88396339D01*
X109964985Y-88363874D01*
X109935676Y-88353618D01*
X109935671Y-88353617D01*
X109935669Y-88353617D01*
X109906698Y-88350900D01*
X109906690Y-88350900D01*
X109253310Y-88350900D01*
X109253301Y-88350900D01*
X109224330Y-88353617D01*
X109224326Y-88353617D01*
X109224324Y-88353618D01*
X109224321Y-88353618D01*
X109224321Y-88353619D01*
X109102232Y-88396339D01*
X109102229Y-88396341D01*
X108998153Y-88473153D01*
X108921341Y-88577229D01*
X108921339Y-88577232D01*
X108878619Y-88699321D01*
X108878617Y-88699330D01*
X108875900Y-88728301D01*
X108875900Y-89231698D01*
X108878617Y-89260669D01*
X108878618Y-89260676D01*
X108885102Y-89279206D01*
X108921339Y-89382767D01*
X108921341Y-89382770D01*
X108998153Y-89486847D01*
X109085338Y-89551192D01*
X109102229Y-89563658D01*
X109102232Y-89563660D01*
X109131539Y-89573915D01*
X109224324Y-89606382D01*
X109253301Y-89609099D01*
X109253304Y-89609100D01*
X109253310Y-89609100D01*
X109677179Y-89609100D01*
X109725517Y-89626693D01*
X109730353Y-89631126D01*
X110846647Y-90747420D01*
X110846649Y-90747423D01*
X110870754Y-90771528D01*
X110876753Y-90777527D01*
X110890204Y-90806376D01*
X110898491Y-90824146D01*
X110898490Y-90824147D01*
X110898491Y-90824148D01*
X110894393Y-90839441D01*
X110886102Y-90870382D01*
X110885176Y-90873835D01*
X110870839Y-90883873D01*
X110843040Y-90903338D01*
X110823577Y-90905900D01*
X110760296Y-90905900D01*
X110729630Y-90908776D01*
X110729626Y-90908776D01*
X110729624Y-90908777D01*
X110729621Y-90908777D01*
X110729621Y-90908778D01*
X110600419Y-90953987D01*
X110600416Y-90953989D01*
X110490272Y-91035279D01*
X110486794Y-91038757D01*
X110440171Y-91060490D01*
X110390486Y-91047169D01*
X110369623Y-91025053D01*
X110293892Y-90902273D01*
X110293887Y-90902267D01*
X110172732Y-90781112D01*
X110172726Y-90781107D01*
X110026887Y-90691154D01*
X110026886Y-90691153D01*
X109864236Y-90637256D01*
X109763838Y-90627000D01*
X109744000Y-90627000D01*
X109744000Y-91534800D01*
X109726407Y-91583138D01*
X109681858Y-91608858D01*
X109668800Y-91610000D01*
X109311200Y-91610000D01*
X109262862Y-91592407D01*
X109237142Y-91547858D01*
X109236000Y-91534800D01*
X109236000Y-90627000D01*
X109216162Y-90627000D01*
X109115763Y-90637256D01*
X108953113Y-90691153D01*
X108953112Y-90691154D01*
X108807273Y-90781107D01*
X108807267Y-90781112D01*
X108726424Y-90861956D01*
X108679804Y-90883696D01*
X108630117Y-90870382D01*
X108600612Y-90828245D01*
X108598050Y-90808782D01*
X108598050Y-84918083D01*
X108615643Y-84869745D01*
X108660192Y-84844025D01*
X108710850Y-84852958D01*
G37*
%TD.AperFunction*%
%TA.AperFunction,Conductor*%
G36*
X119791492Y-89408017D02*
G01*
X120570181Y-90186706D01*
X120573697Y-90190471D01*
X120578488Y-90195968D01*
X120596649Y-90227423D01*
X120662577Y-90293351D01*
X120662579Y-90293352D01*
X120668696Y-90299469D01*
X120987663Y-90618436D01*
X121009403Y-90665056D01*
X120996089Y-90714743D01*
X120953952Y-90744248D01*
X120934489Y-90746810D01*
X119536257Y-90746810D01*
X119487919Y-90729217D01*
X119462199Y-90684668D01*
X119471132Y-90634010D01*
X119475419Y-90627408D01*
X119520384Y-90565518D01*
X119617425Y-90375064D01*
X119617426Y-90375062D01*
X119683482Y-90171761D01*
X119693618Y-90107770D01*
X118789623Y-90107770D01*
X118824845Y-90046763D01*
X118858920Y-89919596D01*
X118858920Y-89787944D01*
X118824845Y-89660777D01*
X118789623Y-89599770D01*
X119693618Y-89599770D01*
X119683481Y-89535773D01*
X119683480Y-89535770D01*
X119666799Y-89484429D01*
X119668594Y-89433021D01*
X119703014Y-89394793D01*
X119753953Y-89387634D01*
X119791492Y-89408017D01*
G37*
%TD.AperFunction*%
%TA.AperFunction,Conductor*%
G36*
X127244273Y-68034693D02*
G01*
X127269993Y-68079242D01*
X127261060Y-68129900D01*
X127249109Y-68145474D01*
X122937709Y-72456874D01*
X122891089Y-72478614D01*
X122884535Y-72478900D01*
X122361384Y-72478900D01*
X122169904Y-72516987D01*
X122169903Y-72516988D01*
X121989539Y-72591697D01*
X121827207Y-72700164D01*
X121827204Y-72700166D01*
X121689166Y-72838204D01*
X121689164Y-72838207D01*
X121580697Y-73000539D01*
X121505988Y-73180903D01*
X121505987Y-73180904D01*
X121467900Y-73372384D01*
X121467900Y-73567615D01*
X121505987Y-73759095D01*
X121505988Y-73759096D01*
X121525667Y-73806605D01*
X121580698Y-73939462D01*
X121689162Y-74101790D01*
X121689164Y-74101792D01*
X121689166Y-74101795D01*
X121827204Y-74239833D01*
X121827207Y-74239835D01*
X121827210Y-74239838D01*
X121989538Y-74348302D01*
X122169903Y-74423011D01*
X122169904Y-74423012D01*
X122169905Y-74423012D01*
X122169907Y-74423013D01*
X122283013Y-74445511D01*
X122361384Y-74461100D01*
X122361385Y-74461100D01*
X123387535Y-74461100D01*
X123435873Y-74478693D01*
X123440709Y-74483126D01*
X124030120Y-75072538D01*
X124030129Y-75072546D01*
X124150849Y-75153208D01*
X124150852Y-75153210D01*
X124284992Y-75208772D01*
X124284993Y-75208773D01*
X124284994Y-75208773D01*
X124284996Y-75208774D01*
X124380361Y-75227743D01*
X124427401Y-75237100D01*
X124427402Y-75237100D01*
X124572599Y-75237100D01*
X124607958Y-75230066D01*
X124715004Y-75208774D01*
X124849148Y-75153210D01*
X124969874Y-75072543D01*
X125072543Y-74969874D01*
X131292543Y-68749874D01*
X131299203Y-68739906D01*
X131373210Y-68629148D01*
X131420361Y-68515315D01*
X131428774Y-68495005D01*
X131457100Y-68352598D01*
X131457100Y-68207402D01*
X131457100Y-68092300D01*
X131474693Y-68043962D01*
X131519242Y-68018242D01*
X131532300Y-68017100D01*
X137813184Y-68017100D01*
X137821105Y-68019982D01*
X137829462Y-68018883D01*
X137844623Y-68028542D01*
X137861522Y-68034693D01*
X137865737Y-68041994D01*
X137872845Y-68046523D01*
X137878250Y-68063667D01*
X137887242Y-68079242D01*
X137886189Y-68088849D01*
X137888312Y-68095582D01*
X137882659Y-68121077D01*
X137878671Y-68130706D01*
X137863580Y-68167137D01*
X137847279Y-68191531D01*
X137258237Y-68780575D01*
X137224149Y-68814663D01*
X137150418Y-68888393D01*
X137150417Y-68888395D01*
X137074178Y-69020444D01*
X137062270Y-69064887D01*
X137034713Y-69167730D01*
X137034713Y-69167732D01*
X137034713Y-72043254D01*
X137017120Y-72091592D01*
X137012687Y-72096428D01*
X135440241Y-73668874D01*
X135393621Y-73690614D01*
X135387067Y-73690900D01*
X130316239Y-73690900D01*
X130163760Y-73690900D01*
X130016475Y-73730365D01*
X130016473Y-73730365D01*
X129884423Y-73806604D01*
X128235665Y-75455364D01*
X128189045Y-75477104D01*
X128182491Y-75477390D01*
X126420806Y-75477390D01*
X126392028Y-75471666D01*
X126343505Y-75451567D01*
X126343503Y-75451566D01*
X126221962Y-75427390D01*
X126221961Y-75427390D01*
X126098039Y-75427390D01*
X126098038Y-75427390D01*
X125976501Y-75451565D01*
X125976498Y-75451566D01*
X125862010Y-75498988D01*
X125758969Y-75567838D01*
X125758966Y-75567840D01*
X125671350Y-75655456D01*
X125671348Y-75655459D01*
X125602498Y-75758500D01*
X125555076Y-75872988D01*
X125555075Y-75872991D01*
X125530900Y-75994528D01*
X125530900Y-75994529D01*
X125530900Y-76118451D01*
X125555076Y-76239992D01*
X125602499Y-76354481D01*
X125671346Y-76457518D01*
X125671347Y-76457519D01*
X125671348Y-76457520D01*
X125671350Y-76457523D01*
X125758966Y-76545139D01*
X125758969Y-76545141D01*
X125758972Y-76545144D01*
X125862009Y-76613991D01*
X125976498Y-76661414D01*
X126053110Y-76676653D01*
X126098038Y-76685590D01*
X126098039Y-76685590D01*
X126221962Y-76685590D01*
X126246138Y-76680780D01*
X126343502Y-76661414D01*
X126392028Y-76641314D01*
X126420806Y-76635590D01*
X128529747Y-76635590D01*
X128529750Y-76635590D01*
X128677034Y-76596125D01*
X128809086Y-76519885D01*
X129088983Y-76239988D01*
X129334444Y-75994528D01*
X134249980Y-75994528D01*
X134249980Y-75994529D01*
X134249980Y-76118451D01*
X134274156Y-76239992D01*
X134321579Y-76354481D01*
X134390426Y-76457518D01*
X134390427Y-76457519D01*
X134390428Y-76457520D01*
X134390430Y-76457523D01*
X134478046Y-76545139D01*
X134478049Y-76545141D01*
X134478052Y-76545144D01*
X134581089Y-76613991D01*
X134695578Y-76661414D01*
X134772190Y-76676653D01*
X134817118Y-76685590D01*
X134817119Y-76685590D01*
X134941042Y-76685590D01*
X134965349Y-76680754D01*
X135062582Y-76661414D01*
X135177071Y-76613991D01*
X135280108Y-76545144D01*
X135367734Y-76457518D01*
X135384867Y-76431876D01*
X135426348Y-76401460D01*
X135477678Y-76404823D01*
X135509919Y-76431875D01*
X135537236Y-76472758D01*
X135537238Y-76472760D01*
X135537240Y-76472763D01*
X135624856Y-76560379D01*
X135624859Y-76560381D01*
X135624862Y-76560384D01*
X135727899Y-76629231D01*
X135842388Y-76676654D01*
X135933543Y-76694786D01*
X135963928Y-76700830D01*
X135963929Y-76700830D01*
X136087852Y-76700830D01*
X136112159Y-76695994D01*
X136209392Y-76676654D01*
X136323881Y-76629231D01*
X136419721Y-76565193D01*
X136469687Y-76552966D01*
X136503279Y-76565193D01*
X136599119Y-76629231D01*
X136713608Y-76676654D01*
X136804763Y-76694786D01*
X136835148Y-76700830D01*
X136835149Y-76700830D01*
X136959072Y-76700830D01*
X136983379Y-76695994D01*
X137080612Y-76676654D01*
X137195101Y-76629231D01*
X137298138Y-76560384D01*
X137385764Y-76472758D01*
X137454611Y-76369721D01*
X137502034Y-76255232D01*
X137526210Y-76133691D01*
X137526210Y-76009769D01*
X137502034Y-75888228D01*
X137454611Y-75773739D01*
X137385764Y-75670702D01*
X137385761Y-75670699D01*
X137385759Y-75670696D01*
X137298143Y-75583080D01*
X137298140Y-75583078D01*
X137298138Y-75583076D01*
X137195101Y-75514229D01*
X137080612Y-75466806D01*
X137080609Y-75466805D01*
X137080608Y-75466805D01*
X136959072Y-75442630D01*
X136959071Y-75442630D01*
X136835149Y-75442630D01*
X136835148Y-75442630D01*
X136713611Y-75466805D01*
X136713608Y-75466806D01*
X136599117Y-75514229D01*
X136503278Y-75578267D01*
X136453313Y-75590493D01*
X136419722Y-75578267D01*
X136323882Y-75514229D01*
X136266636Y-75490517D01*
X136209392Y-75466806D01*
X136209389Y-75466805D01*
X136209388Y-75466805D01*
X136087852Y-75442630D01*
X136087851Y-75442630D01*
X135963929Y-75442630D01*
X135963928Y-75442630D01*
X135842391Y-75466805D01*
X135842388Y-75466806D01*
X135727900Y-75514228D01*
X135624859Y-75583078D01*
X135624856Y-75583080D01*
X135537240Y-75670696D01*
X135537236Y-75670701D01*
X135520102Y-75696344D01*
X135478618Y-75726760D01*
X135427288Y-75723395D01*
X135395049Y-75696342D01*
X135367735Y-75655463D01*
X135367729Y-75655456D01*
X135280113Y-75567840D01*
X135280110Y-75567838D01*
X135280108Y-75567836D01*
X135177071Y-75498989D01*
X135062582Y-75451566D01*
X135062579Y-75451565D01*
X135062578Y-75451565D01*
X134941042Y-75427390D01*
X134941041Y-75427390D01*
X134817119Y-75427390D01*
X134817118Y-75427390D01*
X134695581Y-75451565D01*
X134695578Y-75451566D01*
X134581090Y-75498988D01*
X134478049Y-75567838D01*
X134478046Y-75567840D01*
X134390430Y-75655456D01*
X134390428Y-75655459D01*
X134321578Y-75758500D01*
X134274156Y-75872988D01*
X134274155Y-75872991D01*
X134249980Y-75994528D01*
X129334444Y-75994528D01*
X129391311Y-75937661D01*
X130457845Y-74871126D01*
X130504465Y-74849386D01*
X130511019Y-74849100D01*
X135734323Y-74849100D01*
X135734326Y-74849100D01*
X135881610Y-74809635D01*
X136013662Y-74733395D01*
X136537860Y-74209197D01*
X137098708Y-73648350D01*
X137561756Y-73185302D01*
X138077205Y-72669852D01*
X138077209Y-72669848D01*
X138153448Y-72537797D01*
X138159024Y-72516987D01*
X138192913Y-72390513D01*
X138192913Y-69514988D01*
X138210506Y-69466650D01*
X138214928Y-69461825D01*
X138666252Y-69010500D01*
X138690643Y-68994202D01*
X138739174Y-68974101D01*
X138842211Y-68905254D01*
X138929837Y-68817628D01*
X138998684Y-68714591D01*
X139046107Y-68600102D01*
X139070283Y-68478561D01*
X139070283Y-68354639D01*
X139046107Y-68233098D01*
X138999705Y-68121076D01*
X138999338Y-68112657D01*
X138995124Y-68105358D01*
X138998246Y-68087651D01*
X138997462Y-68069687D01*
X139002593Y-68062999D01*
X139004057Y-68054700D01*
X139017830Y-68043142D01*
X139028777Y-68028877D01*
X139038053Y-68026173D01*
X139043462Y-68021635D01*
X139069182Y-68017100D01*
X139213195Y-68017100D01*
X139261533Y-68034693D01*
X139266369Y-68039126D01*
X139972317Y-68745074D01*
X140041906Y-68814663D01*
X140074986Y-68847743D01*
X140074989Y-68847746D01*
X140195709Y-68928408D01*
X140195712Y-68928410D01*
X140285618Y-68965650D01*
X140329855Y-68983974D01*
X140472262Y-69012300D01*
X140475937Y-69012662D01*
X140475764Y-69014412D01*
X140518298Y-69029893D01*
X140544018Y-69074442D01*
X140539436Y-69116275D01*
X140516152Y-69172489D01*
X140493035Y-69228298D01*
X140493034Y-69228301D01*
X140468859Y-69349838D01*
X140468859Y-69473761D01*
X140484729Y-69553548D01*
X140493035Y-69595302D01*
X140540458Y-69709791D01*
X140609305Y-69812828D01*
X140609307Y-69812830D01*
X140609309Y-69812833D01*
X140696925Y-69900449D01*
X140696928Y-69900451D01*
X140696931Y-69900454D01*
X140799968Y-69969301D01*
X140914457Y-70016724D01*
X141005612Y-70034856D01*
X141035997Y-70040900D01*
X141035998Y-70040900D01*
X141159922Y-70040900D01*
X141165885Y-70039713D01*
X141175849Y-70037731D01*
X141226689Y-70045553D01*
X141243697Y-70058311D01*
X142338273Y-71152887D01*
X142359043Y-71192377D01*
X142360299Y-71199164D01*
X142360299Y-71218715D01*
X142371230Y-71259509D01*
X142371992Y-71262355D01*
X142371996Y-71262373D01*
X142384430Y-71308774D01*
X142431048Y-71389518D01*
X142431047Y-71389518D01*
X142431048Y-71389519D01*
X142431049Y-71389520D01*
X142433870Y-71392341D01*
X142455613Y-71438959D01*
X142455900Y-71445519D01*
X142455900Y-72730802D01*
X142438307Y-72779140D01*
X142393758Y-72804860D01*
X142343100Y-72795927D01*
X142319862Y-72775004D01*
X142223700Y-72642649D01*
X142223693Y-72642641D01*
X142082358Y-72501306D01*
X142082344Y-72501294D01*
X141920629Y-72383801D01*
X141742510Y-72293044D01*
X141552396Y-72231273D01*
X141552384Y-72231270D01*
X141354953Y-72200000D01*
X141001000Y-72200000D01*
X141001000Y-73088718D01*
X140923473Y-73043958D01*
X140807192Y-73012800D01*
X140686808Y-73012800D01*
X140570527Y-73043958D01*
X140493000Y-73088718D01*
X140493000Y-72200000D01*
X140139046Y-72200000D01*
X139941615Y-72231270D01*
X139941603Y-72231273D01*
X139751489Y-72293044D01*
X139573370Y-72383801D01*
X139411655Y-72501294D01*
X139411641Y-72501306D01*
X139270306Y-72642641D01*
X139270294Y-72642655D01*
X139152801Y-72804370D01*
X139062044Y-72982489D01*
X139000272Y-73172607D01*
X139000271Y-73172610D01*
X138993398Y-73215999D01*
X138993399Y-73216000D01*
X140365718Y-73216000D01*
X140320958Y-73293527D01*
X140289800Y-73409808D01*
X140289800Y-73530192D01*
X140320958Y-73646473D01*
X140365718Y-73724000D01*
X138993399Y-73724000D01*
X139000271Y-73767389D01*
X139000272Y-73767392D01*
X139062044Y-73957510D01*
X139152801Y-74135629D01*
X139270294Y-74297344D01*
X139270306Y-74297358D01*
X139411641Y-74438693D01*
X139411655Y-74438705D01*
X139573370Y-74556198D01*
X139751489Y-74646955D01*
X139941603Y-74708726D01*
X139941615Y-74708729D01*
X140139046Y-74739999D01*
X140139053Y-74740000D01*
X140493000Y-74740000D01*
X140493000Y-73851281D01*
X140570527Y-73896042D01*
X140686808Y-73927200D01*
X140807192Y-73927200D01*
X140923473Y-73896042D01*
X141001000Y-73851281D01*
X141001000Y-74740000D01*
X141354947Y-74740000D01*
X141354953Y-74739999D01*
X141552384Y-74708729D01*
X141552396Y-74708726D01*
X141742510Y-74646955D01*
X141920629Y-74556198D01*
X142082344Y-74438705D01*
X142082358Y-74438693D01*
X142223693Y-74297358D01*
X142223705Y-74297344D01*
X142319862Y-74164996D01*
X142362507Y-74136231D01*
X142413665Y-74141608D01*
X142449399Y-74178610D01*
X142455900Y-74209197D01*
X142455900Y-80863625D01*
X142450651Y-80878045D01*
X142449769Y-80893366D01*
X142439641Y-80908296D01*
X142438307Y-80911963D01*
X142435431Y-80915195D01*
X142434647Y-80916026D01*
X142420249Y-80930425D01*
X142418933Y-80932704D01*
X142413977Y-80937964D01*
X142394194Y-80947915D01*
X142375510Y-80959814D01*
X142371572Y-80959294D01*
X142368024Y-80961080D01*
X142346471Y-80955986D01*
X142324512Y-80953092D01*
X142318061Y-80949272D01*
X142317963Y-80949249D01*
X142317916Y-80949186D01*
X142317468Y-80948921D01*
X142247992Y-80902499D01*
X142188954Y-80878045D01*
X142133502Y-80855076D01*
X142133499Y-80855075D01*
X142133498Y-80855075D01*
X142011962Y-80830900D01*
X142011961Y-80830900D01*
X141888039Y-80830900D01*
X141888038Y-80830900D01*
X141766501Y-80855075D01*
X141766498Y-80855076D01*
X141652010Y-80902498D01*
X141548969Y-80971348D01*
X141548966Y-80971350D01*
X141461350Y-81058966D01*
X141461346Y-81058972D01*
X141452320Y-81072480D01*
X141410838Y-81102896D01*
X141389795Y-81105900D01*
X137171111Y-81105900D01*
X137122773Y-81088307D01*
X137117937Y-81083874D01*
X136760031Y-80725968D01*
X136738291Y-80679348D01*
X136739450Y-80658123D01*
X136742620Y-80642191D01*
X136742620Y-80518269D01*
X136718444Y-80396728D01*
X136671021Y-80282239D01*
X136602174Y-80179202D01*
X136602171Y-80179199D01*
X136602169Y-80179196D01*
X136514553Y-80091580D01*
X136514550Y-80091578D01*
X136514548Y-80091576D01*
X136411511Y-80022729D01*
X136407409Y-80021030D01*
X136377976Y-80008838D01*
X136297022Y-79975306D01*
X136297019Y-79975305D01*
X136297018Y-79975305D01*
X136175482Y-79951130D01*
X136175481Y-79951130D01*
X136051559Y-79951130D01*
X136051558Y-79951130D01*
X135930021Y-79975305D01*
X135930018Y-79975306D01*
X135815530Y-80022728D01*
X135712489Y-80091578D01*
X135712486Y-80091580D01*
X135624870Y-80179196D01*
X135624868Y-80179199D01*
X135556018Y-80282240D01*
X135508596Y-80396728D01*
X135508595Y-80396731D01*
X135484420Y-80518268D01*
X135484420Y-80642191D01*
X135508595Y-80763728D01*
X135508597Y-80763735D01*
X135522377Y-80797003D01*
X135524620Y-80848394D01*
X135493305Y-80889204D01*
X135443084Y-80900337D01*
X135399727Y-80878954D01*
X134235643Y-79714870D01*
X134235631Y-79714856D01*
X134165427Y-79644652D01*
X134165421Y-79644648D01*
X134084679Y-79598031D01*
X134057676Y-79590796D01*
X134057676Y-79590795D01*
X134057674Y-79590795D01*
X133994619Y-79573899D01*
X133994618Y-79573899D01*
X133901382Y-79573899D01*
X133896779Y-79573899D01*
X133896763Y-79573900D01*
X126313970Y-79573900D01*
X126265632Y-79556307D01*
X126240215Y-79513371D01*
X126239848Y-79511526D01*
X126224924Y-79436498D01*
X126177501Y-79322009D01*
X126108654Y-79218972D01*
X126108651Y-79218969D01*
X126108649Y-79218966D01*
X126021033Y-79131350D01*
X126021030Y-79131348D01*
X126021028Y-79131346D01*
X125917991Y-79062499D01*
X125803502Y-79015076D01*
X125803499Y-79015075D01*
X125803498Y-79015075D01*
X125681962Y-78990900D01*
X125681961Y-78990900D01*
X125558039Y-78990900D01*
X125558038Y-78990900D01*
X125436501Y-79015075D01*
X125436498Y-79015076D01*
X125322010Y-79062498D01*
X125218969Y-79131348D01*
X125218966Y-79131350D01*
X125131350Y-79218966D01*
X125131348Y-79218969D01*
X125062498Y-79322010D01*
X125015076Y-79436498D01*
X125015075Y-79436501D01*
X124990900Y-79558038D01*
X124990900Y-79558039D01*
X124990900Y-79681961D01*
X125015076Y-79803502D01*
X125020423Y-79816410D01*
X125051813Y-79892194D01*
X125062499Y-79917991D01*
X125131346Y-80021028D01*
X125131348Y-80021030D01*
X125131350Y-80021033D01*
X125218966Y-80108649D01*
X125218969Y-80108651D01*
X125218972Y-80108654D01*
X125322009Y-80177501D01*
X125436498Y-80224924D01*
X125527653Y-80243056D01*
X125558038Y-80249100D01*
X125558039Y-80249100D01*
X125681961Y-80249100D01*
X125724112Y-80240715D01*
X125734284Y-80241687D01*
X125741633Y-80239324D01*
X125757535Y-80243909D01*
X125767163Y-80244830D01*
X125771927Y-80246771D01*
X125791322Y-80257969D01*
X125810354Y-80263068D01*
X125881382Y-80282101D01*
X125979221Y-80282101D01*
X125979237Y-80282100D01*
X133770179Y-80282100D01*
X133818517Y-80299693D01*
X133823353Y-80304126D01*
X136653176Y-83133949D01*
X136674916Y-83180569D01*
X136661602Y-83230256D01*
X136653176Y-83240297D01*
X136056765Y-83836709D01*
X135472579Y-84420895D01*
X135472577Y-84420897D01*
X135442625Y-84450849D01*
X135406649Y-84486824D01*
X135406648Y-84486826D01*
X135355081Y-84576144D01*
X135352141Y-84574446D01*
X135332432Y-84602593D01*
X135282744Y-84615906D01*
X135236124Y-84594165D01*
X135214386Y-84547544D01*
X135214100Y-84540992D01*
X135214100Y-84301674D01*
X135214100Y-84301672D01*
X135189969Y-84211612D01*
X135189968Y-84211611D01*
X135189968Y-84211609D01*
X135156213Y-84153145D01*
X135143351Y-84130867D01*
X135143349Y-84130865D01*
X135143347Y-84130862D01*
X135074808Y-84062323D01*
X135074785Y-84062302D01*
X133325733Y-82313250D01*
X133303993Y-82266630D01*
X133317307Y-82216943D01*
X133359444Y-82187438D01*
X133393577Y-82186321D01*
X133399193Y-82187438D01*
X133468378Y-82201200D01*
X133468379Y-82201200D01*
X133592302Y-82201200D01*
X133623179Y-82195058D01*
X133713842Y-82177024D01*
X133828331Y-82129601D01*
X133931368Y-82060754D01*
X134018994Y-81973128D01*
X134087841Y-81870091D01*
X134135264Y-81755602D01*
X134159440Y-81634061D01*
X134159440Y-81510139D01*
X134135264Y-81388598D01*
X134087841Y-81274109D01*
X134018994Y-81171072D01*
X134018991Y-81171069D01*
X134018989Y-81171066D01*
X133931373Y-81083450D01*
X133931370Y-81083448D01*
X133931368Y-81083446D01*
X133828331Y-81014599D01*
X133825803Y-81013552D01*
X133793694Y-81000252D01*
X133713842Y-80967176D01*
X133713839Y-80967175D01*
X133713838Y-80967175D01*
X133592302Y-80943000D01*
X133592301Y-80943000D01*
X133468379Y-80943000D01*
X133468378Y-80943000D01*
X133346841Y-80967175D01*
X133346838Y-80967176D01*
X133232350Y-81014598D01*
X133129309Y-81083448D01*
X133129306Y-81083450D01*
X133041691Y-81171065D01*
X133041688Y-81171069D01*
X133012294Y-81215060D01*
X132970810Y-81245476D01*
X132949768Y-81248480D01*
X128272690Y-81248480D01*
X128224352Y-81230887D01*
X128219516Y-81226454D01*
X128147064Y-81154002D01*
X128147061Y-81154000D01*
X128147059Y-81153998D01*
X128044022Y-81085151D01*
X128039915Y-81083450D01*
X127980806Y-81058966D01*
X127929533Y-81037728D01*
X127929530Y-81037727D01*
X127929529Y-81037727D01*
X127807993Y-81013552D01*
X127807992Y-81013552D01*
X127684070Y-81013552D01*
X127684069Y-81013552D01*
X127562532Y-81037727D01*
X127562529Y-81037728D01*
X127448041Y-81085150D01*
X127345000Y-81154000D01*
X127344997Y-81154002D01*
X127257381Y-81241618D01*
X127257379Y-81241621D01*
X127188529Y-81344662D01*
X127141107Y-81459150D01*
X127141106Y-81459153D01*
X127116931Y-81580690D01*
X127116931Y-81704613D01*
X127140861Y-81824920D01*
X127141107Y-81826154D01*
X127188530Y-81940643D01*
X127245335Y-82025658D01*
X127250531Y-82046893D01*
X127258008Y-82067435D01*
X127256542Y-82071461D01*
X127257561Y-82075623D01*
X127247891Y-82095231D01*
X127240415Y-82115773D01*
X127235888Y-82119571D01*
X127234810Y-82121758D01*
X127220408Y-82132561D01*
X127180113Y-82155825D01*
X127142515Y-82165900D01*
X116487821Y-82165900D01*
X116439483Y-82148307D01*
X116434647Y-82143874D01*
X116116511Y-81825738D01*
X116094771Y-81779118D01*
X116095930Y-81757893D01*
X116099100Y-81741961D01*
X116099100Y-81618039D01*
X116074924Y-81496498D01*
X116027501Y-81382009D01*
X115958654Y-81278972D01*
X115958651Y-81278969D01*
X115958649Y-81278966D01*
X115871033Y-81191350D01*
X115871030Y-81191348D01*
X115871028Y-81191346D01*
X115767991Y-81122499D01*
X115653502Y-81075076D01*
X115653499Y-81075075D01*
X115653498Y-81075075D01*
X115531962Y-81050900D01*
X115531961Y-81050900D01*
X115408039Y-81050900D01*
X115408038Y-81050900D01*
X115286501Y-81075075D01*
X115286498Y-81075076D01*
X115172010Y-81122498D01*
X115068969Y-81191348D01*
X115068966Y-81191350D01*
X114981350Y-81278966D01*
X114981348Y-81278969D01*
X114912498Y-81382010D01*
X114865076Y-81496498D01*
X114865075Y-81496501D01*
X114840900Y-81618038D01*
X114840900Y-81741961D01*
X114857401Y-81824920D01*
X114865076Y-81863502D01*
X114876898Y-81892042D01*
X114910485Y-81973130D01*
X114912499Y-81977991D01*
X114981346Y-82081028D01*
X114981348Y-82081030D01*
X114981350Y-82081033D01*
X115068966Y-82168649D01*
X115068969Y-82168651D01*
X115068972Y-82168654D01*
X115172009Y-82237501D01*
X115256734Y-82272595D01*
X115294659Y-82307348D01*
X115301373Y-82358347D01*
X115273735Y-82401731D01*
X115256734Y-82411547D01*
X115182010Y-82442498D01*
X115078969Y-82511348D01*
X115078966Y-82511350D01*
X114991350Y-82598966D01*
X114991348Y-82598969D01*
X114922498Y-82702010D01*
X114875076Y-82816498D01*
X114875075Y-82816501D01*
X114850900Y-82938038D01*
X114850900Y-83061961D01*
X114874492Y-83180569D01*
X114875076Y-83183502D01*
X114922499Y-83297991D01*
X114991346Y-83401028D01*
X114991348Y-83401030D01*
X114991350Y-83401033D01*
X115078966Y-83488649D01*
X115078969Y-83488651D01*
X115078972Y-83488654D01*
X115182009Y-83557501D01*
X115296498Y-83604924D01*
X115387653Y-83623056D01*
X115418038Y-83629100D01*
X115418039Y-83629100D01*
X115450700Y-83629100D01*
X115499038Y-83646693D01*
X115524758Y-83691242D01*
X115525900Y-83704300D01*
X115525900Y-85961708D01*
X115525899Y-85961712D01*
X115525899Y-86054948D01*
X115533510Y-86083350D01*
X115535383Y-86090343D01*
X115535384Y-86090344D01*
X115550031Y-86145009D01*
X115596648Y-86225751D01*
X115596652Y-86225757D01*
X115666856Y-86295961D01*
X115666870Y-86295973D01*
X116573094Y-87202197D01*
X116580031Y-87217073D01*
X116590585Y-87229651D01*
X116593435Y-87245818D01*
X116594834Y-87248817D01*
X116595120Y-87255371D01*
X116595120Y-87307029D01*
X116577527Y-87355367D01*
X116532978Y-87381087D01*
X116482320Y-87372154D01*
X116466746Y-87360203D01*
X116381878Y-87275335D01*
X116381875Y-87275333D01*
X116381873Y-87275331D01*
X116278836Y-87206484D01*
X116268486Y-87202197D01*
X116245301Y-87192593D01*
X116164347Y-87159061D01*
X116164344Y-87159060D01*
X116164343Y-87159060D01*
X116042807Y-87134885D01*
X116042806Y-87134885D01*
X115918884Y-87134885D01*
X115918883Y-87134885D01*
X115797346Y-87159060D01*
X115797343Y-87159061D01*
X115682855Y-87206483D01*
X115579814Y-87275333D01*
X115579811Y-87275335D01*
X115492195Y-87362951D01*
X115492193Y-87362954D01*
X115423343Y-87465995D01*
X115375921Y-87580483D01*
X115375920Y-87580486D01*
X115351745Y-87702023D01*
X115351745Y-87825946D01*
X115374212Y-87938898D01*
X115375921Y-87947487D01*
X115423344Y-88061976D01*
X115492191Y-88165013D01*
X115492193Y-88165015D01*
X115492195Y-88165018D01*
X115579811Y-88252634D01*
X115579814Y-88252636D01*
X115579817Y-88252639D01*
X115682854Y-88321486D01*
X115797343Y-88368909D01*
X115918642Y-88393036D01*
X115962617Y-88419721D01*
X115979170Y-88466791D01*
X115979170Y-88916461D01*
X115961577Y-88964799D01*
X115917028Y-88990519D01*
X115871663Y-88983286D01*
X115871404Y-88983913D01*
X115868782Y-88982827D01*
X115868531Y-88982787D01*
X115867997Y-88982502D01*
X115867993Y-88982500D01*
X115867991Y-88982499D01*
X115753502Y-88935076D01*
X115753499Y-88935075D01*
X115753498Y-88935075D01*
X115631962Y-88910900D01*
X115631961Y-88910900D01*
X115508039Y-88910900D01*
X115508038Y-88910900D01*
X115386501Y-88935075D01*
X115386494Y-88935077D01*
X115274477Y-88981476D01*
X115223086Y-88983719D01*
X115182277Y-88952405D01*
X115170500Y-88912000D01*
X115170500Y-87283732D01*
X115171945Y-87269061D01*
X115197100Y-87142598D01*
X115197100Y-84727401D01*
X115181046Y-84646693D01*
X115168774Y-84584996D01*
X115113210Y-84450852D01*
X115094575Y-84422963D01*
X115032546Y-84330129D01*
X115032543Y-84330126D01*
X114982971Y-84280554D01*
X114929874Y-84227457D01*
X114539126Y-83836709D01*
X114517386Y-83790089D01*
X114517100Y-83783535D01*
X114517100Y-74498685D01*
X114534693Y-74450347D01*
X114539126Y-74445511D01*
X119066080Y-69918557D01*
X119066083Y-69918554D01*
X119146750Y-69797828D01*
X119202314Y-69663684D01*
X119224221Y-69553545D01*
X119244799Y-69515046D01*
X119353846Y-69405999D01*
X121213398Y-69405999D01*
X121213399Y-69406000D01*
X122585718Y-69406000D01*
X122540958Y-69483527D01*
X122509800Y-69599808D01*
X122509800Y-69720192D01*
X122540958Y-69836473D01*
X122585718Y-69914000D01*
X121213399Y-69914000D01*
X121220271Y-69957389D01*
X121220272Y-69957392D01*
X121282044Y-70147510D01*
X121372801Y-70325629D01*
X121490294Y-70487344D01*
X121490306Y-70487358D01*
X121631641Y-70628693D01*
X121631655Y-70628705D01*
X121793370Y-70746198D01*
X121971489Y-70836955D01*
X122161603Y-70898726D01*
X122161615Y-70898729D01*
X122359046Y-70929999D01*
X122359053Y-70930000D01*
X122713000Y-70930000D01*
X122713000Y-70041281D01*
X122790527Y-70086042D01*
X122906808Y-70117200D01*
X123027192Y-70117200D01*
X123143473Y-70086042D01*
X123221000Y-70041281D01*
X123221000Y-70930000D01*
X123574947Y-70930000D01*
X123574953Y-70929999D01*
X123772384Y-70898729D01*
X123772396Y-70898726D01*
X123962510Y-70836955D01*
X124140629Y-70746198D01*
X124302344Y-70628705D01*
X124302358Y-70628693D01*
X124443693Y-70487358D01*
X124443705Y-70487344D01*
X124561198Y-70325629D01*
X124651955Y-70147510D01*
X124713727Y-69957392D01*
X124713728Y-69957389D01*
X124720601Y-69914000D01*
X123348282Y-69914000D01*
X123393042Y-69836473D01*
X123424200Y-69720192D01*
X123424200Y-69599808D01*
X123393042Y-69483527D01*
X123348282Y-69406000D01*
X124720601Y-69406000D01*
X124720601Y-69405999D01*
X124713728Y-69362610D01*
X124713727Y-69362607D01*
X124651955Y-69172489D01*
X124561198Y-68994370D01*
X124443705Y-68832655D01*
X124443693Y-68832641D01*
X124302358Y-68691306D01*
X124302344Y-68691294D01*
X124140629Y-68573801D01*
X123962510Y-68483044D01*
X123772396Y-68421273D01*
X123772384Y-68421270D01*
X123574953Y-68390000D01*
X123221000Y-68390000D01*
X123221000Y-69278718D01*
X123143473Y-69233958D01*
X123027192Y-69202800D01*
X122906808Y-69202800D01*
X122790527Y-69233958D01*
X122713000Y-69278718D01*
X122713000Y-68390000D01*
X122359046Y-68390000D01*
X122161615Y-68421270D01*
X122161603Y-68421273D01*
X121971489Y-68483044D01*
X121793370Y-68573801D01*
X121631655Y-68691294D01*
X121631641Y-68691306D01*
X121490306Y-68832641D01*
X121490294Y-68832655D01*
X121372801Y-68994370D01*
X121282044Y-69172489D01*
X121220272Y-69362607D01*
X121220271Y-69362610D01*
X121213398Y-69405999D01*
X119353846Y-69405999D01*
X120720721Y-68039126D01*
X120767341Y-68017386D01*
X120773895Y-68017100D01*
X127195935Y-68017100D01*
X127244273Y-68034693D01*
G37*
%TD.AperFunction*%
%TA.AperFunction,Conductor*%
G36*
X144773790Y-86889276D02*
G01*
X144789364Y-86901227D01*
X145567998Y-87679861D01*
X145589738Y-87726481D01*
X145577352Y-87774812D01*
X145552499Y-87812008D01*
X145505076Y-87926498D01*
X145505075Y-87926501D01*
X145480900Y-88048038D01*
X145480900Y-88171961D01*
X145503921Y-88287698D01*
X145505076Y-88293502D01*
X145528851Y-88350900D01*
X145547672Y-88396339D01*
X145552499Y-88407991D01*
X145621346Y-88511028D01*
X145621348Y-88511030D01*
X145621350Y-88511033D01*
X145708966Y-88598649D01*
X145708969Y-88598651D01*
X145708972Y-88598654D01*
X145812009Y-88667501D01*
X145926498Y-88714924D01*
X146017653Y-88733056D01*
X146048038Y-88739100D01*
X146097724Y-88739100D01*
X146118996Y-88746842D01*
X146140857Y-88752700D01*
X146142829Y-88755516D01*
X146146062Y-88756693D01*
X146157381Y-88776298D01*
X146170362Y-88794837D01*
X146170062Y-88798263D01*
X146171782Y-88801242D01*
X146167850Y-88823535D01*
X146165878Y-88846081D01*
X146163200Y-88849904D01*
X146162849Y-88851900D01*
X146150898Y-88867474D01*
X146149788Y-88868584D01*
X146103168Y-88890324D01*
X146096614Y-88890610D01*
X143752822Y-88890610D01*
X143719982Y-88882726D01*
X143719952Y-88882801D01*
X143719480Y-88882605D01*
X143718684Y-88882414D01*
X143717221Y-88881669D01*
X143717214Y-88881666D01*
X143717210Y-88881665D01*
X143608764Y-88846429D01*
X143568229Y-88814760D01*
X143557534Y-88764444D01*
X143581683Y-88719025D01*
X143629378Y-88699756D01*
X143632002Y-88699710D01*
X144201572Y-88699710D01*
X144201583Y-88699709D01*
X144262082Y-88693205D01*
X144262085Y-88693204D01*
X144398953Y-88642154D01*
X144398955Y-88642153D01*
X144515893Y-88554613D01*
X144603433Y-88437675D01*
X144603434Y-88437673D01*
X144654484Y-88300805D01*
X144654485Y-88300802D01*
X144660989Y-88240303D01*
X144660990Y-88240292D01*
X144660990Y-87595710D01*
X143733693Y-87595710D01*
X143768915Y-87534703D01*
X143802990Y-87407536D01*
X143802990Y-87275884D01*
X143768915Y-87148717D01*
X143733693Y-87087710D01*
X144660990Y-87087710D01*
X144660990Y-86954401D01*
X144678583Y-86906063D01*
X144723132Y-86880343D01*
X144773790Y-86889276D01*
G37*
%TD.AperFunction*%
%TA.AperFunction,Conductor*%
G36*
X143276900Y-71532610D02*
G01*
X143281073Y-71535205D01*
X143360538Y-71588302D01*
X143510834Y-71650556D01*
X143535231Y-71666858D01*
X143818260Y-71949887D01*
X143818289Y-71949918D01*
X143958204Y-72089833D01*
X143958207Y-72089835D01*
X143958210Y-72089838D01*
X144120538Y-72198302D01*
X144120539Y-72198302D01*
X144120540Y-72198303D01*
X144151337Y-72211059D01*
X144175734Y-72227361D01*
X147256874Y-75308501D01*
X147278614Y-75355121D01*
X147278900Y-75361675D01*
X147278900Y-78171649D01*
X147278899Y-78171662D01*
X147278899Y-78370000D01*
X147316987Y-78561479D01*
X147316988Y-78561481D01*
X147359172Y-78663322D01*
X147359172Y-78663323D01*
X147372356Y-78695153D01*
X147374599Y-78746544D01*
X147343284Y-78787353D01*
X147293064Y-78798487D01*
X147288210Y-78797685D01*
X147238563Y-78787810D01*
X147238561Y-78787810D01*
X147114639Y-78787810D01*
X147114638Y-78787810D01*
X146993101Y-78811985D01*
X146993098Y-78811986D01*
X146878610Y-78859408D01*
X146775569Y-78928258D01*
X146775566Y-78928260D01*
X146687950Y-79015876D01*
X146687946Y-79015882D01*
X146678920Y-79029390D01*
X146637438Y-79059806D01*
X146616395Y-79062810D01*
X146316631Y-79062810D01*
X146316615Y-79062809D01*
X146312012Y-79062809D01*
X146218776Y-79062809D01*
X146147748Y-79081841D01*
X146142427Y-79083266D01*
X146128719Y-79086939D01*
X146128714Y-79086942D01*
X146047972Y-79133558D01*
X146047970Y-79133559D01*
X146015007Y-79166523D01*
X145982043Y-79199487D01*
X145982041Y-79199489D01*
X144416979Y-80764551D01*
X144416977Y-80764553D01*
X144384527Y-80797003D01*
X144351049Y-80830480D01*
X144351048Y-80830482D01*
X144304430Y-80911227D01*
X144301868Y-80920789D01*
X144280299Y-81001286D01*
X144280299Y-81001288D01*
X144280299Y-81100577D01*
X144280300Y-81100590D01*
X144280300Y-81534331D01*
X144262707Y-81582669D01*
X144258274Y-81587505D01*
X142411905Y-83433874D01*
X142365285Y-83455614D01*
X142358731Y-83455900D01*
X141846421Y-83455900D01*
X141798083Y-83438307D01*
X141772363Y-83393758D01*
X141781296Y-83343100D01*
X141793247Y-83327526D01*
X142072725Y-83048048D01*
X142914828Y-82205943D01*
X142914838Y-82205936D01*
X142986947Y-82133827D01*
X142986951Y-82133823D01*
X143033569Y-82053078D01*
X143036942Y-82040489D01*
X143057701Y-81963018D01*
X143057701Y-81869782D01*
X143057701Y-81865180D01*
X143057700Y-81865162D01*
X143057700Y-81325670D01*
X143075293Y-81277332D01*
X143079716Y-81272505D01*
X143093351Y-81258871D01*
X143139969Y-81178126D01*
X143164100Y-81088066D01*
X143164100Y-71597735D01*
X143181693Y-71549397D01*
X143226242Y-71523677D01*
X143276900Y-71532610D01*
G37*
%TD.AperFunction*%
%TD*%
M02*
