%TF.GenerationSoftware,KiCad,Pcbnew,9.0.0*%
%TF.CreationDate,2025-04-14T11:35:23+05:30*%
%TF.ProjectId,esp32_quad_baro_bootser_nousb_BMP,65737033-325f-4717-9561-645f6261726f,rev?*%
%TF.SameCoordinates,Original*%
%TF.FileFunction,Soldermask,Bot*%
%TF.FilePolarity,Negative*%
%FSLAX46Y46*%
G04 Gerber Fmt 4.6, Leading zero omitted, Abs format (unit mm)*
G04 Created by KiCad (PCBNEW 9.0.0) date 2025-04-14 11:35:23*
%MOMM*%
%LPD*%
G01*
G04 APERTURE LIST*
G04 Aperture macros list*
%AMRoundRect*
0 Rectangle with rounded corners*
0 $1 Rounding radius*
0 $2 $3 $4 $5 $6 $7 $8 $9 X,Y pos of 4 corners*
0 Add a 4 corners polygon primitive as box body*
4,1,4,$2,$3,$4,$5,$6,$7,$8,$9,$2,$3,0*
0 Add four circle primitives for the rounded corners*
1,1,$1+$1,$2,$3*
1,1,$1+$1,$4,$5*
1,1,$1+$1,$6,$7*
1,1,$1+$1,$8,$9*
0 Add four rect primitives between the rounded corners*
20,1,$1+$1,$2,$3,$4,$5,0*
20,1,$1+$1,$4,$5,$6,$7,0*
20,1,$1+$1,$6,$7,$8,$9,0*
20,1,$1+$1,$8,$9,$2,$3,0*%
%AMHorizOval*
0 Thick line with rounded ends*
0 $1 width*
0 $2 $3 position (X,Y) of the first rounded end (center of the circle)*
0 $4 $5 position (X,Y) of the second rounded end (center of the circle)*
0 Add line between two ends*
20,1,$1,$2,$3,$4,$5,0*
0 Add two circle primitives to create the rounded ends*
1,1,$1,$2,$3*
1,1,$1,$4,$5*%
G04 Aperture macros list end*
%ADD10O,2.540000X1.524000*%
%ADD11RoundRect,0.250000X-0.650000X0.350000X-0.650000X-0.350000X0.650000X-0.350000X0.650000X0.350000X0*%
%ADD12O,1.800000X1.200000*%
%ADD13C,1.400000*%
%ADD14RoundRect,0.225000X-0.176777X0.494975X-0.494975X0.176777X0.176777X-0.494975X0.494975X-0.176777X0*%
%ADD15HorizOval,0.900000X-0.176777X0.176777X0.176777X-0.176777X0*%
%ADD16RoundRect,0.225000X0.176777X-0.494975X0.494975X-0.176777X-0.176777X0.494975X-0.494975X0.176777X0*%
%ADD17R,1.700000X1.700000*%
%ADD18O,1.700000X1.700000*%
%ADD19RoundRect,0.225000X0.494975X0.176777X0.176777X0.494975X-0.494975X-0.176777X-0.176777X-0.494975X0*%
%ADD20HorizOval,0.900000X0.176777X0.176777X-0.176777X-0.176777X0*%
%ADD21RoundRect,0.225000X-0.494975X-0.176777X-0.176777X-0.494975X0.494975X0.176777X0.176777X0.494975X0*%
%ADD22HorizOval,0.900000X-0.176777X-0.176777X0.176777X0.176777X0*%
%ADD23R,0.500000X0.350000*%
%ADD24RoundRect,0.225000X0.225000X0.250000X-0.225000X0.250000X-0.225000X-0.250000X0.225000X-0.250000X0*%
%ADD25RoundRect,0.218750X-0.256250X0.218750X-0.256250X-0.218750X0.256250X-0.218750X0.256250X0.218750X0*%
%ADD26RoundRect,0.200000X-0.200000X-0.275000X0.200000X-0.275000X0.200000X0.275000X-0.200000X0.275000X0*%
%ADD27RoundRect,0.200000X0.275000X-0.200000X0.275000X0.200000X-0.275000X0.200000X-0.275000X-0.200000X0*%
%ADD28RoundRect,0.225000X0.250000X-0.225000X0.250000X0.225000X-0.250000X0.225000X-0.250000X-0.225000X0*%
%ADD29RoundRect,0.200000X-0.275000X0.200000X-0.275000X-0.200000X0.275000X-0.200000X0.275000X0.200000X0*%
G04 APERTURE END LIST*
D10*
%TO.C,U2*%
X122967000Y-69660000D03*
X122967000Y-73470000D03*
X140747000Y-73470000D03*
X140747000Y-65850000D03*
%TD*%
D11*
%TO.C,J1*%
X151590000Y-94450000D03*
D12*
X151590000Y-96450000D03*
%TD*%
D13*
%TO.C,SW1*%
X153390000Y-88460000D03*
X153390000Y-82160000D03*
%TD*%
D14*
%TO.C,J5*%
X112697260Y-68502530D03*
D15*
X111813377Y-69386413D03*
%TD*%
D16*
%TO.C,J4*%
X148656117Y-104223883D03*
D15*
X149540000Y-103340000D03*
%TD*%
D17*
%TO.C,J8*%
X118358920Y-87313770D03*
D18*
X118358920Y-89853770D03*
X118358920Y-92393770D03*
X118358920Y-94933770D03*
X118358920Y-97473770D03*
X118358920Y-100013770D03*
%TD*%
D19*
%TO.C,J6*%
X149100540Y-68442840D03*
D20*
X148216657Y-67558957D03*
%TD*%
D21*
%TO.C,J2*%
X112712500Y-104505760D03*
D22*
X113596383Y-105389643D03*
%TD*%
D17*
%TO.C,J9*%
X143302990Y-87341710D03*
D18*
X143302990Y-89881710D03*
X143302990Y-92421710D03*
X143302990Y-94961710D03*
X143302990Y-97501710D03*
X143302990Y-100041710D03*
%TD*%
D23*
%TO.C,U1*%
X110000000Y-94680000D03*
X110000000Y-95330000D03*
X110000000Y-95980000D03*
X110000000Y-96630000D03*
X111600000Y-96630000D03*
X111600000Y-95980000D03*
X111600000Y-95330000D03*
X111600000Y-94680000D03*
%TD*%
D24*
%TO.C,C7*%
X111040000Y-91610000D03*
X109490000Y-91610000D03*
%TD*%
D25*
%TO.C,LED7*%
X109610000Y-84275000D03*
X109610000Y-85850000D03*
%TD*%
D26*
%TO.C,R4*%
X109490000Y-99890000D03*
X111140000Y-99890000D03*
%TD*%
D27*
%TO.C,R5*%
X112620000Y-99900000D03*
X112620000Y-98250000D03*
%TD*%
D28*
%TO.C,C6*%
X111190000Y-88870000D03*
X111190000Y-87320000D03*
%TD*%
D29*
%TO.C,R30*%
X109580000Y-87330000D03*
X109580000Y-88980000D03*
%TD*%
%TO.C,R31*%
X151810000Y-89395000D03*
X151810000Y-91045000D03*
%TD*%
D25*
%TO.C,LED8*%
X151840000Y-86440000D03*
X151840000Y-88015000D03*
%TD*%
D26*
%TO.C,R6*%
X109480000Y-98340000D03*
X111130000Y-98340000D03*
%TD*%
%TO.C,R3*%
X109420000Y-93140000D03*
X111070000Y-93140000D03*
%TD*%
M02*
